<?xml version="1.0" encoding="utf-8"?>
<!-- Generator: Adobe Illustrator 23.0.3, SVG Export Plug-In . SVG Version: 6.00 Build 0)  -->
<svg version="1.1" id="bet1" xmlns="http://www.w3.org/2000/svg" xmlns:xlink="http://www.w3.org/1999/xlink" x="0px" y="0px"
	 viewBox="0 0 140 100" style="enable-background:new 0 0 140 100;" xml:space="preserve">
<style type="text/css">
	.st0{fill:#E8E8E8;stroke:#D69B3A;stroke-width:3.7153;stroke-miterlimit:10;}
	.st1{fill:#1E1E1E;}
	.st2{opacity:0.56;fill:#999999;enable-background:new    ;}
	.st3{opacity:0.99;fill:#8A6454;enable-background:new    ;}
	.st4{fill:#CF743C;}
	.st5{fill:#52261F;}
	.st6{fill:#E8B797;}
	.st7{fill:#ECEBEB;}
	.st8{fill:#2A2A2A;}
	.st9{fill:#673F19;}
	.st10{fill:#DA6026;}
	.st11{fill:#F3F2F2;}
	.st12{fill:#D7D9D7;}
</style>
<g id="clickHorse">
</g>
<g>
	<g>
		<path class="st0" d="M70.3,7.7c-35,0-63.5,29.5-63.5,65.8c0,8.7,1.6,17,4.6,24.6h117.7c3-7.6,4.6-15.9,4.6-24.6
			C133.7,37.2,105.3,7.7,70.3,7.7z"/>
	</g>
	<g>
		<g>
			<path class="st1" d="M36.5,51.2c-2-0.6-4.1-1.4-6.1-1.9c-3.7-1-7,0-10.3,1.7c-1.5,0.8-3,1.8-4.3,3c-1.5,1.4-2.5,3.1-2.5,5.4
				c1-1.3,1.5-2.9,3.2-3.5c-0.5,1-0.9,1.9-1.4,2.8c0.1,0.1,0.1,0.1,0.3,0.2c2.5-2,5.3-3.4,8.6-2.8c-0.9,0.3-1.8,0.5-2.7,0.8
				c-0.8,0.3-1.6,0.8-2.3,1.3c-0.7,0.5-1.7,0.7-1.9,2.1c3.2-1.8,6.5-2.1,9.9-2.2c0,0.1,0.1,0.3,0.1,0.4c-0.5,0.2-1.1,0.4-1.6,0.7
				c0,0.1,0,0.2,0.1,0.3c1.5-0.2,3-0.4,4.8-0.6c-0.6,1.3-0.5,2.3,0.9,2.9c0.1-0.6,0.2-1.1,0.4-1.6c0.2-0.4,0.5-0.9,0.8-1
				c1.3-0.3,2.8-0.6,4.2-0.9c0,0.5,0.2-4.1,3.1-7.2C38.9,51.7,38.2,51.7,36.5,51.2z"/>
			<g>
				<path class="st1" d="M93,36c2.5-2.1,3-2.8,4.7-3.4c1.1-0.4,2.6-0.3,3.3,0.2c-1.1-0.9-2.5-1.4-3.9-2.1c0,0,0,0-0.1,0
					c-0.3,0-3-0.6-3.2-0.6c-0.1,0,0.3,0.2,0.8,0.5c0.8,0.5,2,1.1,2,1.2c-1.1,0.1-3.4-0.2-5.7-0.4c-2.8-0.3-4-1.1-4-1.1
					c0,0.1,2,1.8,2.8,2.2c0.1,0.1,0.3,0.2,0.4,0.3l-1.6-0.2l-0.9-0.2l-0.4-0.1l-0.3-0.1l-0.3-0.1l-0.3-0.1l-0.4-0.2l-0.3-0.2
					l-0.3-0.2l-0.2-0.2l-0.1-0.2l-0.1-0.2c-0.2,1,0.8,1.8,1.3,2.3c1,0.9,1.9,1,2,1.3c-0.6,0.2-1.2,0.3-1.9,0.4c-0.4,0-1,0.2-1.3,0.2
					c0,0-0.3,0-0.6-0.1c-0.2,0-0.3-0.1-0.5-0.1c-0.3-0.1-0.6-0.3-0.6-0.3s0.2,0.2,0.4,0.4c0.2,0.2,0.5,0.3,0.6,0.4
					c0.1,0.1,0.3,0.1,0.5,0.1c0.3,0.1,0.5,0.1,0.8,0.1c0.1,0,0.5-0.1,0.6,0l3.6-0.1c-0.5,0.2-1.1,0.3-1.6,0.4
					c-0.6,0.1-1.2,0.1-1.8,0.3c-0.4,0.1-0.8,0.5-1.2,0.7c0.3,0.1,0.6,0.2,1.1,0.4c-1.8,0.5-3.5,0.7-4.8,1.8c1.6,0.2,3,0.3,4.4,0.5
					c0,0.1,0,0.1,0,0.2c-1.5,0.1-2.9,0.3-4.4,0.4c-0.3,0.1-0.8,0.1-1.3,0.2c0.5,0.1,2.3,0.3,2.8,0.3c-0.6,0.2-1.7,0.3-1.8,0.3
					c-1.5,0.3-3.3,0.3-4.8,0.1c0,0,0.1,0.1,0.1,0.1c1.1,1,2.6,0.9,3.9,1.6c-1.5,0.1-2.8,0.3-4.1,0.4c-0.1,0-0.3,0-0.5,0
					c0,0,0,0.1,0,0.1c0,0.1,0,0.1,0.1,0.2c0.6,0.4,1.3,0.5,1.8,1c0.1,0.1,0.1,0.1,0.1,0.2c0,0,0,0,0,0c0,0.1,0.1,0.1,0.1,0.2
					c0,0.1,0,0.3,0,0.5c-0.1,0.4-0.4,0.5-0.6,0.9c0,0,0,0,0,0c0,0,0,0,0,0s0,0,0,0c0,0,0,0,0,0c-0.5,0.7-1.1,1.1-1.8,1.4
					c3.2-0.8,5.9-2.9,7.4-3.8C86.4,41.9,86.7,41.2,93,36z"/>
				<path class="st2" d="M74.7,48.1c0,0,0.1,0,0.1,0.1c0.2-0.1,0.4-0.1,0.6-0.3C75.3,47.9,75,48,74.7,48.1z"/>
				<path class="st1" d="M99.6,81.1c-1.2,1.9-0.9,3.2,1.3,4.4c0.4-0.9,0.9-1.7,1.1-2.6C101.1,82.4,100.3,81.7,99.6,81.1
					C99.6,81,99.6,81.1,99.6,81.1z"/>
				<path class="st1" d="M94.6,93.8c0.3,0.4,0.6,0.9,1,1c1,0.1,2.1,0.1,3.3,0.1c-0.5-1.4-1.2-2.2-2.2-2.7c0,0-0.1,0-0.1-0.1
					c-0.9,0.2-1.7,0.6-2.4,1.1C94.3,93.4,94.4,93.6,94.6,93.8z"/>
				<path class="st1" d="M22.3,91.7c-1.1,1.4-1.2,2.6-0.2,4.3c1.3-0.6,1.8-1.6,2.1-2.9c0-0.2,0.1-0.4,0.1-0.7
					C23.6,92.2,23,92,22.3,91.7C22.3,91.7,22.3,91.7,22.3,91.7z"/>
				<path class="st3" d="M111.2,46.5c-0.9-1.4-1.8-2.7-2.8-4c-1.4-1.9-2.8-3.8-4.2-5.7c-0.6-0.8-1.4-1.5-1.8-2.4
					c-0.4-0.7-0.8-1.2-1.3-1.6c-0.7-0.5-2.2-0.6-3.3-0.2C96,33.3,95.5,34,93,36c-6.3,5.1-6.6,5.9-10.1,8.1c-1.5,0.9-4.2,2.9-7.4,3.8
					c-0.2,0.1-0.4,0.2-0.6,0.3c-0.3,0.1-0.5,0.1-0.8,0.2c0,0-10,0.6-10.1,0.6c-0.8-0.1-1.5-0.1-2.2-0.1c-0.9-0.1-1.8-0.1-2.7-0.3
					c-2-0.4-4-1.3-6-1.6c-3.8-0.6-7.4,0.2-10.8,1.6c-0.5,0.2-2.1,2.2-2.4,2.5c-2.6,2.9-3,6-3.2,8.7c0,2.1,0,4.1,0,6.1
					c0,2.2-0.6,4.3-2.3,5.9c-1.3,1.3-2.8,2.3-4.5,3c-0.5,0.2-1,0.6-1.2,1.2c-1.5,3.1-3.1,6.3-4.4,9.5c-0.8,1.8-1.9,3.6-1.6,5.7
					c0,0.2-0.1,0.4-0.3,0.6c0.6,0.3,1.3,0.5,1.9,0.8c0.6-3.2,1.8-6.3,3.8-9c0.6-0.9,1.5-1.6,2.1-2.5c1.2-1.8,2.8-3,4.8-3.8
					c1.3-0.5,2.5-1.3,3.7-1.9c1.1-0.6,2.3-1.1,3.5-1.6c0.1,0.1,0.1,0.1,0.3,0.3c-1,1.7-1.8,3.4-2.9,5c-0.5,0.8-0.8,1.6-0.6,2.5
					c0.2,0.9,0.6,1.8,1,2.7c1.3,2.9,2.7,5.7,3.9,8.6c0.5,1.1,0.8,1.7,2.1,1.4c0.6-0.1,1.1,0,1.5,0.3c0.6-0.8,1.2-1.3,2-1.6
					c-0.2-0.1-0.4-0.2-0.5-0.3c-0.8-0.4-1.4-1-2.1-1.5c-1.5-0.9-1.6-2.7-2.5-4c-0.9-1.4-1.2-2.9-1.2-4.4c0-1.7,0.6-3,2-4.1
					c2.8-2.3,4.6-5.7,7.6-7.8c0.1-0.1,0.2-0.3,0.4-0.5C54,69.2,55,68,55.8,67c2.1,0.9,4.2,1.7,6.4,2.6c2.6,1,5.1,1.9,8,1.8
					c3.2,0,6.4,0.3,9.6,0.4c1.3,0,2.1,0.5,3.1,1.5c1.9,1.9,3.1,4.1,3.8,6.7c0.3,0.8,0.9,1.6,1.4,2.3c1.4,2,2.7,4.1,3.1,6.6
					c0.3,1.5,0.9,2.7,2.3,3.6c0.3,0.2,0.5,0.4,0.7,0.8c0.7-0.5,1.6-0.8,2.4-1.1c-1.1-0.7-1.7-1.8-2.1-3c-0.5-1.6-1.2-3.1-1.9-4.6
					c-0.5-1.2-1.2-2.4-1.7-3.7c-0.5-1.3-0.7-2.7-1.1-4c-0.7-1.9-1.3-3.9-1.3-5.9c3.3-1.5,6.6-0.9,9.8-0.9c1.1,1.9,1.3,3.8,1.2,5.8
					c0,1,0.3,2.1,0.3,3.1c0,0.7,0.1,1.5-0.2,2c0.7,0.7,1.5,1.4,2.3,1.9c0-0.1,0.1-0.3,0.1-0.4c0.6-3.4,0.2-6.8-0.4-10.2
					c-0.3-1.6-0.6-3.1-1.2-4.6c-0.5-1.5-3.1-3.1-4.2-2.6c-2,1.1-3.5-0.4-5.4-0.8c0.4-1,0.5-2,1-2.7c1.1-1.5,1.5-3.1,1.7-4.9
					c0.1-0.7,0.2-1.4,0.3-2.1c0.1-0.5,0.2-1.1,0.4-1.6c0.3-1.3,0.9-2.4,1.3-3.7c0.5-1.6,1.3-2.8,1.2-3c0.5-0.2,1-0.6,1.4-0.6
					c1.2,0.3,2.3,0.8,3.6,1.4c-0.1,0,3.8,3,4.9,4.1c0.4,0.4,1.3,0.3,1.9,0.3c0.2,0,0.5-0.4,0.7-0.4
					C111.5,50.5,112.3,48.4,111.2,46.5z"/>
				<path class="st1" d="M47.4,94.5c0.3,0.2,0.5,0.5,0.6,0.9c0.1,0.3,0.5,0.6,0.7,0.6c0.9,0.1,1.9,0,2.8,0c0.1-0.2,0.1-0.2,0.2-0.4
					c-0.8-0.9-1.3-2-2.4-2.8C48.6,93.3,48,93.7,47.4,94.5z"/>
			</g>
		</g>
		<g>
			<path class="st4" d="M75.8,46.2C75.8,46.2,75.8,46.2,75.8,46.2C75.8,46.2,75.8,46.1,75.8,46.2c0-0.1,0-0.1,0-0.1
				c0,0-3-2.6-3.1-2.7c-0.4-0.3-0.5-0.6-0.3-1c0.3-0.8,1-3.1,1.1-3.7c0.1-0.9-0.1-1.2-0.2-1.6c0-0.3-1.1-2.3-1.9-3.3
				c-0.3-0.4-2.4-1.4-3.2-1.8c-0.4,0.7-1.8,3.5-1.8,3.5c0,0.1,0,0.1-0.1,0.1c-0.6,1.3-0.4,2.8-0.3,4.2c0,0.7,0.1,1.3,0.1,2
				c0,0.3,0,0.6,0.1,0.8c0,0.2,0.1,0.5,0,0.7c0,0.1,0,0.2-0.1,0.3l0,0c-0.1,0.1-0.2,0.1-0.3,0.1c-0.3,0.1-0.5,0.2-0.8,0.4
				c0,0-0.1,0-0.1,0.1c-0.8,0.5-1.4,1.3-1.9,2.1c-0.1,0.3-0.3,0.6-0.5,0.9c-0.6,0.8-1.5,1.2-2.5,1.3c0,0,0,0,0,0.1s0,0.1,0,0.1
				c-0.1,0.2-0.1,0.4,0,0.6c0.5,2.1,1,4.3,1.5,6.4c0.2,0.8,0.4,0.9,1.1,0.6c0.9-0.3,2.4-1.6,3.8-4.6c0.1-0.1,2.1-3.5,2.8-3.8
				c0.6-0.3,1-0.4,1.4-0.5c0.6-0.2,0.7-0.5,0.7-1.1c0-0.3-0.2-0.5-0.5-0.8c-0.6-0.5-1.3-1-1.9-1.4c-0.4-0.3-0.5-0.6-0.5-1.1
				c0.1-2.2,0.2-4.4,0.3-6.6c0-0.7,0.6-1.3,1.2-1.3c0.7,0,1.1,0.6,1.1,1.3c0,1.1-0.2,2.2-0.3,3.4c0,0.8,0,1.5-0.2,2.3
				c-0.1,0.5,0.2,0.8,0.5,1.1c1.1,0.9,2.2,1.8,3.3,2.8c0.2,0.2,0.5,0.8,0.6,1.1C75,47.1,75.8,46.2,75.8,46.2z"/>
			<path class="st5" d="M67.5,61.6c-0.2-0.3-0.5-0.3-0.9-0.4c-1.5-0.6-2.4-2-2.1-3.6c0.1-0.8,0.3-2.8,0.1-3
				c-0.6,0.7-1.3,1.3-2.3,1.6c-0.4,0.1-0.5,0-0.6-0.4c-0.6-2.4-1.2-4.7-1.7-7.1c-0.1,0-0.9-0.1-1-0.2c0,0.1,0,0.1,0,0.2
				c0,0.3,0.6,10.6,0.7,11.3c0.1,1,1.9,2.2,2.3,2.4c0.6,0.2,5.1,0.1,5.1,0.1C67.5,62.2,67.6,61.9,67.5,61.6z"/>
			<path class="st6" d="M71.7,31.9c0.1-0.2,0.3-0.3,0.7-0.2c0.4,0,0.8-0.1,1.1-0.3c0.1-0.1,0.3-0.3,0.3-0.5c0.3-0.8,0.5-1.6,0.6-2.5
				c0.3-0.9,0.2-1.1-0.6-1.3c-0.5-0.1-1-0.4-1.5-0.4c-0.2,0-0.3,0.2-0.4,0.3c-0.2,0.3-0.3,0.6-0.8,0.4c-0.3-0.2-0.7,0.2-0.6,0.6
				c0.1,0.9-0.4,1.4-0.9,2c-0.1,0.1-0.1,0.2-0.2,0.3c0,0.2-0.1,0.3-0.2,0.5c-0.1,0.2,0,0.4,0.1,0.5c0.4,0,1.6,1.6,2.3,1.6
				c0-0.1,0-0.1,0-0.1C71.5,32.3,71.6,32,71.7,31.9z"/>
			<path class="st7" d="M71.5,32.9c0,0,0-0.1,0-0.1c-0.5-0.3-2.5-1.9-2.4-2.1c0,0,0,0-0.1,0.1h0c-0.5,0.3-0.6,1-0.7,1.2
				c0.7,0.4,3.2,2,3.2,1.8C71.4,33.7,71.5,33,71.5,32.9z"/>
			<path class="st8" d="M70,67.3c-0.3-0.3-0.5-0.4-1-0.6c-0.2-0.1-0.5-0.4-0.7-0.4c0.4-0.9,4.8-8.3,5.2-8.8c0-0.1,0-0.1-0.1-0.2
				c-1.1-0.7-2.5-0.8-3.8-0.6c-0.4,0.1-3.6,9.6-3.7,9.6c-0.1,0.2-0.1,0.4-0.2,0.6c0,0-0.1,0.5-0.1,0.6c0,0,0.4,0.3,0.6,0.4
				c0.2,0.1,0.5,0.1,0.8,0c0.3-0.1,0.6,0.2,0.6,0.2c0,0,2.5,0.6,2.6,0.6C70.2,68.5,70.4,67.9,70,67.3z"/>
			<path class="st9" d="M70.1,25.7L70.1,25.7c-0.4-0.5-0.9-0.3-1.3,0c-0.2,0.2-0.3,0.4-0.5,0.6c-0.2,0.6-0.3,1.2,0.4,1.5
				c-0.1,0.6,0,1.2,0.2,1.8c0,0,0,0,0,0.1c0.1,0.1,0.1,0.3,0.2,0.4c0,0,0,0,0,0c0,0.1,0.1,0.1,0.1,0.2c0.5-0.3,0.8-0.9,1.3-1.4
				c0.1-0.2,0-0.3,0-0.4c-0.1-0.3-0.1-0.7,0.1-0.9c0.3-0.3,0.5-0.2,0.7,0.1c0.1,0.1,0.2,0,0.2-0.1c0.2-0.3,0.4-0.5,0.5-0.8
				C71.5,26.4,70.8,26,70.1,25.7z"/>
			<path class="st5" d="M77.1,54.3L77.1,54.3c0-0.2-1-5.3-0.9-5.9c-0.4,0.1-1.7,0.2-3.7,0.4c0.2,0.2,2.7,4.8,2.8,5.1
				c0.3,0.7,0.7,1.4,0.8,2.2c0.2,1.3-0.2,2.5-1,3.4c-0.3,0.3-0.8,0.6-1.1,0.9c-0.1,0.1-2.2,0.9-2.8,0.9c-0.2,0.3-0.4,0.6-0.7,1.1
				c2.4-0.4,4.1-1.1,4.9-1.5c0.8-0.5,1.4-1.6,1.6-2c0,0,0,0,0,0c0.3-0.8,0.4-1.8,0.4-1.8C77.4,55.6,77.1,54.3,77.1,54.3z"/>
			<path class="st10" d="M75.2,46.8c0.1-0.3-0.1-0.5-0.3-0.7c-1.3-1.1-2.5-2.1-3.8-3.2c-0.3-0.2-0.4-0.5-0.3-0.8
				c0.2-1.9,0.3-3.8,0.5-5.7c0.1-0.7-0.5-1.4-1.3-1.4c-0.7,0-1.4,0.5-1.4,1.2c-0.1,1.3-0.1,2.6-0.2,3.9c0,1,0,2-0.1,3
				c0,0.5,0.1,0.8,0.5,1c0.7,0.5,1.4,1.1,2.1,1.6c0.2,0.1,0.2,0.2,0.5,0.5c0.8,0.5,1.5,1,2.2,1.6c0.6,0.4,0.7,0.4,1.1-0.1
				C74.8,47.2,75,47.1,75.2,46.8z"/>
			<path class="st1" d="M69.5,56.8c-0.6-1.2-1-2.4-1.5-3.6c-0.1-0.2-0.2-0.5-0.3-0.7c-0.1,0-0.6-1.6-0.8-1.9c-0.1,0.1-2.1,3.7-2.3,4
				c-0.1,1.1-0.2,2.1-0.3,3.2c-0.2,1.4,0.7,3.4,3.2,3.9C67.8,60.9,69.4,57,69.5,56.8z"/>
			<path class="st11" d="M74.5,47.6c-0.3,0.5-0.6,0.5-1,0.1c-0.6-0.5-1.2-1-1.9-1.4c-0.1-0.1-0.3-0.4-0.5-0.1c-0.1,0.4,0,1-0.7,1.1
				c-0.4,0-0.7,0.2-1.1,0.4c-0.8,0.3-2.1,2.5-2.4,2.9c0,0.4,0.2,0.8,0.3,1.2c0.1,0.3,0.2,0.6,0.3,0.8c0.5,1.2,0.9,2.4,1.4,3.5
				c0.1,0.3,0.2,0.6,0.5,0.7c1.3-0.2,2.6,0.1,3.9,0.5c0-0.6-0.2-1-0.3-1.6c-0.3-1.2-0.7-2.4-1-3.6c-0.2-0.7-0.6-2.1-0.8-3.2
				c0.6-0.5,4.3-0.2,4.7-0.6C75.9,48.2,74.7,48.2,74.5,47.6z"/>
			<path class="st1" d="M71.4,49c0.5,2.4,2.2,7.8,2.1,8.4c-0.4,0.8-2,3.2-2.3,3.8c0.4,0,3-0.7,3.7-1.7c1.3-1.3,1.6-2.9,0.9-4.9
				c-0.1-0.3-3.1-5.9-3.3-5.9C71.6,48.7,71.4,49,71.4,49z"/>
			<g>
				<path class="st12" d="M68.6,66.3c0,0-0.2-0.1-0.2-0.1c-0.2,0.1-0.6,1.6-0.6,1.7l0.2,0.1C67.9,68,68.6,66.3,68.6,66.3z"/>
			</g>
			<path class="st1" d="M77.3,47.7L77.3,47.7c-0.1-0.1-0.3-0.5-0.3-0.5l0,0c0,0,0-0.4-0.1-0.6c0,0-0.9-0.3-1.1-0.4l0,0c0,0,0,0,0,0
				s0,0,0,0l0,0c-0.3,0.3-0.4,0.4-0.6,0.7c-0.3,0.3-0.4,0.6-0.6,0.8c-0.1,0.2,0.3,0.4,0.9,0.6c0.2,0.1,0.4,0.2,0.6,0.2
				c0.1,0,0.1,0,0.2,0c0,0,0,0,0,0c0-0.1,0.1,0,0.1,0c0,0,0.5,0.3,0.6,0.3l0,0c0,0,0.1,0,0.1,0s0,0,0,0
				C78.1,48.2,77.3,47.8,77.3,47.7z"/>
			<path class="st1" d="M75.6,27.2c0.1-0.3,0.1-0.8,0.1-1.4c0-2.1-1.1-3.2-3-3.4c-1.8-0.3-3.3,0.4-3.7,1.4c-0.3,0.7-0.5,2-0.5,2.3
				c1.3,0.4,2.9,1.1,4.4,1.4c1.2,0.3,2.5,0.6,3.6,0.8C76.4,28.1,75.9,27.4,75.6,27.2z"/>
		</g>
	</g>
</g>
</svg>
