<?xml version="1.0" encoding="utf-8"?>
<!-- Generator: Adobe Illustrator 23.0.3, SVG Export Plug-In . SVG Version: 6.00 Build 0)  -->
<svg version="1.1" id="bet2" xmlns="http://www.w3.org/2000/svg" xmlns:xlink="http://www.w3.org/1999/xlink" x="0px" y="0px"
	 viewBox="0 0 140 100" style="enable-background:new 0 0 140 100;" xml:space="preserve">
<style type="text/css">
	.st0{fill:#E8E8E8;stroke:#D69B3A;stroke-width:3.7153;stroke-miterlimit:10;}
	.st1{fill:#8B7357;}
	.st2{opacity:0.56;fill:#999999;enable-background:new    ;}
	.st3{fill:#1E1E1E;}
	.st4{fill:#121F29;}
	.st5{fill:#CF743C;}
	.st6{fill:#E8B797;}
	.st7{fill:#3D3E3B;}
	.st8{fill:#262626;}
	.st9{fill:#ECEBEB;}
	.st10{fill:#2A2A2A;}
	.st11{fill:#52261F;}
	.st12{fill:#3D3D3B;}
	.st13{fill:#995534;}
	.st14{fill:#F3F2F2;}
	.st15{fill:#D7D9D7;}
</style>
<g id="clickHorse">
</g>
<g>
	<g>
		<path class="st0" d="M69.8,7.7c-35,0-63.5,29.5-63.5,65.8c0,8.7,1.6,17,4.6,24.6h117.7c3-7.6,4.6-15.9,4.6-24.6
			C133.3,37.1,104.9,7.7,69.8,7.7z"/>
	</g>
	<g>
		<g>
			<path class="st1" d="M35.1,51.3c-2-0.6-4.1-1.4-6.1-1.9c-3.7-1-7,0-10.3,1.7c-1.5,0.8-3,1.8-4.3,3c-1.5,1.4-2.5,3.1-2.5,5.4
				c1-1.3,1.5-2.9,3.2-3.5c-0.5,1-0.9,1.9-1.4,2.8c0.1,0.1,0.1,0.1,0.3,0.2c2.5-2,5.3-3.4,8.6-2.8c-0.9,0.3-1.8,0.5-2.7,0.8
				c-0.8,0.3-1.6,0.8-2.3,1.3c-0.7,0.5-1.7,0.7-1.9,2c3.2-1.8,6.5-2.1,9.9-2.2c0,0.1,0.1,0.3,0.1,0.4c-0.5,0.2-1.1,0.4-1.6,0.7
				c0,0.1,0,0.2,0.1,0.3c1.5-0.2,3-0.4,4.8-0.6c-0.6,1.3-0.5,2.3,0.9,2.9c0.1-0.6,0.2-1.1,0.4-1.6c0.2-0.4,0.5-0.9,0.8-1
				c1.3-0.3,2.8-0.6,4.2-0.9c0,0.5,0.2-4.1,3.1-7.2C37.5,51.8,36.8,51.8,35.1,51.3z"/>
			<g>
				<path class="st1" d="M91.6,36.1c2.5-2.1,3-2.8,4.7-3.4c1.1-0.4,2.6-0.3,3.3,0.2c-1.1-0.9-2.5-1.4-3.9-2.1c0,0,0,0-0.1,0
					c-0.3,0-3-0.5-3.2-0.5c-0.1,0,0.3,0.2,0.8,0.5c0.8,0.5,2,1.1,2,1.2c-1.1,0.1-3.4-0.2-5.7-0.4c-2.8-0.3-4-1.1-4-1.1
					c0,0,2,1.8,2.8,2.2c0.1,0.1,0.3,0.2,0.4,0.3l-1.6-0.1l-0.9-0.2l-0.4-0.1l-0.3-0.1l-0.3-0.1l-0.3-0.1l-0.4-0.2L84.4,32l-0.3-0.2
					L84,31.6l-0.1-0.1l-0.1-0.2c-0.2,1,0.8,1.8,1.3,2.3c1,0.9,1.9,1,2,1.3c-0.6,0.2-1.2,0.3-1.9,0.4c-0.4,0-1,0.2-1.3,0.2
					c0,0-0.3,0-0.6,0c-0.2,0-0.3-0.1-0.5-0.1c-0.3-0.1-0.6-0.3-0.6-0.3s0.2,0.2,0.4,0.4c0.2,0.2,0.5,0.3,0.6,0.4
					c0.1,0.1,0.3,0.1,0.5,0.1c0.3,0,0.5,0.1,0.8,0.1c0.1,0,0.5,0,0.6,0l3.6-0.1c-0.5,0.2-1.1,0.3-1.6,0.4c-0.6,0.1-1.2,0.1-1.8,0.3
					c-0.4,0.1-0.8,0.5-1.2,0.7c0.3,0.1,0.6,0.2,1.1,0.4c-1.8,0.5-3.5,0.7-4.8,1.8c1.6,0.2,3,0.3,4.4,0.5c0,0.1,0,0.1,0,0.2
					c-1.5,0.1-2.9,0.3-4.4,0.4c-0.3,0.1-0.8,0.1-1.3,0.2c0.5,0.1,2.3,0.3,2.8,0.3c-0.6,0.2-1.7,0.3-1.8,0.3
					c-1.5,0.3-3.3,0.3-4.8,0.1c0,0,0.1,0.1,0.1,0.1c1.1,1,2.6,0.9,3.9,1.6c-1.5,0.1-2.8,0.3-4.1,0.4c-0.1,0-0.3,0-0.5,0
					c0,0,0,0.1,0,0.1c0,0,0,0.1,0.1,0.2c0.6,0.4,1.3,0.5,1.8,1c0.1,0.1,0.1,0.1,0.1,0.2c0,0,0,0,0,0c0,0,0.1,0.1,0.1,0.2
					c0,0.1,0,0.3,0,0.5c-0.1,0.4-0.4,0.5-0.6,0.9c0,0,0,0,0,0c0,0,0,0,0,0s0,0,0,0c0,0,0,0,0,0c-0.5,0.7-1.1,1.1-1.8,1.4
					c3.1-0.8,5.9-2.9,7.4-3.8C85,42,85.3,41.3,91.6,36.1z"/>
				<path class="st2" d="M73.4,48.2c0,0,0.1,0,0.1,0c0.2-0.1,0.4-0.1,0.6-0.3C73.9,48,73.6,48.1,73.4,48.2z"/>
				<path class="st1" d="M98.2,81.2c-1.2,1.9-0.9,3.2,1.3,4.4c0.4-0.9,0.9-1.7,1.1-2.5C99.7,82.5,98.9,81.8,98.2,81.2
					C98.2,81.1,98.2,81.2,98.2,81.2z"/>
				<path class="st1" d="M93.2,93.9c0.3,0.4,0.6,1,1,1c1,0.1,2.1,0,3.3,0c-0.5-1.4-1.2-2.2-2.2-2.7c0,0-0.1,0-0.1-0.1
					c-0.9,0.2-1.7,0.6-2.4,1.1C92.9,93.5,93,93.7,93.2,93.9z"/>
				<path class="st1" d="M20.9,91.8c-1.1,1.4-1.2,2.6-0.2,4.3c1.3-0.6,1.8-1.6,2.1-2.9c0-0.2,0.1-0.4,0.1-0.7
					C22.2,92.3,21.6,92,20.9,91.8C20.9,91.8,20.9,91.8,20.9,91.8z"/>
				<path class="st3" d="M109.8,46.6c-0.9-1.4-1.8-2.7-2.8-4c-1.4-1.9-2.8-3.8-4.2-5.7c-0.6-0.8-1.4-1.5-1.8-2.4
					c-0.4-0.7-0.8-1.2-1.3-1.6c-0.7-0.5-2.2-0.5-3.3-0.2c-1.7,0.6-2.2,1.3-4.7,3.4c-6.3,5.1-6.6,5.9-10.1,8.1
					c-1.5,0.9-4.2,2.9-7.4,3.8c-0.2,0.1-0.4,0.2-0.6,0.3c-0.3,0.1-0.5,0.1-0.8,0.2c0,0-10,0.6-10.1,0.5c-0.8-0.1-1.5-0.1-2.2-0.1
					c-0.9-0.1-1.8-0.1-2.7-0.3c-2-0.4-4-1.3-6-1.6c-3.8-0.6-7.4,0.2-10.8,1.6c-0.5,0.2-2.1,2.2-2.4,2.5c-2.6,2.9-3,6-3.2,8.7
					c0,2.1,0,4.1,0,6.1c0,2.2-0.6,4.3-2.3,5.9c-1.3,1.3-2.7,2.3-4.5,3c-0.5,0.2-1,0.6-1.2,1.2c-1.5,3.1-3.1,6.3-4.4,9.5
					c-0.8,1.8-1.9,3.6-1.6,5.7c0,0.2-0.1,0.5-0.3,0.6c0.6,0.3,1.3,0.5,1.9,0.8c0.6-3.2,1.8-6.3,3.8-9c0.6-0.9,1.5-1.6,2.1-2.5
					c1.2-1.8,2.8-3,4.8-3.8c1.3-0.5,2.5-1.3,3.7-1.9c1.1-0.5,2.3-1,3.5-1.6c0.1,0.1,0.1,0.1,0.3,0.3c-1,1.7-1.8,3.4-2.9,5
					c-0.5,0.8-0.8,1.6-0.6,2.5c0.2,0.9,0.6,1.8,1,2.7c1.3,2.9,2.7,5.7,3.9,8.6c0.5,1.1,0.8,1.7,2.1,1.5c0.6-0.1,1.1,0,1.5,0.3
					c0.6-0.8,1.2-1.3,2-1.6c-0.2-0.1-0.4-0.2-0.5-0.3c-0.8-0.4-1.4-1-2.1-1.5c-1.5-1-1.6-2.7-2.5-4c-0.9-1.4-1.2-2.9-1.2-4.4
					c0-1.7,0.6-3,2-4.1c2.8-2.3,4.6-5.7,7.6-7.8c0.1-0.1,0.2-0.3,0.4-0.5c0.9-1.1,1.9-2.3,2.7-3.3c2.1,0.9,4.2,1.7,6.4,2.6
					c2.6,1,5.1,1.9,8,1.8c3.2,0,6.4,0.3,9.6,0.4c1.3,0,2.1,0.5,3.1,1.5c1.9,1.9,3.1,4.1,3.8,6.7c0.3,0.8,0.9,1.6,1.4,2.3
					c1.4,2,2.7,4.1,3.1,6.6c0.3,1.5,0.9,2.7,2.3,3.5c0.3,0.2,0.5,0.5,0.7,0.8c0.7-0.5,1.6-0.8,2.4-1.1c-1.1-0.7-1.7-1.8-2.1-3
					c-0.5-1.5-1.2-3.1-1.9-4.6c-0.5-1.2-1.2-2.4-1.7-3.7c-0.5-1.3-0.7-2.7-1.1-4c-0.7-1.9-1.3-3.9-1.3-5.9c3.3-1.5,6.6-0.9,9.8-0.9
					c1.1,1.9,1.3,3.8,1.2,5.8c0,1,0.3,2.1,0.3,3.1c0,0.7,0.1,1.5-0.2,2c0.7,0.7,1.5,1.4,2.3,1.9c0-0.1,0.1-0.3,0.1-0.4
					c0.6-3.4,0.2-6.8-0.4-10.2c-0.3-1.6-0.6-3.1-1.2-4.6c-0.5-1.5-3.1-3.1-4.2-2.6c-2,1.1-3.5-0.4-5.4-0.8c0.4-1,0.5-2,1-2.7
					c1.1-1.5,1.5-3.1,1.7-4.9c0.1-0.7,0.2-1.4,0.3-2.1c0.1-0.5,0.2-1.1,0.4-1.6c0.3-1.3,0.9-2.5,1.3-3.7c0.5-1.6,1.3-2.8,1.2-3
					c0.5-0.2,1-0.6,1.4-0.5c1.2,0.3,2.3,0.8,3.6,1.4c-0.1,0,3.8,3,4.9,4.1c0.4,0.4,1.3,0.3,1.9,0.3c0.2,0,0.5-0.4,0.7-0.4
					C110.1,50.6,111,48.5,109.8,46.6z"/>
				<path class="st1" d="M46,94.6c0.3,0.2,0.5,0.5,0.6,1c0.1,0.3,0.5,0.6,0.7,0.6c0.9,0.1,1.9,0,2.8,0c0.1-0.2,0.1-0.2,0.2-0.4
					c-0.8-0.9-1.3-2-2.4-2.8C47.3,93.3,46.6,93.8,46,94.6z"/>
			</g>
		</g>
		<g>
			<path class="st4" d="M73.5,46.1C73.5,46.1,73.5,46.1,73.5,46.1C73.5,46.1,73.5,46.1,73.5,46.1c0-0.1,0-0.1,0-0.1
				c0,0-3-2.6-3.1-2.7c-0.4-0.3-0.5-0.6-0.3-1c0.3-0.8,1-3.1,1.1-3.7c0.1-0.9-0.1-1.2-0.2-1.6c0-0.3-1.1-2.3-1.9-3.4
				c-0.3-0.4-2.4-1.4-3.2-1.8c-0.4,0.7-1.8,3.5-1.8,3.5c0,0,0,0.1-0.1,0.1c-0.6,1.3-0.4,2.8-0.3,4.2c0,0.7,0.1,1.3,0.1,2
				c0,0.3,0,0.5,0.1,0.8c0,0.2,0.1,0.5,0,0.7c0,0.1,0,0.2-0.1,0.3l0,0c-0.1,0.1-0.2,0.1-0.3,0.1c-0.3,0.1-0.5,0.2-0.8,0.4
				c0,0-0.1,0-0.1,0c-0.8,0.5-1.4,1.3-1.9,2.1c-0.1,0.3-0.3,0.6-0.5,0.9c-0.6,0.8-1.5,1.2-2.5,1.3c0,0,0,0,0,0.1s0,0,0,0.1
				c-0.1,0.2-0.1,0.4,0,0.6c0.5,2.1,1,4.3,1.5,6.4c0.2,0.8,0.4,0.9,1.1,0.6c0.9-0.3,2.4-1.6,3.8-4.6c0.1-0.1,2.1-3.5,2.8-3.8
				c0.6-0.3,1-0.4,1.4-0.5c0.6-0.2,0.7-0.5,0.7-1.1c0-0.3-0.2-0.5-0.5-0.8c-0.6-0.5-1.3-1-1.9-1.4c-0.4-0.3-0.5-0.6-0.5-1.1
				c0.1-2.2,0.2-4.4,0.3-6.6c0-0.7,0.6-1.3,1.2-1.3c0.7,0,1.1,0.5,1.1,1.3c0,1.1-0.2,2.2-0.3,3.4c0,0.8,0,1.5-0.2,2.3
				c-0.1,0.5,0.2,0.8,0.5,1.1c1.1,0.9,2.2,1.8,3.3,2.8c0.2,0.2,0.5,0.8,0.6,1.1C72.8,47,73.5,46.2,73.5,46.1z"/>
			<path class="st5" d="M65.3,61.5c-0.2-0.3-0.5-0.3-0.9-0.4c-1.5-0.6-2.4-2-2.1-3.6c0.1-0.8,0.3-2.8,0.1-3
				c-0.6,0.7-1.3,1.3-2.3,1.6c-0.4,0.1-0.5,0-0.6-0.4c-0.6-2.4-1.2-4.7-1.7-7.1c-0.1,0-0.9-0.1-1-0.2c0,0.1,0,0.1,0,0.2
				c0,0.3,0.6,10.6,0.7,11.3c0.1,1,1.9,2.2,2.3,2.4c0.6,0.2,5.1,0.1,5.1,0.1C65.3,62.2,65.4,61.9,65.3,61.5z"/>
			<path class="st6" d="M69.4,31.8c0.1-0.2,0.3-0.3,0.7-0.2c0.4,0,0.8-0.1,1.1-0.3c0.1-0.1,0.3-0.3,0.3-0.5c0.3-0.8,0.5-1.6,0.6-2.5
				c0.3-0.9,0.2-1.1-0.6-1.3c-0.5-0.1-1-0.4-1.5-0.4c-0.2,0-0.3,0.2-0.4,0.3c-0.2,0.3-0.3,0.6-0.8,0.4c-0.3-0.2-0.7,0.2-0.6,0.6
				c0.1,0.9-0.4,1.4-0.9,2c-0.1,0.1-0.1,0.2-0.2,0.3c0,0.2-0.1,0.4-0.2,0.5c-0.1,0.2,0,0.4,0.1,0.5c0.4,0,1.6,1.6,2.3,1.6
				c0,0,0-0.1,0-0.1C69.3,32.3,69.3,32,69.4,31.8z"/>
			<path class="st7" d="M74,23.5c0-0.1,0-0.1-0.1-0.2c-0.1-0.1-0.1-0.1-0.3-0.2c0,0-0.1,0-0.1-0.1c-0.1,0-0.2-0.1-0.2-0.1
				c-1-0.5-1.9-0.9-3-1.2c-0.2,0-0.4-0.1-0.6-0.1c-0.2-0.1-0.4-0.1-0.7-0.2c0,0-0.1,0-0.1,0c0,0,0,0-0.1,0c-0.1,0.1-0.2,0.2-0.2,0.4
				c-0.1,0.9-0.5,1.7-0.9,2.4c0,0.2,0.2,0.3,0.4,0.4c1.3,0.8,2.7,1.3,4.2,1.5c0.1,0,0.3,0,0.4,0c0-0.1,0.1-0.2,0.1-0.3
				c0-0.1,0-0.2,0.1-0.3c0.2-0.5,0.4-1,0.7-1.4c0,0,0,0,0,0c0,0,0,0,0,0c0.1-0.1,0.1-0.2,0.2-0.3C73.9,23.7,74,23.6,74,23.5z"/>
			<path class="st8" d="M74.2,27.1c0-0.4-0.3-0.5-0.6-0.6c-0.3-0.1-0.6-0.2-0.8-0.3c-1-0.4-2-0.5-2.9-0.9c-0.7-0.3-1.4-0.6-2-1
				c-0.2-0.1-0.4-0.2-0.5-0.3c0,0,0,0,0,0c-0.1,0-0.2-0.1-0.4-0.1c-0.7-0.2-1.1,0.1-1.3,0.6c0,0.1,0,0.1,0,0.2c0,0.1,0,0.2,0,0.4
				c0,0.4,0.2,0.8,0.4,1c0,0,0,0,0,0.1c0,0,0.1,0.1,0.1,0.1c0.2,0.1,0.3-0.1,0.5-0.3c0.5-0.5,0.7-0.5,1.3-0.1c0.6,0.4,1.2,0.9,2,0.8
				c0.4,0.1,0.8,0.3,1.3,0.4c0.8,0.1,1.2,0.4,1,1.3c0.5-0.1,1-0.1,1.5-0.4C74,27.7,74.2,27.4,74.2,27.1z"/>
			<path class="st9" d="M69.3,32.8c0,0,0-0.1,0-0.1c-0.5-0.3-2.5-1.9-2.4-2.1c0,0,0,0-0.1,0h0c-0.5,0.3-0.6,1-0.7,1.1
				c0.7,0.4,3.2,2,3.2,1.8C69.2,33.6,69.3,32.9,69.3,32.8z"/>
			<path class="st10" d="M67.7,67.2c-0.3-0.3-0.5-0.4-1-0.6c-0.2-0.1-0.5-0.4-0.7-0.4c0.4-0.9,4.8-8.3,5.2-8.8c0-0.1,0-0.1-0.1-0.2
				c-1.1-0.7-2.5-0.8-3.8-0.6c-0.4,0.1-3.6,9.6-3.7,9.6c-0.1,0.2-0.1,0.4-0.2,0.5c0,0-0.1,0.5-0.1,0.6c0,0,0.4,0.3,0.6,0.4
				c0.2,0.1,0.5,0.1,0.8,0c0.3-0.1,0.6,0.2,0.6,0.2c0,0,2.5,0.6,2.6,0.6C68,68.4,68.2,67.8,67.7,67.2z"/>
			<path class="st11" d="M67.9,25.6L67.9,25.6c-0.4-0.5-0.9-0.4-1.3,0c-0.2,0.2-0.3,0.4-0.5,0.6c-0.2,0.6-0.3,1.2,0.4,1.5
				c-0.1,0.6,0,1.2,0.2,1.8c0,0,0,0,0,0.1c0.1,0.1,0.1,0.3,0.2,0.4c0,0,0,0,0,0c0,0.1,0.1,0.1,0.1,0.2c0.5-0.4,0.8-0.9,1.3-1.4
				c0.1-0.1,0-0.3,0-0.4c-0.1-0.3-0.1-0.7,0.1-0.9c0.3-0.3,0.5-0.2,0.7,0.1c0.1,0.1,0.2,0,0.2-0.1c0.2-0.3,0.4-0.5,0.5-0.8
				C69.2,26.3,68.6,26,67.9,25.6z"/>
			<path class="st5" d="M74.8,54.2L74.8,54.2c0-0.2-1-5.3-0.9-5.9c-0.4,0.1-1.7,0.2-3.7,0.4c0.2,0.2,2.7,4.8,2.8,5.1
				c0.3,0.7,0.7,1.4,0.8,2.2c0.2,1.3-0.2,2.5-1,3.4c-0.3,0.3-0.8,0.6-1.1,0.9c-0.1,0.1-2.2,0.9-2.8,0.9c-0.2,0.3-0.4,0.6-0.7,1.1
				c2.4-0.4,4.1-1,4.9-1.5c0.8-0.5,1.4-1.6,1.6-2c0,0,0,0,0,0c0.3-0.8,0.4-1.8,0.4-1.8C75.1,55.5,74.8,54.2,74.8,54.2z"/>
			<path class="st12" d="M72.9,46.7c0.1-0.3-0.1-0.5-0.3-0.7c-1.3-1.1-2.5-2.1-3.8-3.2c-0.3-0.2-0.4-0.5-0.3-0.8
				c0.2-1.9,0.3-3.8,0.5-5.7c0.1-0.7-0.5-1.4-1.3-1.4c-0.7,0-1.4,0.5-1.4,1.2c-0.1,1.3-0.1,2.6-0.2,3.9c0,1,0,2-0.1,3
				c0,0.5,0.1,0.8,0.5,1c0.7,0.5,1.4,1,2.1,1.6c0.2,0.1,0.2,0.2,0.5,0.5c0.8,0.5,1.5,1,2.2,1.6c0.6,0.4,0.7,0.4,1.1-0.1
				C72.5,47.2,72.7,47,72.9,46.7z"/>
			<path class="st13" d="M67.3,56.8c-0.6-1.2-1-2.4-1.5-3.6c-0.1-0.2-0.2-0.5-0.3-0.7c-0.1,0-0.6-1.5-0.8-1.9
				c-0.1,0.1-2.1,3.7-2.3,4c-0.1,1.1-0.2,2.1-0.3,3.2c-0.2,1.4,0.7,3.4,3.2,3.9C65.5,60.9,67.2,57,67.3,56.8z"/>
			<path class="st14" d="M72.3,47.6c-0.3,0.5-0.6,0.5-1,0.1c-0.6-0.5-1.2-1-1.9-1.4c-0.1-0.1-0.3-0.4-0.5-0.1c-0.1,0.4,0,1-0.7,1.1
				c-0.4,0-0.7,0.2-1.1,0.4c-0.8,0.3-2.1,2.5-2.4,2.9c0,0.4,0.2,0.8,0.3,1.2c0.1,0.3,0.2,0.5,0.3,0.8c0.5,1.2,0.9,2.4,1.4,3.5
				c0.1,0.3,0.2,0.6,0.5,0.7c1.3-0.2,2.6,0.1,3.9,0.5c0-0.5-0.2-1-0.3-1.6c-0.3-1.2-0.7-2.4-1-3.6c-0.2-0.7-0.6-2-0.8-3.2
				c0.6-0.5,4.3-0.2,4.7-0.6C73.6,48.1,72.4,48.2,72.3,47.6z"/>
			<path class="st13" d="M69.1,48.9c0.5,2.4,2.2,7.8,2.1,8.4c-0.4,0.8-2,3.2-2.3,3.8c0.4,0,3-0.7,3.7-1.7c1.3-1.3,1.6-2.9,0.9-4.9
				c-0.1-0.3-3.1-5.9-3.3-6C69.4,48.7,69.1,49,69.1,48.9z"/>
			<g>
				<path class="st15" d="M66.3,66.2c0,0-0.2-0.1-0.2-0.1c-0.2,0.1-0.6,1.6-0.6,1.7l0.2,0.1C65.7,67.9,66.4,66.3,66.3,66.2z"/>
			</g>
			<path class="st4" d="M75.1,47.7L75.1,47.7c-0.1-0.2-0.3-0.5-0.3-0.5l0,0c0,0,0-0.4-0.1-0.6c0,0-0.9-0.3-1.1-0.4l0,0c0,0,0,0,0,0
				s0,0,0,0l0,0c-0.3,0.3-0.4,0.4-0.6,0.7c-0.3,0.3-0.4,0.6-0.6,0.8c-0.1,0.2,0.3,0.4,0.9,0.6c0.2,0.1,0.4,0.2,0.6,0.2
				c0.1,0,0.1,0,0.2,0c0,0,0,0,0,0c0,0,0.1,0,0.1,0c0,0,0.5,0.3,0.6,0.3l0,0c0,0,0.1,0,0.1,0s0,0,0,0C75.8,48.2,75.1,47.8,75.1,47.7
				z"/>
		</g>
	</g>
</g>
</svg>
