<?xml version="1.0" encoding="utf-8"?>
<!-- Generator: Adobe Illustrator 23.0.3, SVG Export Plug-In . SVG Version: 6.00 Build 0)  -->
<svg version="1.1" id="bet3" xmlns="http://www.w3.org/2000/svg" xmlns:xlink="http://www.w3.org/1999/xlink" x="0px" y="0px"
	 viewBox="0 0 140 100" style="enable-background:new 0 0 140 100;" xml:space="preserve">
<style type="text/css">
	.st0{fill:#E8E8E8;stroke:#D69B3A;stroke-width:3.7153;stroke-miterlimit:10;}
	.st1{fill:#1E1E1E;}
	.st2{opacity:0.56;fill:#999999;enable-background:new    ;}
	.st3{fill:#52261F;}
	.st4{fill:#2E6942;}
	.st5{fill:#8B7357;}
	.st6{fill:#E8B797;}
	.st7{fill:#ECEBEB;}
	.st8{fill:#2A2A2A;}
	.st9{fill:#673F19;}
	.st10{fill:#2B4A23;}
	.st11{fill:#F3F2F2;}
	.st12{fill:#D7D9D7;}
</style>
<g id="clickHorse">
</g>
<g>
	<g>
		<path class="st0" d="M70.3,7.7c-35,0-63.5,29.5-63.5,65.8c0,8.7,1.6,17,4.6,24.6h117.7c2.9-7.6,4.6-15.9,4.6-24.6
			C133.7,37.2,105.3,7.7,70.3,7.7z"/>
	</g>
	<g>
		<g>
			<path class="st1" d="M38.7,51.6c-2.1-0.6-4.1-1.4-6.1-1.9c-3.7-1-7,0-10.3,1.7c-1.5,0.8-3,1.8-4.3,3c-1.5,1.4-2.5,3.1-2.5,5.4
				c1-1.3,1.5-2.9,3.2-3.5c-0.5,1-0.9,1.9-1.4,2.8c0.2,0.1,0.1,0.1,0.3,0.2c2.5-2,5.3-3.4,8.6-2.8c-0.9,0.3-1.8,0.5-2.7,0.8
				c-0.8,0.3-1.6,0.8-2.3,1.3c-0.7,0.5-1.7,0.7-1.9,2.1c3.2-1.8,6.5-2.1,9.9-2.2c0,0.1,0.1,0.3,0.1,0.4c-0.5,0.2-1.1,0.4-1.6,0.7
				c0,0.1,0.1,0.2,0.1,0.3c1.5-0.2,3-0.4,4.8-0.6c-0.6,1.3-0.5,2.3,0.9,2.9c0.1-0.6,0.2-1.1,0.4-1.6c0.2-0.4,0.5-0.9,0.8-1
				c1.3-0.3,2.8-0.6,4.2-0.9c0,0.5,0.2-4.1,3.1-7.2C41.1,52.2,40.4,52.1,38.7,51.6z"/>
			<g>
				<path class="st1" d="M95.2,36.5c2.5-2.1,3-2.8,4.7-3.4c1.1-0.4,2.6-0.3,3.3,0.2c-1.1-0.9-2.5-1.4-3.9-2.1c0,0,0,0-0.1,0
					c-0.4,0-3-0.6-3.2-0.6c-0.1,0,0.3,0.2,0.8,0.5c0.9,0.5,2,1.1,2,1.2c-1.1,0.1-3.4-0.2-5.7-0.4c-2.8-0.3-4-1.1-4-1.1
					c0,0.1,2,1.8,2.8,2.2c0.1,0.1,0.3,0.2,0.4,0.3l-1.6-0.2L89.9,33l-0.4-0.1l-0.3-0.1l-0.3-0.1l-0.3-0.1l-0.4-0.2l-0.3-0.2
					l-0.3-0.2L87.5,32l-0.1-0.2l-0.1-0.2c-0.2,1,0.8,1.8,1.3,2.3c1,0.9,1.9,1,2,1.3c-0.6,0.2-1.2,0.3-1.9,0.4c-0.4,0-1,0.2-1.3,0.2
					c0,0-0.3,0-0.6-0.1c-0.1,0-0.3-0.1-0.5-0.1c-0.3-0.1-0.6-0.3-0.6-0.3s0.2,0.2,0.4,0.4c0.2,0.2,0.5,0.3,0.6,0.4
					c0.1,0.1,0.3,0.1,0.4,0.1c0.3,0.1,0.5,0.1,0.8,0.1c0.1,0,0.5-0.1,0.6,0l3.6-0.1c-0.5,0.2-1.1,0.3-1.6,0.4
					c-0.6,0.1-1.2,0.1-1.8,0.3c-0.4,0.1-0.8,0.5-1.2,0.7c0.3,0.1,0.6,0.2,1.1,0.4c-1.8,0.5-3.5,0.7-4.8,1.8c1.6,0.2,3,0.3,4.4,0.5
					c0,0.1,0,0.1,0,0.2c-1.5,0.1-2.9,0.3-4.4,0.4c-0.3,0.1-0.8,0.1-1.3,0.2c0.5,0.1,2.3,0.3,2.8,0.3c-0.6,0.2-1.7,0.3-1.9,0.3
					c-1.5,0.3-3.3,0.3-4.8,0.1c0.1,0,0.1,0.1,0.1,0.1c1.1,1,2.6,0.9,3.9,1.6c-1.5,0.1-2.8,0.3-4.1,0.4c-0.1,0-0.3,0-0.5,0
					c0,0,0,0.1,0,0.1c0,0.1,0.1,0.1,0.1,0.2c0.6,0.4,1.3,0.5,1.8,1c0.1,0.1,0.1,0.1,0.1,0.2c0,0,0,0,0,0c0.1,0.1,0.1,0.1,0.1,0.2
					c0,0.1,0,0.3,0,0.5c-0.1,0.4-0.4,0.5-0.6,0.9c0,0,0,0,0,0c0,0,0,0,0,0s0,0,0,0c0,0,0,0,0.1,0c-0.5,0.7-1.1,1.1-1.8,1.4
					c3.1-0.8,5.9-2.9,7.4-3.8C88.6,42.4,88.9,41.6,95.2,36.5z"/>
				<path class="st2" d="M76.9,48.5c0,0,0.1,0,0.1,0.1c0.2-0.1,0.4-0.1,0.6-0.3C77.4,48.4,77.2,48.5,76.9,48.5z"/>
				<path class="st1" d="M101.7,81.6c-1.2,1.9-0.9,3.2,1.3,4.4c0.4-0.9,0.9-1.7,1.1-2.6C103.3,82.9,102.5,82.2,101.7,81.6
					C101.8,81.5,101.7,81.5,101.7,81.6z"/>
				<path class="st1" d="M96.7,94.3c0.3,0.4,0.6,0.9,1,1c1.1,0.1,2.1,0.1,3.3,0.1c-0.5-1.4-1.2-2.2-2.2-2.7c0,0-0.1,0-0.1-0.1
					c-0.9,0.2-1.7,0.6-2.4,1.1C96.4,93.8,96.6,94.1,96.7,94.3z"/>
				<path class="st1" d="M24.5,92.2c-1.1,1.4-1.2,2.6-0.2,4.3c1.3-0.6,1.8-1.6,2.1-2.9c0-0.2,0.1-0.4,0.1-0.7
					C25.8,92.7,25.1,92.4,24.5,92.2C24.5,92.2,24.5,92.2,24.5,92.2z"/>
				<path class="st3" d="M113.3,47c-0.9-1.4-1.9-2.7-2.8-4c-1.4-1.9-2.8-3.8-4.2-5.7c-0.6-0.8-1.4-1.5-1.8-2.4
					c-0.4-0.7-0.8-1.2-1.4-1.6c-0.7-0.5-2.2-0.6-3.3-0.2c-1.7,0.6-2.2,1.3-4.7,3.4c-6.3,5.1-6.6,5.9-10.1,8.1
					c-1.5,0.9-4.2,2.9-7.4,3.8c-0.2,0.1-0.4,0.2-0.6,0.3c-0.3,0.1-0.6,0.1-0.8,0.2c0,0-10,0.6-10.1,0.6c-0.8-0.1-1.5-0.1-2.2-0.1
					c-0.9-0.1-1.8-0.1-2.7-0.3c-2-0.4-4-1.3-6-1.6c-3.8-0.6-7.3,0.2-10.8,1.6c-0.5,0.2-2.1,2.2-2.4,2.5c-2.6,2.9-3,6-3.2,8.7
					c0,2.1,0,4.1,0,6.1c-0.1,2.2-0.7,4.3-2.3,5.9c-1.3,1.3-2.8,2.3-4.5,3c-0.5,0.2-0.9,0.6-1.2,1.2c-1.5,3.1-3.1,6.3-4.4,9.5
					c-0.8,1.8-1.9,3.6-1.6,5.7c0,0.2-0.1,0.4-0.3,0.6c0.7,0.3,1.3,0.5,1.9,0.8c0.7-3.2,1.8-6.3,3.8-9c0.6-0.9,1.5-1.6,2.1-2.5
					c1.2-1.8,2.8-3,4.8-3.8c1.3-0.5,2.5-1.3,3.7-1.9c1.2-0.6,2.3-1.1,3.5-1.6c0.1,0.1,0.1,0.1,0.3,0.3c-1,1.7-1.8,3.4-2.9,5
					c-0.6,0.8-0.8,1.6-0.6,2.5c0.2,0.9,0.6,1.8,1,2.7c1.3,2.9,2.7,5.7,3.9,8.6c0.4,1.1,0.8,1.7,2.1,1.4c0.6-0.1,1.1,0,1.5,0.3
					c0.6-0.8,1.2-1.3,2-1.6c-0.2-0.1-0.3-0.2-0.5-0.3c-0.8-0.4-1.3-1-2.1-1.5c-1.5-0.9-1.6-2.7-2.5-4c-0.9-1.4-1.2-2.9-1.2-4.4
					c0-1.7,0.6-3,2-4.1c2.8-2.3,4.6-5.7,7.6-7.8c0.2-0.1,0.2-0.3,0.3-0.5c0.9-1.1,1.9-2.3,2.7-3.3c2.1,0.9,4.2,1.7,6.4,2.6
					c2.6,1,5.1,1.9,7.9,1.8c3.2,0,6.4,0.3,9.6,0.4c1.3,0,2.1,0.5,3.1,1.5c1.9,1.9,3.1,4.1,3.8,6.7c0.3,0.8,0.9,1.6,1.4,2.3
					c1.4,2,2.7,4.1,3.1,6.6c0.3,1.5,0.9,2.7,2.3,3.6c0.3,0.2,0.5,0.4,0.6,0.8c0.7-0.5,1.6-0.8,2.4-1.1c-1.1-0.7-1.7-1.8-2.1-3
					c-0.6-1.6-1.2-3.1-1.9-4.6c-0.5-1.2-1.2-2.4-1.7-3.7c-0.5-1.3-0.7-2.7-1.1-4c-0.6-1.9-1.3-3.9-1.3-5.9c3.3-1.5,6.6-0.9,9.8-0.9
					c1.1,1.9,1.3,3.8,1.2,5.8c-0.1,1,0.3,2.1,0.3,3.1c0,0.7,0.1,1.5-0.1,2c0.7,0.7,1.5,1.4,2.3,1.9c0-0.1,0.1-0.3,0.1-0.4
					c0.6-3.4,0.2-6.8-0.4-10.2c-0.3-1.6-0.6-3.1-1.2-4.6c-0.5-1.5-3.1-3.1-4.2-2.6c-2.1,1.1-3.5-0.4-5.4-0.8c0.4-1,0.5-2,1.1-2.7
					c1.1-1.5,1.5-3.1,1.7-4.9c0.1-0.7,0.2-1.4,0.3-2.1c0.1-0.5,0.2-1.1,0.4-1.6c0.3-1.3,0.9-2.4,1.3-3.7c0.5-1.6,1.3-2.8,1.2-3
					c0.5-0.2,1-0.6,1.4-0.6c1.2,0.3,2.3,0.8,3.6,1.4c-0.1,0,3.8,3,4.9,4.1c0.4,0.4,1.3,0.3,1.9,0.3c0.2,0,0.5-0.4,0.7-0.4
					C113.7,50.9,114.5,48.8,113.3,47z"/>
				<path class="st1" d="M49.6,94.9c0.3,0.2,0.5,0.5,0.6,0.9c0.1,0.3,0.4,0.6,0.7,0.6c0.9,0.1,1.9,0,2.8,0c0.1-0.2,0.1-0.2,0.2-0.4
					c-0.8-0.9-1.3-2-2.4-2.8C50.8,93.7,50.2,94.2,49.6,94.9z"/>
			</g>
		</g>
		<g>
			<path class="st4" d="M77.9,46.6C77.9,46.6,77.9,46.6,77.9,46.6C77.9,46.6,77.9,46.6,77.9,46.6c0-0.1,0-0.1,0-0.1
				c0,0-2.9-2.6-3.1-2.7c-0.4-0.3-0.5-0.6-0.3-1c0.3-0.8,1-3.1,1.1-3.7c0.1-0.9-0.1-1.2-0.2-1.6c0-0.3-1.1-2.3-1.9-3.3
				c-0.3-0.4-2.4-1.4-3.2-1.8c-0.4,0.7-1.8,3.5-1.8,3.5c0,0.1,0,0.1-0.1,0.1c-0.6,1.3-0.4,2.8-0.3,4.2c0,0.7,0.1,1.3,0.1,2
				c0,0.3,0,0.6,0.1,0.8c0,0.2,0.1,0.5,0,0.7c0,0.1,0,0.2-0.1,0.3l0,0c-0.1,0.1-0.2,0.1-0.3,0.1c-0.3,0.1-0.5,0.2-0.8,0.4
				c0,0-0.1,0-0.1,0.1c-0.8,0.5-1.4,1.3-1.9,2.1c-0.1,0.3-0.3,0.6-0.5,0.9c-0.6,0.8-1.5,1.2-2.5,1.3c0,0,0,0,0,0.1s0,0.1,0,0.1
				c-0.1,0.2-0.1,0.4,0,0.6c0.5,2.1,1,4.3,1.6,6.4c0.2,0.8,0.4,0.9,1.1,0.6c0.9-0.3,2.4-1.6,3.8-4.6c0.1-0.1,2.1-3.5,2.8-3.8
				c0.6-0.3,1-0.4,1.4-0.5c0.6-0.2,0.7-0.5,0.7-1.1c0-0.3-0.2-0.5-0.4-0.8c-0.6-0.5-1.3-1-1.9-1.4c-0.4-0.3-0.5-0.6-0.5-1.1
				c0.1-2.2,0.2-4.4,0.3-6.6c0-0.7,0.6-1.3,1.2-1.3c0.7,0,1.1,0.6,1.1,1.3c0,1.1-0.2,2.2-0.3,3.4c-0.1,0.8-0.1,1.5-0.2,2.3
				c-0.1,0.5,0.2,0.8,0.5,1.1c1.1,0.9,2.2,1.8,3.3,2.8c0.2,0.2,0.5,0.8,0.6,1.1C77.2,47.6,77.9,46.7,77.9,46.6z"/>
			<path class="st5" d="M69.7,62c-0.2-0.3-0.6-0.3-0.9-0.4c-1.5-0.6-2.4-2-2.1-3.6c0.1-0.8,0.3-2.8,0.1-3c-0.6,0.7-1.3,1.3-2.3,1.6
				c-0.4,0.1-0.6,0-0.6-0.4c-0.6-2.4-1.2-4.7-1.7-7.1c-0.1,0-0.9-0.1-1-0.2c0,0.1,0,0.1,0,0.2c0,0.3,0.6,10.6,0.7,11.3
				c0.1,1,1.9,2.2,2.3,2.4c0.6,0.2,5.1,0.1,5.1,0.1C69.7,62.7,69.8,62.4,69.7,62z"/>
			<path class="st6" d="M73.9,32.3c0.1-0.2,0.3-0.3,0.7-0.2c0.4,0,0.8-0.1,1.1-0.3c0.1-0.1,0.3-0.3,0.3-0.5c0.3-0.8,0.5-1.6,0.6-2.5
				c0.3-0.9,0.2-1.1-0.6-1.3c-0.5-0.1-1-0.4-1.5-0.4c-0.2,0-0.3,0.2-0.4,0.3c-0.2,0.3-0.3,0.6-0.8,0.4c-0.3-0.2-0.7,0.2-0.6,0.6
				c0.1,0.9-0.4,1.4-0.9,2c-0.1,0.1-0.1,0.2-0.2,0.3c0,0.2-0.1,0.3-0.2,0.5c-0.1,0.2-0.1,0.4,0.1,0.5c0.4,0,1.6,1.6,2.3,1.6
				c0-0.1,0-0.1,0-0.1C73.7,32.8,73.7,32.5,73.9,32.3z"/>
			<path class="st7" d="M73.7,33.3c0,0,0-0.1-0.1-0.1c-0.5-0.3-2.4-1.9-2.4-2.1c0,0-0.1,0-0.1,0.1h0c-0.5,0.3-0.6,1-0.7,1.2
				c0.7,0.4,3.2,2,3.2,1.8C73.6,34.1,73.7,33.4,73.7,33.3z"/>
			<path class="st8" d="M72.2,67.7c-0.3-0.3-0.5-0.4-1-0.6c-0.2-0.1-0.4-0.4-0.7-0.4c0.4-0.9,4.8-8.3,5.2-8.8c0-0.1-0.1-0.1-0.1-0.2
				C74.4,57,73,56.9,71.8,57c-0.4,0.1-3.6,9.6-3.7,9.6C68,66.8,68,67,67.9,67.2c0,0-0.1,0.5-0.1,0.6c0,0,0.4,0.3,0.6,0.4
				c0.2,0.1,0.5,0.1,0.8,0c0.3-0.1,0.6,0.2,0.6,0.2c0,0,2.5,0.6,2.6,0.6C72.4,68.9,72.6,68.3,72.2,67.7z"/>
			<path class="st9" d="M72.3,26.1L72.3,26.1c-0.4-0.5-0.9-0.3-1.3,0c-0.2,0.2-0.3,0.4-0.5,0.6c-0.2,0.6-0.3,1.2,0.4,1.5
				c-0.1,0.6,0,1.2,0.2,1.8c0,0,0,0,0,0.1c0.1,0.1,0.1,0.3,0.2,0.4c0,0,0,0,0,0c0,0.1,0.1,0.1,0.1,0.2c0.5-0.3,0.8-0.9,1.3-1.4
				c0.1-0.2,0-0.3,0-0.4c-0.1-0.3-0.1-0.7,0.1-0.9c0.3-0.3,0.5-0.2,0.7,0.1c0.1,0.1,0.2,0,0.2-0.1c0.2-0.3,0.4-0.5,0.5-0.8
				C73.7,26.8,73,26.5,72.3,26.1z"/>
			<path class="st5" d="M79.3,54.7L79.3,54.7c-0.1-0.2-0.9-5.3-0.9-5.9c-0.4,0.1-1.7,0.2-3.7,0.4c0.2,0.2,2.7,4.8,2.8,5.1
				c0.3,0.7,0.7,1.4,0.8,2.2c0.2,1.3-0.2,2.5-1.1,3.4c-0.3,0.3-0.8,0.6-1.1,0.9c-0.1,0.1-2.2,0.9-2.8,0.9c-0.2,0.3-0.4,0.6-0.7,1.1
				c2.4-0.4,4.1-1.1,4.9-1.5c0.8-0.5,1.4-1.6,1.6-2c0,0,0,0,0,0c0.3-0.8,0.4-1.8,0.4-1.8C79.5,56,79.3,54.7,79.3,54.7z"/>
			<path class="st10" d="M77.4,47.3c0.1-0.3-0.1-0.5-0.3-0.7c-1.3-1.1-2.5-2.1-3.8-3.2c-0.3-0.2-0.4-0.5-0.3-0.8
				c0.2-1.9,0.3-3.8,0.5-5.7c0.1-0.7-0.5-1.4-1.3-1.4c-0.7,0-1.4,0.5-1.4,1.2c-0.1,1.3-0.1,2.6-0.2,3.9c0,1,0,2-0.1,3
				c0,0.5,0.1,0.8,0.5,1c0.7,0.5,1.4,1.1,2.1,1.6c0.2,0.1,0.2,0.2,0.5,0.5c0.8,0.5,1.5,1,2.2,1.6c0.6,0.4,0.7,0.4,1.1-0.1
				C77,47.7,77.2,47.6,77.4,47.3z"/>
			<path class="st1" d="M71.7,57.3c-0.6-1.2-1-2.4-1.5-3.6c-0.1-0.2-0.2-0.5-0.3-0.7c-0.1,0-0.6-1.6-0.8-1.9c-0.1,0.1-2.1,3.7-2.3,4
				c-0.1,1.1-0.2,2.1-0.3,3.2c-0.2,1.4,0.7,3.4,3.2,3.9C69.9,61.4,71.6,57.5,71.7,57.3z"/>
			<path class="st11" d="M76.7,48.1c-0.3,0.5-0.6,0.5-1,0.1c-0.6-0.5-1.2-1-1.9-1.4c-0.1-0.1-0.3-0.4-0.5-0.1
				c-0.1,0.4-0.1,1-0.7,1.1c-0.4,0-0.7,0.2-1.1,0.4c-0.8,0.3-2.1,2.5-2.4,2.9c0,0.4,0.2,0.8,0.3,1.2c0.1,0.3,0.2,0.6,0.3,0.8
				c0.5,1.2,0.9,2.4,1.4,3.5c0.1,0.3,0.2,0.6,0.5,0.7c1.3-0.2,2.6,0.1,3.9,0.5c0-0.6-0.2-1-0.3-1.6c-0.3-1.2-0.7-2.4-1-3.6
				c-0.2-0.7-0.6-2.1-0.8-3.2c0.6-0.5,4.3-0.2,4.7-0.6C78.1,48.6,76.9,48.7,76.7,48.1z"/>
			<path class="st1" d="M73.6,49.5c0.5,2.4,2.2,7.8,2.1,8.4c-0.4,0.8-1.9,3.2-2.3,3.8c0.4,0,3-0.7,3.7-1.7c1.3-1.3,1.6-2.9,0.9-4.9
				c-0.1-0.3-3.1-5.9-3.3-5.9C73.8,49.2,73.6,49.5,73.6,49.5z"/>
			<g>
				<path class="st12" d="M70.7,66.7c0,0-0.2-0.1-0.2-0.1c-0.2,0.1-0.6,1.6-0.6,1.7l0.2,0.1C70.1,68.4,70.8,66.8,70.7,66.7z"/>
			</g>
			<path class="st1" d="M79.5,48.2L79.5,48.2c-0.1-0.1-0.3-0.5-0.3-0.5l0,0c0,0,0-0.4-0.1-0.6c0,0-0.9-0.3-1.1-0.4l0,0c0,0,0,0,0,0
				s0,0,0,0l0,0c-0.3,0.3-0.4,0.4-0.6,0.7c-0.3,0.3-0.4,0.6-0.6,0.8c-0.1,0.2,0.3,0.4,0.9,0.6c0.2,0.1,0.4,0.2,0.6,0.2
				c0.1,0,0.1,0,0.2,0c0,0,0,0,0,0c0-0.1,0.1,0,0.1,0c0,0,0.5,0.3,0.6,0.3l0,0c0,0,0.1,0,0.1,0s0,0,0,0
				C80.2,48.7,79.5,48.3,79.5,48.2z"/>
			<path class="st1" d="M77.8,27.7c0.1-0.3,0.1-0.8,0.1-1.4c0-2.1-1.1-3.2-3-3.4c-1.8-0.3-3.3,0.4-3.7,1.4c-0.3,0.7-0.5,2-0.5,2.3
				c1.3,0.4,2.9,1.1,4.4,1.4c1.2,0.3,2.5,0.6,3.6,0.8C78.6,28.5,78.1,27.9,77.8,27.7z"/>
		</g>
	</g>
</g>
</svg>
