<?xml version="1.0" encoding="utf-8"?>
<!-- Generator: Adobe Illustrator 23.0.3, SVG Export Plug-In . SVG Version: 6.00 Build 0)  -->
<svg version="1.1" xmlns="http://www.w3.org/2000/svg" xmlns:xlink="http://www.w3.org/1999/xlink" x="0px" y="0px"
	 viewBox="0 0 640 360" style="enable-background:new 0 0 640 360;" xml:space="preserve">
<style type="text/css">
	.st0{fill:#E2EDF2;}
	.st1{fill:#BCBCBC;}
	.st2{clip-path:url(#SVGID_2_);}
	.st3{opacity:0.5;fill:#FEFEFE;}
	.st4{opacity:0.3;fill:#FEFEFE;}
	.st5{opacity:0.1;fill:#FEFEFE;}
	.st6{fill:#FEFEFE;}
	.st7{fill:#2D6841;}
	.st8{fill:#3B180B;}
	.st9{fill:none;stroke:#E3D2A6;stroke-width:1.4894;stroke-miterlimit:10;}
	.st10{fill:#F2E1B1;}
	.st11{fill:#F9EFDE;}
	.st12{fill:#54352A;}
</style>
<g id="sky_1_">
	<rect x="0.04" y="0.09" class="st0" width="640" height="110.23"/>
</g>
<g id="city_1_">
	<path class="st1" d="M253.29,46.66V3.39h-19.87v46.16h-9.08V10.31h-5.68V6.27h-12.49v5.19h-3.97v37.5h-19.3V18.39h-16.46v35.77
		h-12.49V15.37h-3.97v-4.62l-5.68-5.77l-5.11,5.19v4.04h-3.41v45.13h-6.24V21.27l-4.82-4.9V0.09H111.4v14.26h-6.24v9.81
		c0,0-11.07-0.87-10.22,0s0,16.73,0,16.73H77.91H51.8V24.16h-9.08v-8.08l-6.53-6.63v-9.52l-7.03-0.09v8.08h-3.41v-7.5L17.75,0.5
		v47.31v23.65h234.41L253.29,46.66z"/>
	<polygon class="st1" points="547.53,46.66 547.53,24.04 527.66,24.04 527.66,49.54 518.58,49.54 518.58,10.31 512.91,10.31 
		512.91,6.27 500.42,6.27 500.42,11.46 496.45,11.46 496.45,48.97 477.15,48.97 477.15,18.39 460.69,18.39 460.69,54.16 
		448.2,54.16 448.2,7.43 430.76,7 430.04,59.35 418.89,59.35 418.89,21.27 418.97,16.37 418.97,0.09 405.63,0.09 405.63,14.35 
		399.39,14.35 399.39,24.16 399.28,40.89 372.15,40.89 346.04,40.89 346.04,24.16 331.03,24.16 330.43,0.03 311.98,-0.05 
		311.98,47.81 311.98,71.47 546.4,71.47 	"/>
</g>
<g id="sun">
	<g>
		<defs>
			<rect id="SVGID_1_" x="547.53" y="-0.05" width="78.78" height="67.36"/>
		</defs>
		<clipPath id="SVGID_2_">
			<use xlink:href="#SVGID_1_"  style="overflow:visible;"/>
		</clipPath>
		<g class="st2">
			<circle class="st3" cx="586.92" cy="27.93" r="19.69"/>
			<circle class="st4" cx="586.92" cy="27.93" r="27.85"/>
			<circle class="st5" cx="586.92" cy="27.93" r="39.38"/>
			<circle class="st6" cx="586.92" cy="27.93" r="12.72"/>
		</g>
	</g>
</g>
<g id="landscape">
	<path class="st7" d="M638.63,62.24c-1.48-2.38-4.01-3.49-5.84-4.04c1.76-1.78,1.96-4.5,0.58-6.35c-1.15-1.55-3.25-2.25-5.26-1.73
		c-0.85-3.62-3.95-5.29-5.84-4.62c-1.32,0.47-2.21,2.15-2.34,4.04c0.01-0.23,0.05-1.79-1.17-2.88c-1.07-0.96-2.68-1.19-4.09-0.58
		c-0.55-2.74-3.22-4.51-5.84-4.04c-2.4,0.43-4.19,2.65-4.09,5.19c-1.4-1.76-3.63-2.64-5.84-2.31c-3.18,0.48-4.56,3.23-4.67,3.46
		c0.24-0.79,0.65-2.57,0-4.62c-1.17-3.69-4.79-5.03-5.26-5.19c-0.17-0.5-1.76-4.85-6.42-6.35c-3.75-1.21-6.92,0.25-7.59,0.58
		c-1.54-0.72-4.67-1.93-8.76-1.73c-5.03,0.24-8.54,2.47-9.93,3.46c-0.82-0.29-5.53-1.88-10.51,0.58c-4.36,2.15-6.03,5.96-6.42,6.92
		c-0.98-0.24-2.69-0.5-4.67,0c-4.13,1.04-6.07,4.53-6.42,5.19c-1.53-0.85-7.29-3.83-14.6-2.31c-5.13,1.07-8.48,3.84-9.93,5.19
		c-0.33-0.8-1.56-3.49-4.67-5.19c-3.15-1.73-6.16-1.3-7.01-1.15c-1.17-0.96-2.34-1.92-3.5-2.88c1.81-4.99-0.21-10.18-4.09-12.12
		c-4.06-2.03-8.41,0.38-8.76,0.58c0-2.6-1.41-4.91-3.5-5.77c-2.85-1.17-6.74,0.42-8.17,4.04c-0.34-0.2-2.58-1.46-5.26-0.58
		c-2.21,0.73-3.26,2.45-3.5,2.88c-0.58-0.09-3.03-0.4-5.26,1.15c-2.15,1.5-3.26,4.17-2.92,6.92c-0.64-0.19-1.44-0.42-2.37-0.68
		c-2.29-3.5-6.96-5.14-10.82-4.19c-1.03,0.25-1.89,0.66-2.55,1.07c-1.09-0.2-2.16-0.36-3.2-0.48c-2.88-1.34-5.35-1.99-7.1-2.32
		c-7.03-1.34-13.2,0.14-22.19,2.31c-2.76,0.66-4.99,1.3-6.42,1.73c0.34-2.75-0.77-5.42-2.92-6.92c-2.22-1.55-4.67-1.24-5.26-1.15
		c-0.24-0.43-1.29-2.15-3.5-2.88c-2.67-0.88-4.92,0.38-5.26,0.58c-1.43-3.62-5.33-5.21-8.17-4.04c-2.09,0.86-3.5,3.17-3.5,5.77
		c-0.35-0.2-4.69-2.61-8.76-0.58c-3.88,1.94-5.89,7.12-4.09,12.12c-1.17,0.96-2.34,1.92-3.5,2.88c-0.85-0.15-3.86-0.57-7.01,1.15
		c-3.11,1.7-4.34,4.4-4.67,5.19c-1.44-1.35-4.8-4.12-9.93-5.19c-7.31-1.53-13.07,1.46-14.6,2.31c-0.35-0.66-2.29-4.15-6.42-5.19
		c-1.98-0.5-3.69-0.24-4.67,0c-0.39-0.96-2.06-4.78-6.42-6.92c-4.98-2.46-9.69-0.87-10.51-0.58c-1.38-0.99-4.9-3.22-9.93-3.46
		c-4.08-0.2-7.22,1.01-8.76,1.73c-0.67-0.33-3.84-1.78-7.59-0.58c-4.66,1.5-6.25,5.84-6.42,6.35c-0.45,0.16-3.84,1.42-5.13,4.85
		c-0.1-0.22-0.21-0.41-0.29-0.56c-2.18-3.79-7.07-5.61-11.09-4.62c-1.63,0.4-2.81,1.19-3.5,1.73c-3.84-2.15-7.16-3.04-9.34-3.46
		c-7.03-1.34-13.2,0.14-22.19,2.31c-2.76,0.66-4.99,1.3-6.42,1.73c0.34-2.75-0.77-5.42-2.92-6.92c-2.22-1.55-4.67-1.24-5.26-1.15
		c-0.24-0.43-1.29-2.15-3.5-2.88c-2.67-0.88-4.92,0.38-5.26,0.58c-1.43-3.62-5.33-5.21-8.17-4.04c-2.09,0.86-3.5,3.17-3.5,5.77
		c-0.35-0.2-4.69-2.61-8.76-0.58c-3.88,1.94-5.89,7.12-4.09,12.12c-1.17,0.96-2.34,1.92-3.5,2.88c-0.85-0.15-3.86-0.57-7.01,1.15
		c-3.11,1.7-4.34,4.4-4.67,5.19c-1.44-1.35-4.8-4.12-9.93-5.19c-7.31-1.53-13.07,1.46-14.6,2.31c-0.35-0.66-2.29-4.15-6.42-5.19
		c-1.98-0.5-3.69-0.24-4.67,0c-0.39-0.96-2.06-4.78-6.42-6.92c-4.98-2.46-9.69-0.87-10.51-0.58c-1.38-0.99-4.9-3.22-9.93-3.46
		c-4.08-0.2-7.22,1.01-8.76,1.73c-0.67-0.33-3.84-1.78-7.59-0.58c-4.66,1.5-6.25,5.84-6.42,6.35c-0.47,0.16-4.08,1.5-5.26,5.19
		c-0.65,2.05-0.24,3.83,0,4.62c-0.11-0.23-1.5-2.98-4.67-3.46c-2.21-0.33-4.44,0.55-5.84,2.31c0.11-2.55-1.69-4.76-4.09-5.19
		c-2.62-0.47-5.29,1.3-5.84,4.04c-1.41-0.61-3.02-0.38-4.09,0.58c-1.22,1.1-1.18,2.65-1.17,2.88c-0.13-1.89-1.02-3.57-2.34-4.04
		c-1.88-0.67-4.99,1-5.84,4.62c-2-0.52-4.1,0.18-5.26,1.73c-1.37,1.84-1.18,4.56,0.58,6.35c-1.83,0.55-4.07,1.49-5.55,3.87
		C-0.1,64.43,0,66.18,0,68.01c0,5.37,0.3,20.28,0,41.63c1.75-0.19,181.5-0.09,269.68-0.09c0-0.85,0-1.71,0-2.56
		c33.45,0,66.9,0,100.35,0c0,0.85,0,1.71,0,2.56c88.17,0,176.34,0,264.51,0c1.75,0.19,3.71-0.13,5.46,0.06
		c0-23.67,0.18-33.75,0.18-42.3C640.18,66.44,640.1,64.6,638.63,62.24z"/>
	<rect y="85.31" class="st8" width="640" height="24.81"/>
	<g>
		<g>
			<g>
				<line class="st9" x1="0.04" y1="80.13" x2="176.01" y2="80.13"/>
				<line class="st9" x1="7.85" y1="80.13" x2="7.85" y2="96.28"/>
				<line class="st9" x1="59.19" y1="80.13" x2="59.19" y2="96.28"/>
				<line class="st9" x1="111.26" y1="80.13" x2="111.26" y2="96.28"/>
				<line class="st9" x1="162.6" y1="80.13" x2="162.6" y2="96.28"/>
			</g>
			<g>
				<line class="st9" x1="176.01" y1="80.13" x2="318.21" y2="80.13"/>
				<path class="st9" d="M162.73,96.28"/>
				<path class="st9" d="M162.73,80.13"/>
				<line class="st9" x1="214.07" y1="80.13" x2="214.07" y2="96.28"/>
				<line class="st9" x1="266.15" y1="80.13" x2="266.15" y2="96.28"/>
				<line class="st9" x1="317.48" y1="80.13" x2="317.48" y2="96.28"/>
			</g>
		</g>
		<g>
			<g>
				<line class="st9" x1="318.14" y1="80.13" x2="487.03" y2="80.13"/>
				<line class="st9" x1="370.21" y1="80.13" x2="370.21" y2="96.28"/>
				<line class="st9" x1="422.29" y1="80.13" x2="422.29" y2="96.28"/>
				<line class="st9" x1="473.62" y1="80.13" x2="473.62" y2="96.28"/>
			</g>
			<g>
				<line class="st9" x1="487.03" y1="80.13" x2="640.04" y2="80.13"/>
				<path class="st9" d="M473.76,96.28"/>
				<path class="st9" d="M473.76,80.13"/>
				<line class="st9" x1="525.09" y1="80.13" x2="525.09" y2="96.28"/>
				<line class="st9" x1="577.17" y1="80.13" x2="577.17" y2="96.28"/>
				<line class="st9" x1="628.51" y1="80.13" x2="628.51" y2="96.28"/>
			</g>
		</g>
	</g>
</g>
<g id="track">
	<rect x="0.06" y="110.11" class="st10" width="640" height="250"/>
	<rect x="0.06" y="297.5" class="st11" width="640" height="62.5"/>
	<g>
		<g>
			<g>
				<g>
					<g>
						<path class="st12" d="M639.73,173.17c0.34-0.09,0.15-0.28-0.78-0.24l-0.66,0.33L639.73,173.17z"/>
						<path class="st12" d="M633.49,172.55c-1.09,0.16-2.35,0.44-1.64,0.75c1.08-0.32,1.34-0.19,2.51-0.56
							c0.93-0.04,1.62,0.11,1.46,0.23c0.33-0.08,1.44,0.07,1.94-0.13c-1.21-0.26-2.74-0.27-4.34-0.05
							C633.08,172.7,633.41,172.61,633.49,172.55z"/>
						<path class="st12" d="M542.74,172.04l0.58,0.04C543.16,172.05,542.96,172.04,542.74,172.04z"/>
						<path class="st12" d="M486.51,171.85c0.43-0.01,0.61-0.04,0.63-0.07C486.74,171.81,486.42,171.83,486.51,171.85z"/>
						<path class="st12" d="M476.91,171.49c0.21,0.01,0.38,0.02,0.57,0.02C477.26,171.48,477.05,171.47,476.91,171.49z"/>
						<path class="st12" d="M542.74,172.04l-1.5-0.1C541.13,172.04,542.01,172.01,542.74,172.04z"/>
						<path class="st12" d="M620.97,173.35c0.31-0.02,0.58-0.05,0.82-0.09c-0.26,0.01-0.51,0.03-0.77,0.03
							C621.01,173.32,621,173.33,620.97,173.35z"/>
						<path class="st12" d="M567.53,171.77l0.46,0c0.13-0.04,0.26-0.08,0.38-0.13L567.53,171.77z"/>
						<path class="st12" d="M586.55,171.72c-0.43-0.01-0.58,0.27-0.74,0.39c0.24-0.12,0.56-0.17,0.94-0.19
							C586.75,171.86,586.69,171.8,586.55,171.72z"/>
						<path class="st12" d="M616.71,172.21l0.54-0.04C617.11,172.19,616.87,172.2,616.71,172.21z"/>
						<path class="st12" d="M553.91,171.71c-0.03-0.04-0.1-0.08-0.17-0.1C553.74,171.64,553.81,171.68,553.91,171.71z"/>
						<path class="st12" d="M21.87,173.82c0.02-0.02-0.01-0.03,0-0.05C21.76,173.8,21.73,173.82,21.87,173.82z"/>
						<path class="st12" d="M-0.18,172.43l0.31-0.02c0.03-0.05,0.07-0.11,0.07-0.16L-0.18,172.43z"/>
						<path class="st12" d="M459.35,171.13c0.03,0,0.05,0,0.08,0.01C459.89,171.1,459.62,171.11,459.35,171.13z"/>
						<path class="st12" d="M298.06,171.34c1.83,0.25-2.97,0.32-0.22,0.6C297.58,171.83,300.34,171.5,298.06,171.34z"/>
						<path class="st12" d="M620.48,173.31c-0.26,0-0.52,0.01-0.78,0C620.06,173.33,620.29,173.32,620.48,173.31z"/>
						<path class="st12" d="M297.84,171.94C297.84,171.94,297.84,171.94,297.84,171.94l0.28,0.03
							C298.01,171.96,297.94,171.95,297.84,171.94z"/>
						<path class="st12" d="M418.86,171.3c0.08,0.05,0.24,0.09,0.41,0.12C419.26,171.39,419.17,171.36,418.86,171.3z"/>
						<path class="st12" d="M449.02,171.7l-0.75-0.04C448.57,171.69,448.81,171.7,449.02,171.7z"/>
						<path class="st12" d="M403.21,171.7c-0.41-0.02-0.54-0.06-1.1-0.02c0.05,0.01,0.1,0.02,0.17,0.03
							C402.48,171.67,402.74,171.65,403.21,171.7z"/>
						<path class="st12" d="M386.91,171.7c0.09,0.02,0.2,0.04,0.3,0.06c0.16-0.01,0.35-0.01,0.52-0.01L386.91,171.7z"/>
						<path class="st12" d="M71.4,173.68c-0.36-0.08-0.58-0.17-0.75-0.25C70.9,173.63,68.51,173.7,71.4,173.68z"/>
						<path class="st12" d="M620.96,173.19c-0.1,0.07-0.23,0.11-0.48,0.12c0.19,0,0.37-0.01,0.54-0.02
							C621.07,173.26,621.08,173.22,620.96,173.19z"/>
						<path class="st12" d="M402.54,173.91l-2.59-0.04C400.68,173.9,401.62,173.91,402.54,173.91z"/>
						<path class="st12" d="M188.32,173.64l-0.59,0.03C187.96,173.68,188.17,173.68,188.32,173.64z"/>
						<path class="st12" d="M392.27,173.91c-0.46-0.1-0.95-0.16-1.46-0.19c-0.11,0.02-0.23,0.04-0.3,0.07L392.27,173.91z"/>
						<path class="st12" d="M70.64,173.43C70.65,173.43,70.65,173.43,70.64,173.43C70.65,173.43,70.65,173.43,70.64,173.43z"/>
						<path class="st12" d="M53.59,174.1c2.47,0.01,1.16-0.36,1.68-0.57c2.94-0.1,1.36,0.27,2.37,0.46c1.84-0.1,3.25-0.44,4.62-0.42
							c0.1,0.06,0.37,0.08,0.06,0.16c1.94-0.29,5.77-0.01,8.04-0.38c0.17,0.03,0.25,0.06,0.3,0.09c-0.37-0.19-0.42-0.37-0.35-0.51
							c1.11-0.01,2.05-0.23,2.47,0.01c-0.68-0.01-0.73,0.09-1.05,0.17l1.16-0.1c1.04,0.35-1.58,0.12-1.58,0.38
							c2.26-0.11,4.89-0.4,6.63-0.3c0.36,0.34-4.05,0.11-1.74,0.42l-2.68-0.13c2.05,0.54-1.63-0.04,0.25,0.54
							c3.53,0.1,3.94-0.17,7.46-0.07c0.79-0.19-0.26-0.28,0.53-0.47c5-0.34,3.94,0.85,7.61,0.4c0.95-0.23,1.32-0.66,3.94-0.43
							l-0.89,0.38c3.41,0.04,1.95-0.55,5.52-0.29c-0.64,0.15-2.68,0.13-2.17,0.17c2.32,0.3,1.64-0.22,3.42-0.22l0.37,0.34
							c3.63-0.05,7.64-0.3,11.66-0.36c-0.22,0.1-0.91,0.21,0.03,0.31c5.08-0.17,10.84,0.04,15.74,0.24l1.87-0.29
							c0.43,0,0.81,0.13,0.34,0.19c1.91,0.11,0.1-0.19,1.02-0.3c1.09-0.02,1.43,0.17,0.75,0.26c3.37-0.25,9.59-0.54,13.14-0.22
							l-0.69,0.09c2.76,0.12,3.12-0.6,5.68-0.33l-0.49,0.05c6,0.13,12.62-0.14,17.2,0.3c0.87-0.42,5.94,0.19,6.32-0.4
							c3.42,0.29,2.44,0.4,7.27,0.59c1.29,0.03,1.92-0.37,3.51-0.43l0.04,0.31l2.16-0.32l1.15,0.37l1.49-0.08
							c-0.6-0.02-1.26-0.14-1.17-0.23c2.33-0.14,5.69,0.21,5.74,0.37l5.52-0.26c-0.12,0.12-1.05,0.17-1.78,0.25
							c2.95-0.31,0.54,0.32,3.24,0.04c-0.36-0.07,0.2-0.18,0.26-0.25c1.35,0.19,4.41,0.19,6.68,0.11l-0.44,0.21
							c4.09,0.05,8.63-0.1,13.23-0.1c-1.65-0.1-1.27-0.47,0.08-0.5l0.54,0.33c0.87-0.2-1.41-0.12,0.38-0.37
							c1.72,0.04,1.15,0.37,0.17,0.48l2.09-0.11c0.12,0.1-0.37,0.15-0.49,0.27c0.86-0.2,3.6,0.33,4.84-0.02l0.12,0.1
							c4.59,0,6.68-0.11,10.42-0.13c0.07-0.28,1.54-0.22,2.65-0.45c2.75,0.09,5.8,0.31,9.11,0.29c2.33-0.14,0.68-0.24,1.73-0.41
							c0.17,0.26,3.48,0.23,1.76,0.42c3.98-0.04,5.08-0.05,10.11-0.26c-0.55-0.1-1.16-0.15-0.84-0.24c0.91-0.04,2.08,0.11,1.95,0.23
							l-0.24,0.03c5.64-0.38,13.03,0.75,17.52,0.21l-0.25,0.03l4.66-0.28c2.14,0.04-1.29,0.19,0.3,0.35
							c5.03-0.43,7.94,0.06,12.09-0.22c3.21,0.76,11.37-0.05,15.7,0.43l-0.25-0.18c1.12-0.17,1.35,0.1,2.18,0.14
							c-0.12-0.14-1.21-0.16-0.52-0.26c9.47-0.21,19.55,0.26,29.26,0.42c3.55,0.05,2.02-0.92,6.49-0.5l-1.27,0.33
							c7.17-0.4,14.66,0.01,21.67-0.32c-0.42,0.08-0.43,0.18-1.12,0.17c1.48,0.24,5.48,0.01,5.51-0.18
							c1.09,0.02,0.25,0.18,0.93,0.28c1.49,0.14,3.73-0.31,4.52-0.07c0.13,0.04-0.42,0.08-0.69,0.1c0.97-0.12,4.51,0.03,3.59-0.25
							c2.63,0.13,5.04-0.12,7.14,0.04c1.37-0.31,4.51,0.15,4.94-0.29c-0.19,0.45,4.62,0.36,6.28,0.15
							c-0.56,0.14,1.45,0.14,0.79,0.33c1.9-0.01,3.64-0.09,3.31-0.32c3.5,0.54,7.04-0.44,9.01,0.26c5.64-0.24,10.87-0.41,15.95-0.51
							c-0.18,0.45-5.61,0.04-5.39,0.52c4.82-0.19,7.6-0.57,12.37-0.46c1.24,0.06-0.7,0.2-1.12,0.27c4.81-0.19,9.31,0.04,13.59-0.2
							c-0.01,0.04-0.47,0.09-0.91,0.12c0.84-0.01,1.96,0.07,1.87-0.14l-0.82,0.06c-1.35-0.3,3.35-0.62,3.5-0.78
							c-1.43,0.59,4.23,0.15,1.95,0.89c0.56-0.04,1.25-0.14,1.12-0.27c0.82,0.04,1.09,0.12,0.25,0.28c3.02-0.11,1.95-0.33,4.69-0.33
							c-0.01,0.1-0.56,0.14-0.85,0.25c1.39-0.19,2.78-0.39,5.09-0.3c-0.14,0.06,0.13,0.14-0.56,0.14c3.98-0.03,6.78-0.52,11.14-0.33
							c-1.29,0.43,1.48,0.14,1.71,0.52l2.34-0.11l-0.94-0.18c2.05,0.01,3.87-0.27,5.64-0.14l-1.53,0.15l3.85-0.07l-2.18-0.14
							c2.08-0.19-0.22-0.47,2.51-0.37c-0.56,0.04,2.05,0,3.13,0.22c0,0-0.01,0-0.01,0c1.02-0.12,2.06-0.24,3.58-0.15
							c0.39,0.12-0.32,0.41-0.06,0.49c1-0.31,4.81-0.09,6.08-0.42c-0.42,0.08-0.45,0.27-0.31,0.31l0.84-0.25
							c0.95,0.08,1.09,0.12,0.94,0.28c2.86,0.05-0.91-0.47,2.49-0.27c-0.27,0.02-0.14,0.06-0.69,0.1c3.41,0.11,6.59-0.16,9.73-0.04
							c0.93,0.38-2.74,0.09-1.68,0.41c4.52-0.07,9.36-0.45,13.73-0.36l-0.82-0.04c0.61-0.53,3.26,0.26,5.47,0.01
							c-0.54,0.04-0.71,0.29-0.56,0.24c3,0.09,6.12-0.13,10.66-0.3l-0.56,0.14c1.77,0.12,4.65,0.07,6.56,0.13
							c0.57-0.14,1.66-0.11,0.99-0.31c5.88,0.78,11.22-0.42,16.43,0.23c-0.62,0-1.49,0.12-0.99,0.12l4.44-0.13
							c-0.35-0.23-0.58-0.14-1.52-0.32c0.56-0.14,1.82-0.24,2.92-0.24c-2,0.15,0.02,0.37,0.88,0.5c-0.14-0.07,0.15-0.15,0.08-0.22
							c2.32,0.41,0.39-0.46,3.56-0.19l-0.17,0.12c1.19-0.06,2.28-0.22,3.56-0.19c0.53,0.27-1.26,0.12-1.34,0.34
							c1.8-0.02,3.54-0.51,5.17-0.24c-0.76,0.07-1.86,0.08-2.62,0.15c1.77,0.31,1.98,0.23,3.29,0.28l-0.13-0.01l3.04,0.14
							l-0.77-0.08c2.25-0.7,4.58-0.13,7.61-0.58c-2.94,0.43-0.49,0.25-0.71,0.55c0.77,0.08,1.95,0.18,1.61,0.26
							c1.43-0.24,2.39,0.19,4.41-0.16c0.09,0.1,1.53,0.01,1.21,0.25c1.86-0.08-0.44-0.17-0.28-0.29c2.87-0.33,6.74,0.4,10.87-0.05
							c3.56-0.19,4.22-0.52,7.52-0.68c1.11,0.16-0.91,0.36-0.91,0.36c1.8,0.14,3.15,0.12,4.84,0.01c-0.34,0.09,0.01,0.16,0.53,0.27
							c1.36-0.03,0.91-0.35,2.7-0.21c-0.31,0.11-0.7,0.28-1.36,0.39c1.6-0.09,3.18-0.27,4.84-0.36c0.44,0.17-1,0.26-1.59,0.37
							c1.86-0.08,4.83-0.15,5.41-0.42l-1.2-0.1c0.68-0.01,0.35,0.23-0.15,0.28c-1.6,0.21-2.3-0.09-2.39-0.19l1.18-0.06
							c-1.21-0.57-4.74,0.09-7.12,0.06l0.99-0.42l-2.44,0.35c-0.52-0.11-0.87-0.34,0.3-0.4c-1.7-0.21-1.51,0.15-2.97-0.08
							c-0.16-0.04-0.09-0.06,0.06-0.07l-1.67,0.12c0.33-0.09-0.28-0.29,0.75-0.23c-2.99-0.24-4.82,0.31-5.95,0l0.25-0.03
							c-4.15,0.14-0.4,0.31-3.51,0.66l-2.09-0.75l-0.41,0.31c-0.43-0.01-1.27-0.03-1.12-0.16c-1.59,0.21,0.27,0.13-0.65,0.33
							c-2.06-0.28-5.68,0.13-6.14-0.36c-0.74,0.23,1.97,0.18-0.23,0.34c-0.63-0.52-2.54,0.09-4.42-0.15
							c0.58-0.27,2.36-0.13,0.48-0.37c-1.14,0.46-3.66-0.1-5.25-0.01c-0.07,0.36-3.45,0.15-6.11,0.27c0.17-0.12-5.01-0.2-7.49-0.33
							l0.07-0.06c-0.48,0.37-3.04,0.3-4.9,0.37c0.07-0.22,0.41-0.31,1.42-0.4l-1.75,0c-0.41,0.12-0.96,0.18-2.09,0.22l0.44-0.27
							c-2.33,0.02-4.69,0.32-7.68,0.14c-0.17,0.26,2.38,0.71-0.79,0.88c-0.12-0.14-0.23-0.38,0.59-0.43
							c-0.27,0.02-0.97,0.11-1.52,0.06l1.27-0.23c-1.36-0.1-0.71,0.19-1.8,0.17c0.02-0.2-0.81-0.14-0.65-0.3
							c0.28-0.02,0.95,0.08,1.37,0c-1.23-0.04-2.72-0.15-3.21-0.3c0.11,0.11,0,0.27-0.9,0.29c-2.33,0.01-0.8-0.24-2.15-0.34
							c-0.56,0.14-2.05-0.01-2.09,0.29c-0.68,0-0.81-0.14-1.07-0.22c-1.2,0.13-5.63,0.04-4.27,0.35l0.31,0.02
							c-0.06,0.01-0.13,0.01-0.2,0.01c0.01,0,0,0,0.01,0h-0.01c-3.95,0.29-8.2-0.17-12.12-0.04l0.01-0.1
							c-2.34,0.11-5.21,0.07-6.88,0.28c-0.69,0-1.63-0.18-1.34-0.3c-1.79,0.07-1.99,0.19-4.57,0.02c1.8-0.17-0.62-0.15,1.84-0.13
							c-2.32-0.09-2.85-0.24-5.34,0.03c0.85-0.25-1.75-0.32-2.85-0.24l1.63,0.18c-1.24,0.04-2.33,0.01-3.43-0.01l0.6-0.33
							c-4.75-0.4-8.57,0.69-12.19,0.01c-1.26,0.23,2.58,0.16,1.46,0.44c-2.19-0.04-4.47-0.52-5.15-0.52c-3-0.18-2.8,0.49-5.93,0.36
							c0.4,0.12,0.78,0.44-1.56,0.55c-2.19-0.04-2.69-0.5-1.31-0.59c0.52-0.01,0.78,0.03,0.76,0.07c0.71-0.04,1.63-0.09,0.77-0.22
							l-0.28,0.12c-1.09-0.12-4.1-0.11-3.39-0.3c-1.65,0.11-0.71,0.19,0.52,0.26c-2.81-0.17-4.39-0.01-7.27-0.12
							c0.46,0.07,0.88,0.2,0.43,0.2c-4.24-0.15-1.87,0.23-4.74,0.28c-1.63-0.18,0.58-0.43-2.31-0.28c-1.77-0.12-0.37-0.31,0.33-0.41
							c-2.63,0.23-4.92-0.15-6.43-0.19l1.39-0.1c-0.83,0.06-1.51,0.06-2.2,0.05l0.79,0.24c-0.81-0.04-1.5-0.04-1.49-0.14
							c-0.84,0.16,0.64,0.39-1.02,0.61c-1.09-0.12-3.31,0.13-3.68-0.19c3.42,0.11-0.38-0.32,2.51-0.37
							c-0.56,0.04-1.24,0.04-2.05-0.01c-0.12-0.04,0.12-0.07,0.34-0.08c-3.27-0.28-1.5,0.36-4.89,0.35c0.43-0.18-0.79-0.34-1.34-0.3
							c1.36,0,0.65,0.3-0.6,0.43c-2.17-0.14-2.36,0.1-3.5,0.09l1.3,0.07c-0.44,0.18-1.53,0.15-3.04,0.21
							c-0.13-0.14,1.37-0.1,0.83-0.16c-1.68,0.31-3.8-0.32-6.14-0.11c-1.09-0.12-0.11-0.33-1.06-0.41
							c-2.63,0.23-2.84-0.24-5.61-0.05c0.8,0.24,0.93,0.18-1.01,0.41l4.54-0.17l-2.91,0.35c1.37,0,2.89-0.15,3.71-0.11
							c-1.39,0.19-1.25,0.14-0.59,0.33c-1.87-0.36-3.72,0.21-5.88-0.03l0.07-0.59c-3.26-0.26-5.79,0.3-10.02,0.15l1.36,0.1
							c-0.57,0.23-2.61,0.03-3.98,0.13c0.13-0.2-0.73-0.27-1.31-0.39c0.07,0.15-3.1-0.01-3.48,0.38l-1.89-0.26
							c-3.42-0.11-3.9,0.56-7.18,0.5c0.99-0.21-0.5-0.35,1.7-0.51c-1.1,0-2.08-0.04-2.1,0.1c-0.64-0.12-3.04,0.27-4.05,0.08
							c-0.46,0.09-0.61,0.29-1.84,0.28c-0.13-0.04,0-0.1,0-0.1c0,0.1-1.93,0.13-0.85,0.35c-3.38-0.62-9.44,0.04-12.38-0.48
							c-2.39,0.07-5.27,0.13-7.45,0.14c0.14-0.06,0.01-0.1,0.42-0.08c-3-0.18-1.84,0.57-5.25,0.36c-1.74-0.32,1.81-0.17,0.72-0.29
							c-0.47-0.65-4.11,0.09-6.41-0.29l0.56-0.04c-1.75-0.22-4.28,0.25-7.14,0.2c0,0,0.14-0.06,0.02-0.1
							c-1.96,0.33-5.67,0.44-8.42,0.53c0.86-0.25,1.25-0.13,0.73-0.39c-1.24,0.04,0.36,0.41-2.1,0.49c-0.8-0.14-2.58-0.26-2.82-0.54
							l2.33-0.01c-1.19-0.36-3.01,0.01-4.24-0.05l0.16-0.16c-3.57,0.05-3.61,0.44-7.45,0.42l0.4,0.12
							c-2.09,0.39-1.76-0.22-3.84,0.07l-0.63-0.39c-1.38,0.1-4.84,0.38-7.32,0.46c1.4-0.29,4.3-0.44,6.1-0.62
							c-1.37,0-4.65,0.03-5.37,0.22c0.55-0.04,1.25-0.13,1.79-0.07c-1.68,0.31-3.89,0.46-6.62,0.46c0.48-0.77-7.11-0.19-9.09-0.79
							c-4.83,0.28-9.58-0.12-15.2-0.08c1.99,0.6-1.64,0.02-1.3,0.63c-1.31,0.04-1.81,0.03-1.93-0.01l-3.97-0.37
							c-0.94-0.18,1.25-0.13,1.13-0.27c-2.87-0.05-1.2-0.26-3.1-0.42c0.39,0.22-1,0.31-2.63,0.23l2.3,0.28
							c-4.01,0.33-3.46-0.51-7.51-0.19l1.28-0.19c-2.07,0.11-7.65,0-9.68,0.49c-0.37-0.07-0.85-0.24,0.06-0.28
							c-4.96-0.07-11.03,0.52-14.88,0.22l0.38-0.15c-0.92,0.04-1.61,0.28-2.77,0.13c0.06-0.06,0.37-0.15-0.06-0.16
							c-0.49,0.05-2.46,0.26-3.68,0.17l1.05-0.17c-4.83-0.2-7.42,0.41-11.47,0.51c0.01-0.44-3.79-0.58-5.69-0.65l0.07-0.06
							c-5.63-0.05-9.56,0.36-14.77,0.54c-3.24-0.48-10.96-0.2-16.16-0.47c0.79,0.08-0.13,0.34-1.05,0.39
							c-1.22-0.09-3.37,0.31-3.18-0.1l0.43,0.01c-0.92-0.4-3.43-0.29-5.39-0.3l-0.32,0.53c-5.12-0.77-13.42,0.28-16.21-0.41
							c-1.24,0.13-2.77,0.13-3.99,0.26l0.07-0.28c-3.42-0.07-5.13-0.11-9.37-0.04l0.86-0.2c-2.39-0.02-3.01,0.82-5.22,0.83
							l-0.66-0.42c-4.17,0.01-8.38-0.36-12.5,0.02c0.07-0.06,0.19-0.18,0.86-0.2c-1.96-0.01-7.58-0.29-6.87,0.29
							c-0.05-0.38-4.3-0.04-6.55,0.13l0.35-0.28c-1.9,0.36-1.96,0.45-4.61,0.55c-0.63-0.04-0.55-0.22,0.28-0.15
							c-2.09-0.15-1.63,0.26-4.17,0.12l0.95-0.18c-2.15-0.02-1.98,0.07-3.17,0.28c-1.35,0.11-4.09-0.07-4.4-0.32
							c-0.29,0.15-1.47,0.36-2.74,0.29c-0.17-0.1,0.29-0.15,0.52-0.18c-3.6-0.19-5.36,0.32-7.83,0.05
							c-0.05-0.09-0.21-0.14-0.42-0.17c2.86,0.01,5.17,0.02,4.95,0.04c0-0.26-2.31-0.3-0.47-0.66c-1.86,0.19-5.03,0.61-7.28,0.49
							c-0.11-0.02-0.22-0.05-0.3-0.09l0.23-0.03c-0.52-0.03-0.99,0-1.42,0.04c-0.72-0.04-1.18-0.07-1.87-0.08
							c-0.27-0.21-2.65-0.11-3.8-0.13c0.1,0.28-1.41,0.24,0,0.47c-0.18-0.02,0.22-0.03,0.98-0.05c0.17-0.01,0.38-0.01,0.49-0.03
							c-0.02,0.01-0.05,0.02-0.08,0.02c0.76-0.01,1.74-0.01,2.86-0.02c-0.91,0.14-1.86,0.26-3.14,0.11
							c-0.59,0.18-1.24,0.37-1.61,0.45c-1.58-0.39-4.62-0.6-5.04-0.85c-3.52,0.16-8.29,0.1-10.5,0.63c-1,0.07-1.15-0.15-1.52-0.23
							c0.58-0.05,1.26-0.04,1.58-0.12c-2,0.14-5.93,0.05-6.4,0.42c-2.52-0.17,1.42-0.34-2.05-0.28l0.47-0.11
							c-6.82-0.59-11.08,0.94-18.64,0.18c0.52,0.05,0.79,0.07,0.89,0.13c-8.62-0.33-17.75,0.31-26.26-0.22
							c-2.42-0.11-2.68,0.13-4.15,0.31l-0.52-0.3l-2.52,0.35c-3.58,0.26-6.19-0.74-10.72-0.26l0.58,0.2
							c-1.63-0.04-5.15,0.12-4.88-0.11c-0.17,0.04-0.53,0.21-1.17,0.11l-0.05-0.16l-3.99,0.27c-3.1-0.11,0.48-0.63-4.03-0.66
							c-1.68,0.06-4.78,0.46-4.15,0.57c0.68,0.01,1.73,0.1,1.78,0.26l-1.54,0.08c-0.28,0.47-1.46,0.94,2.31,1.27l2.63-0.28
							l0.85,0.23l-2.21,0.01c1.25,0.21,2.05,0.02,2.94-0.1c0.21,0.12,0.58,0.2,1.1,0.25l2.58-0.44c0.31,0.18-1.16,0.36,0.57,0.46
							c1.21-0.21-1.16-0.41,0.84-0.54c1.26,0.21,0.89,0.38,2.37,0.2c0.21,0.12-0.11,0.2-0.69,0.25c1.31-0.14,3.48-0.06,4.15-0.31
							c1.31,0.26,4.43-0.07,4.3,0.37c0.41-0.11,2.31-0.35,3.52-0.36c-2.2,0.53,4.52,0.03,3.93,0.6c1.63-0.47,5.89-0.21,8.78-0.47
							c-0.16,0.04-0.48,0.11-0.73,0.09c1.63,0.04,2.1,0.18,3.14,0.27c0.21-0.39,2.74-0.48,4.11-0.72c1.99,0.38-1.21,0.46-0.58,0.82
							c-0.1-0.32,3.46-0.32,2.78-0.58c1.52,0.23,1.31,0.11,2.1,0.44c0.27-0.49,1.42-0.08,2.68-0.38c2.21,0.24,0.57,0.46,2.99,0.31
							C55.74,173.92,53.59,174.1,53.59,174.1z M111.22,173.25C111.22,173.25,111.22,173.25,111.22,173.25
							c-0.5,0.01-0.92,0.02-1.19,0.02C110.27,173.27,110.62,173.26,111.22,173.25z M116.06,173.24c-0.59-0.01-1.32-0.01-2.1-0.01
							c-0.17-0.1,0.01-0.2,0.5-0.19C114.19,173.11,115.34,173.16,116.06,173.24z M105.81,171.3c0.77-0.04,1.02,0.02,1.13,0.07
							c-0.36,0-0.79,0.01-1.34,0.03c-0.02,0.01-0.07,0.02-0.09,0.03C105.59,171.38,105.67,171.33,105.81,171.3z"/>
						<path class="st12" d="M104.44,171.67c-0.11,0.01-0.17,0.02-0.32,0.02c0.16,0.02,0.31,0.05,0.46,0.06
							c0.09-0.03,0.19-0.06,0.27-0.09C104.71,171.66,104.57,171.66,104.44,171.67z"/>
						<path class="st12" d="M543.43,172.08l-0.1-0.01c0.08,0.01,0.16,0.02,0.21,0.04C543.47,172.1,543.47,172.09,543.43,172.08z"/>
						<polygon class="st12" points="182.93,173.78 182.92,173.71 182.5,173.77 						"/>
						<path class="st12" d="M570.1,173.05c0.05,0.02,0.15,0.05,0.35,0.07C570.43,173.1,570.28,173.07,570.1,173.05z"/>
						<path class="st12" d="M581.62,173.11l1.63,0.1C582.54,173.15,582.03,173.13,581.62,173.11z"/>
						<path class="st12" d="M590.48,173.25c0.11-0.05,0.14-0.09,0.17-0.12c-0.01,0-0.01,0-0.02,0L590.48,173.25z"/>
						<path class="st12" d="M449.63,173.58c-0.12,0-0.24,0.01-0.34,0.01C448.49,173.65,449.03,173.63,449.63,173.58z"/>
						<path class="st12" d="M491.55,172.92c-0.44,0.05-0.88,0.1-1.35,0.13C490.94,173.08,491.52,173.08,491.55,172.92z"/>
						<path class="st12" d="M402.83,173.92C402.83,173.92,402.83,173.92,402.83,173.92c-0.1,0-0.18,0-0.28,0L402.83,173.92z"/>
						<path class="st12" d="M488.25,173.05c0.75,0.06,1.37,0.04,1.95,0C489.59,173.04,488.87,173.01,488.25,173.05z"/>
						<path class="st12" d="M628.87,173.38l0.43,0.01c-0.01-0.02,0.02-0.03,0.05-0.05L628.87,173.38z"/>
						<path class="st12" d="M629.35,173.34l0.47-0.03C629.6,173.31,629.42,173.31,629.35,173.34z"/>
						<path class="st12" d="M630.82,173.24l-1,0.07C630.17,173.31,630.59,173.32,630.82,173.24z"/>
						<path class="st12" d="M617.14,173.25l-0.13,0.1C617.08,173.33,617.13,173.29,617.14,173.25z"/>
						<path class="st12" d="M613.58,173.28c0.85,0.02,2.13,0.22,3.32,0.15l0.11-0.08C616.45,173.5,614.39,173.1,613.58,173.28z"/>
						<path class="st12" d="M598.71,172.02l2.99,0.08c-0.52-0.11-1.21-0.25,0.15-0.28C598.08,171.49,602.62,172.06,598.71,172.02z"
							/>
						<path class="st12" d="M589.45,171.86c1.6-0.05-0.02-0.16,0.07-0.22C588.5,171.74,588.25,171.76,589.45,171.86z"/>
						<path class="st12" d="M522.53,171.86l0.16-0.26C521.46,171.64,522.68,171.7,522.53,171.86z"/>
						<polygon class="st12" points="509.74,173.18 510.95,173.34 511.52,173.1 						"/>
						<polygon class="st12" points="502.19,171.36 502.73,171.32 500.66,171.41 						"/>
						<path class="st12" d="M389.81,171.45l0.37,0.32C391.02,171.71,391.19,171.35,389.81,171.45z"/>
						<path class="st12" d="M341.29,171.77c-0.53-0.16-1.89-0.26-2.73-0.1C339.65,171.69,340.74,171.81,341.29,171.77z"/>
						<polygon class="st12" points="195.8,171.26 196.77,171.15 194.93,171.24 						"/>
					</g>
				</g>
			</g>
		</g>
	</g>
	<g>
		<g>
			<g>
				<g>
					<g>
						<path class="st12" d="M639.73,235.67c0.34-0.09,0.15-0.28-0.78-0.24l-0.66,0.33L639.73,235.67z"/>
						<path class="st12" d="M633.49,235.05c-1.09,0.16-2.35,0.44-1.64,0.75c1.08-0.32,1.34-0.19,2.51-0.56
							c0.93-0.04,1.62,0.11,1.46,0.23c0.33-0.08,1.44,0.07,1.94-0.14c-1.21-0.26-2.74-0.27-4.34-0.05
							C633.08,235.2,633.41,235.11,633.49,235.05z"/>
						<path class="st12" d="M542.74,234.54l0.58,0.04C543.16,234.55,542.96,234.54,542.74,234.54z"/>
						<path class="st12" d="M486.51,234.35c0.43-0.01,0.61-0.04,0.63-0.07C486.74,234.31,486.42,234.33,486.51,234.35z"/>
						<path class="st12" d="M476.91,233.99c0.21,0.01,0.38,0.02,0.57,0.02C477.26,233.98,477.05,233.97,476.91,233.99z"/>
						<path class="st12" d="M542.74,234.54l-1.5-0.1C541.13,234.54,542.01,234.51,542.74,234.54z"/>
						<path class="st12" d="M620.97,235.85c0.31-0.02,0.58-0.05,0.82-0.09c-0.26,0.01-0.51,0.03-0.77,0.04
							C621.01,235.82,621,235.83,620.97,235.85z"/>
						<path class="st12" d="M567.53,234.27l0.46,0c0.13-0.04,0.26-0.08,0.38-0.13L567.53,234.27z"/>
						<path class="st12" d="M586.55,234.22c-0.43-0.01-0.58,0.27-0.74,0.39c0.24-0.12,0.56-0.17,0.94-0.19
							C586.75,234.36,586.69,234.3,586.55,234.22z"/>
						<path class="st12" d="M616.71,234.71l0.54-0.04C617.11,234.69,616.87,234.7,616.71,234.71z"/>
						<path class="st12" d="M553.91,234.21c-0.03-0.04-0.1-0.08-0.17-0.1C553.74,234.14,553.81,234.18,553.91,234.21z"/>
						<path class="st12" d="M21.87,236.32c0.02-0.02-0.01-0.03,0-0.05C21.76,236.3,21.73,236.32,21.87,236.32z"/>
						<path class="st12" d="M-0.18,234.93l0.31-0.02c0.03-0.05,0.07-0.11,0.07-0.16L-0.18,234.93z"/>
						<path class="st12" d="M459.35,233.63c0.03,0,0.05,0,0.08,0.01C459.89,233.6,459.62,233.61,459.35,233.63z"/>
						<path class="st12" d="M298.06,233.84c1.83,0.25-2.97,0.32-0.22,0.6C297.58,234.33,300.34,234,298.06,233.84z"/>
						<path class="st12" d="M620.48,235.81c-0.26,0-0.52,0.01-0.78,0C620.06,235.83,620.29,235.82,620.48,235.81z"/>
						<path class="st12" d="M297.84,234.44C297.84,234.44,297.84,234.44,297.84,234.44l0.28,0.03
							C298.01,234.46,297.94,234.45,297.84,234.44z"/>
						<path class="st12" d="M418.86,233.8c0.08,0.05,0.24,0.09,0.41,0.12C419.26,233.89,419.17,233.86,418.86,233.8z"/>
						<path class="st12" d="M449.02,234.2l-0.75-0.04C448.57,234.19,448.81,234.2,449.02,234.2z"/>
						<path class="st12" d="M403.21,234.2c-0.41-0.02-0.54-0.06-1.1-0.02c0.05,0.01,0.1,0.02,0.17,0.03
							C402.48,234.17,402.74,234.15,403.21,234.2z"/>
						<path class="st12" d="M386.91,234.2c0.09,0.02,0.2,0.04,0.3,0.06c0.16-0.01,0.35-0.01,0.52-0.01L386.91,234.2z"/>
						<path class="st12" d="M71.4,236.18c-0.36-0.08-0.58-0.17-0.75-0.25C70.9,236.13,68.51,236.2,71.4,236.18z"/>
						<path class="st12" d="M620.96,235.69c-0.1,0.07-0.23,0.11-0.48,0.12c0.19,0,0.37-0.01,0.54-0.02
							C621.07,235.76,621.08,235.72,620.96,235.69z"/>
						<path class="st12" d="M402.54,236.41l-2.59-0.04C400.68,236.4,401.62,236.41,402.54,236.41z"/>
						<path class="st12" d="M188.32,236.14l-0.59,0.03C187.96,236.18,188.17,236.18,188.32,236.14z"/>
						<path class="st12" d="M392.27,236.41c-0.46-0.1-0.95-0.16-1.46-0.19c-0.11,0.02-0.23,0.04-0.3,0.07L392.27,236.41z"/>
						<path class="st12" d="M70.64,235.93C70.65,235.93,70.65,235.93,70.64,235.93C70.65,235.93,70.65,235.93,70.64,235.93z"/>
						<path class="st12" d="M53.59,236.6c2.47,0.01,1.16-0.36,1.68-0.57c2.94-0.1,1.36,0.27,2.37,0.46c1.84-0.1,3.25-0.44,4.62-0.42
							c0.1,0.06,0.37,0.08,0.06,0.16c1.94-0.29,5.77-0.01,8.04-0.38c0.17,0.03,0.25,0.06,0.3,0.09c-0.37-0.19-0.42-0.37-0.35-0.51
							c1.11-0.01,2.05-0.23,2.47,0.01c-0.68-0.01-0.73,0.09-1.05,0.17l1.16-0.1c1.04,0.35-1.58,0.12-1.58,0.38
							c2.26-0.11,4.89-0.4,6.63-0.3c0.36,0.34-4.05,0.11-1.74,0.42l-2.68-0.13c2.05,0.54-1.63-0.04,0.25,0.54
							c3.53,0.1,3.94-0.17,7.46-0.07c0.79-0.19-0.26-0.28,0.53-0.47c5-0.34,3.94,0.85,7.61,0.4c0.95-0.23,1.32-0.66,3.94-0.43
							l-0.89,0.38c3.41,0.04,1.95-0.55,5.52-0.29c-0.64,0.15-2.68,0.13-2.17,0.17c2.32,0.3,1.64-0.22,3.42-0.22l0.37,0.34
							c3.63-0.05,7.64-0.3,11.66-0.36c-0.22,0.1-0.91,0.21,0.03,0.31c5.08-0.17,10.84,0.04,15.74,0.24l1.87-0.29
							c0.43,0,0.81,0.13,0.34,0.19c1.91,0.11,0.1-0.19,1.02-0.3c1.09-0.02,1.43,0.17,0.75,0.26c3.37-0.25,9.59-0.54,13.14-0.22
							l-0.69,0.09c2.76,0.12,3.12-0.6,5.68-0.33l-0.49,0.05c6,0.13,12.62-0.14,17.2,0.3c0.87-0.42,5.94,0.19,6.32-0.4
							c3.42,0.29,2.44,0.4,7.27,0.59c1.29,0.03,1.92-0.37,3.51-0.43l0.04,0.31l2.16-0.32l1.15,0.37l1.49-0.08
							c-0.6-0.02-1.26-0.14-1.17-0.23c2.33-0.14,5.69,0.21,5.74,0.37l5.52-0.26c-0.12,0.12-1.05,0.17-1.78,0.25
							c2.95-0.31,0.54,0.32,3.24,0.04c-0.36-0.07,0.2-0.18,0.26-0.25c1.35,0.19,4.41,0.19,6.68,0.11l-0.44,0.21
							c4.09,0.05,8.63-0.1,13.23-0.1c-1.65-0.1-1.27-0.47,0.08-0.5l0.54,0.33c0.87-0.2-1.41-0.12,0.38-0.37
							c1.72,0.04,1.15,0.37,0.17,0.48l2.09-0.11c0.12,0.1-0.37,0.15-0.49,0.27c0.86-0.2,3.6,0.33,4.84-0.02l0.12,0.1
							c4.59,0,6.68-0.11,10.42-0.13c0.07-0.28,1.54-0.22,2.65-0.45c2.75,0.09,5.8,0.31,9.11,0.29c2.33-0.14,0.68-0.24,1.73-0.41
							c0.17,0.26,3.48,0.23,1.76,0.42c3.98-0.04,5.08-0.05,10.11-0.26c-0.55-0.1-1.16-0.15-0.84-0.24c0.91-0.04,2.08,0.11,1.95,0.23
							l-0.24,0.03c5.64-0.38,13.03,0.75,17.52,0.21l-0.25,0.03l4.66-0.28c2.14,0.04-1.29,0.19,0.3,0.35
							c5.03-0.43,7.94,0.06,12.09-0.22c3.21,0.76,11.37-0.05,15.7,0.43l-0.25-0.18c1.12-0.17,1.35,0.1,2.18,0.14
							c-0.12-0.14-1.21-0.16-0.52-0.26c9.47-0.21,19.55,0.26,29.26,0.42c3.55,0.05,2.02-0.92,6.49-0.5l-1.27,0.33
							c7.17-0.4,14.66,0.01,21.67-0.32c-0.42,0.08-0.43,0.18-1.12,0.17c1.48,0.24,5.48,0.01,5.51-0.18
							c1.09,0.02,0.25,0.18,0.93,0.28c1.49,0.14,3.73-0.31,4.52-0.07c0.13,0.04-0.42,0.08-0.69,0.1c0.97-0.12,4.51,0.03,3.59-0.25
							c2.63,0.13,5.04-0.12,7.14,0.04c1.37-0.31,4.51,0.15,4.94-0.29c-0.19,0.45,4.62,0.36,6.28,0.15
							c-0.56,0.14,1.45,0.14,0.79,0.33c1.9-0.01,3.64-0.09,3.31-0.32c3.5,0.54,7.04-0.44,9.01,0.26c5.64-0.24,10.87-0.41,15.95-0.51
							c-0.18,0.45-5.61,0.04-5.39,0.52c4.82-0.19,7.6-0.57,12.37-0.46c1.24,0.06-0.7,0.2-1.12,0.27c4.81-0.19,9.31,0.04,13.59-0.2
							c-0.01,0.04-0.47,0.09-0.91,0.12c0.84-0.01,1.96,0.07,1.87-0.14l-0.82,0.06c-1.35-0.3,3.35-0.62,3.5-0.78
							c-1.43,0.59,4.23,0.15,1.95,0.89c0.56-0.04,1.25-0.14,1.12-0.27c0.82,0.04,1.09,0.12,0.25,0.28c3.02-0.11,1.95-0.33,4.69-0.33
							c-0.01,0.1-0.56,0.14-0.85,0.25c1.39-0.19,2.78-0.39,5.09-0.3c-0.14,0.06,0.13,0.14-0.56,0.14c3.98-0.03,6.78-0.52,11.14-0.33
							c-1.29,0.43,1.48,0.14,1.71,0.52l2.34-0.11l-0.94-0.18c2.05,0.01,3.87-0.27,5.64-0.14l-1.53,0.15l3.85-0.07l-2.18-0.14
							c2.08-0.19-0.22-0.47,2.51-0.37c-0.56,0.04,2.05,0,3.13,0.22c0,0-0.01,0-0.01,0c1.02-0.12,2.06-0.24,3.58-0.15
							c0.39,0.12-0.32,0.41-0.06,0.49c1-0.31,4.81-0.09,6.08-0.42c-0.42,0.08-0.45,0.27-0.31,0.31l0.84-0.25
							c0.95,0.08,1.09,0.12,0.94,0.28c2.86,0.05-0.91-0.47,2.49-0.27c-0.27,0.02-0.14,0.06-0.69,0.1c3.41,0.11,6.59-0.16,9.73-0.04
							c0.93,0.38-2.74,0.09-1.68,0.41c4.52-0.07,9.36-0.45,13.73-0.36l-0.82-0.04c0.61-0.53,3.26,0.26,5.47,0.01
							c-0.54,0.04-0.71,0.29-0.56,0.24c3,0.09,6.12-0.13,10.66-0.3l-0.56,0.14c1.77,0.12,4.65,0.07,6.56,0.13
							c0.57-0.14,1.66-0.11,0.99-0.31c5.88,0.78,11.22-0.42,16.43,0.23c-0.62,0-1.49,0.12-0.99,0.12l4.44-0.13
							c-0.35-0.23-0.58-0.14-1.52-0.32c0.56-0.14,1.82-0.24,2.92-0.24c-2,0.15,0.02,0.37,0.88,0.5c-0.14-0.07,0.15-0.15,0.08-0.22
							c2.32,0.41,0.39-0.46,3.56-0.19l-0.17,0.12c1.19-0.06,2.28-0.22,3.56-0.19c0.53,0.27-1.26,0.12-1.34,0.34
							c1.8-0.02,3.54-0.51,5.17-0.24c-0.76,0.07-1.86,0.08-2.62,0.15c1.77,0.31,1.98,0.23,3.29,0.28l-0.13-0.01l3.04,0.14
							l-0.77-0.09c2.25-0.7,4.58-0.13,7.61-0.58c-2.94,0.43-0.49,0.25-0.71,0.55c0.77,0.08,1.95,0.18,1.61,0.26
							c1.43-0.24,2.39,0.19,4.41-0.16c0.09,0.1,1.53,0.01,1.21,0.25c1.86-0.08-0.44-0.17-0.28-0.29c2.87-0.33,6.74,0.4,10.87-0.05
							c3.56-0.19,4.22-0.52,7.52-0.68c1.11,0.16-0.91,0.36-0.91,0.36c1.8,0.14,3.15,0.12,4.84,0.01c-0.34,0.08,0.01,0.16,0.53,0.27
							c1.36-0.03,0.91-0.35,2.7-0.21c-0.31,0.11-0.7,0.28-1.36,0.39c1.6-0.09,3.18-0.27,4.84-0.36c0.44,0.17-1,0.26-1.59,0.37
							c1.86-0.08,4.83-0.15,5.41-0.42l-1.2-0.1c0.68-0.01,0.35,0.23-0.15,0.28c-1.6,0.21-2.3-0.09-2.39-0.19l1.18-0.06
							c-1.21-0.57-4.74,0.09-7.12,0.06l0.99-0.42l-2.44,0.35c-0.52-0.11-0.87-0.34,0.3-0.4c-1.7-0.21-1.51,0.15-2.97-0.08
							c-0.16-0.04-0.09-0.06,0.06-0.07l-1.67,0.12c0.33-0.09-0.28-0.29,0.75-0.23c-2.99-0.24-4.82,0.31-5.95,0l0.25-0.03
							c-4.15,0.14-0.4,0.31-3.51,0.66l-2.09-0.75l-0.41,0.31c-0.43-0.01-1.27-0.03-1.12-0.16c-1.59,0.21,0.27,0.13-0.65,0.33
							c-2.06-0.28-5.68,0.13-6.14-0.36c-0.74,0.23,1.97,0.18-0.23,0.34c-0.63-0.52-2.54,0.09-4.42-0.15
							c0.58-0.27,2.36-0.13,0.48-0.37c-1.14,0.46-3.66-0.1-5.25-0.01c-0.07,0.36-3.45,0.15-6.11,0.27c0.17-0.12-5.01-0.2-7.49-0.33
							l0.07-0.06c-0.48,0.37-3.04,0.3-4.9,0.37c0.07-0.22,0.41-0.31,1.42-0.4l-1.75,0c-0.41,0.12-0.96,0.18-2.09,0.22l0.44-0.27
							c-2.33,0.02-4.69,0.32-7.68,0.14c-0.17,0.26,2.38,0.71-0.79,0.88c-0.12-0.14-0.23-0.38,0.59-0.43
							c-0.27,0.02-0.97,0.12-1.52,0.06l1.27-0.23c-1.36-0.1-0.71,0.19-1.8,0.17c0.02-0.2-0.81-0.14-0.65-0.3
							c0.28-0.02,0.95,0.08,1.37,0c-1.23-0.04-2.72-0.15-3.21-0.3c0.11,0.11,0,0.27-0.9,0.29c-2.33,0.01-0.8-0.24-2.15-0.34
							c-0.56,0.14-2.05-0.01-2.09,0.29c-0.68,0-0.81-0.14-1.07-0.22c-1.2,0.13-5.63,0.04-4.27,0.35l0.31,0.02
							c-0.06,0.01-0.13,0.01-0.2,0.01c0.01,0,0,0,0.01,0h-0.01c-3.95,0.29-8.2-0.17-12.12-0.04l0.01-0.1
							c-2.34,0.11-5.21,0.07-6.88,0.28c-0.69,0-1.63-0.18-1.34-0.3c-1.79,0.07-1.99,0.19-4.57,0.02c1.8-0.17-0.62-0.15,1.84-0.13
							c-2.32-0.09-2.85-0.24-5.34,0.03c0.85-0.25-1.75-0.32-2.85-0.24l1.63,0.18c-1.24,0.04-2.33,0.01-3.43-0.01l0.6-0.33
							c-4.75-0.4-8.57,0.69-12.19,0.01c-1.26,0.23,2.58,0.16,1.46,0.44c-2.19-0.04-4.47-0.52-5.15-0.52c-3-0.18-2.8,0.49-5.93,0.36
							c0.4,0.12,0.78,0.44-1.56,0.55c-2.19-0.04-2.69-0.5-1.31-0.59c0.52-0.01,0.78,0.03,0.76,0.07c0.71-0.04,1.63-0.09,0.77-0.22
							l-0.28,0.12c-1.09-0.12-4.1-0.11-3.39-0.3c-1.65,0.11-0.71,0.19,0.52,0.26c-2.81-0.17-4.39-0.01-7.27-0.12
							c0.46,0.07,0.88,0.2,0.43,0.2c-4.24-0.15-1.87,0.23-4.74,0.28c-1.63-0.18,0.58-0.43-2.31-0.28c-1.77-0.12-0.37-0.31,0.33-0.41
							c-2.63,0.23-4.92-0.15-6.43-0.19l1.39-0.1c-0.83,0.06-1.51,0.06-2.2,0.05l0.79,0.24c-0.81-0.04-1.5-0.04-1.49-0.14
							c-0.84,0.16,0.64,0.39-1.02,0.61c-1.09-0.12-3.31,0.13-3.68-0.19c3.42,0.11-0.38-0.32,2.51-0.37
							c-0.56,0.04-1.24,0.04-2.05-0.01c-0.12-0.04,0.12-0.07,0.34-0.08c-3.27-0.28-1.5,0.36-4.89,0.35c0.43-0.18-0.79-0.34-1.34-0.3
							c1.36,0,0.65,0.3-0.6,0.43c-2.17-0.14-2.36,0.1-3.5,0.09l1.3,0.07c-0.44,0.18-1.53,0.15-3.04,0.21
							c-0.13-0.14,1.37-0.1,0.83-0.16c-1.68,0.31-3.8-0.32-6.14-0.11c-1.09-0.12-0.11-0.33-1.06-0.42
							c-2.63,0.23-2.84-0.24-5.61-0.05c0.8,0.24,0.93,0.18-1.01,0.41l4.54-0.17l-2.91,0.35c1.37,0,2.89-0.15,3.71-0.11
							c-1.39,0.19-1.25,0.14-0.59,0.33c-1.87-0.36-3.72,0.21-5.88-0.03l0.07-0.59c-3.26-0.26-5.79,0.3-10.02,0.15l1.36,0.1
							c-0.57,0.23-2.61,0.03-3.98,0.13c0.13-0.2-0.73-0.27-1.31-0.39c0.07,0.15-3.1-0.01-3.48,0.38l-1.89-0.26
							c-3.42-0.11-3.9,0.56-7.18,0.5c0.99-0.21-0.5-0.35,1.7-0.51c-1.1,0-2.08-0.04-2.1,0.1c-0.64-0.12-3.04,0.27-4.05,0.08
							c-0.46,0.09-0.61,0.29-1.84,0.28c-0.13-0.04,0-0.1,0-0.1c0,0.1-1.93,0.13-0.85,0.35c-3.38-0.62-9.44,0.04-12.38-0.48
							c-2.39,0.07-5.27,0.13-7.45,0.14c0.14-0.06,0.01-0.1,0.42-0.08c-3-0.18-1.84,0.57-5.25,0.36c-1.74-0.32,1.81-0.17,0.72-0.29
							c-0.47-0.65-4.11,0.09-6.41-0.29l0.56-0.04c-1.75-0.22-4.28,0.25-7.14,0.2c0,0,0.14-0.06,0.02-0.1
							c-1.96,0.33-5.67,0.44-8.42,0.53c0.86-0.25,1.25-0.13,0.73-0.39c-1.24,0.04,0.36,0.41-2.1,0.49c-0.8-0.14-2.58-0.26-2.82-0.54
							l2.33-0.01c-1.19-0.36-3.01,0.01-4.24-0.05l0.16-0.16c-3.57,0.05-3.61,0.44-7.45,0.42l0.4,0.12
							c-2.09,0.39-1.76-0.22-3.84,0.07l-0.63-0.39c-1.38,0.1-4.84,0.38-7.32,0.46c1.4-0.29,4.3-0.44,6.1-0.62
							c-1.37,0-4.65,0.03-5.37,0.22c0.55-0.04,1.25-0.13,1.79-0.07c-1.68,0.31-3.89,0.46-6.62,0.46c0.48-0.77-7.11-0.19-9.09-0.79
							c-4.83,0.28-9.58-0.12-15.2-0.08c1.99,0.6-1.64,0.02-1.3,0.63c-1.31,0.04-1.81,0.03-1.93-0.01l-3.97-0.37
							c-0.94-0.18,1.25-0.13,1.13-0.27c-2.87-0.05-1.2-0.26-3.1-0.42c0.39,0.22-1,0.31-2.63,0.23l2.3,0.28
							c-4.01,0.33-3.46-0.51-7.51-0.19l1.28-0.19c-2.07,0.11-7.65,0-9.68,0.49c-0.37-0.07-0.85-0.24,0.06-0.28
							c-4.96-0.07-11.03,0.52-14.88,0.22l0.38-0.15c-0.92,0.04-1.61,0.28-2.77,0.13c0.06-0.06,0.37-0.15-0.06-0.16
							c-0.49,0.05-2.46,0.26-3.68,0.17l1.05-0.17c-4.83-0.2-7.42,0.41-11.47,0.51c0.01-0.44-3.79-0.58-5.69-0.65l0.07-0.06
							c-5.63-0.05-9.56,0.36-14.77,0.54c-3.24-0.48-10.96-0.2-16.16-0.47c0.79,0.08-0.13,0.34-1.05,0.39
							c-1.22-0.09-3.37,0.31-3.18-0.1l0.43,0.01c-0.92-0.4-3.43-0.29-5.39-0.3l-0.32,0.53c-5.12-0.77-13.42,0.28-16.21-0.41
							c-1.24,0.13-2.77,0.13-3.99,0.26l0.07-0.28c-3.42-0.07-5.13-0.11-9.37-0.04l0.86-0.2c-2.39-0.02-3.01,0.82-5.22,0.83
							l-0.66-0.42c-4.17,0.01-8.38-0.36-12.5,0.02c0.07-0.06,0.19-0.18,0.86-0.2c-1.96-0.01-7.58-0.29-6.87,0.29
							c-0.05-0.38-4.3-0.04-6.55,0.13l0.35-0.28c-1.9,0.36-1.96,0.45-4.61,0.55c-0.63-0.04-0.55-0.22,0.28-0.15
							c-2.09-0.15-1.63,0.26-4.17,0.12l0.95-0.18c-2.15-0.02-1.98,0.07-3.17,0.28c-1.35,0.11-4.09-0.07-4.4-0.32
							c-0.29,0.15-1.47,0.36-2.74,0.29c-0.17-0.1,0.29-0.15,0.52-0.18c-3.6-0.19-5.36,0.32-7.83,0.05
							c-0.05-0.09-0.21-0.14-0.42-0.17c2.86,0.01,5.17,0.02,4.95,0.04c0-0.26-2.31-0.3-0.47-0.66c-1.86,0.19-5.03,0.61-7.28,0.49
							c-0.11-0.02-0.22-0.05-0.3-0.09l0.23-0.03c-0.52-0.03-0.99,0-1.42,0.04c-0.72-0.04-1.18-0.07-1.87-0.08
							c-0.27-0.21-2.65-0.11-3.8-0.13c0.1,0.28-1.41,0.24,0,0.47c-0.18-0.02,0.22-0.03,0.98-0.05c0.17-0.01,0.38-0.01,0.49-0.03
							c-0.02,0.01-0.05,0.02-0.08,0.02c0.76-0.01,1.74-0.01,2.86-0.02c-0.91,0.14-1.86,0.26-3.14,0.11
							c-0.59,0.18-1.24,0.37-1.61,0.45c-1.58-0.39-4.62-0.6-5.04-0.85c-3.52,0.16-8.29,0.1-10.5,0.63c-1,0.07-1.15-0.15-1.52-0.23
							c0.58-0.05,1.26-0.04,1.58-0.12c-2,0.14-5.93,0.05-6.4,0.42c-2.52-0.17,1.42-0.34-2.05-0.28l0.47-0.11
							c-6.82-0.59-11.08,0.94-18.64,0.18c0.52,0.05,0.79,0.07,0.89,0.13c-8.62-0.33-17.75,0.31-26.26-0.22
							c-2.42-0.11-2.68,0.13-4.15,0.31l-0.52-0.3l-2.52,0.35c-3.58,0.26-6.19-0.74-10.72-0.26l0.58,0.2
							c-1.63-0.04-5.15,0.12-4.88-0.11c-0.17,0.04-0.53,0.21-1.17,0.11l-0.05-0.16l-3.99,0.27c-3.1-0.11,0.48-0.63-4.03-0.66
							c-1.68,0.06-4.78,0.46-4.15,0.57c0.68,0.01,1.73,0.1,1.78,0.26l-1.54,0.08c-0.28,0.47-1.46,0.94,2.31,1.27l2.63-0.28
							l0.85,0.23l-2.21,0.01c1.25,0.21,2.05,0.02,2.94-0.1c0.21,0.12,0.58,0.2,1.1,0.25l2.58-0.44c0.31,0.18-1.16,0.36,0.57,0.46
							c1.21-0.21-1.16-0.41,0.84-0.54c1.26,0.21,0.89,0.38,2.37,0.2c0.21,0.12-0.11,0.2-0.69,0.25c1.31-0.14,3.48-0.06,4.15-0.31
							c1.31,0.26,4.43-0.07,4.3,0.37c0.41-0.11,2.31-0.35,3.52-0.36c-2.2,0.53,4.52,0.03,3.93,0.6c1.63-0.47,5.89-0.21,8.78-0.47
							c-0.16,0.04-0.48,0.11-0.73,0.09c1.63,0.04,2.1,0.18,3.14,0.27c0.21-0.39,2.74-0.48,4.11-0.72c1.99,0.38-1.21,0.46-0.58,0.82
							c-0.1-0.32,3.46-0.32,2.78-0.58c1.52,0.23,1.31,0.11,2.1,0.44c0.27-0.49,1.42-0.08,2.68-0.38c2.21,0.24,0.57,0.46,2.99,0.31
							C55.74,236.42,53.59,236.6,53.59,236.6z M111.22,235.75C111.22,235.75,111.22,235.75,111.22,235.75
							c-0.5,0.01-0.92,0.02-1.19,0.02C110.27,235.77,110.62,235.76,111.22,235.75z M116.06,235.74c-0.59-0.01-1.32-0.01-2.1-0.01
							c-0.17-0.1,0.01-0.2,0.5-0.19C114.19,235.61,115.34,235.66,116.06,235.74z M105.81,233.8c0.77-0.04,1.02,0.02,1.13,0.07
							c-0.36,0-0.79,0.01-1.34,0.03c-0.02,0.01-0.07,0.02-0.09,0.03C105.59,233.88,105.67,233.83,105.81,233.8z"/>
						<path class="st12" d="M104.44,234.17c-0.11,0.01-0.17,0.02-0.32,0.02c0.16,0.02,0.31,0.05,0.46,0.06
							c0.09-0.03,0.19-0.06,0.27-0.09C104.71,234.16,104.57,234.16,104.44,234.17z"/>
						<path class="st12" d="M543.43,234.58l-0.1-0.01c0.08,0.01,0.16,0.02,0.21,0.04C543.47,234.6,543.47,234.59,543.43,234.58z"/>
						<polygon class="st12" points="182.93,236.28 182.92,236.21 182.5,236.27 						"/>
						<path class="st12" d="M570.1,235.55c0.05,0.02,0.15,0.05,0.35,0.07C570.43,235.6,570.28,235.57,570.1,235.55z"/>
						<path class="st12" d="M581.62,235.61l1.63,0.1C582.54,235.65,582.03,235.63,581.62,235.61z"/>
						<path class="st12" d="M590.48,235.75c0.11-0.05,0.14-0.09,0.17-0.12c-0.01,0-0.01,0-0.02,0L590.48,235.75z"/>
						<path class="st12" d="M449.63,236.08c-0.12,0-0.24,0.01-0.34,0.01C448.49,236.15,449.03,236.13,449.63,236.08z"/>
						<path class="st12" d="M491.55,235.42c-0.44,0.05-0.88,0.1-1.35,0.13C490.94,235.58,491.52,235.58,491.55,235.42z"/>
						<path class="st12" d="M402.83,236.42C402.83,236.42,402.83,236.42,402.83,236.42c-0.1,0-0.18,0-0.28,0L402.83,236.42z"/>
						<path class="st12" d="M488.25,235.55c0.75,0.06,1.37,0.04,1.95,0C489.59,235.54,488.87,235.51,488.25,235.55z"/>
						<path class="st12" d="M628.87,235.88l0.43,0.01c-0.01-0.02,0.02-0.03,0.05-0.05L628.87,235.88z"/>
						<path class="st12" d="M629.35,235.84l0.47-0.03C629.6,235.81,629.42,235.81,629.35,235.84z"/>
						<path class="st12" d="M630.82,235.74l-1,0.07C630.17,235.81,630.59,235.82,630.82,235.74z"/>
						<path class="st12" d="M617.14,235.75l-0.13,0.1C617.08,235.83,617.13,235.79,617.14,235.75z"/>
						<path class="st12" d="M613.58,235.78c0.85,0.02,2.13,0.22,3.32,0.15l0.11-0.08C616.45,236,614.39,235.6,613.58,235.78z"/>
						<path class="st12" d="M598.71,234.52l2.99,0.08c-0.52-0.11-1.21-0.25,0.15-0.28C598.08,233.99,602.62,234.56,598.71,234.52z"
							/>
						<path class="st12" d="M589.45,234.36c1.6-0.05-0.02-0.16,0.07-0.22C588.5,234.24,588.25,234.26,589.45,234.36z"/>
						<path class="st12" d="M522.53,234.36l0.16-0.26C521.46,234.14,522.68,234.2,522.53,234.36z"/>
						<polygon class="st12" points="509.74,235.68 510.95,235.84 511.52,235.6 						"/>
						<polygon class="st12" points="502.19,233.86 502.73,233.82 500.66,233.91 						"/>
						<path class="st12" d="M389.81,233.95l0.37,0.32C391.02,234.21,391.19,233.85,389.81,233.95z"/>
						<path class="st12" d="M341.29,234.27c-0.53-0.16-1.89-0.26-2.73-0.1C339.65,234.19,340.74,234.31,341.29,234.27z"/>
						<polygon class="st12" points="195.8,233.76 196.77,233.65 194.93,233.74 						"/>
					</g>
				</g>
			</g>
		</g>
	</g>
	<g>
		<g>
			<g>
				<g>
					<g>
						<path class="st12" d="M639.73,298.17c0.34-0.09,0.15-0.28-0.78-0.24l-0.66,0.33L639.73,298.17z"/>
						<path class="st12" d="M633.49,297.55c-1.09,0.16-2.35,0.44-1.64,0.75c1.08-0.32,1.34-0.19,2.51-0.56
							c0.93-0.04,1.62,0.11,1.46,0.23c0.33-0.08,1.44,0.07,1.94-0.14c-1.21-0.26-2.74-0.27-4.34-0.05
							C633.08,297.7,633.41,297.61,633.49,297.55z"/>
						<path class="st12" d="M542.74,297.04l0.58,0.04C543.16,297.05,542.96,297.04,542.74,297.04z"/>
						<path class="st12" d="M486.51,296.85c0.43-0.01,0.61-0.04,0.63-0.07C486.74,296.81,486.42,296.83,486.51,296.85z"/>
						<path class="st12" d="M476.91,296.49c0.21,0.01,0.38,0.02,0.57,0.02C477.26,296.48,477.05,296.47,476.91,296.49z"/>
						<path class="st12" d="M542.74,297.04l-1.5-0.1C541.13,297.04,542.01,297.01,542.74,297.04z"/>
						<path class="st12" d="M620.97,298.35c0.31-0.02,0.58-0.05,0.82-0.09c-0.26,0.01-0.51,0.03-0.77,0.04
							C621.01,298.32,621,298.33,620.97,298.35z"/>
						<path class="st12" d="M567.53,296.77l0.46,0c0.13-0.04,0.26-0.08,0.38-0.13L567.53,296.77z"/>
						<path class="st12" d="M586.55,296.72c-0.43-0.01-0.58,0.27-0.74,0.39c0.24-0.12,0.56-0.17,0.94-0.19
							C586.75,296.86,586.69,296.8,586.55,296.72z"/>
						<path class="st12" d="M616.71,297.21l0.54-0.04C617.11,297.19,616.87,297.2,616.71,297.21z"/>
						<path class="st12" d="M553.91,296.71c-0.03-0.04-0.1-0.08-0.17-0.1C553.74,296.64,553.81,296.68,553.91,296.71z"/>
						<path class="st12" d="M21.87,298.82c0.02-0.02-0.01-0.03,0-0.05C21.76,298.8,21.73,298.82,21.87,298.82z"/>
						<path class="st12" d="M-0.18,297.43l0.31-0.02c0.03-0.05,0.07-0.11,0.07-0.16L-0.18,297.43z"/>
						<path class="st12" d="M459.35,296.13c0.03,0,0.05,0,0.08,0.01C459.89,296.1,459.62,296.11,459.35,296.13z"/>
						<path class="st12" d="M298.06,296.34c1.83,0.25-2.97,0.32-0.22,0.6C297.58,296.83,300.34,296.5,298.06,296.34z"/>
						<path class="st12" d="M620.48,298.31c-0.26,0-0.52,0.01-0.78,0C620.06,298.33,620.29,298.32,620.48,298.31z"/>
						<path class="st12" d="M297.84,296.94C297.84,296.94,297.84,296.94,297.84,296.94l0.28,0.03
							C298.01,296.96,297.94,296.95,297.84,296.94z"/>
						<path class="st12" d="M418.86,296.3c0.08,0.05,0.24,0.09,0.41,0.12C419.26,296.39,419.17,296.36,418.86,296.3z"/>
						<path class="st12" d="M449.02,296.7l-0.75-0.04C448.57,296.69,448.81,296.7,449.02,296.7z"/>
						<path class="st12" d="M403.21,296.7c-0.41-0.02-0.54-0.06-1.1-0.02c0.05,0.01,0.1,0.02,0.17,0.03
							C402.48,296.67,402.74,296.65,403.21,296.7z"/>
						<path class="st12" d="M386.91,296.7c0.09,0.02,0.2,0.04,0.3,0.06c0.16-0.01,0.35-0.01,0.52-0.01L386.91,296.7z"/>
						<path class="st12" d="M71.4,298.68c-0.36-0.08-0.58-0.17-0.75-0.25C70.9,298.63,68.51,298.7,71.4,298.68z"/>
						<path class="st12" d="M620.96,298.19c-0.1,0.07-0.23,0.11-0.48,0.12c0.19,0,0.37-0.01,0.54-0.02
							C621.07,298.26,621.08,298.22,620.96,298.19z"/>
						<path class="st12" d="M402.54,298.91l-2.59-0.04C400.68,298.9,401.62,298.91,402.54,298.91z"/>
						<path class="st12" d="M188.32,298.64l-0.59,0.03C187.96,298.68,188.17,298.68,188.32,298.64z"/>
						<path class="st12" d="M392.27,298.91c-0.46-0.1-0.95-0.16-1.46-0.19c-0.11,0.02-0.23,0.04-0.3,0.07L392.27,298.91z"/>
						<path class="st12" d="M70.64,298.43C70.65,298.43,70.65,298.43,70.64,298.43C70.65,298.43,70.65,298.43,70.64,298.43z"/>
						<path class="st12" d="M53.59,299.1c2.47,0.01,1.16-0.36,1.68-0.57c2.94-0.1,1.36,0.27,2.37,0.46c1.84-0.1,3.25-0.44,4.62-0.42
							c0.1,0.06,0.37,0.08,0.06,0.16c1.94-0.29,5.77-0.01,8.04-0.38c0.17,0.03,0.25,0.06,0.3,0.09c-0.37-0.19-0.42-0.37-0.35-0.51
							c1.11-0.01,2.05-0.23,2.47,0.01c-0.68-0.01-0.73,0.09-1.05,0.17l1.16-0.1c1.04,0.35-1.58,0.12-1.58,0.38
							c2.26-0.11,4.89-0.4,6.63-0.3c0.36,0.34-4.05,0.11-1.74,0.42l-2.68-0.13c2.05,0.54-1.63-0.04,0.25,0.54
							c3.53,0.1,3.94-0.17,7.46-0.07c0.79-0.19-0.26-0.28,0.53-0.47c5-0.34,3.94,0.85,7.61,0.4c0.95-0.23,1.32-0.66,3.94-0.43
							l-0.89,0.38c3.41,0.04,1.95-0.55,5.52-0.29c-0.64,0.15-2.68,0.13-2.17,0.17c2.32,0.3,1.64-0.22,3.42-0.22l0.37,0.34
							c3.63-0.05,7.64-0.3,11.66-0.36c-0.22,0.1-0.91,0.21,0.03,0.31c5.08-0.17,10.84,0.04,15.74,0.24l1.87-0.29
							c0.43,0,0.81,0.13,0.34,0.19c1.91,0.11,0.1-0.19,1.02-0.3c1.09-0.02,1.43,0.17,0.75,0.26c3.37-0.25,9.59-0.54,13.14-0.22
							l-0.69,0.09c2.76,0.12,3.12-0.6,5.68-0.33l-0.49,0.05c6,0.13,12.62-0.14,17.2,0.3c0.87-0.42,5.94,0.19,6.32-0.4
							c3.42,0.29,2.44,0.4,7.27,0.59c1.29,0.03,1.92-0.37,3.51-0.43l0.04,0.31l2.16-0.32l1.15,0.37l1.49-0.08
							c-0.6-0.02-1.26-0.14-1.17-0.23c2.33-0.14,5.69,0.21,5.74,0.37l5.52-0.26c-0.12,0.12-1.05,0.17-1.78,0.25
							c2.95-0.31,0.54,0.32,3.24,0.04c-0.36-0.07,0.2-0.18,0.26-0.25c1.35,0.19,4.41,0.19,6.68,0.11l-0.44,0.21
							c4.09,0.05,8.63-0.1,13.23-0.1c-1.65-0.1-1.27-0.47,0.08-0.5l0.54,0.33c0.87-0.2-1.41-0.12,0.38-0.37
							c1.72,0.04,1.15,0.37,0.17,0.48l2.09-0.11c0.12,0.1-0.37,0.15-0.49,0.27c0.86-0.2,3.6,0.33,4.84-0.02l0.12,0.1
							c4.59,0,6.68-0.11,10.42-0.13c0.07-0.28,1.54-0.22,2.65-0.45c2.75,0.09,5.8,0.31,9.11,0.29c2.33-0.14,0.68-0.24,1.73-0.41
							c0.17,0.26,3.48,0.23,1.76,0.42c3.98-0.04,5.08-0.05,10.11-0.26c-0.55-0.1-1.16-0.15-0.84-0.24c0.91-0.04,2.08,0.11,1.95,0.23
							l-0.24,0.03c5.64-0.38,13.03,0.75,17.52,0.21l-0.25,0.03l4.66-0.28c2.14,0.04-1.29,0.19,0.3,0.35
							c5.03-0.43,7.94,0.06,12.09-0.22c3.21,0.76,11.37-0.05,15.7,0.43l-0.25-0.18c1.12-0.17,1.35,0.1,2.18,0.14
							c-0.12-0.14-1.21-0.16-0.52-0.26c9.47-0.21,19.55,0.26,29.26,0.42c3.55,0.05,2.02-0.92,6.49-0.5l-1.27,0.33
							c7.17-0.4,14.66,0.01,21.67-0.32c-0.42,0.08-0.43,0.18-1.12,0.17c1.48,0.24,5.48,0.01,5.51-0.18
							c1.09,0.02,0.25,0.18,0.93,0.28c1.49,0.14,3.73-0.31,4.52-0.07c0.13,0.04-0.42,0.08-0.69,0.1c0.97-0.12,4.51,0.03,3.59-0.25
							c2.63,0.13,5.04-0.12,7.14,0.04c1.37-0.31,4.51,0.15,4.94-0.29c-0.19,0.45,4.62,0.36,6.28,0.15
							c-0.56,0.14,1.45,0.14,0.79,0.33c1.9-0.01,3.64-0.09,3.31-0.32c3.5,0.54,7.04-0.44,9.01,0.26c5.64-0.24,10.87-0.41,15.95-0.51
							c-0.18,0.45-5.61,0.04-5.39,0.52c4.82-0.19,7.6-0.57,12.37-0.46c1.24,0.06-0.7,0.2-1.12,0.27c4.81-0.19,9.31,0.04,13.59-0.2
							c-0.01,0.04-0.47,0.09-0.91,0.12c0.84-0.01,1.96,0.07,1.87-0.14l-0.82,0.06c-1.35-0.3,3.35-0.62,3.5-0.78
							c-1.43,0.59,4.23,0.15,1.95,0.89c0.56-0.04,1.25-0.14,1.12-0.27c0.82,0.04,1.09,0.12,0.25,0.28c3.02-0.11,1.95-0.33,4.69-0.33
							c-0.01,0.1-0.56,0.14-0.85,0.25c1.39-0.19,2.78-0.39,5.09-0.3c-0.14,0.06,0.13,0.14-0.56,0.14c3.98-0.03,6.78-0.52,11.14-0.33
							c-1.29,0.43,1.48,0.14,1.71,0.52l2.34-0.11l-0.94-0.18c2.05,0.01,3.87-0.27,5.64-0.14l-1.53,0.15l3.85-0.07l-2.18-0.14
							c2.08-0.19-0.22-0.47,2.51-0.37c-0.56,0.04,2.05,0,3.13,0.22c0,0-0.01,0-0.01,0c1.02-0.12,2.06-0.24,3.58-0.15
							c0.39,0.12-0.32,0.41-0.06,0.49c1-0.31,4.81-0.09,6.08-0.42c-0.42,0.08-0.45,0.27-0.31,0.31l0.84-0.25
							c0.95,0.08,1.09,0.12,0.94,0.28c2.86,0.05-0.91-0.47,2.49-0.27c-0.27,0.02-0.14,0.06-0.69,0.1c3.41,0.11,6.59-0.16,9.73-0.04
							c0.93,0.38-2.74,0.09-1.68,0.41c4.52-0.07,9.36-0.45,13.73-0.36l-0.82-0.04c0.61-0.53,3.26,0.26,5.47,0.01
							c-0.54,0.04-0.71,0.29-0.56,0.24c3,0.09,6.12-0.13,10.66-0.3l-0.56,0.14c1.77,0.12,4.65,0.07,6.56,0.13
							c0.57-0.14,1.66-0.11,0.99-0.31c5.88,0.78,11.22-0.42,16.43,0.23c-0.62,0-1.49,0.12-0.99,0.12l4.44-0.13
							c-0.35-0.23-0.58-0.14-1.52-0.32c0.56-0.14,1.82-0.24,2.92-0.24c-2,0.15,0.02,0.37,0.88,0.5c-0.14-0.07,0.15-0.15,0.08-0.22
							c2.32,0.41,0.39-0.46,3.56-0.19l-0.17,0.12c1.19-0.06,2.28-0.22,3.56-0.19c0.53,0.27-1.26,0.12-1.34,0.34
							c1.8-0.02,3.54-0.51,5.17-0.24c-0.76,0.07-1.86,0.08-2.62,0.15c1.77,0.31,1.98,0.23,3.29,0.28l-0.13-0.01l3.04,0.14
							l-0.77-0.09c2.25-0.7,4.58-0.13,7.61-0.58c-2.94,0.43-0.49,0.25-0.71,0.55c0.77,0.08,1.95,0.18,1.61,0.26
							c1.43-0.24,2.39,0.19,4.41-0.16c0.09,0.1,1.53,0.01,1.21,0.25c1.86-0.08-0.44-0.17-0.28-0.29c2.87-0.33,6.74,0.4,10.87-0.05
							c3.56-0.19,4.22-0.52,7.52-0.68c1.11,0.16-0.91,0.36-0.91,0.36c1.8,0.14,3.15,0.12,4.84,0.01c-0.34,0.08,0.01,0.16,0.53,0.27
							c1.36-0.03,0.91-0.35,2.7-0.21c-0.31,0.11-0.7,0.28-1.36,0.39c1.6-0.09,3.18-0.27,4.84-0.36c0.44,0.17-1,0.26-1.59,0.37
							c1.86-0.08,4.83-0.15,5.41-0.42l-1.2-0.1c0.68-0.01,0.35,0.23-0.15,0.28c-1.6,0.21-2.3-0.09-2.39-0.19l1.18-0.06
							c-1.21-0.57-4.74,0.09-7.12,0.06l0.99-0.42l-2.44,0.35c-0.52-0.11-0.87-0.34,0.3-0.4c-1.7-0.21-1.51,0.15-2.97-0.08
							c-0.16-0.04-0.09-0.06,0.06-0.07l-1.67,0.12c0.33-0.09-0.28-0.29,0.75-0.23c-2.99-0.24-4.82,0.31-5.95,0l0.25-0.03
							c-4.15,0.14-0.4,0.31-3.51,0.66l-2.09-0.75l-0.41,0.31c-0.43-0.01-1.27-0.03-1.12-0.16c-1.59,0.21,0.27,0.13-0.65,0.33
							c-2.06-0.28-5.68,0.13-6.14-0.36c-0.74,0.23,1.97,0.18-0.23,0.34c-0.63-0.52-2.54,0.09-4.42-0.15
							c0.58-0.27,2.36-0.13,0.48-0.37c-1.14,0.46-3.66-0.1-5.25-0.01c-0.07,0.36-3.45,0.15-6.11,0.27c0.17-0.12-5.01-0.2-7.49-0.33
							l0.07-0.06c-0.48,0.37-3.04,0.3-4.9,0.37c0.07-0.22,0.41-0.31,1.42-0.4l-1.75,0c-0.41,0.12-0.96,0.18-2.09,0.22l0.44-0.27
							c-2.33,0.02-4.69,0.32-7.68,0.14c-0.17,0.26,2.38,0.71-0.79,0.88c-0.12-0.14-0.23-0.38,0.59-0.43
							c-0.27,0.02-0.97,0.12-1.52,0.06l1.27-0.23c-1.36-0.1-0.71,0.19-1.8,0.17c0.02-0.2-0.81-0.14-0.65-0.3
							c0.28-0.02,0.95,0.08,1.37,0c-1.23-0.04-2.72-0.15-3.21-0.3c0.11,0.11,0,0.27-0.9,0.29c-2.33,0.01-0.8-0.24-2.15-0.34
							c-0.56,0.14-2.05-0.01-2.09,0.29c-0.68,0-0.81-0.14-1.07-0.22c-1.2,0.13-5.63,0.04-4.27,0.35l0.31,0.02
							c-0.06,0.01-0.13,0.01-0.2,0.01c0.01,0,0,0,0.01,0h-0.01c-3.95,0.29-8.2-0.17-12.12-0.04l0.01-0.1
							c-2.34,0.11-5.21,0.07-6.88,0.28c-0.69,0-1.63-0.18-1.34-0.3c-1.79,0.07-1.99,0.19-4.57,0.02c1.8-0.17-0.62-0.15,1.84-0.13
							c-2.32-0.09-2.85-0.24-5.34,0.03c0.85-0.25-1.75-0.32-2.85-0.24l1.63,0.18c-1.24,0.04-2.33,0.01-3.43-0.01l0.6-0.33
							c-4.75-0.4-8.57,0.69-12.19,0.01c-1.26,0.23,2.58,0.16,1.46,0.44c-2.19-0.04-4.47-0.52-5.15-0.52c-3-0.18-2.8,0.49-5.93,0.36
							c0.4,0.12,0.78,0.44-1.56,0.55c-2.19-0.04-2.69-0.5-1.31-0.59c0.52-0.01,0.78,0.03,0.76,0.07c0.71-0.04,1.63-0.09,0.77-0.22
							l-0.28,0.12c-1.09-0.12-4.1-0.11-3.39-0.3c-1.65,0.11-0.71,0.19,0.52,0.26c-2.81-0.17-4.39-0.01-7.27-0.12
							c0.46,0.07,0.88,0.2,0.43,0.2c-4.24-0.15-1.87,0.23-4.74,0.28c-1.63-0.18,0.58-0.43-2.31-0.28c-1.77-0.12-0.37-0.31,0.33-0.41
							c-2.63,0.23-4.92-0.15-6.43-0.19l1.39-0.1c-0.83,0.06-1.51,0.06-2.2,0.05l0.79,0.24c-0.81-0.04-1.5-0.04-1.49-0.14
							c-0.84,0.16,0.64,0.39-1.02,0.61c-1.09-0.12-3.31,0.13-3.68-0.19c3.42,0.11-0.38-0.32,2.51-0.37
							c-0.56,0.04-1.24,0.04-2.05-0.01c-0.12-0.04,0.12-0.07,0.34-0.08c-3.27-0.28-1.5,0.36-4.89,0.35c0.43-0.18-0.79-0.34-1.34-0.3
							c1.36,0,0.65,0.3-0.6,0.43c-2.17-0.14-2.36,0.1-3.5,0.09l1.3,0.07c-0.44,0.18-1.53,0.15-3.04,0.21
							c-0.13-0.14,1.37-0.1,0.83-0.16c-1.68,0.31-3.8-0.32-6.14-0.11c-1.09-0.12-0.11-0.33-1.06-0.42
							c-2.63,0.23-2.84-0.24-5.61-0.05c0.8,0.24,0.93,0.18-1.01,0.41l4.54-0.17l-2.91,0.35c1.37,0,2.89-0.15,3.71-0.11
							c-1.39,0.19-1.25,0.14-0.59,0.33c-1.87-0.36-3.72,0.21-5.88-0.03l0.07-0.59c-3.26-0.26-5.79,0.3-10.02,0.15l1.36,0.1
							c-0.57,0.23-2.61,0.03-3.98,0.13c0.13-0.2-0.73-0.27-1.31-0.39c0.07,0.15-3.1-0.01-3.48,0.38l-1.89-0.26
							c-3.42-0.11-3.9,0.56-7.18,0.5c0.99-0.21-0.5-0.35,1.7-0.51c-1.1,0-2.08-0.04-2.1,0.1c-0.64-0.12-3.04,0.27-4.05,0.08
							c-0.46,0.09-0.61,0.29-1.84,0.28c-0.13-0.04,0-0.1,0-0.1c0,0.1-1.93,0.13-0.85,0.35c-3.38-0.62-9.44,0.04-12.38-0.48
							c-2.39,0.07-5.27,0.13-7.45,0.14c0.14-0.06,0.01-0.1,0.42-0.08c-3-0.18-1.84,0.57-5.25,0.36c-1.74-0.32,1.81-0.17,0.72-0.29
							c-0.47-0.65-4.11,0.09-6.41-0.29l0.56-0.04c-1.75-0.22-4.28,0.25-7.14,0.2c0,0,0.14-0.06,0.02-0.1
							c-1.96,0.33-5.67,0.44-8.42,0.53c0.86-0.25,1.25-0.13,0.73-0.39c-1.24,0.04,0.36,0.41-2.1,0.49c-0.8-0.14-2.58-0.26-2.82-0.54
							l2.33-0.01c-1.19-0.36-3.01,0.01-4.24-0.05l0.16-0.16c-3.57,0.05-3.61,0.44-7.45,0.42l0.4,0.12
							c-2.09,0.39-1.76-0.22-3.84,0.07l-0.63-0.39c-1.38,0.1-4.84,0.38-7.32,0.46c1.4-0.29,4.3-0.44,6.1-0.62
							c-1.37,0-4.65,0.03-5.37,0.22c0.55-0.04,1.25-0.13,1.79-0.07c-1.68,0.31-3.89,0.46-6.62,0.46c0.48-0.77-7.11-0.19-9.09-0.79
							c-4.83,0.28-9.58-0.12-15.2-0.08c1.99,0.6-1.64,0.02-1.3,0.63c-1.31,0.04-1.81,0.03-1.93-0.01l-3.97-0.37
							c-0.94-0.18,1.25-0.13,1.13-0.27c-2.87-0.05-1.2-0.26-3.1-0.42c0.39,0.22-1,0.31-2.63,0.23l2.3,0.28
							c-4.01,0.33-3.46-0.51-7.51-0.19l1.28-0.19c-2.07,0.11-7.65,0-9.68,0.49c-0.37-0.07-0.85-0.24,0.06-0.28
							c-4.96-0.07-11.03,0.52-14.88,0.22l0.38-0.15c-0.92,0.04-1.61,0.28-2.77,0.13c0.06-0.06,0.37-0.15-0.06-0.16
							c-0.49,0.05-2.46,0.26-3.68,0.17l1.05-0.17c-4.83-0.2-7.42,0.41-11.47,0.51c0.01-0.44-3.79-0.58-5.69-0.65l0.07-0.06
							c-5.63-0.05-9.56,0.36-14.77,0.54c-3.24-0.48-10.96-0.2-16.16-0.47c0.79,0.08-0.13,0.34-1.05,0.39
							c-1.22-0.09-3.37,0.31-3.18-0.1l0.43,0.01c-0.92-0.4-3.43-0.29-5.39-0.3l-0.32,0.53c-5.12-0.77-13.42,0.28-16.21-0.41
							c-1.24,0.13-2.77,0.13-3.99,0.26l0.07-0.28c-3.42-0.07-5.13-0.11-9.37-0.04l0.86-0.2c-2.39-0.02-3.01,0.82-5.22,0.83
							l-0.66-0.42c-4.17,0.01-8.38-0.36-12.5,0.02c0.07-0.06,0.19-0.18,0.86-0.2c-1.96-0.01-7.58-0.29-6.87,0.29
							c-0.05-0.38-4.3-0.04-6.55,0.13l0.35-0.28c-1.9,0.36-1.96,0.45-4.61,0.55c-0.63-0.04-0.55-0.22,0.28-0.15
							c-2.09-0.15-1.63,0.26-4.17,0.12l0.95-0.18c-2.15-0.02-1.98,0.07-3.17,0.28c-1.35,0.11-4.09-0.07-4.4-0.32
							c-0.29,0.15-1.47,0.36-2.74,0.29c-0.17-0.1,0.29-0.15,0.52-0.18c-3.6-0.19-5.36,0.32-7.83,0.05
							c-0.05-0.09-0.21-0.14-0.42-0.17c2.86,0.01,5.17,0.02,4.95,0.04c0-0.26-2.31-0.3-0.47-0.66c-1.86,0.19-5.03,0.61-7.28,0.49
							c-0.11-0.02-0.22-0.05-0.3-0.09l0.23-0.03c-0.52-0.03-0.99,0-1.42,0.04c-0.72-0.04-1.18-0.07-1.87-0.08
							c-0.27-0.21-2.65-0.11-3.8-0.13c0.1,0.28-1.41,0.24,0,0.47c-0.18-0.02,0.22-0.03,0.98-0.05c0.17-0.01,0.38-0.01,0.49-0.03
							c-0.02,0.01-0.05,0.02-0.08,0.02c0.76-0.01,1.74-0.01,2.86-0.02c-0.91,0.14-1.86,0.26-3.14,0.11
							c-0.59,0.18-1.24,0.37-1.61,0.45c-1.58-0.39-4.62-0.6-5.04-0.85c-3.52,0.16-8.29,0.1-10.5,0.63c-1,0.07-1.15-0.15-1.52-0.23
							c0.58-0.05,1.26-0.04,1.58-0.12c-2,0.14-5.93,0.05-6.4,0.42c-2.52-0.17,1.42-0.34-2.05-0.28l0.47-0.11
							c-6.82-0.59-11.08,0.94-18.64,0.18c0.52,0.05,0.79,0.07,0.89,0.13c-8.62-0.33-17.75,0.31-26.26-0.22
							c-2.42-0.11-2.68,0.13-4.15,0.31l-0.52-0.3l-2.52,0.35c-3.58,0.26-6.19-0.74-10.72-0.26l0.58,0.2
							c-1.63-0.04-5.15,0.12-4.88-0.11c-0.17,0.04-0.53,0.21-1.17,0.11l-0.05-0.16l-3.99,0.27c-3.1-0.11,0.48-0.63-4.03-0.66
							c-1.68,0.06-4.78,0.46-4.15,0.57c0.68,0.01,1.73,0.1,1.78,0.26l-1.54,0.08c-0.28,0.47-1.46,0.94,2.31,1.27l2.63-0.28
							l0.85,0.23l-2.21,0.01c1.25,0.21,2.05,0.02,2.94-0.1c0.21,0.12,0.58,0.2,1.1,0.25l2.58-0.44c0.31,0.18-1.16,0.36,0.57,0.46
							c1.21-0.21-1.16-0.41,0.84-0.54c1.26,0.21,0.89,0.38,2.37,0.2c0.21,0.12-0.11,0.2-0.69,0.25c1.31-0.14,3.48-0.06,4.15-0.31
							c1.31,0.26,4.43-0.07,4.3,0.37c0.41-0.11,2.31-0.35,3.52-0.36c-2.2,0.53,4.52,0.03,3.93,0.6c1.63-0.47,5.89-0.21,8.78-0.47
							c-0.16,0.04-0.48,0.11-0.73,0.09c1.63,0.04,2.1,0.18,3.14,0.27c0.21-0.39,2.74-0.48,4.11-0.72c1.99,0.38-1.21,0.46-0.58,0.82
							c-0.1-0.32,3.46-0.32,2.78-0.58c1.52,0.23,1.31,0.11,2.1,0.44c0.27-0.49,1.42-0.08,2.68-0.38c2.21,0.24,0.57,0.46,2.99,0.31
							C55.74,298.92,53.59,299.1,53.59,299.1z M111.22,298.25C111.22,298.25,111.22,298.25,111.22,298.25
							c-0.5,0.01-0.92,0.02-1.19,0.02C110.27,298.27,110.62,298.26,111.22,298.25z M116.06,298.24c-0.59-0.01-1.32-0.01-2.1-0.01
							c-0.17-0.1,0.01-0.2,0.5-0.19C114.19,298.11,115.34,298.16,116.06,298.24z M105.81,296.3c0.77-0.04,1.02,0.02,1.13,0.07
							c-0.36,0-0.79,0.01-1.34,0.03c-0.02,0.01-0.07,0.02-0.09,0.03C105.59,296.38,105.67,296.33,105.81,296.3z"/>
						<path class="st12" d="M104.44,296.67c-0.11,0.01-0.17,0.02-0.32,0.02c0.16,0.02,0.31,0.05,0.46,0.06
							c0.09-0.03,0.19-0.06,0.27-0.09C104.71,296.66,104.57,296.66,104.44,296.67z"/>
						<path class="st12" d="M543.43,297.08l-0.1-0.01c0.08,0.01,0.16,0.02,0.21,0.04C543.47,297.1,543.47,297.09,543.43,297.08z"/>
						<polygon class="st12" points="182.93,298.78 182.92,298.71 182.5,298.77 						"/>
						<path class="st12" d="M570.1,298.05c0.05,0.02,0.15,0.05,0.35,0.07C570.43,298.1,570.28,298.07,570.1,298.05z"/>
						<path class="st12" d="M581.62,298.11l1.63,0.1C582.54,298.15,582.03,298.13,581.62,298.11z"/>
						<path class="st12" d="M590.48,298.25c0.11-0.05,0.14-0.09,0.17-0.12c-0.01,0-0.01,0-0.02,0L590.48,298.25z"/>
						<path class="st12" d="M449.63,298.58c-0.12,0-0.24,0.01-0.34,0.01C448.49,298.65,449.03,298.63,449.63,298.58z"/>
						<path class="st12" d="M491.55,297.92c-0.44,0.05-0.88,0.1-1.35,0.13C490.94,298.08,491.52,298.08,491.55,297.92z"/>
						<path class="st12" d="M402.83,298.92C402.83,298.92,402.83,298.92,402.83,298.92c-0.1,0-0.18,0-0.28,0L402.83,298.92z"/>
						<path class="st12" d="M488.25,298.05c0.75,0.06,1.37,0.04,1.95,0C489.59,298.04,488.87,298.01,488.25,298.05z"/>
						<path class="st12" d="M628.87,298.38l0.43,0.01c-0.01-0.02,0.02-0.03,0.05-0.05L628.87,298.38z"/>
						<path class="st12" d="M629.35,298.34l0.47-0.03C629.6,298.31,629.42,298.31,629.35,298.34z"/>
						<path class="st12" d="M630.82,298.24l-1,0.07C630.17,298.31,630.59,298.32,630.82,298.24z"/>
						<path class="st12" d="M617.14,298.25l-0.13,0.1C617.08,298.33,617.13,298.29,617.14,298.25z"/>
						<path class="st12" d="M613.58,298.28c0.85,0.02,2.13,0.22,3.32,0.15l0.11-0.08C616.45,298.5,614.39,298.1,613.58,298.28z"/>
						<path class="st12" d="M598.71,297.02l2.99,0.08c-0.52-0.11-1.21-0.25,0.15-0.28C598.08,296.49,602.62,297.06,598.71,297.02z"
							/>
						<path class="st12" d="M589.45,296.86c1.6-0.05-0.02-0.16,0.07-0.22C588.5,296.74,588.25,296.76,589.45,296.86z"/>
						<path class="st12" d="M522.53,296.86l0.16-0.26C521.46,296.64,522.68,296.7,522.53,296.86z"/>
						<polygon class="st12" points="509.74,298.18 510.95,298.34 511.52,298.1 						"/>
						<polygon class="st12" points="502.19,296.36 502.73,296.32 500.66,296.41 						"/>
						<path class="st12" d="M389.81,296.45l0.37,0.32C391.02,296.71,391.19,296.35,389.81,296.45z"/>
						<path class="st12" d="M341.29,296.77c-0.53-0.16-1.89-0.26-2.73-0.1C339.65,296.69,340.74,296.81,341.29,296.77z"/>
						<polygon class="st12" points="195.8,296.26 196.77,296.15 194.93,296.24 						"/>
					</g>
				</g>
			</g>
		</g>
	</g>
</g>
</svg>
