<?xml version="1.0" encoding="utf-8"?>
<!-- Generator: Adobe Illustrator 23.0.3, SVG Export Plug-In . SVG Version: 6.00 Build 0)  -->
<svg version="1.1" xmlns="http://www.w3.org/2000/svg" xmlns:xlink="http://www.w3.org/1999/xlink" x="0px" y="0px"
	 viewBox="0 0 640 360" style="enable-background:new 0 0 640 360;" xml:space="preserve">
<style type="text/css">
	.st0{fill:#E2EDF2;}
	.st1{fill:#CECECE;}
	.st2{opacity:0.5;fill:#FEFEFE;}
	.st3{opacity:0.3;fill:#FEFEFE;}
	.st4{opacity:0.1;fill:#FEFEFE;}
	.st5{fill:#FEFEFE;}
	.st6{fill:#88B777;}
	.st7{fill:#2D6841;}
	.st8{fill:#22351D;}
	.st9{fill:#567B47;}
	.st10{fill:#F2E1B1;}
	.st11{fill:#F9EFDE;}
	.st12{fill:#54352A;}
</style>
<g id="sky_1_">
	<rect class="st0" width="640" height="110.23"/>
</g>
<g id="city_1_">
	<polyline class="st1" points="9.44,35.9 9.44,72.88 335.04,72.88 335.04,35.17 315.46,35.17 315.46,53.3 310.38,53.3 310.38,35.17 
		293.7,35.17 293.7,50.4 287.18,50.4 287.18,39.52 278.48,39.52 278.48,54.75 263.25,54.75 263.25,30.09 246.57,30.09 246.57,39.52 
		239.32,39.52 239.32,37.35 220.46,37.35 220.46,49.67 220.46,67.8 213.21,67.8 213.21,50.4 194.36,50.4 194.36,63.45 189.28,63.45 
		189.28,40.97 167.52,40.97 167.52,61.28 156.65,61.28 156.65,19.22 147.95,19.22 147.95,27.19 137.79,27.19 137.79,65.63 
		121.84,65.63 121.84,40.97 110.96,40.97 102.98,40.97 102.98,54.95 88.48,54.95 88.48,25.02 61.65,25.02 61.65,51.85 48.6,51.85 
		48.6,27.92 32.64,27.92 32.64,36.62 25.51,36.62 25.51,17.04 12.34,17.04 12.34,31.46 7.99,31.46 9.44,64.9 	"/>
	<polyline class="st1" points="350.99,53.3 350.99,86.66 639.61,86.66 639.61,67.8 628.73,67.8 628.73,56.93 620.03,56.93 
		620.03,72.15 604.8,72.15 604.8,18.49 588.12,18.49 588.12,56.93 580.87,56.93 580.87,25.74 562.02,25.74 562.02,67.08 
		562.02,85.21 554.77,85.21 554.77,67.8 535.91,67.8 535.91,80.86 530.84,80.86 530.84,58.38 509.08,58.38 509.08,78.68 
		498.2,78.68 498.2,33.72 489.5,33.72 489.5,41.7 479.35,41.7 479.35,83.03 463.39,83.03 463.39,58.38 452.52,58.38 444.54,58.38 
		444.54,72.36 430.04,72.36 430.04,26.47 403.21,26.47 403.21,69.25 390.15,69.25 390.15,35.9 374.2,35.9 374.2,54.03 367.06,54.03 
		367.06,34.45 353.89,34.45 353.89,48.86 349.54,48.86 350.99,78.68 	"/>
</g>
<g id="sun">
	<g>
		<circle class="st2" cx="525.03" cy="34.84" r="19.69"/>
		<circle class="st3" cx="525.03" cy="34.84" r="27.85"/>
		<circle class="st4" cx="525.03" cy="34.84" r="39.38"/>
		<circle class="st5" cx="525.03" cy="34.84" r="12.72"/>
	</g>
</g>
<g id="landscape">
	<path class="st6" d="M372.02,97.48c51-0.46,102.01-0.93,153.01-1.39c-3.46-7.41-10.29-19.11-23.21-27.56
		c-7.08-4.63-13.57-6.7-21.03-8.7c-25.72-6.9-46.81-8.6-55.11-9.43c-14.67-1.46-35.53-4.76-60.91-13.05
		c0.02,1.26,0.03,2.53,0.05,3.79c-0.04-1.26-0.06-2.53-0.05-3.79c-27.56-1.45-70.9,11.59-85.57,13.05
		c-8.3,0.83-29.4,2.53-55.11,9.43c-7.46,2-13.95,4.07-21.03,8.7c-12.91,8.44-19.75,20.14-23.21,27.56
		c51.06,0.46,132.19,0.93,185.64,1.39c0,0.02,0,0.04,0,0.06c1.08-0.01,2.16-0.02,3.24-0.03c1.11,0.01,2.21,0.02,3.29,0.03
		C372.02,97.52,372.02,97.5,372.02,97.48z"/>
	<path class="st7" d="M44.97,66.35c4.02-4.44,7.03-3.02,37.71-12.33c5.78-1.75,11.64-3.27,17.4-5.08c7.68-2.41,9.74-3.29,13.78-3.63
		c1.6-0.13,7.58-0.52,15.95,2.18c10.03,3.23,14.25,7.92,20.3,11.6c10.62,6.47,17.55,4.18,33.36,6.53
		c38.28,5.67,48.33,26.63,74.69,25.38c2.72-0.13,9.8-0.69,18.85,1.45c8.61,2.04,15.08,5.59,18.85,7.98
		c-84.6-0.73-169.21-1.45-253.81-2.18C36.98,78.25,41.74,69.93,44.97,66.35z"/>
	<path class="st7" d="M638.1,71.43c-4.02-4.44-7.03-3.02-37.71-12.33c-5.78-1.75-11.64-3.27-17.4-5.08
		c-7.68-2.41-9.74-3.29-13.78-3.63c-1.6-0.13-7.58-0.52-15.95,2.18c-10.03,3.23-14.25,7.92-20.3,11.6
		c-10.62,6.47-17.55,4.18-33.36,6.53c-38.28,5.67-48.33,26.63-74.69,25.38c-2.72-0.13-9.8-0.69-18.85,1.45
		c-8.61,2.04-15.08,5.59-18.85,7.98c84.6-0.73,167.82-2.18,252.42-2.9C638.89,83.03,641.34,75,638.1,71.43z"/>
	<path class="st8" d="M0,22.12c5.29,0.92,11.34,2.29,17.91,4.35c23.21,7.3,38.99,18.96,44.42,23.21c9.21,7.19,7.23,7.52,13.61,11.6
		c13.99,8.94,24.43,7.94,30.09,17.4c1.03,1.72,2.15,4.19,5.02,8.7c2.02,3.18,3.72,5.84,6.48,9.14c1.24,1.47,1.39,1.54,1.4,1.74
		c0.04,2.52-26.05,6.19-118.9,11.6C0.04,81.44,0.22,52.64,0,22.12z"/>
	<path class="st9" d="M639.98,97.05l-3.12-4.24c-0.26-0.21-0.62-0.2-0.87,0.01l-3.39,2.83c-0.29,0.24-0.72,0.21-0.96-0.08
		l-4.03-4.61c-0.3-0.34-0.84-0.31-1.1,0.07l-4.76,7.15c-0.26,0.39-0.83,0.41-1.12,0.04l-4-5.15c-0.26-0.33-0.74-0.36-1.04-0.06
		l-2.61,2.61c-0.26,0.26-0.67,0.27-0.95,0.03l-5.49-4.89c-0.29-0.26-0.74-0.23-0.99,0.07l-2.88,3.47c-0.17,0.2-0.44,0.29-0.7,0.23
		l-4.83-1.21c-0.31-0.08-0.64,0.07-0.79,0.36l-0.55,1.1c-0.26,0.52-1.01,0.51-1.25-0.02l-2.56-5.65c-0.21-0.46-0.83-0.55-1.16-0.16
		l-2.5,3.01c-0.23,0.28-0.64,0.33-0.93,0.12l-3.98-2.85c-0.31-0.22-0.74-0.15-0.96,0.16l-2.64,3.7c-0.28,0.39-0.87,0.38-1.14-0.02
		l-1.76-2.65c-0.27-0.41-0.88-0.41-1.15,0l-1.95,2.94c-0.2,0.31-0.61,0.4-0.93,0.21l-5.99-3.6c-0.36-0.22-0.83-0.06-0.99,0.32
		l-1.33,3.1c-0.22,0.52-0.94,0.57-1.23,0.08l-3-5.01c-0.28-0.47-0.97-0.44-1.21,0.05l-1.11,2.22c-0.23,0.46-0.86,0.52-1.17,0.11
		l-2.98-3.98c-0.31-0.42-0.96-0.35-1.18,0.13l-3.49,7.57c-0.19,0.41-0.71,0.53-1.06,0.25l-5.96-4.78c-0.32-0.25-0.78-0.18-1.01,0.16
		l-2.01,3.02c-0.24,0.36-0.76,0.41-1.06,0.11l-3.86-3.86c-0.31-0.32-0.84-0.26-1.08,0.12l-2.75,4.4c-0.22,0.35-0.7,0.43-1.02,0.17
		l-5.97-4.78c-0.34-0.28-0.85-0.16-1.05,0.23l-2.08,4.18c-0.21,0.42-0.77,0.51-1.11,0.18l-3.24-3.25c-0.24-0.24-0.63-0.27-0.9-0.06
		l-4.75,3.57c-0.31,0.23-0.75,0.16-0.98-0.15l-2.86-4.02c-0.2-0.28-0.57-0.37-0.87-0.22l-5.71,2.86c-0.46,0.23-1-0.1-1-0.62v-1.82
		c0-0.57-0.66-0.9-1.11-0.55l-7.19,5.54c-0.45,0.35-1.11,0.03-1.11-0.55v-1.76c0-0.65-0.81-0.94-1.22-0.44l-1.95,2.35
		c-0.24,0.29-0.68,0.33-0.97,0.09l-7.28-6.08c-0.4-0.33-1.01-0.12-1.12,0.38l-0.96,4.35c-0.11,0.5-0.7,0.71-1.1,0.4l-5.25-4.09
		c-0.24-0.19-0.57-0.2-0.82-0.02l-6.38,4.47c-0.26,0.18-0.61,0.16-0.85-0.04l-3.99-3.42c-0.34-0.29-0.87-0.19-1.07,0.22l-2.04,4.08
		c-0.22,0.44-0.82,0.52-1.14,0.15l-3.9-4.47c-0.26-0.3-0.73-0.32-1.01-0.03l-3.95,3.96c-0.31,0.31-0.82,0.26-1.06-0.11l-3.41-5.12
		c-0.24-0.36-0.76-0.41-1.06-0.11l-2.3,2.3c-0.35,0.35-0.93,0.23-1.12-0.22l-1.27-2.96c-0.22-0.51-0.91-0.57-1.21-0.11l-4.64,6.97
		c-0.23,0.35-0.72,0.41-1.04,0.13l-6.05-5.45c-0.31-0.28-0.8-0.22-1.04,0.13l-1.7,2.56c-0.31,0.47-1.03,0.39-1.22-0.14l-1.18-3.15
		c-0.21-0.55-0.96-0.61-1.25-0.1l-1.81,3.17c-0.19,0.34-0.63,0.45-0.96,0.25l-7.96-4.9c-0.41-0.25-0.95-0.02-1.04,0.45l-0.33,1.67
		c-0.09,0.47-0.63,0.71-1.04,0.45l-4.46-2.79c-0.28-0.18-0.65-0.13-0.88,0.12l-6.83,7.47c-0.34,0.38-0.96,0.26-1.15-0.21l-2.13-5.33
		c-0.18-0.44-0.73-0.58-1.09-0.27l-3.82,3.28c-0.29,0.25-0.72,0.22-0.97-0.07l-4.89-5.51c-0.25-0.28-0.68-0.31-0.96-0.07l-8.05,6.82
		c-0.39,0.33-0.99,0.14-1.12-0.36l-0.85-3.4c-0.14-0.55-0.84-0.71-1.2-0.28l-2.1,2.53c-0.31,0.37-0.9,0.32-1.14-0.11l-2.55-4.59
		c-0.26-0.47-0.92-0.48-1.2-0.02L353,93.27c-0.21,0.34-0.66,0.44-0.99,0.21l-5.65-3.96c-0.44-0.31-1.04-0.03-1.09,0.5l-0.44,4.9
		c-0.06,0.64-0.89,0.86-1.26,0.33l-2.56-3.67c-0.08-0.34-0.38-0.54-0.7-0.53c-0.31-0.01-0.62,0.19-0.7,0.53l-2.56,3.67
		c-0.37,0.53-1.2,0.31-1.26-0.33l-0.44-4.9c-0.05-0.53-0.65-0.81-1.09-0.5l-5.65,3.96c-0.33,0.23-0.78,0.13-0.99-0.21l-3.35-5.59
		c-0.27-0.46-0.94-0.45-1.2,0.02l-2.55,4.59c-0.24,0.43-0.82,0.48-1.14,0.11l-2.1-2.53c-0.36-0.44-1.06-0.27-1.2,0.28l-0.85,3.4
		c-0.12,0.5-0.73,0.69-1.12,0.36l-8.05-6.82c-0.29-0.24-0.71-0.21-0.96,0.07l-4.89,5.51c-0.25,0.28-0.68,0.31-0.97,0.07l-3.82-3.28
		c-0.36-0.31-0.92-0.17-1.09,0.27l-2.13,5.33c-0.19,0.47-0.81,0.59-1.15,0.21l-6.83-7.47c-0.23-0.25-0.59-0.3-0.88-0.12l-4.46,2.79
		c-0.41,0.26-0.95,0.02-1.04-0.45l-0.33-1.67c-0.09-0.47-0.63-0.71-1.04-0.45l-7.96,4.9c-0.33,0.21-0.77,0.09-0.96-0.25l-1.81-3.17
		c-0.29-0.51-1.04-0.45-1.25,0.1l-1.18,3.15c-0.2,0.53-0.91,0.61-1.22,0.14l-1.7-2.56c-0.23-0.35-0.72-0.41-1.04-0.13l-6.05,5.45
		c-0.31,0.28-0.8,0.22-1.04-0.13l-4.64-6.97c-0.3-0.46-0.99-0.39-1.21,0.11l-1.27,2.96c-0.19,0.45-0.78,0.56-1.12,0.22l-2.3-2.3
		c-0.31-0.31-0.82-0.26-1.06,0.11l-3.41,5.12c-0.24,0.36-0.76,0.41-1.06,0.11l-3.95-3.96c-0.28-0.28-0.75-0.27-1.01,0.03l-3.9,4.47
		c-0.32,0.37-0.92,0.29-1.14-0.15l-2.04-4.08c-0.2-0.4-0.73-0.51-1.07-0.22l-3.99,3.42c-0.24,0.21-0.59,0.22-0.85,0.04l-6.38-4.47
		c-0.25-0.17-0.58-0.17-0.82,0.02l-5.25,4.09c-0.4,0.31-0.99,0.1-1.1-0.4l-0.96-4.35c-0.11-0.51-0.72-0.71-1.12-0.38l-7.28,6.08
		c-0.29,0.24-0.73,0.21-0.97-0.09l-1.95-2.35c-0.41-0.5-1.22-0.2-1.22,0.44v1.76c0,0.57-0.66,0.9-1.11,0.55l-7.19-5.54
		c-0.45-0.35-1.11-0.03-1.11,0.55v1.82c0,0.51-0.54,0.85-1,0.62l-5.71-2.86c-0.3-0.15-0.67-0.06-0.87,0.22l-2.86,4.02
		c-0.23,0.32-0.67,0.38-0.98,0.15l-4.75-3.57c-0.28-0.21-0.66-0.18-0.9,0.06l-3.24,3.25c-0.33,0.33-0.9,0.24-1.11-0.18l-2.08-4.18
		c-0.2-0.39-0.71-0.51-1.05-0.23l-5.96,4.78c-0.32,0.26-0.8,0.18-1.02-0.17l-2.75-4.4c-0.24-0.38-0.76-0.44-1.08-0.12l-3.86,3.86
		c-0.31,0.31-0.82,0.26-1.06-0.11l-2.01-3.02c-0.23-0.34-0.69-0.41-1.01-0.16l-5.96,4.78c-0.35,0.28-0.87,0.16-1.06-0.25l-3.49-7.57
		c-0.22-0.48-0.87-0.54-1.18-0.13l-2.98,3.98c-0.31,0.41-0.94,0.35-1.17-0.11l-1.11-2.22c-0.24-0.49-0.93-0.52-1.21-0.05l-3,5.01
		c-0.29,0.48-1.01,0.44-1.23-0.08l-1.33-3.1c-0.17-0.39-0.63-0.54-0.99-0.32l-5.99,3.6c-0.32,0.19-0.73,0.1-0.93-0.21l-1.95-2.94
		c-0.27-0.41-0.88-0.41-1.15,0l-1.76,2.65c-0.27,0.4-0.86,0.41-1.14,0.02l-2.64-3.7c-0.22-0.31-0.65-0.38-0.96-0.16l-3.98,2.85
		c-0.29,0.21-0.7,0.16-0.93-0.12l-2.5-3.01c-0.33-0.39-0.95-0.31-1.16,0.16l-2.56,5.65c-0.24,0.53-0.99,0.54-1.25,0.02l-0.55-1.1
		c-0.14-0.29-0.47-0.44-0.79-0.36l-4.83,1.21c-0.26,0.06-0.53-0.02-0.7-0.23l-2.88-3.47c-0.25-0.3-0.7-0.33-0.99-0.07l-5.49,4.89
		c-0.27,0.24-0.69,0.23-0.95-0.03l-2.6-2.61c-0.29-0.29-0.78-0.26-1.03,0.06l-4,5.15c-0.29,0.37-0.86,0.35-1.12-0.04l-4.76-7.15
		c-0.25-0.38-0.8-0.42-1.1-0.07l-4.03,4.61c-0.25,0.28-0.67,0.32-0.96,0.08l-3.39-2.83c-0.25-0.21-0.62-0.21-0.87-0.01l-6.17,4.95
		c-0.33,0.26-0.82,0.17-1.03-0.19l-4.3-7.39c-0.2-0.34-0.63-0.45-0.96-0.24l-10.37,6.49c-0.33,0.21-0.77,0.1-0.97-0.24l-2.01-3.52
		c-0.25-0.44-0.86-0.47-1.16-0.06l-4.69,6.45c-0.25,0.34-0.75,0.38-1.05,0.08L4.9,92.98c-0.29-0.29-0.77-0.27-1.03,0.05
		c-1.53,1.86-3.84,5.61-3.84,3.78c0,0.98,0,8.36,0,13.05c0,0.38,640.15,0,640.15,0C640.19,103.18,640.09,103.74,639.98,97.05z"/>
	<path class="st8" d="M639.87,95.34l-1,2.39c-0.25,0.28-0.68,0.31-0.97,0.07l-3.81-3.28c-0.36-0.31-0.91-0.17-1.09,0.27l-2.13,5.33
		c-0.19,0.47-0.81,0.59-1.15,0.21l-6.82-7.47c-0.22-0.25-0.59-0.3-0.88-0.12l-4.45,2.79c-0.41,0.26-0.95,0.02-1.04-0.45l-0.33-1.67
		c-0.09-0.47-0.63-0.71-1.04-0.45l-7.95,4.9c-0.33,0.21-0.77,0.09-0.96-0.25l-1.81-3.17c-0.29-0.51-1.04-0.45-1.25,0.1l-1.18,3.15
		c-0.2,0.53-0.91,0.61-1.22,0.14l-1.7-2.56c-0.23-0.35-0.72-0.41-1.04-0.13l-6.04,5.45c-0.31,0.28-0.8,0.22-1.04-0.13l-4.63-6.97
		c-0.3-0.46-0.99-0.39-1.21,0.11l-1.26,2.96c-0.19,0.45-0.78,0.56-1.12,0.22l-2.3-2.3c-0.31-0.31-0.82-0.26-1.06,0.11l-3.4,5.12
		c-0.24,0.36-0.75,0.41-1.06,0.11l-3.94-3.96c-0.28-0.28-0.75-0.27-1.01,0.03l-3.9,4.47c-0.32,0.37-0.92,0.29-1.14-0.15l-2.04-4.08
		c-0.2-0.4-0.73-0.51-1.07-0.22l-3.98,3.42c-0.24,0.21-0.59,0.22-0.85,0.04l-6.37-4.47c-0.25-0.17-0.58-0.17-0.82,0.02l-5.24,4.09
		c-0.4,0.31-0.99,0.1-1.1-0.4l-0.96-4.35c-0.11-0.51-0.72-0.71-1.12-0.38l-7.27,6.08c-0.29,0.24-0.73,0.21-0.97-0.09l-1.95-2.35
		c-0.41-0.5-1.22-0.2-1.22,0.44v1.76c0,0.57-0.66,0.9-1.11,0.55l-7.18-5.54c-0.45-0.35-1.11-0.03-1.11,0.55v1.82
		c0,0.51-0.54,0.85-1,0.62l-5.7-2.86c-0.3-0.15-0.67-0.06-0.87,0.22l-2.86,4.02c-0.23,0.32-0.67,0.38-0.98,0.15l-4.74-3.57
		c-0.28-0.21-0.66-0.18-0.9,0.06l-3.24,3.25c-0.33,0.33-0.9,0.24-1.11-0.18l-2.08-4.18c-0.2-0.39-0.71-0.51-1.05-0.23l-5.96,4.78
		c-0.32,0.26-0.8,0.18-1.02-0.17l-2.74-4.4c-0.24-0.38-0.76-0.44-1.07-0.12l-3.85,3.86c-0.31,0.31-0.82,0.26-1.06-0.11l-2.01-3.02
		c-0.22-0.34-0.69-0.41-1.01-0.16l-5.95,4.78c-0.35,0.28-0.87,0.16-1.06-0.25l-3.48-7.57c-0.22-0.48-0.87-0.54-1.18-0.13l-2.97,3.98
		c-0.31,0.41-0.94,0.35-1.17-0.11l-1.11-2.22c-0.24-0.49-0.93-0.52-1.21-0.05l-3,5.01c-0.29,0.48-1.01,0.44-1.23-0.08l-1.33-3.1
		c-0.16-0.39-0.63-0.54-0.99-0.32l-5.99,3.6c-0.32,0.19-0.73,0.1-0.93-0.21l-1.95-2.94c-0.27-0.41-0.88-0.41-1.15,0l-1.76,2.65
		c-0.27,0.4-0.86,0.41-1.14,0.02l-2.63-3.7c-0.22-0.31-0.65-0.38-0.96-0.16l-3.98,2.85c-0.29,0.21-0.7,0.16-0.93-0.12l-2.5-3.01
		c-0.33-0.39-0.95-0.31-1.16,0.16l-2.56,5.65c-0.24,0.53-0.99,0.54-1.25,0.02l-0.55-1.1c-0.14-0.29-0.47-0.44-0.79-0.36l-4.83,1.21
		c-0.26,0.06-0.53-0.02-0.7-0.23l-2.88-3.47c-0.25-0.3-0.7-0.33-0.99-0.07l-5.49,4.89c-0.27,0.24-0.69,0.23-0.95-0.03l-2.6-2.61
		c-0.29-0.29-0.78-0.26-1.03,0.06l-3.99,5.15c-0.29,0.37-0.86,0.35-1.12-0.04l-4.75-7.15c-0.25-0.38-0.79-0.42-1.09-0.07l-4.02,4.61
		c-0.25,0.28-0.67,0.32-0.96,0.08l-3.39-2.83c-0.25-0.21-0.62-0.21-0.87-0.01l-6.16,4.95c-0.33,0.26-0.82,0.17-1.03-0.19l-4.3-7.39
		c-0.2-0.34-0.63-0.45-0.96-0.24l-10.35,6.49c-0.33,0.21-0.77,0.1-0.97-0.24l-2.01-3.52c-0.25-0.44-0.86-0.47-1.16-0.06l-4.68,6.45
		c-0.25,0.34-0.75,0.38-1.05,0.08l-6.14-6.16c-0.29-0.29-0.76-0.27-1.02,0.05c-0.99,1.2-2.3,3.2-3.11,3.96
		c-0.8-0.76-2.12-2.75-3.11-3.96c-0.26-0.32-0.73-0.34-1.02-0.05l-6.14,6.16c-0.3,0.3-0.8,0.26-1.05-0.08l-4.68-6.45
		c-0.29-0.41-0.91-0.37-1.16,0.06l-2.01,3.52c-0.19,0.34-0.63,0.45-0.97,0.24l-10.35-6.49c-0.33-0.21-0.77-0.1-0.96,0.24l-4.3,7.39
		c-0.21,0.37-0.7,0.46-1.03,0.19l-6.16-4.95c-0.26-0.21-0.62-0.2-0.87,0.01l-3.39,2.83c-0.29,0.24-0.71,0.21-0.96-0.08l-4.02-4.61
		c-0.3-0.34-0.84-0.31-1.09,0.07l-4.75,7.15c-0.26,0.39-0.83,0.41-1.12,0.04l-3.99-5.15c-0.26-0.33-0.74-0.36-1.03-0.06l-2.6,2.61
		c-0.26,0.26-0.67,0.27-0.95,0.03l-5.49-4.89c-0.29-0.26-0.74-0.23-0.99,0.07l-2.88,3.47c-0.17,0.2-0.44,0.29-0.7,0.23l-4.83-1.21
		c-0.31-0.08-0.64,0.07-0.79,0.36l-0.55,1.1c-0.26,0.52-1.01,0.51-1.25-0.02l-2.56-5.65c-0.21-0.46-0.83-0.55-1.16-0.16l-2.5,3.01
		c-0.23,0.28-0.64,0.33-0.93,0.12l-3.98-2.85c-0.31-0.22-0.74-0.15-0.96,0.16l-2.63,3.7c-0.28,0.39-0.87,0.38-1.14-0.02l-1.76-2.65
		c-0.27-0.41-0.88-0.41-1.15,0l-1.95,2.94c-0.2,0.31-0.61,0.4-0.93,0.21l-5.99-3.6c-0.36-0.22-0.83-0.06-0.99,0.32l-1.33,3.1
		c-0.22,0.52-0.94,0.57-1.23,0.08l-3-5.01c-0.28-0.47-0.97-0.44-1.21,0.05l-1.11,2.22c-0.23,0.46-0.86,0.52-1.17,0.11l-2.97-3.98
		c-0.31-0.42-0.96-0.35-1.18,0.13l-3.48,7.57c-0.19,0.41-0.71,0.53-1.06,0.25l-5.95-4.78c-0.32-0.25-0.78-0.18-1.01,0.16l-2.01,3.02
		c-0.24,0.36-0.75,0.41-1.06,0.11l-3.85-3.86c-0.31-0.32-0.84-0.26-1.07,0.12l-2.74,4.4c-0.22,0.35-0.69,0.43-1.02,0.17l-5.96-4.78
		c-0.34-0.28-0.85-0.16-1.05,0.23l-2.08,4.18c-0.21,0.42-0.77,0.51-1.11,0.18l-3.24-3.25c-0.24-0.24-0.63-0.27-0.9-0.06l-4.74,3.57
		c-0.31,0.23-0.75,0.16-0.98-0.15l-2.86-4.02c-0.2-0.28-0.57-0.37-0.87-0.22l-5.7,2.86c-0.46,0.23-1-0.1-1-0.62v-1.82
		c0-0.57-0.66-0.9-1.11-0.55l-7.18,5.54c-0.45,0.35-1.11,0.03-1.11-0.55v-1.76c0-0.65-0.81-0.94-1.22-0.44l-1.95,2.35
		c-0.24,0.29-0.68,0.33-0.97,0.09l-7.27-6.08c-0.4-0.33-1-0.12-1.12,0.38l-0.96,4.35c-0.11,0.5-0.7,0.71-1.1,0.4l-5.24-4.09
		c-0.24-0.19-0.57-0.2-0.82-0.02l-6.37,4.47c-0.26,0.18-0.61,0.16-0.85-0.04l-3.98-3.42c-0.34-0.29-0.87-0.19-1.07,0.22l-2.04,4.08
		c-0.22,0.44-0.81,0.52-1.14,0.15l-3.9-4.47c-0.26-0.3-0.73-0.32-1.01-0.03l-3.94,3.96c-0.31,0.31-0.82,0.26-1.06-0.11l-3.4-5.12
		c-0.24-0.36-0.75-0.41-1.06-0.11l-2.3,2.3c-0.35,0.35-0.93,0.23-1.12-0.22l-1.26-2.96c-0.22-0.51-0.91-0.57-1.21-0.11l-4.63,6.97
		c-0.23,0.35-0.72,0.41-1.04,0.13l-6.04-5.45c-0.31-0.28-0.8-0.22-1.04,0.13l-1.7,2.56c-0.31,0.47-1.02,0.39-1.22-0.14l-1.18-3.15
		c-0.21-0.55-0.96-0.61-1.25-0.1l-1.81,3.17c-0.19,0.34-0.63,0.45-0.96,0.25l-7.95-4.9c-0.41-0.25-0.95-0.02-1.04,0.45l-0.33,1.67
		c-0.09,0.47-0.63,0.71-1.04,0.45l-4.45-2.79c-0.28-0.18-0.65-0.13-0.88,0.12l-6.82,7.47c-0.34,0.38-0.96,0.26-1.15-0.21l-2.13-5.33
		c-0.18-0.44-0.73-0.58-1.09-0.27l-3.81,3.28c-0.29,0.25-0.72,0.22-0.97-0.07l-4.89-5.51c-0.25-0.28-0.68-0.31-0.96-0.07l-8.04,6.82
		c-0.39,0.33-0.99,0.14-1.12-0.36l-0.85-3.4c-0.14-0.55-0.84-0.71-1.2-0.28l-2.1,2.53c-0.31,0.37-0.9,0.32-1.13-0.11l-2.54-4.59
		c-0.26-0.47-0.92-0.48-1.2-0.02l-3.34,5.59c-0.21,0.34-0.66,0.44-0.99,0.21L6.8,94.57c-0.43-0.31-1.04-0.03-1.08,0.5l-0.44,4.9
		c-0.06,0.64-0.88,0.86-1.25,0.33l-2.72-3.9c-0.39-0.55-1.26-0.28-1.26,0.4v8.68v5.08c0,0.38,639.83,0,639.83,0
		C640.08,101.5,640.01,104.4,639.87,95.34z"/>
</g>
<g id="track">
	<rect x="0" y="109.86" class="st10" width="640" height="250"/>
	<rect x="0" y="297.36" class="st11" width="640" height="62.5"/>
	<g>
		<g>
			<g>
				<g>
					<g>
						<path class="st12" d="M639.55,173.03c0.34-0.09,0.15-0.28-0.78-0.24l-0.66,0.33L639.55,173.03z"/>
						<path class="st12" d="M633.31,172.42c-1.09,0.16-2.35,0.44-1.64,0.75c1.08-0.32,1.34-0.19,2.51-0.56
							c0.93-0.04,1.62,0.11,1.46,0.23c0.33-0.08,1.44,0.07,1.94-0.13c-1.21-0.26-2.74-0.27-4.34-0.05
							C632.9,172.56,633.23,172.48,633.31,172.42z"/>
						<path class="st12" d="M542.56,171.9l0.58,0.04C542.99,171.92,542.79,171.91,542.56,171.9z"/>
						<path class="st12" d="M486.34,171.72c0.43-0.01,0.61-0.04,0.63-0.07C486.57,171.67,486.24,171.69,486.34,171.72z"/>
						<path class="st12" d="M476.74,171.35c0.21,0.01,0.38,0.02,0.57,0.02C477.09,171.35,476.87,171.33,476.74,171.35z"/>
						<path class="st12" d="M542.56,171.9l-1.5-0.1C540.96,171.9,541.83,171.88,542.56,171.9z"/>
						<path class="st12" d="M620.8,173.21c0.31-0.02,0.58-0.05,0.82-0.09c-0.26,0.01-0.51,0.03-0.77,0.03
							C620.83,173.18,620.82,173.2,620.8,173.21z"/>
						<path class="st12" d="M567.35,171.63l0.46,0c0.13-0.04,0.26-0.08,0.38-0.13L567.35,171.63z"/>
						<path class="st12" d="M586.37,171.58c-0.43-0.01-0.58,0.27-0.74,0.39c0.24-0.12,0.56-0.17,0.94-0.19
							C586.57,171.73,586.51,171.66,586.37,171.58z"/>
						<path class="st12" d="M616.53,172.08l0.54-0.04C616.93,172.05,616.69,172.06,616.53,172.08z"/>
						<path class="st12" d="M553.73,171.57c-0.03-0.04-0.1-0.08-0.17-0.1C553.56,171.51,553.63,171.54,553.73,171.57z"/>
						<path class="st12" d="M21.7,173.68c0.02-0.02-0.01-0.03,0-0.05C21.58,173.66,21.55,173.68,21.7,173.68z"/>
						<path class="st12" d="M-0.35,172.29l0.31-0.02c0.03-0.05,0.07-0.11,0.07-0.16L-0.35,172.29z"/>
						<path class="st12" d="M459.17,170.99c0.03,0,0.05,0,0.08,0.01C459.71,170.97,459.45,170.97,459.17,170.99z"/>
						<path class="st12" d="M297.89,171.2c1.83,0.25-2.97,0.32-0.22,0.6C297.41,171.69,300.16,171.36,297.89,171.2z"/>
						<path class="st12" d="M620.3,173.18c-0.26,0-0.52,0.01-0.78,0C619.88,173.19,620.12,173.19,620.3,173.18z"/>
						<path class="st12" d="M297.66,171.8C297.66,171.8,297.66,171.8,297.66,171.8l0.28,0.03
							C297.83,171.82,297.76,171.81,297.66,171.8z"/>
						<path class="st12" d="M418.69,171.16c0.08,0.05,0.24,0.09,0.41,0.12C419.09,171.26,418.99,171.22,418.69,171.16z"/>
						<path class="st12" d="M448.85,171.56l-0.75-0.04C448.39,171.55,448.64,171.56,448.85,171.56z"/>
						<path class="st12" d="M403.03,171.56c-0.41-0.02-0.54-0.06-1.1-0.02c0.05,0.01,0.1,0.02,0.17,0.03
							C402.3,171.53,402.57,171.51,403.03,171.56z"/>
						<path class="st12" d="M386.73,171.56c0.09,0.02,0.2,0.04,0.3,0.06c0.16-0.01,0.35-0.01,0.52-0.01L386.73,171.56z"/>
						<path class="st12" d="M71.23,173.55c-0.36-0.08-0.58-0.17-0.75-0.25C70.72,173.49,68.33,173.57,71.23,173.55z"/>
						<path class="st12" d="M620.79,173.06c-0.1,0.07-0.23,0.11-0.48,0.12c0.19,0,0.37-0.01,0.54-0.02
							C620.89,173.12,620.9,173.08,620.79,173.06z"/>
						<path class="st12" d="M402.37,173.78l-2.59-0.04C400.5,173.76,401.44,173.78,402.37,173.78z"/>
						<path class="st12" d="M188.15,173.51l-0.59,0.03C187.78,173.55,187.99,173.54,188.15,173.51z"/>
						<path class="st12" d="M392.09,173.78c-0.46-0.1-0.95-0.16-1.46-0.19c-0.11,0.02-0.23,0.04-0.3,0.07L392.09,173.78z"/>
						<path class="st12" d="M70.47,173.29C70.47,173.29,70.47,173.3,70.47,173.29C70.47,173.3,70.47,173.29,70.47,173.29z"/>
						<path class="st12" d="M53.41,173.96c2.47,0.01,1.16-0.36,1.68-0.57c2.94-0.1,1.36,0.27,2.37,0.46
							c1.84-0.1,3.25-0.44,4.62-0.42c0.1,0.06,0.37,0.08,0.06,0.16c1.94-0.29,5.77-0.01,8.04-0.38c0.17,0.03,0.25,0.06,0.3,0.09
							c-0.37-0.19-0.42-0.37-0.35-0.51c1.11-0.01,2.05-0.23,2.47,0.01c-0.68-0.01-0.73,0.09-1.05,0.17l1.16-0.1
							c1.04,0.35-1.58,0.12-1.58,0.38c2.26-0.11,4.89-0.4,6.63-0.3c0.36,0.34-4.05,0.11-1.74,0.42l-2.68-0.13
							c2.05,0.54-1.63-0.04,0.25,0.54c3.53,0.1,3.94-0.17,7.46-0.07c0.79-0.19-0.26-0.28,0.53-0.47c5-0.34,3.94,0.85,7.61,0.4
							c0.95-0.23,1.32-0.66,3.94-0.43l-0.89,0.38c3.41,0.04,1.95-0.55,5.52-0.29c-0.64,0.15-2.68,0.13-2.17,0.17
							c2.32,0.3,1.64-0.22,3.42-0.22l0.37,0.34c3.63-0.05,7.64-0.3,11.66-0.36c-0.22,0.1-0.91,0.21,0.03,0.31
							c5.08-0.17,10.84,0.04,15.74,0.24l1.87-0.29c0.44,0,0.81,0.13,0.34,0.19c1.91,0.11,0.1-0.19,1.02-0.3
							c1.09-0.02,1.43,0.17,0.75,0.26c3.37-0.25,9.59-0.54,13.14-0.22l-0.69,0.09c2.76,0.12,3.12-0.6,5.68-0.33l-0.49,0.05
							c6,0.13,12.62-0.14,17.2,0.3c0.87-0.42,5.94,0.19,6.32-0.4c3.42,0.29,2.44,0.4,7.27,0.59c1.29,0.03,1.92-0.37,3.51-0.43
							l0.04,0.31l2.16-0.32l1.15,0.37l1.49-0.08c-0.6-0.02-1.26-0.14-1.17-0.23c2.33-0.14,5.69,0.21,5.75,0.37l5.52-0.26
							c-0.12,0.12-1.05,0.17-1.78,0.25c2.95-0.31,0.54,0.32,3.24,0.04c-0.36-0.07,0.2-0.18,0.26-0.25c1.35,0.19,4.41,0.19,6.68,0.11
							l-0.44,0.21c4.09,0.05,8.63-0.1,13.23-0.1c-1.65-0.1-1.27-0.47,0.08-0.5l0.54,0.33c0.87-0.2-1.41-0.12,0.38-0.37
							c1.72,0.04,1.15,0.37,0.17,0.48l2.09-0.11c0.12,0.1-0.37,0.15-0.49,0.27c0.86-0.2,3.6,0.33,4.84-0.02l0.12,0.1
							c4.59,0,6.68-0.11,10.42-0.13c0.07-0.28,1.54-0.22,2.65-0.45c2.75,0.09,5.8,0.31,9.11,0.29c2.33-0.14,0.68-0.24,1.73-0.41
							c0.17,0.26,3.48,0.23,1.76,0.42c3.98-0.04,5.08-0.05,10.11-0.26c-0.55-0.1-1.16-0.15-0.84-0.24c0.91-0.04,2.08,0.11,1.95,0.23
							l-0.24,0.03c5.64-0.38,13.03,0.75,17.52,0.21l-0.25,0.03l4.66-0.28c2.14,0.04-1.29,0.19,0.3,0.35
							c5.03-0.43,7.94,0.06,12.09-0.22c3.21,0.76,11.37-0.05,15.7,0.43l-0.25-0.18c1.12-0.17,1.35,0.1,2.18,0.14
							c-0.12-0.14-1.21-0.16-0.52-0.26c9.47-0.21,19.55,0.26,29.26,0.42c3.55,0.05,2.02-0.92,6.49-0.5l-1.27,0.33
							c7.17-0.4,14.66,0.01,21.67-0.32c-0.42,0.08-0.43,0.18-1.12,0.17c1.48,0.24,5.48,0.01,5.51-0.18
							c1.09,0.02,0.25,0.18,0.93,0.28c1.49,0.14,3.73-0.31,4.52-0.07c0.13,0.04-0.42,0.08-0.69,0.1c0.97-0.12,4.51,0.03,3.59-0.25
							c2.63,0.13,5.04-0.12,7.14,0.04c1.37-0.31,4.51,0.15,4.94-0.29c-0.19,0.45,4.62,0.36,6.28,0.15
							c-0.56,0.14,1.45,0.14,0.79,0.33c1.9-0.01,3.64-0.09,3.31-0.32c3.5,0.54,7.04-0.44,9.01,0.26c5.64-0.24,10.87-0.41,15.95-0.51
							c-0.18,0.45-5.61,0.04-5.39,0.52c4.82-0.19,7.6-0.57,12.37-0.46c1.24,0.06-0.7,0.2-1.12,0.27c4.81-0.19,9.31,0.04,13.59-0.2
							c-0.01,0.04-0.47,0.09-0.91,0.12c0.84-0.01,1.96,0.07,1.87-0.14l-0.82,0.06c-1.35-0.3,3.35-0.62,3.5-0.78
							c-1.43,0.59,4.23,0.15,1.95,0.89c0.56-0.04,1.25-0.14,1.12-0.27c0.82,0.04,1.09,0.12,0.25,0.28c3.02-0.11,1.95-0.33,4.69-0.33
							c-0.01,0.1-0.56,0.14-0.85,0.25c1.39-0.19,2.78-0.39,5.09-0.3c-0.14,0.06,0.13,0.14-0.56,0.14c3.98-0.03,6.78-0.52,11.14-0.33
							c-1.29,0.43,1.48,0.14,1.71,0.52l2.34-0.11l-0.94-0.18c2.05,0.01,3.87-0.27,5.64-0.14l-1.53,0.15l3.85-0.07l-2.18-0.14
							c2.08-0.19-0.22-0.47,2.51-0.37c-0.56,0.04,2.05,0,3.13,0.22c0,0-0.01,0-0.01,0c1.02-0.12,2.06-0.24,3.58-0.15
							c0.39,0.12-0.32,0.41-0.06,0.49c1-0.31,4.81-0.09,6.08-0.42c-0.42,0.08-0.45,0.27-0.31,0.31l0.84-0.25
							c0.95,0.08,1.09,0.12,0.94,0.28c2.86,0.05-0.91-0.47,2.49-0.27c-0.27,0.02-0.14,0.06-0.69,0.1c3.41,0.11,6.59-0.16,9.73-0.04
							c0.93,0.38-2.74,0.09-1.68,0.41c4.52-0.07,9.36-0.45,13.73-0.36l-0.82-0.04c0.61-0.53,3.26,0.26,5.47,0.01
							c-0.54,0.04-0.71,0.29-0.56,0.24c3,0.09,6.12-0.13,10.66-0.3l-0.56,0.14c1.77,0.12,4.65,0.07,6.56,0.13
							c0.57-0.14,1.66-0.11,0.99-0.31c5.88,0.78,11.22-0.42,16.43,0.23c-0.62,0-1.49,0.12-0.99,0.12l4.44-0.13
							c-0.35-0.23-0.58-0.14-1.52-0.32c0.56-0.14,1.82-0.24,2.92-0.24c-2,0.15,0.02,0.37,0.88,0.5c-0.14-0.07,0.15-0.15,0.08-0.22
							c2.32,0.41,0.39-0.46,3.56-0.19l-0.17,0.12c1.19-0.06,2.28-0.22,3.56-0.19c0.53,0.27-1.26,0.12-1.34,0.34
							c1.8-0.02,3.54-0.51,5.17-0.24c-0.76,0.07-1.86,0.08-2.62,0.15c1.77,0.31,1.98,0.23,3.29,0.28l-0.13-0.01l3.04,0.14
							l-0.77-0.08c2.25-0.7,4.58-0.13,7.61-0.58c-2.94,0.43-0.49,0.25-0.71,0.55c0.77,0.08,1.95,0.18,1.61,0.26
							c1.43-0.24,2.39,0.19,4.41-0.16c0.09,0.1,1.53,0.01,1.21,0.25c1.86-0.08-0.44-0.17-0.28-0.29c2.87-0.33,6.74,0.4,10.87-0.05
							c3.56-0.19,4.22-0.52,7.52-0.68c1.11,0.16-0.91,0.36-0.91,0.36c1.8,0.14,3.15,0.12,4.84,0.01c-0.34,0.08,0.01,0.16,0.53,0.27
							c1.36-0.03,0.91-0.35,2.7-0.21c-0.31,0.11-0.7,0.28-1.36,0.39c1.6-0.09,3.18-0.27,4.84-0.36c0.44,0.17-1,0.26-1.59,0.37
							c1.86-0.08,4.83-0.15,5.41-0.42l-1.2-0.1c0.68-0.01,0.35,0.23-0.15,0.28c-1.6,0.21-2.3-0.09-2.39-0.19l1.18-0.06
							c-1.21-0.57-4.74,0.09-7.12,0.06l0.99-0.42l-2.44,0.35c-0.52-0.11-0.87-0.34,0.3-0.4c-1.7-0.21-1.51,0.15-2.97-0.08
							c-0.16-0.04-0.09-0.06,0.06-0.07l-1.67,0.12c0.33-0.09-0.28-0.29,0.75-0.23c-2.99-0.24-4.82,0.31-5.95,0l0.25-0.03
							c-4.15,0.14-0.4,0.31-3.51,0.66l-2.09-0.75l-0.41,0.31c-0.43-0.01-1.27-0.03-1.12-0.16c-1.59,0.21,0.27,0.13-0.65,0.33
							c-2.06-0.28-5.68,0.13-6.14-0.36c-0.74,0.23,1.97,0.18-0.23,0.34c-0.63-0.52-2.54,0.09-4.42-0.15
							c0.58-0.27,2.36-0.13,0.48-0.37c-1.14,0.46-3.66-0.1-5.25-0.01c-0.07,0.36-3.45,0.15-6.11,0.27c0.17-0.12-5.01-0.2-7.49-0.33
							l0.07-0.06c-0.48,0.37-3.04,0.3-4.9,0.37c0.07-0.22,0.41-0.31,1.42-0.4l-1.75,0c-0.41,0.12-0.96,0.18-2.09,0.22l0.44-0.27
							c-2.33,0.02-4.69,0.32-7.68,0.14c-0.17,0.26,2.38,0.71-0.79,0.88c-0.12-0.14-0.23-0.38,0.59-0.43
							c-0.27,0.02-0.97,0.11-1.52,0.06l1.27-0.23c-1.36-0.1-0.71,0.19-1.8,0.17c0.02-0.2-0.81-0.14-0.65-0.3
							c0.28-0.02,0.95,0.08,1.37,0c-1.23-0.04-2.72-0.15-3.21-0.3c0.11,0.11,0,0.27-0.9,0.29c-2.33,0.01-0.8-0.24-2.15-0.34
							c-0.56,0.14-2.05-0.01-2.09,0.29c-0.68,0-0.81-0.14-1.07-0.22c-1.2,0.13-5.63,0.04-4.27,0.35l0.31,0.02
							c-0.06,0.01-0.13,0.01-0.2,0.01c0.01,0,0,0,0.01,0h-0.01c-3.95,0.29-8.2-0.17-12.12-0.04l0.01-0.1
							c-2.34,0.11-5.21,0.07-6.88,0.28c-0.69,0-1.63-0.18-1.34-0.3c-1.79,0.07-1.99,0.19-4.57,0.02c1.8-0.17-0.62-0.15,1.84-0.13
							c-2.32-0.09-2.85-0.24-5.34,0.03c0.85-0.25-1.75-0.32-2.85-0.24l1.63,0.18c-1.24,0.04-2.33,0.01-3.43-0.01l0.6-0.33
							c-4.75-0.4-8.57,0.69-12.19,0.01c-1.26,0.23,2.58,0.16,1.46,0.44c-2.19-0.04-4.47-0.52-5.15-0.52c-3-0.18-2.8,0.49-5.93,0.36
							c0.4,0.12,0.78,0.44-1.56,0.55c-2.19-0.04-2.69-0.5-1.31-0.59c0.52-0.01,0.78,0.03,0.76,0.07c0.71-0.04,1.63-0.09,0.77-0.22
							l-0.28,0.12c-1.09-0.12-4.1-0.11-3.39-0.3c-1.65,0.11-0.71,0.19,0.52,0.26c-2.81-0.17-4.39-0.01-7.27-0.12
							c0.46,0.07,0.88,0.2,0.43,0.2c-4.24-0.15-1.87,0.23-4.74,0.28c-1.63-0.18,0.58-0.43-2.31-0.28c-1.77-0.12-0.37-0.31,0.33-0.41
							c-2.63,0.23-4.92-0.15-6.43-0.19l1.39-0.1c-0.83,0.06-1.51,0.06-2.2,0.05l0.79,0.24c-0.81-0.04-1.5-0.04-1.49-0.14
							c-0.84,0.16,0.64,0.39-1.02,0.61c-1.09-0.12-3.31,0.13-3.68-0.19c3.42,0.11-0.38-0.32,2.51-0.37
							c-0.56,0.04-1.24,0.04-2.05-0.01c-0.12-0.04,0.12-0.07,0.34-0.08c-3.27-0.28-1.5,0.36-4.89,0.35c0.43-0.18-0.79-0.34-1.34-0.3
							c1.36,0,0.65,0.3-0.6,0.43c-2.17-0.14-2.36,0.1-3.5,0.09l1.3,0.07c-0.44,0.18-1.53,0.15-3.04,0.21
							c-0.13-0.14,1.37-0.1,0.83-0.16c-1.68,0.31-3.8-0.32-6.14-0.11c-1.09-0.12-0.11-0.33-1.06-0.41
							c-2.63,0.23-2.84-0.24-5.61-0.05c0.8,0.24,0.93,0.18-1.01,0.41l4.54-0.17l-2.91,0.35c1.37,0,2.89-0.15,3.71-0.11
							c-1.39,0.19-1.25,0.14-0.59,0.33c-1.87-0.36-3.72,0.21-5.88-0.03l0.07-0.59c-3.26-0.26-5.79,0.3-10.02,0.15l1.36,0.1
							c-0.57,0.23-2.61,0.03-3.98,0.13c0.13-0.2-0.73-0.27-1.31-0.39c0.07,0.15-3.1-0.01-3.48,0.38l-1.89-0.26
							c-3.42-0.11-3.9,0.56-7.18,0.5c0.99-0.21-0.5-0.35,1.7-0.51c-1.1,0-2.08-0.04-2.1,0.1c-0.64-0.12-3.04,0.27-4.05,0.08
							c-0.46,0.09-0.61,0.29-1.84,0.28c-0.13-0.04,0-0.1,0-0.1c0,0.1-1.93,0.13-0.85,0.35c-3.38-0.62-9.44,0.04-12.38-0.48
							c-2.39,0.07-5.27,0.13-7.45,0.14c0.14-0.06,0.01-0.1,0.42-0.08c-3-0.18-1.84,0.57-5.25,0.36c-1.74-0.32,1.81-0.17,0.72-0.29
							c-0.47-0.65-4.11,0.09-6.41-0.29l0.56-0.04c-1.75-0.22-4.28,0.25-7.14,0.2c0,0,0.14-0.06,0.02-0.1
							c-1.96,0.33-5.67,0.44-8.42,0.53c0.86-0.25,1.25-0.13,0.73-0.39c-1.24,0.04,0.36,0.41-2.1,0.49c-0.8-0.14-2.58-0.26-2.82-0.54
							l2.33-0.01c-1.19-0.36-3.01,0.01-4.24-0.05l0.16-0.16c-3.57,0.05-3.61,0.44-7.45,0.42l0.4,0.12
							c-2.09,0.39-1.76-0.22-3.84,0.07l-0.63-0.39c-1.38,0.1-4.84,0.38-7.32,0.46c1.4-0.29,4.3-0.44,6.1-0.62
							c-1.37,0-4.65,0.03-5.37,0.22c0.55-0.04,1.25-0.13,1.79-0.07c-1.68,0.31-3.89,0.46-6.62,0.46c0.48-0.77-7.11-0.19-9.09-0.79
							c-4.83,0.28-9.58-0.12-15.2-0.08c1.99,0.6-1.64,0.02-1.3,0.63c-1.31,0.04-1.81,0.03-1.93-0.01l-3.97-0.37
							c-0.94-0.18,1.25-0.13,1.13-0.27c-2.87-0.05-1.2-0.26-3.1-0.42c0.39,0.22-1,0.31-2.63,0.23l2.3,0.28
							c-4.01,0.33-3.46-0.51-7.51-0.19l1.28-0.19c-2.07,0.11-7.65,0-9.68,0.49c-0.37-0.07-0.85-0.24,0.06-0.28
							c-4.96-0.07-11.03,0.52-14.88,0.22l0.38-0.15c-0.92,0.04-1.61,0.28-2.77,0.13c0.06-0.06,0.37-0.15-0.06-0.16
							c-0.49,0.05-2.46,0.26-3.68,0.17l1.05-0.17c-4.83-0.2-7.42,0.41-11.47,0.51c0.01-0.44-3.79-0.58-5.69-0.65l0.07-0.06
							c-5.63-0.05-9.56,0.36-14.77,0.54c-3.24-0.48-10.96-0.2-16.16-0.47c0.79,0.08-0.13,0.34-1.05,0.39
							c-1.22-0.09-3.37,0.31-3.18-0.1l0.44,0.01c-0.92-0.4-3.43-0.29-5.39-0.3l-0.32,0.53c-5.12-0.77-13.42,0.28-16.21-0.41
							c-1.24,0.13-2.77,0.13-3.99,0.26l0.07-0.28c-3.42-0.07-5.13-0.11-9.37-0.04l0.86-0.2c-2.39-0.02-3.01,0.82-5.22,0.83
							l-0.66-0.42c-4.17,0.01-8.38-0.36-12.5,0.02c0.07-0.06,0.19-0.18,0.86-0.2c-1.96-0.01-7.58-0.29-6.87,0.29
							c-0.05-0.38-4.3-0.04-6.55,0.13l0.35-0.28c-1.9,0.36-1.96,0.45-4.61,0.55c-0.63-0.04-0.55-0.22,0.28-0.15
							c-2.09-0.15-1.63,0.26-4.17,0.12l0.95-0.18c-2.15-0.02-1.98,0.07-3.17,0.28c-1.35,0.11-4.09-0.07-4.4-0.32
							c-0.29,0.15-1.47,0.36-2.74,0.29c-0.17-0.1,0.29-0.15,0.52-0.18c-3.6-0.19-5.36,0.32-7.83,0.05
							c-0.05-0.09-0.21-0.14-0.42-0.17c2.86,0.01,5.17,0.02,4.95,0.04c0-0.26-2.31-0.3-0.47-0.66c-1.86,0.19-5.03,0.61-7.28,0.49
							c-0.11-0.02-0.22-0.05-0.3-0.09l0.23-0.03c-0.52-0.03-0.99,0-1.42,0.04c-0.72-0.04-1.18-0.07-1.87-0.08
							c-0.27-0.21-2.65-0.11-3.8-0.13c0.1,0.28-1.41,0.24,0,0.47c-0.18-0.02,0.22-0.03,0.98-0.05c0.17-0.01,0.38-0.01,0.49-0.03
							c-0.02,0.01-0.05,0.02-0.08,0.02c0.76-0.01,1.74-0.01,2.86-0.02c-0.91,0.14-1.86,0.26-3.14,0.11
							c-0.59,0.18-1.24,0.37-1.61,0.45c-1.58-0.39-4.62-0.6-5.04-0.85c-3.52,0.16-8.29,0.1-10.5,0.63c-1,0.07-1.15-0.15-1.52-0.23
							c0.58-0.05,1.26-0.04,1.58-0.12c-2,0.14-5.93,0.05-6.4,0.42c-2.52-0.17,1.42-0.34-2.05-0.28l0.47-0.11
							c-6.82-0.59-11.08,0.94-18.64,0.18c0.52,0.05,0.79,0.07,0.89,0.13c-8.62-0.33-17.75,0.31-26.26-0.22
							c-2.42-0.11-2.68,0.13-4.15,0.31l-0.52-0.3l-2.52,0.35c-3.58,0.26-6.19-0.74-10.72-0.26l0.58,0.2
							c-1.63-0.04-5.15,0.12-4.88-0.11c-0.17,0.04-0.53,0.21-1.17,0.11l-0.05-0.16l-3.99,0.27c-3.1-0.11,0.48-0.63-4.03-0.66
							c-1.68,0.06-4.78,0.46-4.15,0.57c0.68,0.01,1.73,0.1,1.78,0.26l-1.54,0.08c-0.28,0.47-1.46,0.94,2.31,1.27l2.63-0.28
							l0.85,0.23l-2.21,0.01c1.25,0.21,2.05,0.02,2.94-0.1c0.21,0.12,0.58,0.2,1.1,0.25l2.58-0.44c0.31,0.18-1.16,0.36,0.57,0.46
							c1.21-0.21-1.16-0.41,0.84-0.54c1.26,0.21,0.89,0.38,2.37,0.2c0.21,0.12-0.11,0.2-0.69,0.25c1.31-0.14,3.48-0.06,4.15-0.31
							c1.31,0.26,4.43-0.07,4.3,0.37c0.41-0.11,2.31-0.35,3.52-0.36c-2.2,0.53,4.52,0.03,3.93,0.6c1.63-0.47,5.89-0.21,8.78-0.47
							c-0.16,0.04-0.48,0.11-0.73,0.09c1.63,0.04,2.1,0.18,3.14,0.27c0.21-0.39,2.74-0.48,4.11-0.72c1.99,0.38-1.21,0.46-0.58,0.82
							c-0.1-0.32,3.46-0.32,2.78-0.58c1.52,0.23,1.31,0.11,2.1,0.44c0.27-0.49,1.42-0.08,2.68-0.38c2.21,0.24,0.57,0.46,2.99,0.31
							C55.57,173.79,53.41,173.96,53.41,173.96z M111.04,173.11C111.04,173.12,111.04,173.12,111.04,173.11
							c-0.5,0.01-0.92,0.02-1.19,0.02C110.1,173.13,110.44,173.12,111.04,173.11z M115.88,173.11c-0.59-0.01-1.32-0.01-2.1-0.01
							c-0.17-0.1,0.01-0.2,0.5-0.19C114.02,172.97,115.16,173.03,115.88,173.11z M105.64,171.16c0.77-0.04,1.02,0.02,1.13,0.07
							c-0.36,0-0.79,0.01-1.34,0.03c-0.02,0.01-0.07,0.02-0.09,0.03C105.41,171.25,105.49,171.2,105.64,171.16z"/>
						<path class="st12" d="M104.26,171.53c-0.11,0.01-0.17,0.02-0.32,0.02c0.16,0.02,0.31,0.05,0.46,0.06
							c0.09-0.03,0.19-0.06,0.27-0.09C104.53,171.53,104.39,171.53,104.26,171.53z"/>
						<path class="st12" d="M543.25,171.95l-0.1-0.01c0.08,0.01,0.16,0.02,0.21,0.04C543.29,171.97,543.29,171.96,543.25,171.95z"/>
						<polygon class="st12" points="182.75,173.65 182.75,173.58 182.32,173.64 						"/>
						<path class="st12" d="M569.92,172.91c0.05,0.02,0.15,0.05,0.35,0.07C570.26,172.96,570.11,172.94,569.92,172.91z"/>
						<path class="st12" d="M581.44,172.97l1.63,0.1C582.37,173.02,581.85,172.99,581.44,172.97z"/>
						<path class="st12" d="M590.3,173.11c0.11-0.05,0.14-0.09,0.17-0.12c-0.01,0-0.01,0-0.02,0L590.3,173.11z"/>
						<path class="st12" d="M449.46,173.44c-0.12,0-0.24,0.01-0.34,0.01C448.31,173.51,448.86,173.49,449.46,173.44z"/>
						<path class="st12" d="M491.37,172.79c-0.44,0.05-0.88,0.1-1.35,0.13C490.77,172.94,491.35,172.95,491.37,172.79z"/>
						<path class="st12" d="M402.65,173.78C402.66,173.78,402.65,173.78,402.65,173.78c-0.1,0-0.18,0-0.28,0L402.65,173.78z"/>
						<path class="st12" d="M488.07,172.91c0.75,0.06,1.37,0.04,1.95,0C489.41,172.9,488.69,172.87,488.07,172.91z"/>
						<path class="st12" d="M628.69,173.24l0.43,0.01c-0.01-0.02,0.02-0.03,0.05-0.05L628.69,173.24z"/>
						<path class="st12" d="M629.17,173.21l0.47-0.03C629.43,173.17,629.24,173.18,629.17,173.21z"/>
						<path class="st12" d="M630.64,173.1l-1,0.07C629.99,173.17,630.42,173.18,630.64,173.1z"/>
						<path class="st12" d="M616.97,173.11l-0.13,0.1C616.91,173.19,616.95,173.16,616.97,173.11z"/>
						<path class="st12" d="M613.4,173.14c0.85,0.02,2.13,0.22,3.32,0.15l0.11-0.08C616.28,173.36,614.21,172.97,613.4,173.14z"/>
						<path class="st12" d="M598.53,171.88l2.99,0.08c-0.52-0.11-1.21-0.25,0.15-0.28C597.9,171.36,602.44,171.92,598.53,171.88z"/>
						<path class="st12" d="M589.27,171.72c1.6-0.05-0.02-0.16,0.07-0.22C588.32,171.6,588.07,171.63,589.27,171.72z"/>
						<path class="st12" d="M522.36,171.72l0.16-0.26C521.28,171.5,522.51,171.56,522.36,171.72z"/>
						<polygon class="st12" points="509.57,173.04 510.77,173.2 511.34,172.97 						"/>
						<polygon class="st12" points="502.01,171.22 502.55,171.18 500.49,171.28 						"/>
						<path class="st12" d="M389.63,171.31l0.37,0.32C390.84,171.57,391.02,171.22,389.63,171.31z"/>
						<path class="st12" d="M341.12,171.63c-0.53-0.16-1.89-0.26-2.73-0.1C339.47,171.55,340.56,171.67,341.12,171.63z"/>
						<polygon class="st12" points="195.62,171.12 196.59,171.01 194.76,171.1 						"/>
					</g>
				</g>
			</g>
		</g>
	</g>
	<g>
		<g>
			<g>
				<g>
					<g>
						<path class="st12" d="M639.55,235.53c0.34-0.09,0.15-0.28-0.78-0.24l-0.66,0.33L639.55,235.53z"/>
						<path class="st12" d="M633.31,234.92c-1.09,0.16-2.35,0.44-1.64,0.75c1.08-0.32,1.34-0.19,2.51-0.56
							c0.93-0.04,1.62,0.11,1.46,0.23c0.33-0.08,1.44,0.07,1.94-0.13c-1.21-0.26-2.74-0.27-4.34-0.05
							C632.9,235.06,633.23,234.98,633.31,234.92z"/>
						<path class="st12" d="M542.56,234.4l0.58,0.04C542.99,234.42,542.79,234.41,542.56,234.4z"/>
						<path class="st12" d="M486.34,234.22c0.43-0.01,0.61-0.04,0.63-0.07C486.57,234.17,486.24,234.19,486.34,234.22z"/>
						<path class="st12" d="M476.74,233.85c0.21,0.01,0.38,0.02,0.57,0.02C477.09,233.85,476.87,233.83,476.74,233.85z"/>
						<path class="st12" d="M542.56,234.4l-1.5-0.1C540.96,234.4,541.83,234.38,542.56,234.4z"/>
						<path class="st12" d="M620.8,235.71c0.31-0.02,0.58-0.05,0.82-0.09c-0.26,0.01-0.51,0.03-0.77,0.04
							C620.83,235.68,620.82,235.7,620.8,235.71z"/>
						<path class="st12" d="M567.35,234.13l0.46,0c0.13-0.04,0.26-0.08,0.38-0.13L567.35,234.13z"/>
						<path class="st12" d="M586.37,234.08c-0.43-0.01-0.58,0.27-0.74,0.39c0.24-0.12,0.56-0.17,0.94-0.19
							C586.57,234.23,586.51,234.16,586.37,234.08z"/>
						<path class="st12" d="M616.53,234.58l0.54-0.04C616.93,234.55,616.69,234.56,616.53,234.58z"/>
						<path class="st12" d="M553.73,234.07c-0.03-0.04-0.1-0.08-0.17-0.1C553.56,234.01,553.63,234.04,553.73,234.07z"/>
						<path class="st12" d="M21.7,236.18c0.02-0.02-0.01-0.03,0-0.05C21.58,236.16,21.55,236.18,21.7,236.18z"/>
						<path class="st12" d="M-0.35,234.79l0.31-0.02c0.03-0.05,0.07-0.11,0.07-0.16L-0.35,234.79z"/>
						<path class="st12" d="M459.17,233.49c0.03,0,0.05,0,0.08,0.01C459.71,233.47,459.45,233.47,459.17,233.49z"/>
						<path class="st12" d="M297.89,233.7c1.83,0.25-2.97,0.32-0.22,0.6C297.41,234.19,300.16,233.86,297.89,233.7z"/>
						<path class="st12" d="M620.3,235.68c-0.26,0-0.52,0.01-0.78,0C619.88,235.69,620.12,235.69,620.3,235.68z"/>
						<path class="st12" d="M297.66,234.3C297.66,234.3,297.66,234.3,297.66,234.3l0.28,0.03
							C297.83,234.32,297.76,234.31,297.66,234.3z"/>
						<path class="st12" d="M418.69,233.66c0.08,0.05,0.24,0.09,0.41,0.12C419.09,233.76,418.99,233.72,418.69,233.66z"/>
						<path class="st12" d="M448.85,234.06l-0.75-0.04C448.39,234.05,448.64,234.06,448.85,234.06z"/>
						<path class="st12" d="M403.03,234.06c-0.41-0.02-0.54-0.06-1.1-0.02c0.05,0.01,0.1,0.02,0.17,0.03
							C402.3,234.03,402.57,234.01,403.03,234.06z"/>
						<path class="st12" d="M386.73,234.06c0.09,0.02,0.2,0.04,0.3,0.06c0.16-0.01,0.35-0.01,0.52-0.01L386.73,234.06z"/>
						<path class="st12" d="M71.23,236.05c-0.36-0.08-0.58-0.17-0.75-0.25C70.72,235.99,68.33,236.07,71.23,236.05z"/>
						<path class="st12" d="M620.79,235.56c-0.1,0.07-0.23,0.11-0.48,0.12c0.19,0,0.37-0.01,0.54-0.02
							C620.89,235.62,620.9,235.58,620.79,235.56z"/>
						<path class="st12" d="M402.37,236.28l-2.59-0.04C400.5,236.26,401.44,236.28,402.37,236.28z"/>
						<path class="st12" d="M188.15,236.01l-0.59,0.03C187.78,236.05,187.99,236.04,188.15,236.01z"/>
						<path class="st12" d="M392.09,236.28c-0.46-0.1-0.95-0.16-1.46-0.19c-0.11,0.02-0.23,0.04-0.3,0.07L392.09,236.28z"/>
						<path class="st12" d="M70.47,235.79C70.47,235.79,70.47,235.8,70.47,235.79C70.47,235.8,70.47,235.79,70.47,235.79z"/>
						<path class="st12" d="M53.41,236.46c2.47,0.01,1.16-0.36,1.68-0.57c2.94-0.1,1.36,0.27,2.37,0.46
							c1.84-0.1,3.25-0.44,4.62-0.42c0.1,0.06,0.37,0.08,0.06,0.16c1.94-0.29,5.77-0.01,8.04-0.38c0.17,0.03,0.25,0.06,0.3,0.09
							c-0.37-0.19-0.42-0.37-0.35-0.51c1.11-0.01,2.05-0.23,2.47,0.01c-0.68-0.01-0.73,0.09-1.05,0.17l1.16-0.1
							c1.04,0.35-1.58,0.12-1.58,0.38c2.26-0.11,4.89-0.4,6.63-0.3c0.36,0.34-4.05,0.11-1.74,0.42l-2.68-0.13
							c2.05,0.54-1.63-0.04,0.25,0.54c3.53,0.1,3.94-0.17,7.46-0.07c0.79-0.19-0.26-0.28,0.53-0.47c5-0.34,3.94,0.85,7.61,0.4
							c0.95-0.23,1.32-0.66,3.94-0.43l-0.89,0.38c3.41,0.04,1.95-0.55,5.52-0.29c-0.64,0.15-2.68,0.13-2.17,0.17
							c2.32,0.3,1.64-0.22,3.42-0.22l0.37,0.34c3.63-0.05,7.64-0.3,11.66-0.36c-0.22,0.1-0.91,0.21,0.03,0.31
							c5.08-0.17,10.84,0.04,15.74,0.24l1.87-0.29c0.44,0,0.81,0.13,0.34,0.19c1.91,0.11,0.1-0.19,1.02-0.3
							c1.09-0.02,1.43,0.17,0.75,0.26c3.37-0.25,9.59-0.54,13.14-0.22l-0.69,0.09c2.76,0.12,3.12-0.6,5.68-0.33l-0.49,0.05
							c6,0.13,12.62-0.14,17.2,0.3c0.87-0.42,5.94,0.19,6.32-0.4c3.42,0.29,2.44,0.4,7.27,0.59c1.29,0.03,1.92-0.37,3.51-0.43
							l0.04,0.31l2.16-0.32l1.15,0.37l1.49-0.08c-0.6-0.02-1.26-0.14-1.17-0.23c2.33-0.14,5.69,0.21,5.75,0.37l5.52-0.26
							c-0.12,0.12-1.05,0.17-1.78,0.25c2.95-0.31,0.54,0.32,3.24,0.04c-0.36-0.07,0.2-0.18,0.26-0.25c1.35,0.19,4.41,0.19,6.68,0.11
							l-0.44,0.21c4.09,0.05,8.63-0.1,13.23-0.1c-1.65-0.1-1.27-0.47,0.08-0.5l0.54,0.33c0.87-0.2-1.41-0.12,0.38-0.37
							c1.72,0.04,1.15,0.37,0.17,0.48l2.09-0.11c0.12,0.1-0.37,0.15-0.49,0.27c0.86-0.2,3.6,0.33,4.84-0.02l0.12,0.1
							c4.59,0,6.68-0.11,10.42-0.13c0.07-0.28,1.54-0.22,2.65-0.45c2.75,0.09,5.8,0.31,9.11,0.29c2.33-0.14,0.68-0.24,1.73-0.41
							c0.17,0.26,3.48,0.23,1.76,0.42c3.98-0.04,5.08-0.05,10.11-0.26c-0.55-0.1-1.16-0.15-0.84-0.24c0.91-0.04,2.08,0.11,1.95,0.23
							l-0.24,0.03c5.64-0.38,13.03,0.75,17.52,0.21l-0.25,0.03l4.66-0.28c2.14,0.04-1.29,0.19,0.3,0.35
							c5.03-0.43,7.94,0.06,12.09-0.22c3.21,0.76,11.37-0.05,15.7,0.43l-0.25-0.18c1.12-0.17,1.35,0.1,2.18,0.14
							c-0.12-0.14-1.21-0.16-0.52-0.26c9.47-0.21,19.55,0.26,29.26,0.42c3.55,0.05,2.02-0.92,6.49-0.5l-1.27,0.33
							c7.17-0.4,14.66,0.01,21.67-0.32c-0.42,0.08-0.43,0.18-1.12,0.17c1.48,0.24,5.48,0.01,5.51-0.18
							c1.09,0.02,0.25,0.18,0.93,0.28c1.49,0.14,3.73-0.31,4.52-0.07c0.13,0.04-0.42,0.08-0.69,0.1c0.97-0.12,4.51,0.03,3.59-0.25
							c2.63,0.13,5.04-0.12,7.14,0.04c1.37-0.31,4.51,0.15,4.94-0.29c-0.19,0.45,4.62,0.36,6.28,0.15
							c-0.56,0.14,1.45,0.14,0.79,0.33c1.9-0.01,3.64-0.09,3.31-0.32c3.5,0.54,7.04-0.44,9.01,0.26c5.64-0.24,10.87-0.41,15.95-0.51
							c-0.18,0.45-5.61,0.04-5.39,0.52c4.82-0.19,7.6-0.57,12.37-0.46c1.24,0.06-0.7,0.2-1.12,0.27c4.81-0.19,9.31,0.04,13.59-0.2
							c-0.01,0.04-0.47,0.09-0.91,0.12c0.84-0.01,1.96,0.07,1.87-0.14l-0.82,0.06c-1.35-0.3,3.35-0.62,3.5-0.78
							c-1.43,0.59,4.23,0.15,1.95,0.89c0.56-0.04,1.25-0.14,1.12-0.27c0.82,0.04,1.09,0.12,0.25,0.28c3.02-0.11,1.95-0.33,4.69-0.33
							c-0.01,0.1-0.56,0.14-0.85,0.25c1.39-0.19,2.78-0.39,5.09-0.3c-0.14,0.06,0.13,0.14-0.56,0.14c3.98-0.03,6.78-0.52,11.14-0.33
							c-1.29,0.43,1.48,0.14,1.71,0.52l2.34-0.11l-0.94-0.18c2.05,0.01,3.87-0.27,5.64-0.14l-1.53,0.15l3.85-0.07l-2.18-0.14
							c2.08-0.19-0.22-0.47,2.51-0.37c-0.56,0.04,2.05,0,3.13,0.22c0,0-0.01,0-0.01,0c1.02-0.12,2.06-0.24,3.58-0.15
							c0.39,0.12-0.32,0.41-0.06,0.49c1-0.31,4.81-0.09,6.08-0.42c-0.42,0.08-0.45,0.27-0.31,0.31l0.84-0.25
							c0.95,0.08,1.09,0.12,0.94,0.28c2.86,0.05-0.91-0.47,2.49-0.27c-0.27,0.02-0.14,0.06-0.69,0.1c3.41,0.11,6.59-0.16,9.73-0.04
							c0.93,0.38-2.74,0.09-1.68,0.41c4.52-0.07,9.36-0.45,13.73-0.36l-0.82-0.04c0.61-0.53,3.26,0.26,5.47,0.01
							c-0.54,0.04-0.71,0.29-0.56,0.24c3,0.09,6.12-0.13,10.66-0.3l-0.56,0.14c1.77,0.12,4.65,0.07,6.56,0.13
							c0.57-0.14,1.66-0.11,0.99-0.31c5.88,0.78,11.22-0.42,16.43,0.23c-0.62,0-1.49,0.12-0.99,0.12l4.44-0.13
							c-0.35-0.23-0.58-0.14-1.52-0.32c0.56-0.14,1.82-0.24,2.92-0.24c-2,0.15,0.02,0.37,0.88,0.5c-0.14-0.07,0.15-0.15,0.08-0.22
							c2.32,0.41,0.39-0.46,3.56-0.19l-0.17,0.12c1.19-0.06,2.28-0.22,3.56-0.19c0.53,0.27-1.26,0.12-1.34,0.34
							c1.8-0.02,3.54-0.51,5.17-0.24c-0.76,0.07-1.86,0.08-2.62,0.15c1.77,0.31,1.98,0.23,3.29,0.28l-0.13-0.01l3.04,0.14
							l-0.77-0.09c2.25-0.7,4.58-0.13,7.61-0.58c-2.94,0.43-0.49,0.25-0.71,0.55c0.77,0.08,1.95,0.18,1.61,0.26
							c1.43-0.24,2.39,0.19,4.41-0.16c0.09,0.1,1.53,0.01,1.21,0.25c1.86-0.08-0.44-0.17-0.28-0.29c2.87-0.33,6.74,0.4,10.87-0.05
							c3.56-0.19,4.22-0.52,7.52-0.68c1.11,0.16-0.91,0.36-0.91,0.36c1.8,0.14,3.15,0.12,4.84,0.01c-0.34,0.08,0.01,0.16,0.53,0.27
							c1.36-0.03,0.91-0.35,2.7-0.21c-0.31,0.11-0.7,0.28-1.36,0.39c1.6-0.09,3.18-0.27,4.84-0.36c0.44,0.17-1,0.26-1.59,0.37
							c1.86-0.08,4.83-0.15,5.41-0.42l-1.2-0.1c0.68-0.01,0.35,0.23-0.15,0.28c-1.6,0.21-2.3-0.09-2.39-0.19l1.18-0.06
							c-1.21-0.57-4.74,0.09-7.12,0.06l0.99-0.42l-2.44,0.35c-0.52-0.11-0.87-0.34,0.3-0.4c-1.7-0.21-1.51,0.15-2.97-0.08
							c-0.16-0.04-0.09-0.06,0.06-0.07l-1.67,0.12c0.33-0.09-0.28-0.29,0.75-0.23c-2.99-0.24-4.82,0.31-5.95,0l0.25-0.03
							c-4.15,0.14-0.4,0.31-3.51,0.66l-2.09-0.75l-0.41,0.31c-0.43-0.01-1.27-0.03-1.12-0.16c-1.59,0.21,0.27,0.13-0.65,0.33
							c-2.06-0.28-5.68,0.13-6.14-0.36c-0.74,0.23,1.97,0.18-0.23,0.34c-0.63-0.52-2.54,0.09-4.42-0.15
							c0.58-0.27,2.36-0.13,0.48-0.37c-1.14,0.46-3.66-0.1-5.25-0.01c-0.07,0.36-3.45,0.15-6.11,0.27c0.17-0.12-5.01-0.2-7.49-0.33
							l0.07-0.06c-0.48,0.37-3.04,0.3-4.9,0.37c0.07-0.22,0.41-0.31,1.42-0.4l-1.75,0c-0.41,0.12-0.96,0.18-2.09,0.22l0.44-0.27
							c-2.33,0.02-4.69,0.32-7.68,0.14c-0.17,0.26,2.38,0.71-0.79,0.88c-0.12-0.14-0.23-0.38,0.59-0.43
							c-0.27,0.02-0.97,0.11-1.52,0.06l1.27-0.23c-1.36-0.1-0.71,0.19-1.8,0.17c0.02-0.2-0.81-0.14-0.65-0.3
							c0.28-0.02,0.95,0.08,1.37,0c-1.23-0.04-2.72-0.15-3.21-0.3c0.11,0.11,0,0.27-0.9,0.29c-2.33,0.01-0.8-0.24-2.15-0.34
							c-0.56,0.14-2.05-0.01-2.09,0.29c-0.68,0-0.81-0.14-1.07-0.22c-1.2,0.13-5.63,0.04-4.27,0.35l0.31,0.02
							c-0.06,0.01-0.13,0.01-0.2,0.01c0.01,0,0,0,0.01,0h-0.01c-3.95,0.29-8.2-0.17-12.12-0.04l0.01-0.1
							c-2.34,0.11-5.21,0.07-6.88,0.28c-0.69,0-1.63-0.18-1.34-0.3c-1.79,0.07-1.99,0.19-4.57,0.02c1.8-0.17-0.62-0.15,1.84-0.13
							c-2.32-0.09-2.85-0.24-5.34,0.03c0.85-0.25-1.75-0.32-2.85-0.24l1.63,0.18c-1.24,0.04-2.33,0.01-3.43-0.01l0.6-0.33
							c-4.75-0.4-8.57,0.69-12.19,0.01c-1.26,0.23,2.58,0.16,1.46,0.44c-2.19-0.04-4.47-0.52-5.15-0.52c-3-0.18-2.8,0.49-5.93,0.36
							c0.4,0.12,0.78,0.44-1.56,0.55c-2.19-0.04-2.69-0.5-1.31-0.59c0.52-0.01,0.78,0.03,0.76,0.07c0.71-0.04,1.63-0.09,0.77-0.22
							l-0.28,0.12c-1.09-0.12-4.1-0.11-3.39-0.3c-1.65,0.11-0.71,0.19,0.52,0.26c-2.81-0.17-4.39-0.01-7.27-0.12
							c0.46,0.07,0.88,0.2,0.43,0.2c-4.24-0.15-1.87,0.23-4.74,0.28c-1.63-0.18,0.58-0.43-2.31-0.28c-1.77-0.12-0.37-0.31,0.33-0.41
							c-2.63,0.23-4.92-0.15-6.43-0.19l1.39-0.1c-0.83,0.06-1.51,0.06-2.2,0.05l0.79,0.24c-0.81-0.04-1.5-0.04-1.49-0.14
							c-0.84,0.16,0.64,0.39-1.02,0.61c-1.09-0.12-3.31,0.13-3.68-0.19c3.42,0.11-0.38-0.32,2.51-0.37
							c-0.56,0.04-1.24,0.04-2.05-0.01c-0.12-0.04,0.12-0.07,0.34-0.08c-3.27-0.28-1.5,0.36-4.89,0.35c0.43-0.18-0.79-0.34-1.34-0.3
							c1.36,0,0.65,0.3-0.6,0.43c-2.17-0.14-2.36,0.1-3.5,0.09l1.3,0.07c-0.44,0.18-1.53,0.15-3.04,0.21
							c-0.13-0.14,1.37-0.1,0.83-0.16c-1.68,0.31-3.8-0.32-6.14-0.11c-1.09-0.12-0.11-0.33-1.06-0.41
							c-2.63,0.23-2.84-0.24-5.61-0.05c0.8,0.24,0.93,0.18-1.01,0.41l4.54-0.17l-2.91,0.35c1.37,0,2.89-0.15,3.71-0.11
							c-1.39,0.19-1.25,0.14-0.59,0.33c-1.87-0.36-3.72,0.21-5.88-0.03l0.07-0.59c-3.26-0.26-5.79,0.3-10.02,0.15l1.36,0.1
							c-0.57,0.23-2.61,0.03-3.98,0.13c0.13-0.2-0.73-0.27-1.31-0.39c0.07,0.15-3.1-0.01-3.48,0.38l-1.89-0.26
							c-3.42-0.11-3.9,0.56-7.18,0.5c0.99-0.21-0.5-0.35,1.7-0.51c-1.1,0-2.08-0.04-2.1,0.1c-0.64-0.12-3.04,0.27-4.05,0.08
							c-0.46,0.09-0.61,0.29-1.84,0.28c-0.13-0.04,0-0.1,0-0.1c0,0.1-1.93,0.13-0.85,0.35c-3.38-0.62-9.44,0.04-12.38-0.48
							c-2.39,0.07-5.27,0.13-7.45,0.14c0.14-0.06,0.01-0.1,0.42-0.08c-3-0.18-1.84,0.57-5.25,0.36c-1.74-0.32,1.81-0.17,0.72-0.29
							c-0.47-0.65-4.11,0.09-6.41-0.29l0.56-0.04c-1.75-0.22-4.28,0.25-7.14,0.2c0,0,0.14-0.06,0.02-0.1
							c-1.96,0.33-5.67,0.44-8.42,0.53c0.86-0.25,1.25-0.13,0.73-0.39c-1.24,0.04,0.36,0.41-2.1,0.49c-0.8-0.14-2.58-0.26-2.82-0.54
							l2.33-0.01c-1.19-0.36-3.01,0.01-4.24-0.05l0.16-0.16c-3.57,0.05-3.61,0.44-7.45,0.42l0.4,0.12
							c-2.09,0.39-1.76-0.22-3.84,0.07l-0.63-0.39c-1.38,0.1-4.84,0.38-7.32,0.46c1.4-0.29,4.3-0.44,6.1-0.62
							c-1.37,0-4.65,0.03-5.37,0.22c0.55-0.04,1.25-0.13,1.79-0.07c-1.68,0.31-3.89,0.46-6.62,0.46c0.48-0.77-7.11-0.19-9.09-0.79
							c-4.83,0.28-9.58-0.12-15.2-0.08c1.99,0.6-1.64,0.02-1.3,0.63c-1.31,0.04-1.81,0.03-1.93-0.01l-3.97-0.37
							c-0.94-0.18,1.25-0.13,1.13-0.27c-2.87-0.05-1.2-0.26-3.1-0.42c0.39,0.22-1,0.31-2.63,0.23l2.3,0.28
							c-4.01,0.33-3.46-0.51-7.51-0.19l1.28-0.19c-2.07,0.11-7.65,0-9.68,0.49c-0.37-0.07-0.85-0.24,0.06-0.28
							c-4.96-0.07-11.03,0.52-14.88,0.22l0.38-0.15c-0.92,0.04-1.61,0.28-2.77,0.13c0.06-0.06,0.37-0.15-0.06-0.16
							c-0.49,0.05-2.46,0.26-3.68,0.17l1.05-0.17c-4.83-0.2-7.42,0.41-11.47,0.51c0.01-0.44-3.79-0.58-5.69-0.65l0.07-0.06
							c-5.63-0.05-9.56,0.36-14.77,0.54c-3.24-0.48-10.96-0.2-16.16-0.47c0.79,0.08-0.13,0.34-1.05,0.39
							c-1.22-0.09-3.37,0.31-3.18-0.1l0.44,0.01c-0.92-0.4-3.43-0.29-5.39-0.3l-0.32,0.53c-5.12-0.77-13.42,0.28-16.21-0.41
							c-1.24,0.13-2.77,0.13-3.99,0.26l0.07-0.28c-3.42-0.07-5.13-0.11-9.37-0.04l0.86-0.2c-2.39-0.02-3.01,0.82-5.22,0.83
							l-0.66-0.42c-4.17,0.01-8.38-0.36-12.5,0.02c0.07-0.06,0.19-0.18,0.86-0.2c-1.96-0.01-7.58-0.29-6.87,0.29
							c-0.05-0.38-4.3-0.04-6.55,0.13l0.35-0.28c-1.9,0.36-1.96,0.45-4.61,0.55c-0.63-0.04-0.55-0.22,0.28-0.15
							c-2.09-0.15-1.63,0.26-4.17,0.12l0.95-0.18c-2.15-0.02-1.98,0.07-3.17,0.28c-1.35,0.11-4.09-0.07-4.4-0.32
							c-0.29,0.15-1.47,0.36-2.74,0.29c-0.17-0.1,0.29-0.15,0.52-0.18c-3.6-0.19-5.36,0.32-7.83,0.05
							c-0.05-0.09-0.21-0.14-0.42-0.17c2.86,0.01,5.17,0.02,4.95,0.04c0-0.26-2.31-0.3-0.47-0.66c-1.86,0.19-5.03,0.61-7.28,0.49
							c-0.11-0.02-0.22-0.05-0.3-0.09l0.23-0.03c-0.52-0.03-0.99,0-1.42,0.04c-0.72-0.04-1.18-0.07-1.87-0.08
							c-0.27-0.21-2.65-0.11-3.8-0.13c0.1,0.28-1.41,0.24,0,0.47c-0.18-0.02,0.22-0.03,0.98-0.05c0.17-0.01,0.38-0.01,0.49-0.03
							c-0.02,0.01-0.05,0.02-0.08,0.02c0.76-0.01,1.74-0.01,2.86-0.02c-0.91,0.14-1.86,0.26-3.14,0.11
							c-0.59,0.18-1.24,0.37-1.61,0.45c-1.58-0.39-4.62-0.6-5.04-0.85c-3.52,0.16-8.29,0.1-10.5,0.63c-1,0.07-1.15-0.15-1.52-0.23
							c0.58-0.05,1.26-0.04,1.58-0.12c-2,0.14-5.93,0.05-6.4,0.42c-2.52-0.17,1.42-0.34-2.05-0.28l0.47-0.11
							c-6.82-0.59-11.08,0.94-18.64,0.18c0.52,0.05,0.79,0.07,0.89,0.13c-8.62-0.33-17.75,0.31-26.26-0.22
							c-2.42-0.11-2.68,0.13-4.15,0.31l-0.52-0.3l-2.52,0.35c-3.58,0.26-6.19-0.74-10.72-0.26l0.58,0.2
							c-1.63-0.04-5.15,0.12-4.88-0.11c-0.17,0.04-0.53,0.21-1.17,0.11l-0.05-0.16l-3.99,0.27c-3.1-0.11,0.48-0.63-4.03-0.66
							c-1.68,0.06-4.78,0.46-4.15,0.57c0.68,0.01,1.73,0.1,1.78,0.26l-1.54,0.08c-0.28,0.47-1.46,0.94,2.31,1.27l2.63-0.28
							l0.85,0.23L3.53,236c1.25,0.21,2.05,0.02,2.94-0.1c0.21,0.12,0.58,0.2,1.1,0.25l2.58-0.44c0.31,0.18-1.16,0.36,0.57,0.46
							c1.21-0.21-1.16-0.41,0.84-0.54c1.26,0.21,0.89,0.38,2.37,0.2c0.21,0.12-0.11,0.2-0.69,0.25c1.31-0.14,3.48-0.06,4.15-0.31
							c1.31,0.26,4.43-0.07,4.3,0.37c0.41-0.11,2.31-0.35,3.52-0.36c-2.2,0.53,4.52,0.03,3.93,0.6c1.63-0.47,5.89-0.21,8.78-0.47
							c-0.16,0.04-0.48,0.11-0.73,0.09c1.63,0.04,2.1,0.18,3.14,0.27c0.21-0.39,2.74-0.48,4.11-0.72c1.99,0.38-1.21,0.46-0.58,0.82
							c-0.1-0.32,3.46-0.32,2.78-0.58c1.52,0.23,1.31,0.11,2.1,0.44c0.27-0.49,1.42-0.08,2.68-0.38c2.21,0.24,0.57,0.46,2.99,0.31
							C55.57,236.29,53.41,236.46,53.41,236.46z M111.04,235.61C111.04,235.62,111.04,235.62,111.04,235.61
							c-0.5,0.01-0.92,0.02-1.19,0.02C110.1,235.63,110.44,235.62,111.04,235.61z M115.88,235.61c-0.59-0.01-1.32-0.01-2.1-0.01
							c-0.17-0.1,0.01-0.2,0.5-0.19C114.02,235.47,115.16,235.53,115.88,235.61z M105.64,233.66c0.77-0.04,1.02,0.02,1.13,0.07
							c-0.36,0-0.79,0.01-1.34,0.03c-0.02,0.01-0.07,0.02-0.09,0.03C105.41,233.75,105.49,233.7,105.64,233.66z"/>
						<path class="st12" d="M104.26,234.03c-0.11,0.01-0.17,0.02-0.32,0.02c0.16,0.02,0.31,0.05,0.46,0.06
							c0.09-0.03,0.19-0.06,0.27-0.09C104.53,234.03,104.39,234.03,104.26,234.03z"/>
						<path class="st12" d="M543.25,234.45l-0.1-0.01c0.08,0.01,0.16,0.02,0.21,0.04C543.29,234.47,543.29,234.46,543.25,234.45z"/>
						<polygon class="st12" points="182.75,236.15 182.75,236.08 182.32,236.14 						"/>
						<path class="st12" d="M569.92,235.41c0.05,0.02,0.15,0.05,0.35,0.07C570.26,235.46,570.11,235.44,569.92,235.41z"/>
						<path class="st12" d="M581.44,235.47l1.63,0.1C582.37,235.52,581.85,235.49,581.44,235.47z"/>
						<path class="st12" d="M590.3,235.61c0.11-0.05,0.14-0.09,0.17-0.12c-0.01,0-0.01,0-0.02,0L590.3,235.61z"/>
						<path class="st12" d="M449.46,235.94c-0.12,0-0.24,0.01-0.34,0.01C448.31,236.01,448.86,235.99,449.46,235.94z"/>
						<path class="st12" d="M491.37,235.29c-0.44,0.05-0.88,0.1-1.35,0.13C490.77,235.44,491.35,235.45,491.37,235.29z"/>
						<path class="st12" d="M402.65,236.28C402.66,236.28,402.65,236.28,402.65,236.28c-0.1,0-0.18,0-0.28,0L402.65,236.28z"/>
						<path class="st12" d="M488.07,235.41c0.75,0.06,1.37,0.04,1.95,0C489.41,235.4,488.69,235.37,488.07,235.41z"/>
						<path class="st12" d="M628.69,235.74l0.43,0.01c-0.01-0.02,0.02-0.03,0.05-0.05L628.69,235.74z"/>
						<path class="st12" d="M629.17,235.71l0.47-0.03C629.43,235.67,629.24,235.68,629.17,235.71z"/>
						<path class="st12" d="M630.64,235.6l-1,0.07C629.99,235.67,630.42,235.68,630.64,235.6z"/>
						<path class="st12" d="M616.97,235.61l-0.13,0.1C616.91,235.69,616.95,235.66,616.97,235.61z"/>
						<path class="st12" d="M613.4,235.64c0.85,0.02,2.13,0.22,3.32,0.15l0.11-0.08C616.28,235.86,614.21,235.47,613.4,235.64z"/>
						<path class="st12" d="M598.53,234.38l2.99,0.08c-0.52-0.11-1.21-0.25,0.15-0.28C597.9,233.86,602.44,234.42,598.53,234.38z"/>
						<path class="st12" d="M589.27,234.22c1.6-0.05-0.02-0.16,0.07-0.22C588.32,234.1,588.07,234.13,589.27,234.22z"/>
						<path class="st12" d="M522.36,234.22l0.16-0.26C521.28,234,522.51,234.06,522.36,234.22z"/>
						<polygon class="st12" points="509.57,235.54 510.77,235.7 511.34,235.47 						"/>
						<polygon class="st12" points="502.01,233.72 502.55,233.68 500.49,233.78 						"/>
						<path class="st12" d="M389.63,233.81l0.37,0.32C390.84,234.07,391.02,233.72,389.63,233.81z"/>
						<path class="st12" d="M341.12,234.13c-0.53-0.16-1.89-0.26-2.73-0.1C339.47,234.05,340.56,234.17,341.12,234.13z"/>
						<polygon class="st12" points="195.62,233.62 196.59,233.51 194.76,233.6 						"/>
					</g>
				</g>
			</g>
		</g>
	</g>
	<g>
		<g>
			<g>
				<g>
					<g>
						<path class="st12" d="M639.55,298.03c0.34-0.09,0.15-0.28-0.78-0.24l-0.66,0.33L639.55,298.03z"/>
						<path class="st12" d="M633.31,297.42c-1.09,0.16-2.35,0.44-1.64,0.75c1.08-0.32,1.34-0.19,2.51-0.56
							c0.93-0.04,1.62,0.11,1.46,0.23c0.33-0.08,1.44,0.07,1.94-0.13c-1.21-0.26-2.74-0.27-4.34-0.05
							C632.9,297.56,633.23,297.48,633.31,297.42z"/>
						<path class="st12" d="M542.56,296.9l0.58,0.04C542.99,296.92,542.79,296.91,542.56,296.9z"/>
						<path class="st12" d="M486.34,296.72c0.43-0.01,0.61-0.04,0.63-0.07C486.57,296.67,486.24,296.69,486.34,296.72z"/>
						<path class="st12" d="M476.74,296.35c0.21,0.01,0.38,0.02,0.57,0.02C477.09,296.35,476.87,296.33,476.74,296.35z"/>
						<path class="st12" d="M542.56,296.9l-1.5-0.1C540.96,296.9,541.83,296.88,542.56,296.9z"/>
						<path class="st12" d="M620.8,298.21c0.31-0.02,0.58-0.05,0.82-0.09c-0.26,0.01-0.51,0.03-0.77,0.04
							C620.83,298.18,620.82,298.2,620.8,298.21z"/>
						<path class="st12" d="M567.35,296.63l0.46,0c0.13-0.04,0.26-0.08,0.38-0.13L567.35,296.63z"/>
						<path class="st12" d="M586.37,296.58c-0.43-0.01-0.58,0.27-0.74,0.39c0.24-0.12,0.56-0.17,0.94-0.19
							C586.57,296.73,586.51,296.66,586.37,296.58z"/>
						<path class="st12" d="M616.53,297.08l0.54-0.04C616.93,297.05,616.69,297.06,616.53,297.08z"/>
						<path class="st12" d="M553.73,296.57c-0.03-0.04-0.1-0.08-0.17-0.1C553.56,296.51,553.63,296.54,553.73,296.57z"/>
						<path class="st12" d="M21.7,298.68c0.02-0.02-0.01-0.03,0-0.05C21.58,298.66,21.55,298.68,21.7,298.68z"/>
						<path class="st12" d="M-0.35,297.29l0.31-0.02c0.03-0.05,0.07-0.11,0.07-0.16L-0.35,297.29z"/>
						<path class="st12" d="M459.17,295.99c0.03,0,0.05,0,0.08,0.01C459.71,295.97,459.45,295.97,459.17,295.99z"/>
						<path class="st12" d="M297.89,296.2c1.83,0.25-2.97,0.32-0.22,0.6C297.41,296.69,300.16,296.36,297.89,296.2z"/>
						<path class="st12" d="M620.3,298.18c-0.26,0-0.52,0.01-0.78,0C619.88,298.19,620.12,298.19,620.3,298.18z"/>
						<path class="st12" d="M297.66,296.8C297.66,296.8,297.66,296.8,297.66,296.8l0.28,0.03
							C297.83,296.82,297.76,296.81,297.66,296.8z"/>
						<path class="st12" d="M418.69,296.16c0.08,0.05,0.24,0.09,0.41,0.12C419.09,296.26,418.99,296.22,418.69,296.16z"/>
						<path class="st12" d="M448.85,296.56l-0.75-0.04C448.39,296.55,448.64,296.56,448.85,296.56z"/>
						<path class="st12" d="M403.03,296.56c-0.41-0.02-0.54-0.06-1.1-0.02c0.05,0.01,0.1,0.02,0.17,0.03
							C402.3,296.53,402.57,296.51,403.03,296.56z"/>
						<path class="st12" d="M386.73,296.56c0.09,0.02,0.2,0.04,0.3,0.06c0.16-0.01,0.35-0.01,0.52-0.01L386.73,296.56z"/>
						<path class="st12" d="M71.23,298.55c-0.36-0.08-0.58-0.17-0.75-0.25C70.72,298.49,68.33,298.57,71.23,298.55z"/>
						<path class="st12" d="M620.79,298.06c-0.1,0.07-0.23,0.11-0.48,0.12c0.19,0,0.37-0.01,0.54-0.02
							C620.89,298.12,620.9,298.08,620.79,298.06z"/>
						<path class="st12" d="M402.37,298.78l-2.59-0.04C400.5,298.76,401.44,298.78,402.37,298.78z"/>
						<path class="st12" d="M188.15,298.51l-0.59,0.03C187.78,298.55,187.99,298.54,188.15,298.51z"/>
						<path class="st12" d="M392.09,298.78c-0.46-0.1-0.95-0.16-1.46-0.19c-0.11,0.02-0.23,0.04-0.3,0.07L392.09,298.78z"/>
						<path class="st12" d="M70.47,298.29C70.47,298.29,70.47,298.3,70.47,298.29C70.47,298.3,70.47,298.29,70.47,298.29z"/>
						<path class="st12" d="M53.41,298.96c2.47,0.01,1.16-0.36,1.68-0.57c2.94-0.1,1.36,0.27,2.37,0.46
							c1.84-0.1,3.25-0.44,4.62-0.42c0.1,0.06,0.37,0.08,0.06,0.16c1.94-0.29,5.77-0.01,8.04-0.38c0.17,0.03,0.25,0.06,0.3,0.09
							c-0.37-0.19-0.42-0.37-0.35-0.51c1.11-0.01,2.05-0.23,2.47,0.01c-0.68-0.01-0.73,0.09-1.05,0.17l1.16-0.1
							c1.04,0.35-1.58,0.12-1.58,0.38c2.26-0.11,4.89-0.4,6.63-0.3c0.36,0.34-4.05,0.11-1.74,0.42l-2.68-0.13
							c2.05,0.54-1.63-0.04,0.25,0.54c3.53,0.1,3.94-0.17,7.46-0.07c0.79-0.19-0.26-0.28,0.53-0.47c5-0.34,3.94,0.85,7.61,0.4
							c0.95-0.23,1.32-0.66,3.94-0.43l-0.89,0.38c3.41,0.04,1.95-0.55,5.52-0.29c-0.64,0.15-2.68,0.13-2.17,0.17
							c2.32,0.3,1.64-0.22,3.42-0.22l0.37,0.34c3.63-0.05,7.64-0.3,11.66-0.36c-0.22,0.1-0.91,0.21,0.03,0.31
							c5.08-0.17,10.84,0.04,15.74,0.24l1.87-0.29c0.44,0,0.81,0.13,0.34,0.19c1.91,0.11,0.1-0.19,1.02-0.3
							c1.09-0.02,1.43,0.17,0.75,0.26c3.37-0.25,9.59-0.54,13.14-0.22l-0.69,0.09c2.76,0.12,3.12-0.6,5.68-0.33l-0.49,0.05
							c6,0.13,12.62-0.14,17.2,0.3c0.87-0.42,5.94,0.19,6.32-0.4c3.42,0.29,2.44,0.4,7.27,0.59c1.29,0.03,1.92-0.37,3.51-0.43
							l0.04,0.31l2.16-0.32l1.15,0.37l1.49-0.08c-0.6-0.02-1.26-0.14-1.17-0.23c2.33-0.14,5.69,0.21,5.75,0.37l5.52-0.26
							c-0.12,0.12-1.05,0.17-1.78,0.25c2.95-0.31,0.54,0.32,3.24,0.04c-0.36-0.07,0.2-0.18,0.26-0.25c1.35,0.19,4.41,0.19,6.68,0.11
							l-0.44,0.21c4.09,0.05,8.63-0.1,13.23-0.1c-1.65-0.1-1.27-0.47,0.08-0.5l0.54,0.33c0.87-0.2-1.41-0.12,0.38-0.37
							c1.72,0.04,1.15,0.37,0.17,0.48l2.09-0.11c0.12,0.1-0.37,0.15-0.49,0.27c0.86-0.2,3.6,0.33,4.84-0.02l0.12,0.1
							c4.59,0,6.68-0.11,10.42-0.13c0.07-0.28,1.54-0.22,2.65-0.45c2.75,0.09,5.8,0.31,9.11,0.29c2.33-0.14,0.68-0.24,1.73-0.41
							c0.17,0.26,3.48,0.23,1.76,0.42c3.98-0.04,5.08-0.05,10.11-0.26c-0.55-0.1-1.16-0.15-0.84-0.24c0.91-0.04,2.08,0.11,1.95,0.23
							l-0.24,0.03c5.64-0.38,13.03,0.75,17.52,0.21l-0.25,0.03l4.66-0.28c2.14,0.04-1.29,0.19,0.3,0.35
							c5.03-0.43,7.94,0.06,12.09-0.22c3.21,0.76,11.37-0.05,15.7,0.43l-0.25-0.18c1.12-0.17,1.35,0.1,2.18,0.14
							c-0.12-0.14-1.21-0.16-0.52-0.26c9.47-0.21,19.55,0.26,29.26,0.42c3.55,0.05,2.02-0.92,6.49-0.5l-1.27,0.33
							c7.17-0.4,14.66,0.01,21.67-0.32c-0.42,0.08-0.43,0.18-1.12,0.17c1.48,0.24,5.48,0.01,5.51-0.18
							c1.09,0.02,0.25,0.18,0.93,0.28c1.49,0.14,3.73-0.31,4.52-0.07c0.13,0.04-0.42,0.08-0.69,0.1c0.97-0.12,4.51,0.03,3.59-0.25
							c2.63,0.13,5.04-0.12,7.14,0.04c1.37-0.31,4.51,0.15,4.94-0.29c-0.19,0.45,4.62,0.36,6.28,0.15
							c-0.56,0.14,1.45,0.14,0.79,0.33c1.9-0.01,3.64-0.09,3.31-0.32c3.5,0.54,7.04-0.44,9.01,0.26c5.64-0.24,10.87-0.41,15.95-0.51
							c-0.18,0.45-5.61,0.04-5.39,0.52c4.82-0.19,7.6-0.57,12.37-0.46c1.24,0.06-0.7,0.2-1.12,0.27c4.81-0.19,9.31,0.04,13.59-0.2
							c-0.01,0.04-0.47,0.09-0.91,0.12c0.84-0.01,1.96,0.07,1.87-0.14l-0.82,0.06c-1.35-0.3,3.35-0.62,3.5-0.78
							c-1.43,0.59,4.23,0.15,1.95,0.89c0.56-0.04,1.25-0.14,1.12-0.27c0.82,0.04,1.09,0.12,0.25,0.28c3.02-0.11,1.95-0.33,4.69-0.33
							c-0.01,0.1-0.56,0.14-0.85,0.25c1.39-0.19,2.78-0.39,5.09-0.3c-0.14,0.06,0.13,0.14-0.56,0.14c3.98-0.03,6.78-0.52,11.14-0.33
							c-1.29,0.43,1.48,0.14,1.71,0.52l2.34-0.11l-0.94-0.18c2.05,0.01,3.87-0.27,5.64-0.14l-1.53,0.15l3.85-0.07l-2.18-0.14
							c2.08-0.19-0.22-0.47,2.51-0.37c-0.56,0.04,2.05,0,3.13,0.22c0,0-0.01,0-0.01,0c1.02-0.12,2.06-0.24,3.58-0.15
							c0.39,0.12-0.32,0.41-0.06,0.49c1-0.31,4.81-0.09,6.08-0.42c-0.42,0.08-0.45,0.27-0.31,0.31l0.84-0.25
							c0.95,0.08,1.09,0.12,0.94,0.28c2.86,0.05-0.91-0.47,2.49-0.27c-0.27,0.02-0.14,0.06-0.69,0.1c3.41,0.11,6.59-0.16,9.73-0.04
							c0.93,0.38-2.74,0.09-1.68,0.41c4.52-0.07,9.36-0.45,13.73-0.36l-0.82-0.04c0.61-0.53,3.26,0.26,5.47,0.01
							c-0.54,0.04-0.71,0.29-0.56,0.24c3,0.09,6.12-0.13,10.66-0.3l-0.56,0.14c1.77,0.12,4.65,0.07,6.56,0.13
							c0.57-0.14,1.66-0.11,0.99-0.31c5.88,0.78,11.22-0.42,16.43,0.23c-0.62,0-1.49,0.12-0.99,0.12l4.44-0.13
							c-0.35-0.23-0.58-0.14-1.52-0.32c0.56-0.14,1.82-0.24,2.92-0.24c-2,0.15,0.02,0.37,0.88,0.5c-0.14-0.07,0.15-0.15,0.08-0.22
							c2.32,0.41,0.39-0.46,3.56-0.19l-0.17,0.12c1.19-0.06,2.28-0.22,3.56-0.19c0.53,0.27-1.26,0.12-1.34,0.34
							c1.8-0.02,3.54-0.51,5.17-0.24c-0.76,0.07-1.86,0.08-2.62,0.15c1.77,0.31,1.98,0.23,3.29,0.28l-0.13-0.01l3.04,0.14
							l-0.77-0.09c2.25-0.7,4.58-0.13,7.61-0.58c-2.94,0.43-0.49,0.25-0.71,0.55c0.77,0.08,1.95,0.18,1.61,0.26
							c1.43-0.24,2.39,0.19,4.41-0.16c0.09,0.1,1.53,0.01,1.21,0.25c1.86-0.08-0.44-0.17-0.28-0.29c2.87-0.33,6.74,0.4,10.87-0.05
							c3.56-0.19,4.22-0.52,7.52-0.68c1.11,0.16-0.91,0.36-0.91,0.36c1.8,0.14,3.15,0.12,4.84,0.01c-0.34,0.08,0.01,0.16,0.53,0.27
							c1.36-0.03,0.91-0.35,2.7-0.21c-0.31,0.11-0.7,0.28-1.36,0.39c1.6-0.09,3.18-0.27,4.84-0.36c0.44,0.17-1,0.26-1.59,0.37
							c1.86-0.08,4.83-0.15,5.41-0.42l-1.2-0.1c0.68-0.01,0.35,0.23-0.15,0.28c-1.6,0.21-2.3-0.09-2.39-0.19l1.18-0.06
							c-1.21-0.57-4.74,0.09-7.12,0.06l0.99-0.42l-2.44,0.35c-0.52-0.11-0.87-0.34,0.3-0.4c-1.7-0.21-1.51,0.15-2.97-0.08
							c-0.16-0.04-0.09-0.06,0.06-0.07l-1.67,0.12c0.33-0.09-0.28-0.29,0.75-0.23c-2.99-0.24-4.82,0.31-5.95,0l0.25-0.03
							c-4.15,0.14-0.4,0.31-3.51,0.66l-2.09-0.75l-0.41,0.31c-0.43-0.01-1.27-0.03-1.12-0.16c-1.59,0.21,0.27,0.13-0.65,0.33
							c-2.06-0.28-5.68,0.13-6.14-0.36c-0.74,0.23,1.97,0.18-0.23,0.34c-0.63-0.52-2.54,0.09-4.42-0.15
							c0.58-0.27,2.36-0.13,0.48-0.37c-1.14,0.46-3.66-0.1-5.25-0.01c-0.07,0.36-3.45,0.15-6.11,0.27c0.17-0.12-5.01-0.2-7.49-0.33
							l0.07-0.06c-0.48,0.37-3.04,0.3-4.9,0.37c0.07-0.22,0.41-0.31,1.42-0.4l-1.75,0c-0.41,0.12-0.96,0.18-2.09,0.22l0.44-0.27
							c-2.33,0.02-4.69,0.32-7.68,0.14c-0.17,0.26,2.38,0.71-0.79,0.88c-0.12-0.14-0.23-0.38,0.59-0.43
							c-0.27,0.02-0.97,0.12-1.52,0.06l1.27-0.23c-1.36-0.1-0.71,0.19-1.8,0.17c0.02-0.2-0.81-0.14-0.65-0.3
							c0.28-0.02,0.95,0.08,1.37,0c-1.23-0.04-2.72-0.15-3.21-0.3c0.11,0.11,0,0.27-0.9,0.29c-2.33,0.01-0.8-0.24-2.15-0.34
							c-0.56,0.14-2.05-0.01-2.09,0.29c-0.68,0-0.81-0.14-1.07-0.22c-1.2,0.13-5.63,0.04-4.27,0.35l0.31,0.02
							c-0.06,0.01-0.13,0.01-0.2,0.01c0.01,0,0,0,0.01,0h-0.01c-3.95,0.29-8.2-0.17-12.12-0.04l0.01-0.1
							c-2.34,0.11-5.21,0.07-6.88,0.28c-0.69,0-1.63-0.18-1.34-0.3c-1.79,0.07-1.99,0.19-4.57,0.02c1.8-0.17-0.62-0.15,1.84-0.13
							c-2.32-0.09-2.85-0.24-5.34,0.03c0.85-0.25-1.75-0.32-2.85-0.24l1.63,0.18c-1.24,0.04-2.33,0.01-3.43-0.01l0.6-0.33
							c-4.75-0.4-8.57,0.69-12.19,0.01c-1.26,0.23,2.58,0.16,1.46,0.44c-2.19-0.04-4.47-0.52-5.15-0.52c-3-0.18-2.8,0.49-5.93,0.36
							c0.4,0.12,0.78,0.44-1.56,0.55c-2.19-0.04-2.69-0.5-1.31-0.59c0.52-0.01,0.78,0.03,0.76,0.07c0.71-0.04,1.63-0.09,0.77-0.22
							l-0.28,0.12c-1.09-0.12-4.1-0.11-3.39-0.3c-1.65,0.11-0.71,0.19,0.52,0.26c-2.81-0.17-4.39-0.01-7.27-0.12
							c0.46,0.07,0.88,0.2,0.43,0.2c-4.24-0.15-1.87,0.23-4.74,0.28c-1.63-0.18,0.58-0.43-2.31-0.28c-1.77-0.12-0.37-0.31,0.33-0.41
							c-2.63,0.23-4.92-0.15-6.43-0.19l1.39-0.1c-0.83,0.06-1.51,0.06-2.2,0.05l0.79,0.24c-0.81-0.04-1.5-0.04-1.49-0.14
							c-0.84,0.16,0.64,0.39-1.02,0.61c-1.09-0.12-3.31,0.13-3.68-0.19c3.42,0.11-0.38-0.32,2.51-0.37
							c-0.56,0.04-1.24,0.04-2.05-0.01c-0.12-0.04,0.12-0.07,0.34-0.08c-3.27-0.28-1.5,0.36-4.89,0.35c0.43-0.18-0.79-0.34-1.34-0.3
							c1.36,0,0.65,0.3-0.6,0.43c-2.17-0.14-2.36,0.1-3.5,0.09l1.3,0.07c-0.44,0.18-1.53,0.15-3.04,0.21
							c-0.13-0.14,1.37-0.1,0.83-0.16c-1.68,0.31-3.8-0.32-6.14-0.11c-1.09-0.12-0.11-0.33-1.06-0.42
							c-2.63,0.23-2.84-0.24-5.61-0.05c0.8,0.24,0.93,0.18-1.01,0.41l4.54-0.17l-2.91,0.35c1.37,0,2.89-0.15,3.71-0.11
							c-1.39,0.19-1.25,0.14-0.59,0.33c-1.87-0.36-3.72,0.21-5.88-0.03l0.07-0.59c-3.26-0.26-5.79,0.3-10.02,0.15l1.36,0.1
							c-0.57,0.23-2.61,0.03-3.98,0.13c0.13-0.2-0.73-0.27-1.31-0.39c0.07,0.15-3.1-0.01-3.48,0.38l-1.89-0.26
							c-3.42-0.11-3.9,0.56-7.18,0.5c0.99-0.21-0.5-0.35,1.7-0.51c-1.1,0-2.08-0.04-2.1,0.1c-0.64-0.12-3.04,0.27-4.05,0.08
							c-0.46,0.09-0.61,0.29-1.84,0.28c-0.13-0.04,0-0.1,0-0.1c0,0.1-1.93,0.13-0.85,0.35c-3.38-0.62-9.44,0.04-12.38-0.48
							c-2.39,0.07-5.27,0.13-7.45,0.14c0.14-0.06,0.01-0.1,0.42-0.08c-3-0.18-1.84,0.57-5.25,0.36c-1.74-0.32,1.81-0.17,0.72-0.29
							c-0.47-0.65-4.11,0.09-6.41-0.29l0.56-0.04c-1.75-0.22-4.28,0.25-7.14,0.2c0,0,0.14-0.06,0.02-0.1
							c-1.96,0.33-5.67,0.44-8.42,0.53c0.86-0.25,1.25-0.13,0.73-0.39c-1.24,0.04,0.36,0.41-2.1,0.49c-0.8-0.14-2.58-0.26-2.82-0.54
							l2.33-0.01c-1.19-0.36-3.01,0.01-4.24-0.05l0.16-0.16c-3.57,0.05-3.61,0.44-7.45,0.42l0.4,0.12
							c-2.09,0.39-1.76-0.22-3.84,0.07l-0.63-0.39c-1.38,0.1-4.84,0.38-7.32,0.46c1.4-0.29,4.3-0.44,6.1-0.62
							c-1.37,0-4.65,0.03-5.37,0.22c0.55-0.04,1.25-0.13,1.79-0.07c-1.68,0.31-3.89,0.46-6.62,0.46c0.48-0.77-7.11-0.19-9.09-0.79
							c-4.83,0.28-9.58-0.12-15.2-0.08c1.99,0.6-1.64,0.02-1.3,0.63c-1.31,0.04-1.81,0.03-1.93-0.01l-3.97-0.37
							c-0.94-0.18,1.25-0.13,1.13-0.27c-2.87-0.05-1.2-0.26-3.1-0.42c0.39,0.22-1,0.31-2.63,0.23l2.3,0.28
							c-4.01,0.33-3.46-0.51-7.51-0.19l1.28-0.19c-2.07,0.11-7.65,0-9.68,0.49c-0.37-0.07-0.85-0.24,0.06-0.28
							c-4.96-0.07-11.03,0.52-14.88,0.22l0.38-0.15c-0.92,0.04-1.61,0.28-2.77,0.13c0.06-0.06,0.37-0.15-0.06-0.16
							c-0.49,0.05-2.46,0.26-3.68,0.17l1.05-0.17c-4.83-0.2-7.42,0.41-11.47,0.51c0.01-0.44-3.79-0.58-5.69-0.65l0.07-0.06
							c-5.63-0.05-9.56,0.36-14.77,0.54c-3.24-0.48-10.96-0.2-16.16-0.47c0.79,0.08-0.13,0.34-1.05,0.39
							c-1.22-0.09-3.37,0.31-3.18-0.1l0.44,0.01c-0.92-0.4-3.43-0.29-5.39-0.3l-0.32,0.53c-5.12-0.77-13.42,0.28-16.21-0.41
							c-1.24,0.13-2.77,0.13-3.99,0.26l0.07-0.28c-3.42-0.07-5.13-0.11-9.37-0.04l0.86-0.2c-2.39-0.02-3.01,0.82-5.22,0.83
							l-0.66-0.42c-4.17,0.01-8.38-0.36-12.5,0.02c0.07-0.06,0.19-0.18,0.86-0.2c-1.96-0.01-7.58-0.29-6.87,0.29
							c-0.05-0.38-4.3-0.04-6.55,0.13l0.35-0.28c-1.9,0.36-1.96,0.45-4.61,0.55c-0.63-0.04-0.55-0.22,0.28-0.15
							c-2.09-0.15-1.63,0.26-4.17,0.12l0.95-0.18c-2.15-0.02-1.98,0.07-3.17,0.28c-1.35,0.11-4.09-0.07-4.4-0.32
							c-0.29,0.15-1.47,0.36-2.74,0.29c-0.17-0.1,0.29-0.15,0.52-0.18c-3.6-0.19-5.36,0.32-7.83,0.05
							c-0.05-0.09-0.21-0.14-0.42-0.17c2.86,0.01,5.17,0.02,4.95,0.04c0-0.26-2.31-0.3-0.47-0.66c-1.86,0.19-5.03,0.61-7.28,0.49
							c-0.11-0.02-0.22-0.05-0.3-0.09l0.23-0.03c-0.52-0.03-0.99,0-1.42,0.04c-0.72-0.04-1.18-0.07-1.87-0.08
							c-0.27-0.21-2.65-0.11-3.8-0.13c0.1,0.28-1.41,0.24,0,0.47c-0.18-0.02,0.22-0.03,0.98-0.05c0.17-0.01,0.38-0.01,0.49-0.03
							c-0.02,0.01-0.05,0.02-0.08,0.02c0.76-0.01,1.74-0.01,2.86-0.02c-0.91,0.14-1.86,0.26-3.14,0.11
							c-0.59,0.18-1.24,0.37-1.61,0.45c-1.58-0.39-4.62-0.6-5.04-0.85c-3.52,0.16-8.29,0.1-10.5,0.63c-1,0.07-1.15-0.15-1.52-0.23
							c0.58-0.05,1.26-0.04,1.58-0.12c-2,0.14-5.93,0.05-6.4,0.42c-2.52-0.17,1.42-0.34-2.05-0.28l0.47-0.11
							c-6.82-0.59-11.08,0.94-18.64,0.18c0.52,0.05,0.79,0.07,0.89,0.13c-8.62-0.33-17.75,0.31-26.26-0.22
							c-2.42-0.11-2.68,0.13-4.15,0.31l-0.52-0.3l-2.52,0.35c-3.58,0.26-6.19-0.74-10.72-0.26l0.58,0.2
							c-1.63-0.04-5.15,0.12-4.88-0.11c-0.17,0.04-0.53,0.21-1.17,0.11l-0.05-0.16l-3.99,0.27c-3.1-0.11,0.48-0.63-4.03-0.66
							c-1.68,0.06-4.78,0.46-4.15,0.57c0.68,0.01,1.73,0.1,1.78,0.26l-1.54,0.08c-0.28,0.47-1.46,0.94,2.31,1.27l2.63-0.28
							l0.85,0.23l-2.21,0.01c1.25,0.21,2.05,0.02,2.94-0.1c0.21,0.12,0.58,0.2,1.1,0.25l2.58-0.44c0.31,0.18-1.16,0.36,0.57,0.46
							c1.21-0.21-1.16-0.41,0.84-0.54c1.26,0.21,0.89,0.38,2.37,0.2c0.21,0.12-0.11,0.2-0.69,0.25c1.31-0.14,3.48-0.06,4.15-0.31
							c1.31,0.26,4.43-0.07,4.3,0.37c0.41-0.11,2.31-0.35,3.52-0.36c-2.2,0.53,4.52,0.03,3.93,0.6c1.63-0.47,5.89-0.21,8.78-0.47
							c-0.16,0.04-0.48,0.11-0.73,0.09c1.63,0.04,2.1,0.18,3.14,0.27c0.21-0.39,2.74-0.48,4.11-0.72c1.99,0.38-1.21,0.46-0.58,0.82
							c-0.1-0.32,3.46-0.32,2.78-0.58c1.52,0.23,1.31,0.11,2.1,0.44c0.27-0.49,1.42-0.08,2.68-0.38c2.21,0.24,0.57,0.46,2.99,0.31
							C55.57,298.79,53.41,298.96,53.41,298.96z M111.04,298.11C111.04,298.12,111.04,298.12,111.04,298.11
							c-0.5,0.01-0.92,0.02-1.19,0.02C110.1,298.13,110.44,298.12,111.04,298.11z M115.88,298.11c-0.59-0.01-1.32-0.01-2.1-0.01
							c-0.17-0.1,0.01-0.2,0.5-0.19C114.02,297.97,115.16,298.03,115.88,298.11z M105.64,296.16c0.77-0.04,1.02,0.02,1.13,0.07
							c-0.36,0-0.79,0.01-1.34,0.03c-0.02,0.01-0.07,0.02-0.09,0.03C105.41,296.25,105.49,296.2,105.64,296.16z"/>
						<path class="st12" d="M104.26,296.53c-0.11,0.01-0.17,0.02-0.32,0.02c0.16,0.02,0.31,0.05,0.46,0.06
							c0.09-0.03,0.19-0.06,0.27-0.09C104.53,296.53,104.39,296.53,104.26,296.53z"/>
						<path class="st12" d="M543.25,296.95l-0.1-0.01c0.08,0.01,0.16,0.02,0.21,0.04C543.29,296.97,543.29,296.96,543.25,296.95z"/>
						<polygon class="st12" points="182.75,298.65 182.75,298.58 182.32,298.64 						"/>
						<path class="st12" d="M569.92,297.91c0.05,0.02,0.15,0.05,0.35,0.07C570.26,297.96,570.11,297.94,569.92,297.91z"/>
						<path class="st12" d="M581.44,297.97l1.63,0.1C582.37,298.02,581.85,297.99,581.44,297.97z"/>
						<path class="st12" d="M590.3,298.11c0.11-0.05,0.14-0.09,0.17-0.12c-0.01,0-0.01,0-0.02,0L590.3,298.11z"/>
						<path class="st12" d="M449.46,298.44c-0.12,0-0.24,0.01-0.34,0.01C448.31,298.51,448.86,298.49,449.46,298.44z"/>
						<path class="st12" d="M491.37,297.79c-0.44,0.05-0.88,0.1-1.35,0.13C490.77,297.94,491.35,297.95,491.37,297.79z"/>
						<path class="st12" d="M402.65,298.78C402.66,298.78,402.65,298.78,402.65,298.78c-0.1,0-0.18,0-0.28,0L402.65,298.78z"/>
						<path class="st12" d="M488.07,297.91c0.75,0.06,1.37,0.04,1.95,0C489.41,297.9,488.69,297.87,488.07,297.91z"/>
						<path class="st12" d="M628.69,298.24l0.43,0.01c-0.01-0.02,0.02-0.03,0.05-0.05L628.69,298.24z"/>
						<path class="st12" d="M629.17,298.21l0.47-0.03C629.43,298.17,629.24,298.18,629.17,298.21z"/>
						<path class="st12" d="M630.64,298.1l-1,0.07C629.99,298.17,630.42,298.18,630.64,298.1z"/>
						<path class="st12" d="M616.97,298.11l-0.13,0.1C616.91,298.19,616.95,298.16,616.97,298.11z"/>
						<path class="st12" d="M613.4,298.14c0.85,0.02,2.13,0.22,3.32,0.15l0.11-0.08C616.28,298.36,614.21,297.97,613.4,298.14z"/>
						<path class="st12" d="M598.53,296.88l2.99,0.08c-0.52-0.11-1.21-0.25,0.15-0.28C597.9,296.36,602.44,296.92,598.53,296.88z"/>
						<path class="st12" d="M589.27,296.72c1.6-0.05-0.02-0.16,0.07-0.22C588.32,296.6,588.07,296.63,589.27,296.72z"/>
						<path class="st12" d="M522.36,296.72l0.16-0.26C521.28,296.5,522.51,296.56,522.36,296.72z"/>
						<polygon class="st12" points="509.57,298.04 510.77,298.2 511.34,297.97 						"/>
						<polygon class="st12" points="502.01,296.22 502.55,296.18 500.49,296.28 						"/>
						<path class="st12" d="M389.63,296.31l0.37,0.32C390.84,296.57,391.02,296.22,389.63,296.31z"/>
						<path class="st12" d="M341.12,296.63c-0.53-0.16-1.89-0.26-2.73-0.1C339.47,296.55,340.56,296.67,341.12,296.63z"/>
						<polygon class="st12" points="195.62,296.12 196.59,296.01 194.76,296.1 						"/>
					</g>
				</g>
			</g>
		</g>
	</g>
</g>
</svg>
