<?xml version="1.0" encoding="utf-8"?>
<!-- Generator: Adobe Illustrator 23.0.3, SVG Export Plug-In . SVG Version: 6.00 Build 0)  -->
<svg version="1.1" xmlns="http://www.w3.org/2000/svg" xmlns:xlink="http://www.w3.org/1999/xlink" x="0px" y="0px"
	 viewBox="0 0 640 360" style="enable-background:new 0 0 640 360;" xml:space="preserve">
<style type="text/css">
	.st0{fill:#C6D8DB;}
	.st1{fill:#CAE4EA;}
	.st2{fill:#E7F3F7;}
	.st3{fill:#FEFEFE;}
	.st4{opacity:0.5;fill:#FEFEFE;}
	.st5{opacity:0.3;fill:#FEFEFE;}
	.st6{opacity:0.1;clip-path:url(#SVGID_2_);fill:#FEFEFE;}
	.st7{fill:#88B777;}
	.st8{fill:#2D6841;}
	.st9{fill:#2A4A22;}
	.st10{fill:#E6B24E;}
	.st11{fill:none;stroke:#E3D2A6;stroke-width:1.4723;stroke-miterlimit:10;}
	.st12{fill:#F2E1B1;}
	.st13{fill:#F9EFDE;}
	.st14{fill:#54352A;}
</style>
<g id="sky_1_">
	<rect y="0.28" class="st0" width="640" height="97.07"/>
	<path class="st1" d="M0,17.09C0.85,11.15,1.35,7.5,6.53,5.92c6.88-2.09,15.14,1.96,18.22,9.94C25.03,11.1,27.92,6.9,32.2,5.1
		C37,3.07,42.69,4.39,46.28,8.41c1.88-1.6,5.85-4.43,10.77-4.14c7.88,0.47,15.46,8.83,16.56,20.7c3.79,0.52,6.98,3.07,8.28,6.62
		c1.93,5.29-1.47,9.7-1.66,9.94c1.69-0.03,8.26,0.05,14.08,4.97c6.72,5.68,7.36,13.51,7.45,14.91c0.2-0.81,2.49-9.36,10.77-12.42
		c5.34-1.98,10.09-0.53,11.59,0c2.9-6.69,9.33-11.19,16.56-11.59c6.99-0.39,13.68,3.12,17.39,9.11c7.16-7.21,17.65-9.11,25.67-4.97
		c8.49,4.38,10.5,13.59,10.77,14.91c2.05-4.55,7.01-6.95,11.59-5.8c4.08,1.03,7.13,4.71,7.45,9.11c1.39-1.4,5.93-5.6,13.25-6.62
		c6.99-0.97,12.3,1.54,14.08,2.48c2.2-11.34,12.18-18.99,22.36-18.22c8.13,0.62,15.38,6.52,18.22,14.91
		c4.44-5.78,11.88-8.08,18.22-5.8c7.77,2.8,9.8,11.01,9.94,11.59c0.62-0.98,3.99-6.11,10.49-7.36c5.98-1.15,12.28,1.44,16.19,6.62
		c-0.2-0.93-1.74-8.8,3.68-15.09c4.4-5.1,11.61-7.12,18.4-5.15c0.77-1.03,3.8-4.81,9.2-5.89c7.5-1.5,13.05,3.51,13.62,4.05
		c3.17-5.37,8.66-8.67,14.35-8.47c4.68,0.17,7.97,2.64,9.2,3.68c1.4-0.63,4.27-1.65,7.36-0.74c4.93,1.47,8.51,7.31,8.1,14.35
		c8.44-8.17,19.93-8.95,26.13-3.68c5.01,4.25,5.16,11.25,5.15,12.88c2.71-2.78,6.67-3.92,10.31-2.94c4.24,1.14,7.37,4.99,7.73,9.57
		c2.31-6.64,7.99-11.04,13.99-11.04c5.03,0,8.55,3.08,9.57,4.05c-0.56-5.33,2.44-10.44,7.36-12.51c4.86-2.05,10.54-0.71,13.99,3.31
		c3.65-4.35,5.82-6.29,11.82-7.73c6.16-1.48,14.23,2.17,13.94,2.51c1.68-0.88,5.9-2.79,11.41-2.21c7.33,0.77,11.78,5.4,12.88,6.62
		c2.64-4.87,7.63-7.88,12.88-7.73c6.03,0.18,9.71,4.44,10.31,5.15c0.49-1,2.16-7.57,8.54-9.75c6.71-2.29,13.36,1.89,14.28,2.39
		c-3.76-5.21-2.2-12.09,2.21-14.72c3.42-2.05,8.34-1.4,11.78,1.84c0.49-4.03,1.98-6.85,5.87-7.65c4.13-0.85,7.75,0.82,9.64,4.71
		c0,48.22,0,28.07,0,76.29c-214.45,0-425.48,0-639.93,0C0.06,33.38,0.73,76.35,0,17.09z"/>
	<g>
		<path class="st2" d="M640,26.3c-6.55-2.93-15.58-2.99-21.08,0c-6.04,3.28-7.16,9.02-7.45,10.51c-0.69,3.53,0.17,6.45,0.83,8.1
			c-7.14-2.07-14.36,0.4-16.55,4.6c-2.25,4.3,1.69,8.71,1.93,8.97c-0.96-0.33-2.97-0.89-5.52-0.66c-3.66,0.33-5.95,2.08-6.62,2.63
			c-0.84-0.51-4.75-2.77-9.93-2.19c-5.09,0.57-9.4,3.66-11.03,7.88c-1.67-3.49-5.86-5.69-10.21-5.47c-5.4,0.27-8.12,4.14-8.28,4.38
			c0.83-3.31-0.92-6.7-4.41-8.54c-3.29-1.73-7.58-1.82-11.03-0.22c-4.21-3.49-10.45-4.69-15.72-3.06c-6.04,1.86-8.02,6.57-8.28,7.22
			c-1.54-1.42-3.93-2.02-6.07-1.53c-2.6,0.6-4.4,2.7-4.14,5.03c-0.13-0.19-3.05-4.08-8.83-4.16c-5.57-0.07-8.63,3.49-8.83,3.72
			c0.11-3.51-2.72-6.59-6.62-7.44c-4.58-1-9.78,1.23-11.31,5.25c-2.7-2.24-11.09-1.12-13.99,1.41c-4.85,4.24-4.14,12.61-4.22,12.83
			c-0.83-3.54-4.12-6.31-8.28-7c-4.9-0.81-8.65,1.66-9.1,1.97c-4.39-4.52-11.91-6.08-17.93-3.94c-4.86,1.72-8.12,5.63-8.5,10.07
			c0,11.82,0,12.91,0,24.73c79.95,0,161.22,0,241.16,0C640,75.2,640,52.4,640,26.3z"/>
		<path class="st2" d="M392.46,69.02c-4.06-1.59-7.66,0.06-8.28,0.36c-0.25-0.17-5.03-3.15-10.08-0.72
			c-3.63,1.75-5.9,5.58-5.76,9.72c-0.24-0.36-2.79-4.14-7.56-4.32c-5.22-0.2-8.13,4.1-8.28,4.32c-0.13-0.31-2.6-6.16-9-7.2
			c-6.38-1.04-10.58,3.7-10.8,3.96c-0.25-0.33-3.51-4.6-9-4.32c-4.84,0.25-7.56,3.83-7.92,4.32c-0.3-0.42-2.49-3.31-6.48-3.6
			c-3.91-0.29-6.46,2.15-6.84,2.52c-0.36-0.96-1.32-3.14-3.6-4.68c-4.29-2.91-9.29-0.9-9.72-0.72c-1.13-0.79-2.97-1.82-5.4-2.16
			c-6.27-0.86-10.89,3.68-11.52,4.32c-0.43-0.46-3.23-3.39-7.56-3.24c-3.61,0.12-6.9,2.33-8.56,5.71c0.18-1.02,0.5-3.62-0.92-6.19
			c-1.83-3.3-5.79-5.18-10.08-4.8c-1.16-2.46-3.72-3.95-6.36-3.72c-0.92,0.08-1.78,0.38-2.55,0.82c-1.4-1.43-3.21-2.59-5.31-3.34
			c-6.02-2.14-13.54-0.58-17.93,3.94c-0.45-0.31-4.2-2.78-9.1-1.97c-4.16,0.69-7.45,3.46-8.28,7c-0.08-0.21,0.63-8.59-4.22-12.83
			c-2.9-2.53-11.29-3.65-13.99-1.41c-1.54-4.02-6.73-6.26-11.31-5.25c-3.9,0.85-6.73,3.93-6.62,7.44c-0.19-0.23-3.25-3.79-8.83-3.72
			c-5.77,0.07-8.69,3.97-8.83,4.16c0.26-2.33-1.54-4.44-4.14-5.03c-2.14-0.49-4.53,0.11-6.07,1.53c-0.26-0.65-2.24-5.36-8.28-7.22
			c-5.28-1.63-11.52-0.43-15.72,3.06c-3.45-1.6-7.75-1.51-11.03,0.22c-3.49,1.84-5.25,5.22-4.41,8.54
			c-0.16-0.23-2.87-4.11-8.28-4.38c-4.34-0.22-8.54,1.99-10.21,5.47c-1.64-4.22-5.94-7.31-11.03-7.88
			c-5.18-0.58-9.09,1.68-9.93,2.19c-0.67-0.55-2.96-2.29-6.62-2.63c-2.55-0.23-4.56,0.33-5.52,0.66c0.25-0.27,4.18-4.67,1.93-8.97
			c-2.19-4.2-9.41-6.66-16.55-4.6c0.66-1.64,1.52-4.56,0.83-8.1c-0.29-1.49-1.41-7.22-7.45-10.51C13.78,12.78,6.55,12.86,0,15.78
			c0,25.03,0.13,50.04,0.13,75.07c77.82,0,155.03,0,232.85,0c0,2.93,0,5.86,0,8.79c55.29,0,110.57,0,165.86,0
			c0-7.66,0-15.33,0-22.99C398.75,76.23,397.53,71,392.46,69.02z"/>
	</g>
	<path class="st3" d="M0,25.54c0.77-0.09,4.17-0.38,6.98,1.95c1.22,1.02,1.91,2.18,2.29,2.98c1.46-0.63,6.72-2.69,12.84-0.69
		c8.92,2.92,11.53,11.81,11.69,12.38c1.39,5.04,0.14,9.3-0.46,11c1.59-0.1,3.58,0,5.73,0.69c7.49,2.4,10.49,9.89,11,11.23
		c0.36-0.47,4.38-5.41,11-5.04c4.17,0.23,8.29,2.51,10.31,6.19c1.91,3.48,1.41,7.21,1.15,9.17c-0.25,1.86-0.75,3.35-1.15,4.36
		c0.78-0.44,3.27-1.7,6.42-1.15c3.87,0.68,5.9,3.61,6.42,4.36c3.63,5.23,0.9,11.67,0.69,12.15c0,9.14,0-9.23,0-0.09
		c-28.31,0-56.61,0-84.92,0C0,62.69,0,57.87,0,25.54z"/>
	<path class="st3" d="M640,41.37c-0.99-0.58-2.93-1.53-5.48-1.51c-0.56,0-4.95,0.11-7.88,3.69c-1.31,1.6-1.8,3.26-2.01,4.19
		c-1.54-1.52-4.61-4.13-9.22-5.53c-1.71-0.52-9.2-2.79-16.42,1.51c-9.13,5.43-9.38,16.32-9.38,16.92c-0.02,2.6,0.52,4.75,1.01,6.2
		c-2.23-0.71-6.76-1.77-11.9-0.17c-5.27,1.64-11.43,6.17-12.57,12.9c-0.43,2.55-0.02,4.71,0.34,6.03c24.5,0,49.01,0,73.51,0
		C640,68.72,640,57.68,640,41.37z"/>
</g>
<g id="sun">
	<circle class="st4" cx="238.56" cy="29.94" r="19.69"/>
	<circle class="st5" cx="238.56" cy="29.94" r="27.85"/>
	<circle class="st3" cx="238.56" cy="29.94" r="12.72"/>
	<g>
		<defs>
			<rect id="SVGID_1_" x="199.18" width="78.76" height="71.72"/>
		</defs>
		<clipPath id="SVGID_2_">
			<use xlink:href="#SVGID_1_"  style="overflow:visible;"/>
		</clipPath>
		<circle class="st6" cx="238.56" cy="29.94" r="39.38"/>
	</g>
</g>
<g id="landscape">
	<path class="st7" d="M488.83,86.69c-1.25-0.91-3.1-0.87-4.62,0.12c-0.37-1.31-1.51-2.25-2.82-2.34c-1.18-0.08-2.32,0.53-2.94,1.58
		c-0.44-0.3-1.61-1-3.27-1.02c-1.57-0.02-2.72,0.6-3.17,0.88c0.02-0.18,0.15-2.14-1.24-3.24c-1.38-1.1-3.73-0.91-5.3,0.74
		c-0.36-0.29-1.94-1.04-2.92-0.88c-1.98,0.32-2.23,1.51-2.62,1.85c-0.03-1.69-1.28-3.03-2.75-3.17c-1.17-0.11-2.34,0.55-2.95,1.67
		c-0.22-0.2-1.3-1.18-2.96-1.15c-1.83,0.03-2.93,1.25-3.1,1.45c-0.76-1.19-2.3-1.53-3.4-0.86c-0.96,0.59-1.39,1.86-0.97,3
		c-0.09-0.24-0.79-2.1-2.82-2.81c-1.95-0.68-3.59,0.24-3.83,0.37c-0.14-1.3-1.05-2.38-2.28-2.7c-1.35-0.35-2.81,0.29-3.5,1.56
		c-0.81-0.63-1.84-0.81-2.73-0.54c-0.26-0.28-0.57-0.55-1-0.74c-1.4-0.65-3.21-0.26-4.51,1c-0.61-1.22-1.91-1.92-3.22-1.76
		c-1.17,0.15-2.18,0.97-2.58,2.11c-0.49-0.21-1.78-0.67-3.4-0.38c-1.55,0.28-2.55,1.1-2.95,1.47c-0.02-0.18-0.26-2.13-1.83-2.95
		c-1.57-0.81-3.83-0.18-5.07,1.74c-0.41-0.21-2.1-0.65-3.04-0.31c-1.88,0.69-1.9,1.91-2.21,2.32c-0.35-1.65-1.83-2.73-3.31-2.58
		c-1.17,0.12-2.19,0.99-2.58,2.2c-0.25-0.16-1.5-0.91-3.13-0.56c-1.78,0.38-2.63,1.79-2.77,2.02c-0.97-1.02-2.55-1.06-3.5-0.19
		c-0.83,0.76-1.01,2.09-0.37,3.13c-0.13-0.22-1.17-1.91-3.31-2.22c-2.05-0.29-3.48,0.92-3.68,1.1c-0.38-1.25-1.49-2.14-2.76-2.21
		c-1.39-0.09-2.7,0.82-3.13,2.2c-1.21-0.62-3.44-1.4-4.81-0.21c-1.77,1.54-1.94,3.99-0.8,5.15c-2,0.42-3.1,2.16-2.77,3.49
		c0.14,0.55,0.5,0.95,0.88,1.24c-0.4,0.37,1.66,0.41,1.64,0.77c-0.02,0.42-2.39,1.59-2.06,1.97c1.18,1.35,3.67,0.94,4.52,0.82
		c3.3-0.49,13.1-1.32,23.57-1.91c0.04-0.41,0.05-0.87,0-1.33c11.68,0.02,23.36,0.05,35.05,0.07c0.07,0.04,0.13,0.06,0.2,0.07
		c0.6,0.03,1.41,0,2.38-0.06c0.43,0,0.85,0,1.28,0c0-0.03,0-0.06,0-0.09c4.59-0.32,11.89-0.93,19.64,0.12
		c0.12-0.4,0.21-0.84,0.25-1.31c12.72,2.5,25.45,5.01,38.17,7.51c0.92-4.7,1.85-9.39,2.77-14.09
		C490.1,88.43,489.8,87.39,488.83,86.69z"/>
	<path class="st8" d="M199.18,68.06c128.16,0.06,201.27,27.32,214.16,29.51c-128.1,0.76-256.2-0.76-384.3,0
		C41.04,93.85,145.41,68.03,199.18,68.06z"/>
	<path class="st9" d="M0,62.73c67.02,2.92,186.13,29.51,202.38,34.62c-67.42,0-134.96,0-202.38,0C0,89.46,0,70.62,0,62.73z"/>
	<path class="st8" d="M640,68.04c-30.52-0.67-180.22,14.88-204.82,29.88c67.83,0,136.99,0,204.82,0C640,87.07,640,74.46,640,68.04z"
		/>
	<rect y="95.63" class="st10" width="640" height="15.09"/>
	<g>
		<g>
			<g>
				<line class="st11" x1="0.13" y1="87.71" x2="164.39" y2="87.71"/>
				<line class="st11" x1="10.16" y1="87.71" x2="10.16" y2="103.54"/>
				<line class="st11" x1="61.33" y1="87.71" x2="61.33" y2="103.54"/>
				<line class="st11" x1="113.22" y1="87.71" x2="113.22" y2="103.54"/>
				<line class="st11" x1="164.39" y1="87.71" x2="164.39" y2="103.54"/>
			</g>
			<g>
				<line class="st11" x1="164.4" y1="87.71" x2="318.62" y2="87.71"/>
				<line class="st11" x1="215.56" y1="87.71" x2="215.56" y2="103.54"/>
				<line class="st11" x1="267.46" y1="87.71" x2="267.46" y2="103.54"/>
				<path class="st11" d="M318.62,103.54"/>
				<path class="st11" d="M318.62,87.71"/>
			</g>
		</g>
		<g>
			<g>
				<line class="st11" x1="318.5" y1="87.71" x2="472.72" y2="87.71"/>
				<line class="st11" x1="318.5" y1="87.71" x2="318.5" y2="103.54"/>
				<line class="st11" x1="369.67" y1="87.71" x2="369.67" y2="103.54"/>
				<line class="st11" x1="421.56" y1="87.71" x2="421.56" y2="103.54"/>
				<line class="st11" x1="472.72" y1="87.71" x2="472.72" y2="103.54"/>
			</g>
			<g>
				<line class="st11" x1="472.74" y1="87.71" x2="640" y2="87.71"/>
				<line class="st11" x1="523.9" y1="87.71" x2="523.9" y2="103.54"/>
				<line class="st11" x1="575.8" y1="87.71" x2="575.8" y2="103.54"/>
				<line class="st11" x1="626.96" y1="87.71" x2="626.96" y2="103.54"/>
			</g>
		</g>
	</g>
</g>
<g id="track">
	<rect x="-0.01" y="110" class="st12" width="640" height="250"/>
	<rect x="-0.01" y="297.5" class="st13" width="640" height="62.5"/>
	<g>
		<g>
			<g>
				<g>
					<g>
						<path class="st14" d="M639.91,173.17c0.34-0.09,0.15-0.28-0.78-0.24l-0.66,0.33L639.91,173.17z"/>
						<path class="st14" d="M633.66,172.55c-1.09,0.16-2.35,0.44-1.64,0.75c1.08-0.32,1.34-0.19,2.51-0.56
							c0.93-0.04,1.62,0.11,1.46,0.23c0.33-0.08,1.44,0.07,1.94-0.13c-1.21-0.26-2.74-0.27-4.34-0.05
							C633.25,172.7,633.58,172.61,633.66,172.55z"/>
						<path class="st14" d="M542.92,172.04l0.58,0.04C543.34,172.05,543.14,172.04,542.92,172.04z"/>
						<path class="st14" d="M486.69,171.85c0.43-0.01,0.61-0.04,0.63-0.07C486.92,171.81,486.59,171.83,486.69,171.85z"/>
						<path class="st14" d="M477.09,171.49c0.21,0.01,0.38,0.02,0.57,0.02C477.44,171.48,477.22,171.47,477.09,171.49z"/>
						<path class="st14" d="M542.92,172.04l-1.5-0.1C541.31,172.04,542.18,172.01,542.92,172.04z"/>
						<path class="st14" d="M621.15,173.35c0.31-0.02,0.58-0.05,0.82-0.09c-0.26,0.01-0.51,0.03-0.77,0.04
							C621.18,173.32,621.17,173.33,621.15,173.35z"/>
						<path class="st14" d="M567.7,171.77l0.46,0c0.13-0.04,0.26-0.08,0.38-0.13L567.7,171.77z"/>
						<path class="st14" d="M586.72,171.72c-0.43-0.01-0.58,0.27-0.74,0.39c0.24-0.12,0.56-0.17,0.94-0.19
							C586.92,171.86,586.87,171.8,586.72,171.72z"/>
						<path class="st14" d="M616.89,172.21l0.54-0.04C617.28,172.19,617.05,172.2,616.89,172.21z"/>
						<path class="st14" d="M554.09,171.71c-0.03-0.04-0.1-0.08-0.17-0.1C553.91,171.64,553.98,171.68,554.09,171.71z"/>
						<path class="st14" d="M22.05,173.82c0.02-0.02-0.01-0.03,0-0.05C21.94,173.8,21.9,173.82,22.05,173.82z"/>
						<path class="st14" d="M0,172.43l0.31-0.02c0.03-0.05,0.07-0.11,0.07-0.16L0,172.43z"/>
						<path class="st14" d="M459.52,171.13c0.03,0,0.05,0,0.08,0.01C460.06,171.1,459.8,171.11,459.52,171.13z"/>
						<path class="st14" d="M298.24,171.34c1.83,0.25-2.97,0.32-0.22,0.6C297.76,171.83,300.52,171.5,298.24,171.34z"/>
						<path class="st14" d="M620.66,173.31c-0.26,0-0.52,0.01-0.78,0C620.23,173.33,620.47,173.32,620.66,173.31z"/>
						<path class="st14" d="M298.02,171.94C298.02,171.94,298.02,171.94,298.02,171.94l0.28,0.03
							C298.18,171.96,298.12,171.95,298.02,171.94z"/>
						<path class="st14" d="M419.04,171.3c0.08,0.05,0.24,0.09,0.41,0.12C419.44,171.39,419.35,171.36,419.04,171.3z"/>
						<path class="st14" d="M449.2,171.7l-0.75-0.04C448.75,171.69,448.99,171.7,449.2,171.7z"/>
						<path class="st14" d="M403.38,171.7c-0.41-0.02-0.54-0.06-1.1-0.02c0.05,0.01,0.1,0.02,0.17,0.03
							C402.65,171.67,402.92,171.65,403.38,171.7z"/>
						<path class="st14" d="M387.09,171.7c0.09,0.02,0.2,0.04,0.3,0.06c0.16-0.01,0.35-0.01,0.52-0.01L387.09,171.7z"/>
						<path class="st14" d="M71.58,173.68c-0.36-0.08-0.58-0.17-0.75-0.25C71.08,173.63,68.68,173.7,71.58,173.68z"/>
						<path class="st14" d="M621.14,173.19c-0.1,0.07-0.23,0.11-0.48,0.12c0.19,0,0.37-0.01,0.54-0.02
							C621.25,173.26,621.26,173.22,621.14,173.19z"/>
						<path class="st14" d="M402.72,173.91l-2.59-0.04C400.86,173.9,401.8,173.91,402.72,173.91z"/>
						<path class="st14" d="M188.5,173.64l-0.59,0.03C188.13,173.68,188.34,173.68,188.5,173.64z"/>
						<path class="st14" d="M392.45,173.91c-0.46-0.1-0.95-0.16-1.46-0.19c-0.11,0.02-0.23,0.04-0.3,0.07L392.45,173.91z"/>
						<path class="st14" d="M70.82,173.43C70.83,173.43,70.83,173.43,70.82,173.43C70.83,173.43,70.83,173.43,70.82,173.43z"/>
						<path class="st14" d="M53.77,174.1c2.47,0.01,1.16-0.36,1.68-0.57c2.94-0.1,1.36,0.27,2.37,0.46c1.84-0.1,3.25-0.44,4.62-0.42
							c0.1,0.06,0.37,0.08,0.06,0.16c1.94-0.29,5.77-0.01,8.04-0.38c0.17,0.03,0.25,0.06,0.3,0.09c-0.37-0.19-0.42-0.37-0.35-0.51
							c1.11-0.01,2.05-0.23,2.47,0.01c-0.68-0.01-0.73,0.09-1.05,0.17l1.16-0.1c1.04,0.35-1.58,0.12-1.58,0.38
							c2.26-0.11,4.89-0.4,6.63-0.3c0.36,0.34-4.05,0.11-1.74,0.42l-2.68-0.13c2.05,0.54-1.63-0.04,0.25,0.54
							c3.53,0.1,3.94-0.17,7.46-0.07c0.79-0.19-0.26-0.28,0.53-0.47c5-0.34,3.94,0.85,7.61,0.4c0.95-0.23,1.32-0.66,3.94-0.43
							l-0.89,0.38c3.41,0.04,1.95-0.55,5.52-0.29c-0.64,0.15-2.68,0.13-2.17,0.17c2.32,0.3,1.64-0.22,3.42-0.22l0.37,0.34
							c3.63-0.05,7.64-0.3,11.66-0.36c-0.22,0.1-0.91,0.21,0.03,0.31c5.08-0.17,10.84,0.04,15.74,0.24l1.87-0.29
							c0.44,0,0.81,0.13,0.34,0.19c1.91,0.11,0.1-0.19,1.02-0.3c1.09-0.02,1.43,0.17,0.75,0.26c3.37-0.25,9.59-0.54,13.14-0.22
							l-0.69,0.09c2.76,0.12,3.12-0.6,5.68-0.33l-0.49,0.05c6,0.13,12.62-0.14,17.2,0.3c0.87-0.42,5.94,0.19,6.32-0.4
							c3.42,0.29,2.44,0.4,7.27,0.59c1.29,0.03,1.92-0.37,3.51-0.43l0.04,0.31l2.16-0.32l1.15,0.37l1.49-0.08
							c-0.6-0.02-1.26-0.14-1.17-0.23c2.33-0.14,5.69,0.21,5.74,0.37l5.52-0.26c-0.12,0.12-1.05,0.17-1.78,0.25
							c2.95-0.31,0.54,0.32,3.24,0.04c-0.36-0.07,0.2-0.18,0.26-0.25c1.35,0.19,4.41,0.19,6.68,0.11l-0.44,0.21
							c4.09,0.05,8.63-0.1,13.23-0.1c-1.65-0.1-1.27-0.47,0.08-0.5l0.54,0.33c0.87-0.2-1.41-0.12,0.38-0.37
							c1.72,0.04,1.15,0.37,0.17,0.48l2.09-0.11c0.12,0.1-0.37,0.15-0.49,0.27c0.86-0.2,3.6,0.33,4.84-0.02l0.12,0.1
							c4.59,0,6.68-0.11,10.42-0.13c0.07-0.28,1.54-0.22,2.65-0.45c2.75,0.09,5.8,0.31,9.11,0.29c2.33-0.14,0.68-0.24,1.73-0.41
							c0.17,0.26,3.48,0.23,1.76,0.42c3.98-0.04,5.08-0.05,10.11-0.26c-0.55-0.1-1.16-0.15-0.84-0.24c0.91-0.04,2.08,0.11,1.95,0.23
							l-0.24,0.03c5.64-0.38,13.03,0.75,17.52,0.21l-0.25,0.03l4.66-0.28c2.14,0.04-1.29,0.19,0.3,0.35
							c5.03-0.43,7.94,0.06,12.09-0.22c3.21,0.76,11.37-0.05,15.7,0.43l-0.25-0.18c1.12-0.17,1.35,0.1,2.18,0.14
							c-0.12-0.14-1.21-0.16-0.52-0.26c9.47-0.21,19.55,0.26,29.26,0.42c3.55,0.05,2.02-0.92,6.49-0.5l-1.27,0.33
							c7.17-0.4,14.66,0.01,21.67-0.32c-0.42,0.08-0.43,0.18-1.12,0.17c1.48,0.24,5.48,0.01,5.51-0.18
							c1.09,0.02,0.25,0.18,0.93,0.28c1.49,0.14,3.73-0.31,4.52-0.07c0.13,0.04-0.42,0.08-0.69,0.1c0.97-0.12,4.51,0.03,3.59-0.25
							c2.63,0.13,5.04-0.12,7.14,0.04c1.37-0.31,4.51,0.15,4.94-0.29c-0.19,0.45,4.62,0.36,6.28,0.15
							c-0.56,0.14,1.45,0.14,0.79,0.33c1.9-0.01,3.64-0.09,3.31-0.32c3.5,0.54,7.04-0.44,9.01,0.26c5.64-0.24,10.87-0.41,15.95-0.51
							c-0.18,0.45-5.61,0.04-5.39,0.52c4.82-0.19,7.6-0.57,12.37-0.46c1.24,0.06-0.7,0.2-1.12,0.27c4.81-0.19,9.31,0.04,13.59-0.2
							c-0.01,0.04-0.47,0.09-0.91,0.12c0.84-0.01,1.96,0.07,1.87-0.14l-0.82,0.06c-1.35-0.3,3.35-0.62,3.5-0.78
							c-1.43,0.59,4.23,0.15,1.95,0.89c0.56-0.04,1.25-0.14,1.12-0.27c0.82,0.04,1.09,0.12,0.25,0.28c3.02-0.11,1.95-0.33,4.69-0.32
							c-0.01,0.1-0.56,0.14-0.85,0.25c1.39-0.19,2.78-0.39,5.09-0.3c-0.14,0.06,0.13,0.14-0.56,0.14c3.97-0.03,6.78-0.52,11.14-0.33
							c-1.29,0.43,1.48,0.14,1.71,0.52l2.34-0.11l-0.94-0.18c2.05,0.01,3.87-0.27,5.64-0.14l-1.53,0.15l3.85-0.07l-2.18-0.14
							c2.08-0.19-0.22-0.47,2.51-0.37c-0.56,0.04,2.05,0,3.13,0.22c0,0-0.01,0-0.01,0c1.02-0.12,2.06-0.24,3.58-0.15
							c0.39,0.12-0.32,0.41-0.06,0.49c1-0.31,4.81-0.09,6.08-0.42c-0.42,0.08-0.45,0.27-0.31,0.31l0.84-0.25
							c0.95,0.08,1.09,0.12,0.94,0.28c2.86,0.05-0.91-0.47,2.49-0.27c-0.27,0.02-0.14,0.06-0.69,0.1c3.41,0.11,6.59-0.16,9.73-0.04
							c0.92,0.38-2.74,0.09-1.68,0.41c4.52-0.07,9.36-0.45,13.73-0.36l-0.82-0.04c0.61-0.53,3.26,0.26,5.47,0.01
							c-0.54,0.04-0.71,0.29-0.56,0.24c3,0.09,6.12-0.13,10.66-0.3l-0.56,0.14c1.77,0.12,4.65,0.07,6.56,0.13
							c0.57-0.14,1.66-0.11,0.99-0.31c5.88,0.78,11.22-0.42,16.43,0.23c-0.62,0-1.49,0.12-0.99,0.12l4.44-0.13
							c-0.35-0.23-0.58-0.14-1.52-0.32c0.56-0.14,1.82-0.24,2.92-0.24c-2,0.15,0.02,0.37,0.88,0.5c-0.14-0.07,0.15-0.15,0.08-0.22
							c2.32,0.41,0.39-0.46,3.56-0.19l-0.17,0.12c1.19-0.06,2.28-0.22,3.56-0.19c0.53,0.27-1.26,0.12-1.34,0.34
							c1.8-0.02,3.54-0.51,5.17-0.24c-0.76,0.07-1.86,0.08-2.62,0.15c1.77,0.31,1.98,0.23,3.29,0.28l-0.13-0.01l3.04,0.14
							l-0.77-0.09c2.25-0.7,4.58-0.13,7.61-0.58c-2.94,0.43-0.49,0.25-0.71,0.55c0.77,0.08,1.95,0.18,1.61,0.26
							c1.43-0.24,2.39,0.19,4.41-0.16c0.09,0.1,1.53,0.01,1.21,0.25c1.86-0.08-0.44-0.17-0.28-0.29c2.87-0.33,6.74,0.4,10.87-0.05
							c3.56-0.19,4.22-0.52,7.52-0.68c1.11,0.16-0.91,0.36-0.91,0.36c1.8,0.14,3.15,0.12,4.84,0.01c-0.34,0.09,0.01,0.16,0.53,0.27
							c1.36-0.03,0.91-0.35,2.7-0.21c-0.31,0.11-0.7,0.28-1.36,0.39c1.6-0.09,3.18-0.27,4.84-0.36c0.44,0.17-1,0.26-1.59,0.37
							c1.86-0.08,4.83-0.15,5.41-0.42l-1.2-0.1c0.68-0.01,0.35,0.23-0.15,0.28c-1.6,0.21-2.3-0.09-2.39-0.19l1.18-0.06
							c-1.21-0.57-4.74,0.09-7.12,0.06l0.99-0.42l-2.44,0.35c-0.52-0.11-0.87-0.34,0.3-0.4c-1.7-0.21-1.51,0.15-2.97-0.08
							c-0.16-0.04-0.09-0.06,0.06-0.07l-1.67,0.12c0.33-0.09-0.28-0.29,0.75-0.23c-2.99-0.24-4.82,0.31-5.95,0l0.25-0.03
							c-4.15,0.14-0.4,0.31-3.51,0.66l-2.09-0.75l-0.41,0.31c-0.43-0.01-1.27-0.03-1.12-0.16c-1.59,0.21,0.27,0.13-0.65,0.33
							c-2.06-0.28-5.68,0.13-6.14-0.36c-0.74,0.23,1.97,0.18-0.23,0.34c-0.63-0.52-2.54,0.09-4.42-0.15
							c0.58-0.27,2.36-0.13,0.48-0.37c-1.14,0.46-3.66-0.1-5.25-0.01c-0.07,0.36-3.45,0.15-6.11,0.27c0.17-0.12-5.01-0.2-7.49-0.33
							l0.07-0.06c-0.48,0.37-3.04,0.3-4.9,0.37c0.07-0.22,0.41-0.31,1.42-0.4l-1.75,0c-0.41,0.12-0.96,0.18-2.09,0.22l0.44-0.27
							c-2.33,0.02-4.69,0.32-7.68,0.14c-0.17,0.26,2.38,0.71-0.79,0.88c-0.12-0.14-0.23-0.38,0.59-0.43
							c-0.27,0.02-0.97,0.12-1.52,0.06l1.27-0.23c-1.36-0.1-0.71,0.19-1.8,0.17c0.02-0.2-0.81-0.14-0.65-0.3
							c0.28-0.02,0.95,0.08,1.37,0c-1.23-0.04-2.72-0.15-3.21-0.3c0.11,0.11,0,0.27-0.9,0.29c-2.33,0.01-0.8-0.24-2.15-0.34
							c-0.56,0.14-2.05-0.01-2.09,0.29c-0.68,0-0.81-0.14-1.07-0.22c-1.2,0.13-5.63,0.04-4.27,0.35l0.31,0.02
							c-0.06,0.01-0.13,0.01-0.2,0.01c0.01,0,0,0,0.01,0h-0.01c-3.95,0.29-8.2-0.17-12.12-0.04l0.01-0.1
							c-2.34,0.11-5.21,0.07-6.88,0.28c-0.69,0-1.63-0.18-1.34-0.3c-1.79,0.07-1.99,0.19-4.57,0.02c1.8-0.17-0.62-0.15,1.84-0.13
							c-2.32-0.09-2.85-0.24-5.34,0.03c0.85-0.25-1.75-0.32-2.85-0.24l1.63,0.18c-1.24,0.04-2.33,0.01-3.43-0.01l0.6-0.33
							c-4.75-0.4-8.57,0.69-12.19,0.01c-1.26,0.23,2.58,0.16,1.46,0.44c-2.19-0.04-4.47-0.52-5.15-0.52c-3-0.18-2.8,0.49-5.93,0.36
							c0.4,0.12,0.78,0.44-1.56,0.55c-2.19-0.04-2.69-0.5-1.31-0.59c0.52-0.01,0.78,0.03,0.76,0.07c0.71-0.04,1.63-0.09,0.77-0.22
							l-0.28,0.12c-1.09-0.12-4.1-0.11-3.39-0.3c-1.65,0.11-0.71,0.19,0.52,0.26c-2.81-0.17-4.39-0.01-7.27-0.12
							c0.46,0.07,0.88,0.2,0.43,0.2c-4.24-0.15-1.87,0.23-4.74,0.28c-1.63-0.18,0.58-0.43-2.31-0.28c-1.77-0.12-0.37-0.31,0.33-0.41
							c-2.63,0.23-4.92-0.15-6.43-0.19l1.39-0.1c-0.83,0.06-1.51,0.06-2.2,0.05l0.79,0.24c-0.81-0.04-1.5-0.04-1.49-0.14
							c-0.84,0.16,0.64,0.39-1.02,0.61c-1.09-0.12-3.31,0.13-3.68-0.19c3.42,0.11-0.38-0.32,2.51-0.37
							c-0.56,0.04-1.24,0.04-2.05-0.01c-0.12-0.04,0.12-0.07,0.34-0.08c-3.27-0.28-1.5,0.36-4.89,0.35c0.43-0.18-0.79-0.34-1.34-0.3
							c1.36,0,0.65,0.3-0.6,0.43c-2.17-0.14-2.36,0.1-3.5,0.09l1.3,0.07c-0.44,0.18-1.53,0.15-3.04,0.21
							c-0.13-0.14,1.37-0.1,0.83-0.16c-1.68,0.31-3.8-0.32-6.14-0.11c-1.09-0.12-0.11-0.33-1.06-0.41
							c-2.63,0.23-2.84-0.24-5.61-0.05c0.8,0.24,0.93,0.18-1.01,0.41l4.54-0.17l-2.91,0.35c1.37,0,2.89-0.15,3.71-0.11
							c-1.39,0.19-1.25,0.14-0.59,0.33c-1.87-0.36-3.72,0.21-5.88-0.03l0.07-0.59c-3.26-0.26-5.79,0.3-10.02,0.15l1.36,0.1
							c-0.57,0.23-2.61,0.03-3.98,0.13c0.13-0.2-0.73-0.27-1.31-0.39c0.07,0.15-3.1-0.01-3.48,0.38l-1.89-0.26
							c-3.42-0.11-3.9,0.56-7.18,0.5c0.99-0.21-0.5-0.35,1.7-0.51c-1.1,0-2.08-0.04-2.1,0.1c-0.64-0.12-3.04,0.27-4.05,0.08
							c-0.46,0.09-0.61,0.29-1.84,0.28c-0.13-0.04,0-0.1,0-0.1c0,0.1-1.93,0.13-0.85,0.35c-3.38-0.62-9.44,0.04-12.38-0.48
							c-2.39,0.07-5.27,0.13-7.45,0.14c0.14-0.06,0.01-0.1,0.42-0.08c-3-0.18-1.84,0.57-5.25,0.36c-1.74-0.32,1.81-0.17,0.72-0.29
							c-0.47-0.65-4.11,0.09-6.41-0.29l0.56-0.04c-1.75-0.22-4.28,0.25-7.14,0.2c0,0,0.14-0.06,0.02-0.1
							c-1.96,0.33-5.67,0.44-8.42,0.53c0.86-0.25,1.25-0.13,0.73-0.39c-1.24,0.04,0.36,0.41-2.1,0.49c-0.8-0.14-2.58-0.26-2.82-0.54
							l2.33-0.01c-1.19-0.36-3.01,0.01-4.24-0.05l0.16-0.16c-3.57,0.05-3.61,0.44-7.45,0.42l0.4,0.12
							c-2.09,0.39-1.76-0.22-3.84,0.07l-0.63-0.39c-1.38,0.1-4.84,0.38-7.32,0.46c1.4-0.29,4.3-0.44,6.1-0.62
							c-1.37,0-4.65,0.03-5.37,0.22c0.55-0.04,1.25-0.13,1.79-0.07c-1.68,0.31-3.89,0.46-6.62,0.46c0.48-0.77-7.11-0.19-9.09-0.79
							c-4.83,0.28-9.58-0.12-15.2-0.08c1.99,0.6-1.64,0.02-1.3,0.63c-1.31,0.04-1.81,0.03-1.93-0.01l-3.97-0.37
							c-0.94-0.18,1.25-0.13,1.13-0.27c-2.87-0.05-1.2-0.26-3.1-0.42c0.39,0.22-1,0.31-2.63,0.23l2.3,0.28
							c-4.01,0.33-3.46-0.51-7.51-0.19l1.28-0.19c-2.07,0.11-7.65,0-9.68,0.49c-0.37-0.07-0.85-0.24,0.06-0.28
							c-4.96-0.07-11.03,0.52-14.88,0.22l0.38-0.15c-0.92,0.04-1.61,0.28-2.77,0.13c0.06-0.06,0.37-0.15-0.06-0.16
							c-0.49,0.05-2.46,0.26-3.68,0.17l1.05-0.17c-4.83-0.2-7.42,0.41-11.47,0.51c0.01-0.44-3.79-0.58-5.69-0.65l0.07-0.06
							c-5.63-0.05-9.56,0.36-14.77,0.54c-3.24-0.48-10.96-0.2-16.16-0.47c0.79,0.08-0.13,0.34-1.05,0.39
							c-1.22-0.09-3.37,0.31-3.18-0.1l0.44,0.01c-0.92-0.4-3.43-0.29-5.39-0.3l-0.32,0.53c-5.12-0.77-13.42,0.28-16.21-0.41
							c-1.24,0.13-2.77,0.13-3.99,0.26l0.07-0.28c-3.42-0.07-5.13-0.11-9.37-0.04l0.86-0.2c-2.39-0.02-3.01,0.82-5.22,0.83
							l-0.66-0.42c-4.17,0.01-8.38-0.36-12.5,0.02c0.07-0.06,0.19-0.18,0.86-0.2c-1.96-0.01-7.58-0.29-6.87,0.29
							c-0.05-0.38-4.3-0.04-6.55,0.13l0.35-0.28c-1.9,0.36-1.96,0.45-4.61,0.55c-0.63-0.04-0.55-0.22,0.28-0.15
							c-2.09-0.15-1.63,0.26-4.17,0.12l0.95-0.18c-2.15-0.02-1.98,0.07-3.17,0.28c-1.35,0.11-4.09-0.07-4.4-0.32
							c-0.29,0.15-1.47,0.36-2.74,0.29c-0.17-0.1,0.29-0.15,0.52-0.18c-3.6-0.19-5.36,0.32-7.83,0.05
							c-0.05-0.09-0.21-0.14-0.42-0.17c2.86,0.01,5.17,0.02,4.95,0.04c0-0.26-2.31-0.3-0.47-0.66c-1.86,0.19-5.03,0.61-7.28,0.49
							c-0.11-0.02-0.22-0.05-0.3-0.09l0.23-0.03c-0.52-0.03-0.99,0-1.42,0.04c-0.72-0.04-1.18-0.07-1.87-0.08
							c-0.27-0.21-2.65-0.11-3.8-0.13c0.1,0.28-1.41,0.24,0,0.47c-0.18-0.02,0.22-0.03,0.98-0.05c0.17-0.01,0.38-0.01,0.49-0.03
							c-0.02,0.01-0.05,0.02-0.08,0.02c0.76-0.01,1.74-0.01,2.86-0.02c-0.91,0.14-1.86,0.26-3.14,0.11
							c-0.59,0.18-1.24,0.37-1.61,0.45c-1.58-0.39-4.62-0.6-5.04-0.85c-3.52,0.16-8.29,0.1-10.5,0.63c-1,0.07-1.15-0.15-1.52-0.23
							c0.58-0.05,1.26-0.04,1.58-0.12c-2,0.14-5.93,0.05-6.4,0.42c-2.52-0.17,1.42-0.34-2.05-0.28l0.47-0.11
							c-6.82-0.59-11.08,0.94-18.64,0.18c0.52,0.05,0.79,0.07,0.89,0.13c-8.62-0.33-17.75,0.31-26.26-0.22
							c-2.42-0.11-2.68,0.13-4.15,0.31l-0.52-0.3l-2.52,0.35c-3.58,0.26-6.19-0.74-10.72-0.26l0.58,0.2
							c-1.63-0.04-5.15,0.12-4.88-0.11c-0.17,0.04-0.53,0.21-1.17,0.11l-0.05-0.16l-3.99,0.27c-3.1-0.11,0.48-0.63-4.03-0.66
							c-1.68,0.06-4.78,0.46-4.15,0.57c0.68,0.01,1.73,0.1,1.78,0.26l-1.54,0.08c-0.28,0.47-1.46,0.94,2.31,1.27l2.63-0.28
							l0.85,0.23l-2.21,0.01c1.25,0.21,2.05,0.02,2.94-0.1c0.21,0.12,0.58,0.2,1.1,0.25l2.58-0.44c0.31,0.18-1.16,0.36,0.57,0.46
							c1.21-0.21-1.16-0.41,0.84-0.54c1.26,0.21,0.89,0.38,2.37,0.2c0.21,0.12-0.11,0.2-0.69,0.25c1.31-0.14,3.48-0.06,4.15-0.31
							c1.31,0.26,4.43-0.07,4.3,0.37c0.41-0.11,2.31-0.35,3.52-0.36c-2.2,0.53,4.52,0.03,3.93,0.6c1.63-0.47,5.89-0.21,8.78-0.47
							c-0.16,0.04-0.48,0.11-0.73,0.09c1.63,0.04,2.1,0.18,3.14,0.27c0.21-0.39,2.74-0.48,4.11-0.72c1.99,0.38-1.21,0.46-0.58,0.82
							c-0.1-0.32,3.46-0.32,2.78-0.58c1.52,0.23,1.31,0.11,2.1,0.44c0.27-0.49,1.42-0.08,2.68-0.38c2.21,0.24,0.57,0.46,2.99,0.31
							C55.92,173.92,53.77,174.1,53.77,174.1z M111.39,173.25C111.39,173.25,111.39,173.25,111.39,173.25
							c-0.5,0.01-0.92,0.02-1.19,0.02C110.45,173.27,110.79,173.26,111.39,173.25z M116.23,173.24c-0.59-0.01-1.32-0.01-2.1-0.01
							c-0.17-0.1,0.01-0.2,0.5-0.19C114.37,173.11,115.51,173.16,116.23,173.24z M105.99,171.3c0.77-0.04,1.02,0.02,1.13,0.07
							c-0.36,0-0.79,0.01-1.34,0.03c-0.02,0.01-0.07,0.02-0.09,0.03C105.76,171.38,105.85,171.33,105.99,171.3z"/>
						<path class="st14" d="M104.61,171.67c-0.11,0.01-0.17,0.02-0.32,0.02c0.16,0.02,0.31,0.05,0.46,0.06
							c0.09-0.03,0.19-0.06,0.27-0.09C104.89,171.66,104.74,171.66,104.61,171.67z"/>
						<path class="st14" d="M543.6,172.08l-0.1-0.01c0.08,0.01,0.16,0.02,0.21,0.04C543.65,172.1,543.65,172.09,543.6,172.08z"/>
						<polygon class="st14" points="183.1,173.78 183.1,173.71 182.67,173.77 						"/>
						<path class="st14" d="M570.27,173.05c0.05,0.02,0.15,0.05,0.35,0.07C570.61,173.1,570.46,173.07,570.27,173.05z"/>
						<path class="st14" d="M581.8,173.11l1.63,0.1C582.72,173.15,582.21,173.13,581.8,173.11z"/>
						<path class="st14" d="M590.65,173.25c0.11-0.05,0.14-0.09,0.17-0.12c-0.01,0-0.01,0-0.02,0L590.65,173.25z"/>
						<path class="st14" d="M449.81,173.58c-0.12,0-0.24,0.01-0.34,0.01C448.66,173.65,449.21,173.63,449.81,173.58z"/>
						<path class="st14" d="M491.72,172.92c-0.44,0.05-0.88,0.1-1.35,0.13C491.12,173.08,491.7,173.08,491.72,172.92z"/>
						<path class="st14" d="M403,173.92C403.01,173.92,403,173.92,403,173.92c-0.1,0-0.18,0-0.28,0L403,173.92z"/>
						<path class="st14" d="M488.43,173.05c0.75,0.06,1.37,0.04,1.95,0C489.76,173.04,489.04,173.01,488.43,173.05z"/>
						<path class="st14" d="M629.05,173.38l0.43,0.01c-0.01-0.02,0.02-0.03,0.05-0.05L629.05,173.38z"/>
						<path class="st14" d="M629.53,173.34l0.47-0.03C629.78,173.31,629.59,173.31,629.53,173.34z"/>
						<path class="st14" d="M631,173.24l-1,0.07C630.34,173.31,630.77,173.32,631,173.24z"/>
						<path class="st14" d="M617.32,173.25l-0.13,0.1C617.26,173.33,617.31,173.29,617.32,173.25z"/>
						<path class="st14" d="M613.76,173.28c0.85,0.02,2.13,0.22,3.32,0.15l0.11-0.08C616.63,173.5,614.56,173.1,613.76,173.28z"/>
						<path class="st14" d="M598.88,172.02l2.99,0.08c-0.52-0.11-1.21-0.25,0.15-0.28C598.25,171.49,602.8,172.06,598.88,172.02z"/>
						<path class="st14" d="M589.62,171.86c1.6-0.05-0.02-0.16,0.07-0.22C588.67,171.74,588.43,171.76,589.62,171.86z"/>
						<path class="st14" d="M522.71,171.86l0.16-0.26C521.64,171.64,522.86,171.7,522.71,171.86z"/>
						<polygon class="st14" points="509.92,173.18 511.12,173.34 511.7,173.1 						"/>
						<polygon class="st14" points="502.36,171.36 502.9,171.32 500.84,171.41 						"/>
						<path class="st14" d="M389.98,171.45l0.37,0.32C391.19,171.71,391.37,171.35,389.98,171.45z"/>
						<path class="st14" d="M341.47,171.77c-0.53-0.16-1.89-0.26-2.73-0.1C339.83,171.69,340.91,171.81,341.47,171.77z"/>
						<polygon class="st14" points="195.97,171.26 196.95,171.15 195.11,171.24 						"/>
					</g>
				</g>
			</g>
		</g>
	</g>
	<g>
		<g>
			<g>
				<g>
					<g>
						<path class="st14" d="M639.91,235.67c0.34-0.09,0.15-0.28-0.78-0.24l-0.66,0.33L639.91,235.67z"/>
						<path class="st14" d="M633.66,235.05c-1.09,0.16-2.35,0.44-1.64,0.75c1.08-0.32,1.34-0.19,2.51-0.56
							c0.93-0.04,1.62,0.11,1.46,0.23c0.33-0.08,1.44,0.07,1.94-0.13c-1.21-0.26-2.74-0.27-4.34-0.05
							C633.25,235.2,633.58,235.11,633.66,235.05z"/>
						<path class="st14" d="M542.92,234.54l0.58,0.04C543.34,234.55,543.14,234.54,542.92,234.54z"/>
						<path class="st14" d="M486.69,234.35c0.43-0.01,0.61-0.04,0.63-0.07C486.92,234.31,486.59,234.33,486.69,234.35z"/>
						<path class="st14" d="M477.09,233.99c0.21,0.01,0.38,0.02,0.57,0.02C477.44,233.98,477.22,233.97,477.09,233.99z"/>
						<path class="st14" d="M542.92,234.54l-1.5-0.1C541.31,234.54,542.18,234.51,542.92,234.54z"/>
						<path class="st14" d="M621.15,235.85c0.31-0.02,0.58-0.05,0.82-0.09c-0.26,0.01-0.51,0.03-0.77,0.03
							C621.18,235.82,621.17,235.83,621.15,235.85z"/>
						<path class="st14" d="M567.7,234.27l0.46,0c0.13-0.04,0.26-0.08,0.38-0.13L567.7,234.27z"/>
						<path class="st14" d="M586.72,234.22c-0.43-0.01-0.58,0.27-0.74,0.39c0.24-0.12,0.56-0.17,0.94-0.19
							C586.92,234.36,586.87,234.3,586.72,234.22z"/>
						<path class="st14" d="M616.89,234.71l0.54-0.04C617.28,234.69,617.05,234.7,616.89,234.71z"/>
						<path class="st14" d="M554.09,234.21c-0.03-0.04-0.1-0.08-0.17-0.1C553.91,234.14,553.98,234.18,554.09,234.21z"/>
						<path class="st14" d="M22.05,236.32c0.02-0.02-0.01-0.03,0-0.05C21.94,236.3,21.9,236.32,22.05,236.32z"/>
						<path class="st14" d="M0,234.93l0.31-0.02c0.03-0.05,0.07-0.11,0.07-0.16L0,234.93z"/>
						<path class="st14" d="M459.52,233.63c0.03,0,0.05,0,0.08,0.01C460.06,233.6,459.8,233.61,459.52,233.63z"/>
						<path class="st14" d="M298.24,233.84c1.83,0.25-2.97,0.32-0.22,0.6C297.76,234.33,300.52,234,298.24,233.84z"/>
						<path class="st14" d="M620.66,235.81c-0.26,0-0.52,0.01-0.78,0C620.23,235.83,620.47,235.82,620.66,235.81z"/>
						<path class="st14" d="M298.02,234.44C298.02,234.44,298.02,234.44,298.02,234.44l0.28,0.03
							C298.18,234.46,298.12,234.45,298.02,234.44z"/>
						<path class="st14" d="M419.04,233.8c0.08,0.05,0.24,0.09,0.41,0.12C419.44,233.89,419.35,233.86,419.04,233.8z"/>
						<path class="st14" d="M449.2,234.2l-0.75-0.04C448.75,234.19,448.99,234.2,449.2,234.2z"/>
						<path class="st14" d="M403.38,234.2c-0.41-0.02-0.54-0.06-1.1-0.02c0.05,0.01,0.1,0.02,0.17,0.03
							C402.65,234.17,402.92,234.15,403.38,234.2z"/>
						<path class="st14" d="M387.09,234.2c0.09,0.02,0.2,0.04,0.3,0.06c0.16-0.01,0.35-0.01,0.52-0.01L387.09,234.2z"/>
						<path class="st14" d="M71.58,236.18c-0.36-0.08-0.58-0.17-0.75-0.25C71.08,236.13,68.68,236.2,71.58,236.18z"/>
						<path class="st14" d="M621.14,235.69c-0.1,0.07-0.23,0.11-0.48,0.12c0.19,0,0.37-0.01,0.54-0.02
							C621.25,235.76,621.26,235.72,621.14,235.69z"/>
						<path class="st14" d="M402.72,236.41l-2.59-0.04C400.86,236.4,401.8,236.41,402.72,236.41z"/>
						<path class="st14" d="M188.5,236.14l-0.59,0.03C188.13,236.18,188.34,236.18,188.5,236.14z"/>
						<path class="st14" d="M392.45,236.41c-0.46-0.1-0.95-0.16-1.46-0.19c-0.11,0.02-0.23,0.04-0.3,0.07L392.45,236.41z"/>
						<path class="st14" d="M70.82,235.93C70.83,235.93,70.83,235.93,70.82,235.93C70.83,235.93,70.83,235.93,70.82,235.93z"/>
						<path class="st14" d="M53.77,236.6c2.47,0.01,1.16-0.36,1.68-0.57c2.94-0.1,1.36,0.27,2.37,0.46c1.84-0.1,3.25-0.44,4.62-0.42
							c0.1,0.06,0.37,0.08,0.06,0.16c1.94-0.29,5.77-0.01,8.04-0.38c0.17,0.03,0.25,0.06,0.3,0.09c-0.37-0.19-0.42-0.37-0.35-0.51
							c1.11-0.01,2.05-0.23,2.47,0.01c-0.68-0.01-0.73,0.09-1.05,0.17l1.16-0.1c1.04,0.35-1.58,0.12-1.58,0.38
							c2.26-0.11,4.89-0.4,6.63-0.3c0.36,0.34-4.05,0.11-1.74,0.42l-2.68-0.13c2.05,0.54-1.63-0.04,0.25,0.54
							c3.53,0.1,3.94-0.17,7.46-0.07c0.79-0.19-0.26-0.28,0.53-0.47c5-0.34,3.94,0.85,7.61,0.4c0.95-0.23,1.32-0.66,3.94-0.43
							l-0.89,0.38c3.41,0.04,1.95-0.55,5.52-0.29c-0.64,0.15-2.68,0.13-2.17,0.17c2.32,0.3,1.64-0.22,3.42-0.22l0.37,0.34
							c3.63-0.05,7.64-0.3,11.66-0.36c-0.22,0.1-0.91,0.21,0.03,0.31c5.08-0.17,10.84,0.04,15.74,0.24l1.87-0.29
							c0.44,0,0.81,0.13,0.34,0.19c1.91,0.11,0.1-0.19,1.02-0.3c1.09-0.02,1.43,0.17,0.75,0.26c3.37-0.25,9.59-0.54,13.14-0.22
							l-0.69,0.09c2.76,0.12,3.12-0.6,5.68-0.33l-0.49,0.05c6,0.13,12.62-0.14,17.2,0.3c0.87-0.42,5.94,0.19,6.32-0.4
							c3.42,0.29,2.44,0.4,7.27,0.59c1.29,0.03,1.92-0.37,3.51-0.43l0.04,0.31l2.16-0.32l1.15,0.37l1.49-0.08
							c-0.6-0.02-1.26-0.14-1.17-0.23c2.33-0.14,5.69,0.21,5.74,0.37l5.52-0.26c-0.12,0.12-1.05,0.17-1.78,0.25
							c2.95-0.31,0.54,0.32,3.24,0.04c-0.36-0.07,0.2-0.18,0.26-0.25c1.35,0.19,4.41,0.19,6.68,0.11l-0.44,0.21
							c4.09,0.05,8.63-0.1,13.23-0.1c-1.65-0.1-1.27-0.47,0.08-0.5l0.54,0.33c0.87-0.2-1.41-0.12,0.38-0.37
							c1.72,0.04,1.15,0.37,0.17,0.48l2.09-0.11c0.12,0.1-0.37,0.15-0.49,0.27c0.86-0.2,3.6,0.33,4.84-0.02l0.12,0.1
							c4.59,0,6.68-0.11,10.42-0.13c0.07-0.28,1.54-0.22,2.65-0.45c2.75,0.09,5.8,0.31,9.11,0.29c2.33-0.14,0.68-0.24,1.73-0.41
							c0.17,0.26,3.48,0.23,1.76,0.42c3.98-0.04,5.08-0.05,10.11-0.26c-0.55-0.1-1.16-0.15-0.84-0.24c0.91-0.04,2.08,0.11,1.95,0.23
							l-0.24,0.03c5.64-0.38,13.03,0.75,17.52,0.21l-0.25,0.03l4.66-0.28c2.14,0.04-1.29,0.19,0.3,0.35
							c5.03-0.43,7.94,0.06,12.09-0.22c3.21,0.76,11.37-0.05,15.7,0.43l-0.25-0.18c1.12-0.17,1.35,0.1,2.18,0.14
							c-0.12-0.14-1.21-0.16-0.52-0.26c9.47-0.21,19.55,0.26,29.26,0.42c3.55,0.05,2.02-0.92,6.49-0.5l-1.27,0.33
							c7.17-0.4,14.66,0.01,21.67-0.32c-0.42,0.08-0.43,0.18-1.12,0.17c1.48,0.24,5.48,0.01,5.51-0.18
							c1.09,0.02,0.25,0.18,0.93,0.28c1.49,0.14,3.73-0.31,4.52-0.07c0.13,0.04-0.42,0.08-0.69,0.1c0.97-0.12,4.51,0.03,3.59-0.25
							c2.63,0.13,5.04-0.12,7.14,0.04c1.37-0.31,4.51,0.15,4.94-0.29c-0.19,0.45,4.62,0.36,6.28,0.15
							c-0.56,0.14,1.45,0.14,0.79,0.33c1.9-0.01,3.64-0.09,3.31-0.32c3.5,0.54,7.04-0.44,9.01,0.26c5.64-0.24,10.87-0.41,15.95-0.51
							c-0.18,0.45-5.61,0.04-5.39,0.52c4.82-0.19,7.6-0.57,12.37-0.46c1.24,0.06-0.7,0.2-1.12,0.27c4.81-0.19,9.31,0.04,13.59-0.2
							c-0.01,0.04-0.47,0.09-0.91,0.12c0.84-0.01,1.96,0.07,1.87-0.14l-0.82,0.06c-1.35-0.3,3.35-0.62,3.5-0.78
							c-1.43,0.59,4.23,0.15,1.95,0.89c0.56-0.04,1.25-0.14,1.12-0.27c0.82,0.04,1.09,0.12,0.25,0.28c3.02-0.11,1.95-0.33,4.69-0.33
							c-0.01,0.1-0.56,0.14-0.85,0.25c1.39-0.19,2.78-0.39,5.09-0.3c-0.14,0.06,0.13,0.14-0.56,0.14c3.97-0.03,6.78-0.52,11.14-0.33
							c-1.29,0.43,1.48,0.14,1.71,0.52l2.34-0.11l-0.94-0.18c2.05,0.01,3.87-0.27,5.64-0.14l-1.53,0.15l3.85-0.07l-2.18-0.14
							c2.08-0.19-0.22-0.47,2.51-0.37c-0.56,0.04,2.05,0,3.13,0.22c0,0-0.01,0-0.01,0c1.02-0.12,2.06-0.24,3.58-0.15
							c0.39,0.12-0.32,0.41-0.06,0.49c1-0.31,4.81-0.09,6.08-0.42c-0.42,0.08-0.45,0.27-0.31,0.31l0.84-0.25
							c0.95,0.08,1.09,0.12,0.94,0.28c2.86,0.05-0.91-0.47,2.49-0.27c-0.27,0.02-0.14,0.06-0.69,0.1c3.41,0.11,6.59-0.16,9.73-0.04
							c0.92,0.38-2.74,0.09-1.68,0.41c4.52-0.07,9.36-0.45,13.73-0.36l-0.82-0.04c0.61-0.53,3.26,0.26,5.47,0.01
							c-0.54,0.04-0.71,0.29-0.56,0.24c3,0.09,6.12-0.13,10.66-0.3l-0.56,0.14c1.77,0.12,4.65,0.07,6.56,0.13
							c0.57-0.14,1.66-0.11,0.99-0.31c5.88,0.78,11.22-0.42,16.43,0.23c-0.62,0-1.49,0.12-0.99,0.12l4.44-0.13
							c-0.35-0.23-0.58-0.14-1.52-0.32c0.56-0.14,1.82-0.24,2.92-0.24c-2,0.15,0.02,0.37,0.88,0.5c-0.14-0.07,0.15-0.15,0.08-0.22
							c2.32,0.41,0.39-0.46,3.56-0.19l-0.17,0.12c1.19-0.06,2.28-0.22,3.56-0.19c0.53,0.27-1.26,0.12-1.34,0.34
							c1.8-0.02,3.54-0.51,5.17-0.24c-0.76,0.07-1.86,0.08-2.62,0.15c1.77,0.31,1.98,0.23,3.29,0.28l-0.13-0.01l3.04,0.14
							l-0.77-0.08c2.25-0.7,4.58-0.13,7.61-0.58c-2.94,0.43-0.49,0.25-0.71,0.55c0.77,0.08,1.95,0.18,1.61,0.26
							c1.43-0.24,2.39,0.19,4.41-0.16c0.09,0.1,1.53,0.01,1.21,0.25c1.86-0.08-0.44-0.17-0.28-0.29c2.87-0.33,6.74,0.4,10.87-0.05
							c3.56-0.19,4.22-0.52,7.52-0.68c1.11,0.16-0.91,0.36-0.91,0.36c1.8,0.14,3.15,0.12,4.84,0.01c-0.34,0.09,0.01,0.16,0.53,0.27
							c1.36-0.03,0.91-0.35,2.7-0.21c-0.31,0.11-0.7,0.28-1.36,0.39c1.6-0.09,3.18-0.27,4.84-0.36c0.44,0.17-1,0.26-1.59,0.37
							c1.86-0.08,4.83-0.15,5.41-0.42l-1.2-0.1c0.68-0.01,0.35,0.23-0.15,0.28c-1.6,0.21-2.3-0.09-2.39-0.19l1.18-0.06
							c-1.21-0.57-4.74,0.09-7.12,0.06l0.99-0.42l-2.44,0.35c-0.52-0.11-0.87-0.34,0.3-0.4c-1.7-0.21-1.51,0.15-2.97-0.08
							c-0.16-0.04-0.09-0.06,0.06-0.07l-1.67,0.12c0.33-0.09-0.28-0.29,0.75-0.23c-2.99-0.24-4.82,0.31-5.95,0l0.25-0.03
							c-4.15,0.14-0.4,0.31-3.51,0.66l-2.09-0.75l-0.41,0.31c-0.43-0.01-1.27-0.03-1.12-0.16c-1.59,0.21,0.27,0.13-0.65,0.33
							c-2.06-0.28-5.68,0.13-6.14-0.36c-0.74,0.23,1.97,0.18-0.23,0.34c-0.63-0.52-2.54,0.09-4.42-0.15
							c0.58-0.27,2.36-0.13,0.48-0.37c-1.14,0.46-3.66-0.1-5.25-0.01c-0.07,0.36-3.45,0.15-6.11,0.27c0.17-0.12-5.01-0.2-7.49-0.33
							l0.07-0.06c-0.48,0.37-3.04,0.3-4.9,0.37c0.07-0.22,0.41-0.31,1.42-0.4l-1.75,0c-0.41,0.12-0.96,0.18-2.09,0.22l0.44-0.27
							c-2.33,0.02-4.69,0.32-7.68,0.14c-0.17,0.26,2.38,0.71-0.79,0.88c-0.12-0.14-0.23-0.38,0.59-0.43
							c-0.27,0.02-0.97,0.11-1.52,0.06l1.27-0.23c-1.36-0.1-0.71,0.19-1.8,0.17c0.02-0.2-0.81-0.14-0.65-0.3
							c0.28-0.02,0.95,0.08,1.37,0c-1.23-0.04-2.72-0.15-3.21-0.3c0.11,0.11,0,0.27-0.9,0.29c-2.33,0.01-0.8-0.24-2.15-0.34
							c-0.56,0.14-2.05-0.01-2.09,0.29c-0.68,0-0.81-0.14-1.07-0.22c-1.2,0.13-5.63,0.04-4.27,0.35l0.31,0.02
							c-0.06,0.01-0.13,0.01-0.2,0.01c0.01,0,0,0,0.01,0h-0.01c-3.95,0.29-8.2-0.17-12.12-0.04l0.01-0.1
							c-2.34,0.11-5.21,0.07-6.88,0.28c-0.69,0-1.63-0.18-1.34-0.3c-1.79,0.07-1.99,0.19-4.57,0.02c1.8-0.17-0.62-0.15,1.84-0.13
							c-2.32-0.09-2.85-0.24-5.34,0.03c0.85-0.25-1.75-0.32-2.85-0.24l1.63,0.18c-1.24,0.04-2.33,0.01-3.43-0.01l0.6-0.33
							c-4.75-0.4-8.57,0.69-12.19,0.01c-1.26,0.23,2.58,0.16,1.46,0.44c-2.19-0.04-4.47-0.52-5.15-0.52c-3-0.18-2.8,0.49-5.93,0.36
							c0.4,0.12,0.78,0.44-1.56,0.55c-2.19-0.04-2.69-0.5-1.31-0.59c0.52-0.01,0.78,0.03,0.76,0.07c0.71-0.04,1.63-0.09,0.77-0.22
							l-0.28,0.12c-1.09-0.12-4.1-0.11-3.39-0.3c-1.65,0.11-0.71,0.19,0.52,0.26c-2.81-0.17-4.39-0.01-7.27-0.12
							c0.46,0.07,0.88,0.2,0.43,0.2c-4.24-0.15-1.87,0.23-4.74,0.28c-1.63-0.18,0.58-0.43-2.31-0.28c-1.77-0.12-0.37-0.31,0.33-0.41
							c-2.63,0.23-4.92-0.15-6.43-0.19l1.39-0.1c-0.83,0.06-1.51,0.06-2.2,0.05l0.79,0.24c-0.81-0.04-1.5-0.04-1.49-0.14
							c-0.84,0.16,0.64,0.39-1.02,0.61c-1.09-0.12-3.31,0.13-3.68-0.19c3.42,0.11-0.38-0.32,2.51-0.37
							c-0.56,0.04-1.24,0.04-2.05-0.01c-0.12-0.04,0.12-0.07,0.34-0.08c-3.27-0.28-1.5,0.36-4.89,0.35c0.43-0.18-0.79-0.34-1.34-0.3
							c1.36,0,0.65,0.3-0.6,0.43c-2.17-0.14-2.36,0.1-3.5,0.09l1.3,0.07c-0.44,0.18-1.53,0.15-3.04,0.21
							c-0.13-0.14,1.37-0.1,0.83-0.16c-1.68,0.31-3.8-0.32-6.14-0.11c-1.09-0.12-0.11-0.33-1.06-0.41
							c-2.63,0.23-2.84-0.24-5.61-0.05c0.8,0.24,0.93,0.18-1.01,0.41l4.54-0.17l-2.91,0.35c1.37,0,2.89-0.15,3.71-0.11
							c-1.39,0.19-1.25,0.14-0.59,0.33c-1.87-0.36-3.72,0.21-5.88-0.03l0.07-0.59c-3.26-0.26-5.79,0.3-10.02,0.15l1.36,0.1
							c-0.57,0.23-2.61,0.03-3.98,0.13c0.13-0.2-0.73-0.27-1.31-0.39c0.07,0.15-3.1-0.01-3.48,0.38l-1.89-0.26
							c-3.42-0.11-3.9,0.56-7.18,0.5c0.99-0.21-0.5-0.35,1.7-0.51c-1.1,0-2.08-0.04-2.1,0.1c-0.64-0.12-3.04,0.27-4.05,0.08
							c-0.46,0.09-0.61,0.29-1.84,0.28c-0.13-0.04,0-0.1,0-0.1c0,0.1-1.93,0.13-0.85,0.35c-3.38-0.62-9.44,0.04-12.38-0.48
							c-2.39,0.07-5.27,0.13-7.45,0.14c0.14-0.06,0.01-0.1,0.42-0.08c-3-0.18-1.84,0.57-5.25,0.36c-1.74-0.32,1.81-0.17,0.72-0.29
							c-0.47-0.65-4.11,0.09-6.41-0.29l0.56-0.04c-1.75-0.22-4.28,0.25-7.14,0.2c0,0,0.14-0.06,0.02-0.1
							c-1.96,0.33-5.67,0.44-8.42,0.53c0.86-0.25,1.25-0.13,0.73-0.39c-1.24,0.04,0.36,0.41-2.1,0.49c-0.8-0.14-2.58-0.26-2.82-0.54
							l2.33-0.01c-1.19-0.36-3.01,0.01-4.24-0.05l0.16-0.16c-3.57,0.05-3.61,0.44-7.45,0.42l0.4,0.12
							c-2.09,0.39-1.76-0.22-3.84,0.07l-0.63-0.39c-1.38,0.1-4.84,0.38-7.32,0.46c1.4-0.29,4.3-0.44,6.1-0.62
							c-1.37,0-4.65,0.03-5.37,0.22c0.55-0.04,1.25-0.13,1.79-0.07c-1.68,0.31-3.89,0.46-6.62,0.46c0.48-0.77-7.11-0.19-9.09-0.79
							c-4.83,0.28-9.58-0.12-15.2-0.08c1.99,0.6-1.64,0.02-1.3,0.63c-1.31,0.04-1.81,0.03-1.93-0.01l-3.97-0.37
							c-0.94-0.18,1.25-0.13,1.13-0.27c-2.87-0.05-1.2-0.26-3.1-0.42c0.39,0.22-1,0.31-2.63,0.23l2.3,0.28
							c-4.01,0.33-3.46-0.51-7.51-0.19l1.28-0.19c-2.07,0.11-7.65,0-9.68,0.49c-0.37-0.07-0.85-0.24,0.06-0.28
							c-4.96-0.07-11.03,0.52-14.88,0.22l0.38-0.15c-0.92,0.04-1.61,0.28-2.77,0.13c0.06-0.06,0.37-0.15-0.06-0.16
							c-0.49,0.05-2.46,0.26-3.68,0.17l1.05-0.17c-4.83-0.2-7.42,0.41-11.47,0.51c0.01-0.44-3.79-0.58-5.69-0.65l0.07-0.06
							c-5.63-0.05-9.56,0.36-14.77,0.54c-3.24-0.48-10.96-0.2-16.16-0.47c0.79,0.08-0.13,0.34-1.05,0.39
							c-1.22-0.09-3.37,0.31-3.18-0.1l0.44,0.01c-0.92-0.4-3.43-0.29-5.39-0.3l-0.32,0.53c-5.12-0.77-13.42,0.28-16.21-0.41
							c-1.24,0.13-2.77,0.13-3.99,0.26l0.07-0.28c-3.42-0.07-5.13-0.11-9.37-0.04l0.86-0.2c-2.39-0.02-3.01,0.82-5.22,0.83
							l-0.66-0.42c-4.17,0.01-8.38-0.36-12.5,0.02c0.07-0.06,0.19-0.18,0.86-0.2c-1.96-0.01-7.58-0.29-6.87,0.29
							c-0.05-0.38-4.3-0.04-6.55,0.13l0.35-0.28c-1.9,0.36-1.96,0.45-4.61,0.55c-0.63-0.04-0.55-0.22,0.28-0.15
							c-2.09-0.15-1.63,0.26-4.17,0.12l0.95-0.18c-2.15-0.02-1.98,0.07-3.17,0.28c-1.35,0.11-4.09-0.07-4.4-0.32
							c-0.29,0.15-1.47,0.36-2.74,0.29c-0.17-0.1,0.29-0.15,0.52-0.18c-3.6-0.19-5.36,0.32-7.83,0.05
							c-0.05-0.09-0.21-0.14-0.42-0.17c2.86,0.01,5.17,0.02,4.95,0.04c0-0.26-2.31-0.3-0.47-0.66c-1.86,0.19-5.03,0.61-7.28,0.49
							c-0.11-0.02-0.22-0.05-0.3-0.09l0.23-0.03c-0.52-0.03-0.99,0-1.42,0.04c-0.72-0.04-1.18-0.07-1.87-0.08
							c-0.27-0.21-2.65-0.11-3.8-0.13c0.1,0.28-1.41,0.24,0,0.47c-0.18-0.02,0.22-0.03,0.98-0.05c0.17-0.01,0.38-0.01,0.49-0.03
							c-0.02,0.01-0.05,0.02-0.08,0.02c0.76-0.01,1.74-0.01,2.86-0.02c-0.91,0.14-1.86,0.26-3.14,0.11
							c-0.59,0.18-1.24,0.37-1.61,0.45c-1.58-0.39-4.62-0.6-5.04-0.85c-3.52,0.16-8.29,0.1-10.5,0.63c-1,0.07-1.15-0.15-1.52-0.23
							c0.58-0.05,1.26-0.04,1.58-0.12c-2,0.14-5.93,0.05-6.4,0.42c-2.52-0.17,1.42-0.34-2.05-0.28l0.47-0.11
							c-6.82-0.59-11.08,0.94-18.64,0.18c0.52,0.05,0.79,0.07,0.89,0.13c-8.62-0.33-17.75,0.31-26.26-0.22
							c-2.42-0.11-2.68,0.13-4.15,0.31l-0.52-0.3l-2.52,0.35c-3.58,0.26-6.19-0.74-10.72-0.26l0.58,0.2
							c-1.63-0.04-5.15,0.12-4.88-0.11c-0.17,0.04-0.53,0.21-1.17,0.11l-0.05-0.16l-3.99,0.27c-3.1-0.11,0.48-0.63-4.03-0.66
							c-1.68,0.06-4.78,0.46-4.15,0.57c0.68,0.01,1.73,0.1,1.78,0.26l-1.54,0.08c-0.28,0.47-1.46,0.94,2.31,1.27l2.63-0.28
							l0.85,0.23l-2.21,0.01c1.25,0.21,2.05,0.02,2.94-0.1c0.21,0.12,0.58,0.2,1.1,0.25l2.58-0.44c0.31,0.18-1.16,0.36,0.57,0.46
							c1.21-0.21-1.16-0.41,0.84-0.54c1.26,0.21,0.89,0.38,2.37,0.2c0.21,0.12-0.11,0.2-0.69,0.25c1.31-0.14,3.48-0.06,4.15-0.31
							c1.31,0.26,4.43-0.07,4.3,0.37c0.41-0.11,2.31-0.35,3.52-0.36c-2.2,0.53,4.52,0.03,3.93,0.6c1.63-0.47,5.89-0.21,8.78-0.47
							c-0.16,0.04-0.48,0.11-0.73,0.09c1.63,0.04,2.1,0.18,3.14,0.27c0.21-0.39,2.74-0.48,4.11-0.72c1.99,0.38-1.21,0.46-0.58,0.82
							c-0.1-0.32,3.46-0.32,2.78-0.58c1.52,0.23,1.31,0.11,2.1,0.44c0.27-0.49,1.42-0.08,2.68-0.38c2.21,0.24,0.57,0.46,2.99,0.31
							C55.92,236.42,53.77,236.6,53.77,236.6z M111.39,235.75C111.39,235.75,111.39,235.75,111.39,235.75
							c-0.5,0.01-0.92,0.02-1.19,0.02C110.45,235.77,110.79,235.76,111.39,235.75z M116.23,235.74c-0.59-0.01-1.32-0.01-2.1-0.01
							c-0.17-0.1,0.01-0.2,0.5-0.19C114.37,235.61,115.51,235.66,116.23,235.74z M105.99,233.8c0.77-0.04,1.02,0.02,1.13,0.07
							c-0.36,0-0.79,0.01-1.34,0.03c-0.02,0.01-0.07,0.02-0.09,0.03C105.76,233.88,105.85,233.83,105.99,233.8z"/>
						<path class="st14" d="M104.61,234.17c-0.11,0.01-0.17,0.02-0.32,0.02c0.16,0.02,0.31,0.05,0.46,0.06
							c0.09-0.03,0.19-0.06,0.27-0.09C104.89,234.16,104.74,234.16,104.61,234.17z"/>
						<path class="st14" d="M543.6,234.58l-0.1-0.01c0.08,0.01,0.16,0.02,0.21,0.04C543.65,234.6,543.65,234.59,543.6,234.58z"/>
						<polygon class="st14" points="183.1,236.28 183.1,236.21 182.67,236.27 						"/>
						<path class="st14" d="M570.27,235.55c0.05,0.02,0.15,0.05,0.35,0.07C570.61,235.6,570.46,235.57,570.27,235.55z"/>
						<path class="st14" d="M581.8,235.61l1.63,0.1C582.72,235.65,582.21,235.63,581.8,235.61z"/>
						<path class="st14" d="M590.65,235.75c0.11-0.05,0.14-0.09,0.17-0.12c-0.01,0-0.01,0-0.02,0L590.65,235.75z"/>
						<path class="st14" d="M449.81,236.08c-0.12,0-0.24,0.01-0.34,0.01C448.66,236.15,449.21,236.13,449.81,236.08z"/>
						<path class="st14" d="M491.72,235.42c-0.44,0.05-0.88,0.1-1.35,0.13C491.12,235.58,491.7,235.58,491.72,235.42z"/>
						<path class="st14" d="M403,236.42C403.01,236.42,403,236.42,403,236.42c-0.1,0-0.18,0-0.28,0L403,236.42z"/>
						<path class="st14" d="M488.43,235.55c0.75,0.06,1.37,0.04,1.95,0C489.76,235.54,489.04,235.51,488.43,235.55z"/>
						<path class="st14" d="M629.05,235.88l0.43,0.01c-0.01-0.02,0.02-0.03,0.05-0.05L629.05,235.88z"/>
						<path class="st14" d="M629.53,235.84l0.47-0.03C629.78,235.81,629.59,235.81,629.53,235.84z"/>
						<path class="st14" d="M631,235.74l-1,0.07C630.34,235.81,630.77,235.82,631,235.74z"/>
						<path class="st14" d="M617.32,235.75l-0.13,0.1C617.26,235.83,617.31,235.79,617.32,235.75z"/>
						<path class="st14" d="M613.76,235.78c0.85,0.02,2.13,0.22,3.32,0.15l0.11-0.08C616.63,236,614.56,235.6,613.76,235.78z"/>
						<path class="st14" d="M598.88,234.52l2.99,0.08c-0.52-0.11-1.21-0.25,0.15-0.28C598.25,233.99,602.8,234.56,598.88,234.52z"/>
						<path class="st14" d="M589.62,234.36c1.6-0.05-0.02-0.16,0.07-0.22C588.67,234.24,588.43,234.26,589.62,234.36z"/>
						<path class="st14" d="M522.71,234.36l0.16-0.26C521.64,234.14,522.86,234.2,522.71,234.36z"/>
						<polygon class="st14" points="509.92,235.68 511.12,235.84 511.7,235.6 						"/>
						<polygon class="st14" points="502.36,233.86 502.9,233.82 500.84,233.91 						"/>
						<path class="st14" d="M389.98,233.95l0.37,0.32C391.19,234.21,391.37,233.85,389.98,233.95z"/>
						<path class="st14" d="M341.47,234.27c-0.53-0.16-1.89-0.26-2.73-0.1C339.83,234.19,340.91,234.31,341.47,234.27z"/>
						<polygon class="st14" points="195.97,233.76 196.95,233.65 195.11,233.74 						"/>
					</g>
				</g>
			</g>
		</g>
	</g>
	<g>
		<g>
			<g>
				<g>
					<g>
						<path class="st14" d="M639.91,298.17c0.34-0.09,0.15-0.28-0.78-0.24l-0.66,0.33L639.91,298.17z"/>
						<path class="st14" d="M633.66,297.55c-1.09,0.16-2.35,0.44-1.64,0.75c1.08-0.32,1.34-0.19,2.51-0.56
							c0.93-0.04,1.62,0.11,1.46,0.23c0.33-0.08,1.44,0.07,1.94-0.14c-1.21-0.26-2.74-0.27-4.34-0.05
							C633.25,297.7,633.58,297.61,633.66,297.55z"/>
						<path class="st14" d="M542.92,297.04l0.58,0.04C543.34,297.05,543.14,297.04,542.92,297.04z"/>
						<path class="st14" d="M486.69,296.85c0.43-0.01,0.61-0.04,0.63-0.07C486.92,296.81,486.59,296.83,486.69,296.85z"/>
						<path class="st14" d="M477.09,296.49c0.21,0.01,0.38,0.02,0.57,0.02C477.44,296.48,477.22,296.47,477.09,296.49z"/>
						<path class="st14" d="M542.92,297.04l-1.5-0.1C541.31,297.04,542.18,297.01,542.92,297.04z"/>
						<path class="st14" d="M621.15,298.35c0.31-0.02,0.58-0.05,0.82-0.09c-0.26,0.01-0.51,0.03-0.77,0.04
							C621.18,298.32,621.17,298.33,621.15,298.35z"/>
						<path class="st14" d="M567.7,296.77l0.46,0c0.13-0.04,0.26-0.08,0.38-0.13L567.7,296.77z"/>
						<path class="st14" d="M586.72,296.72c-0.43-0.01-0.58,0.27-0.74,0.39c0.24-0.12,0.56-0.17,0.94-0.19
							C586.92,296.86,586.87,296.8,586.72,296.72z"/>
						<path class="st14" d="M616.89,297.21l0.54-0.04C617.28,297.19,617.05,297.2,616.89,297.21z"/>
						<path class="st14" d="M554.09,296.71c-0.03-0.04-0.1-0.08-0.17-0.1C553.91,296.64,553.98,296.68,554.09,296.71z"/>
						<path class="st14" d="M22.05,298.82c0.02-0.02-0.01-0.03,0-0.05C21.94,298.8,21.9,298.82,22.05,298.82z"/>
						<path class="st14" d="M0,297.43l0.31-0.02c0.03-0.05,0.07-0.11,0.07-0.16L0,297.43z"/>
						<path class="st14" d="M459.52,296.13c0.03,0,0.05,0,0.08,0.01C460.06,296.1,459.8,296.11,459.52,296.13z"/>
						<path class="st14" d="M298.24,296.34c1.83,0.25-2.97,0.32-0.22,0.6C297.76,296.83,300.52,296.5,298.24,296.34z"/>
						<path class="st14" d="M620.66,298.31c-0.26,0-0.52,0.01-0.78,0C620.23,298.33,620.47,298.32,620.66,298.31z"/>
						<path class="st14" d="M298.02,296.94C298.02,296.94,298.02,296.94,298.02,296.94l0.28,0.03
							C298.18,296.96,298.12,296.95,298.02,296.94z"/>
						<path class="st14" d="M419.04,296.3c0.08,0.05,0.24,0.09,0.41,0.12C419.44,296.39,419.35,296.36,419.04,296.3z"/>
						<path class="st14" d="M449.2,296.7l-0.75-0.04C448.75,296.69,448.99,296.7,449.2,296.7z"/>
						<path class="st14" d="M403.38,296.7c-0.41-0.02-0.54-0.06-1.1-0.02c0.05,0.01,0.1,0.02,0.17,0.03
							C402.65,296.67,402.92,296.65,403.38,296.7z"/>
						<path class="st14" d="M387.09,296.7c0.09,0.02,0.2,0.04,0.3,0.06c0.16-0.01,0.35-0.01,0.52-0.01L387.09,296.7z"/>
						<path class="st14" d="M71.58,298.68c-0.36-0.08-0.58-0.17-0.75-0.25C71.08,298.63,68.68,298.7,71.58,298.68z"/>
						<path class="st14" d="M621.14,298.19c-0.1,0.07-0.23,0.11-0.48,0.12c0.19,0,0.37-0.01,0.54-0.02
							C621.25,298.26,621.26,298.22,621.14,298.19z"/>
						<path class="st14" d="M402.72,298.91l-2.59-0.04C400.86,298.9,401.8,298.91,402.72,298.91z"/>
						<path class="st14" d="M188.5,298.64l-0.59,0.03C188.13,298.68,188.34,298.68,188.5,298.64z"/>
						<path class="st14" d="M392.45,298.91c-0.46-0.1-0.95-0.16-1.46-0.19c-0.11,0.02-0.23,0.04-0.3,0.07L392.45,298.91z"/>
						<path class="st14" d="M70.82,298.43C70.83,298.43,70.83,298.43,70.82,298.43C70.83,298.43,70.83,298.43,70.82,298.43z"/>
						<path class="st14" d="M53.77,299.1c2.47,0.01,1.16-0.36,1.68-0.57c2.94-0.1,1.36,0.27,2.37,0.46c1.84-0.1,3.25-0.44,4.62-0.42
							c0.1,0.06,0.37,0.08,0.06,0.16c1.94-0.29,5.77-0.01,8.04-0.38c0.17,0.03,0.25,0.06,0.3,0.09c-0.37-0.19-0.42-0.37-0.35-0.51
							c1.11-0.01,2.05-0.23,2.47,0.01c-0.68-0.01-0.73,0.09-1.05,0.17l1.16-0.1c1.04,0.35-1.58,0.12-1.58,0.38
							c2.26-0.11,4.89-0.4,6.63-0.3c0.36,0.34-4.05,0.11-1.74,0.42l-2.68-0.13c2.05,0.54-1.63-0.04,0.25,0.54
							c3.53,0.1,3.94-0.17,7.46-0.07c0.79-0.19-0.26-0.28,0.53-0.47c5-0.34,3.94,0.85,7.61,0.4c0.95-0.23,1.32-0.66,3.94-0.43
							l-0.89,0.38c3.41,0.04,1.95-0.55,5.52-0.29c-0.64,0.15-2.68,0.13-2.17,0.17c2.32,0.3,1.64-0.22,3.42-0.22l0.37,0.34
							c3.63-0.05,7.64-0.3,11.66-0.36c-0.22,0.1-0.91,0.21,0.03,0.31c5.08-0.17,10.84,0.04,15.74,0.24l1.87-0.29
							c0.44,0,0.81,0.13,0.34,0.19c1.91,0.11,0.1-0.19,1.02-0.3c1.09-0.02,1.43,0.17,0.75,0.26c3.37-0.25,9.59-0.54,13.14-0.22
							l-0.69,0.09c2.76,0.12,3.12-0.6,5.68-0.33l-0.49,0.05c6,0.13,12.62-0.14,17.2,0.3c0.87-0.42,5.94,0.19,6.32-0.4
							c3.42,0.29,2.44,0.4,7.27,0.59c1.29,0.03,1.92-0.37,3.51-0.43l0.04,0.31l2.16-0.32l1.15,0.37l1.49-0.08
							c-0.6-0.02-1.26-0.14-1.17-0.23c2.33-0.14,5.69,0.21,5.74,0.37l5.52-0.26c-0.12,0.12-1.05,0.17-1.78,0.25
							c2.95-0.31,0.54,0.32,3.24,0.04c-0.36-0.07,0.2-0.18,0.26-0.25c1.35,0.19,4.41,0.19,6.68,0.11l-0.44,0.21
							c4.09,0.05,8.63-0.1,13.23-0.1c-1.65-0.1-1.27-0.47,0.08-0.5l0.54,0.33c0.87-0.2-1.41-0.12,0.38-0.37
							c1.72,0.04,1.15,0.37,0.17,0.48l2.09-0.11c0.12,0.1-0.37,0.15-0.49,0.27c0.86-0.2,3.6,0.33,4.84-0.02l0.12,0.1
							c4.59,0,6.68-0.11,10.42-0.13c0.07-0.28,1.54-0.22,2.65-0.45c2.75,0.09,5.8,0.31,9.11,0.29c2.33-0.14,0.68-0.24,1.73-0.41
							c0.17,0.26,3.48,0.23,1.76,0.42c3.98-0.04,5.08-0.05,10.11-0.26c-0.55-0.1-1.16-0.15-0.84-0.24c0.91-0.04,2.08,0.11,1.95,0.23
							l-0.24,0.03c5.64-0.38,13.03,0.75,17.52,0.21l-0.25,0.03l4.66-0.28c2.14,0.04-1.29,0.19,0.3,0.35
							c5.03-0.43,7.94,0.06,12.09-0.22c3.21,0.76,11.37-0.05,15.7,0.43l-0.25-0.18c1.12-0.17,1.35,0.1,2.18,0.14
							c-0.12-0.14-1.21-0.16-0.52-0.26c9.47-0.21,19.55,0.26,29.26,0.42c3.55,0.05,2.02-0.92,6.49-0.5l-1.27,0.33
							c7.17-0.4,14.66,0.01,21.67-0.32c-0.42,0.08-0.43,0.18-1.12,0.17c1.48,0.24,5.48,0.01,5.51-0.18
							c1.09,0.02,0.25,0.18,0.93,0.28c1.49,0.14,3.73-0.31,4.52-0.07c0.13,0.04-0.42,0.08-0.69,0.1c0.97-0.12,4.51,0.03,3.59-0.25
							c2.63,0.13,5.04-0.12,7.14,0.04c1.37-0.31,4.51,0.15,4.94-0.29c-0.19,0.45,4.62,0.36,6.28,0.15
							c-0.56,0.14,1.45,0.14,0.79,0.33c1.9-0.01,3.64-0.09,3.31-0.32c3.5,0.54,7.04-0.44,9.01,0.26c5.64-0.24,10.87-0.41,15.95-0.51
							c-0.18,0.45-5.61,0.04-5.39,0.52c4.82-0.19,7.6-0.57,12.37-0.46c1.24,0.06-0.7,0.2-1.12,0.27c4.81-0.19,9.31,0.04,13.59-0.2
							c-0.01,0.04-0.47,0.09-0.91,0.12c0.84-0.01,1.96,0.07,1.87-0.14l-0.82,0.06c-1.35-0.3,3.35-0.62,3.5-0.78
							c-1.43,0.59,4.23,0.15,1.95,0.89c0.56-0.04,1.25-0.14,1.12-0.27c0.82,0.04,1.09,0.12,0.25,0.28c3.02-0.11,1.95-0.33,4.69-0.33
							c-0.01,0.1-0.56,0.14-0.85,0.25c1.39-0.19,2.78-0.39,5.09-0.3c-0.14,0.06,0.13,0.14-0.56,0.14c3.97-0.03,6.78-0.52,11.14-0.33
							c-1.29,0.43,1.48,0.14,1.71,0.52l2.34-0.11l-0.94-0.18c2.05,0.01,3.87-0.27,5.64-0.14l-1.53,0.15l3.85-0.07l-2.18-0.14
							c2.08-0.19-0.22-0.47,2.51-0.37c-0.56,0.04,2.05,0,3.13,0.22c0,0-0.01,0-0.01,0c1.02-0.12,2.06-0.24,3.58-0.15
							c0.39,0.12-0.32,0.41-0.06,0.49c1-0.31,4.81-0.09,6.08-0.42c-0.42,0.08-0.45,0.27-0.31,0.31l0.84-0.25
							c0.95,0.08,1.09,0.12,0.94,0.28c2.86,0.05-0.91-0.47,2.49-0.27c-0.27,0.02-0.14,0.06-0.69,0.1c3.41,0.11,6.59-0.16,9.73-0.04
							c0.92,0.38-2.74,0.09-1.68,0.41c4.52-0.07,9.36-0.45,13.73-0.36l-0.82-0.04c0.61-0.53,3.26,0.26,5.47,0.01
							c-0.54,0.04-0.71,0.29-0.56,0.24c3,0.09,6.12-0.13,10.66-0.3l-0.56,0.14c1.77,0.12,4.65,0.07,6.56,0.13
							c0.57-0.14,1.66-0.11,0.99-0.31c5.88,0.78,11.22-0.42,16.43,0.23c-0.62,0-1.49,0.12-0.99,0.12l4.44-0.13
							c-0.35-0.23-0.58-0.14-1.52-0.32c0.56-0.14,1.82-0.24,2.92-0.24c-2,0.15,0.02,0.37,0.88,0.5c-0.14-0.07,0.15-0.15,0.08-0.22
							c2.32,0.41,0.39-0.46,3.56-0.19l-0.17,0.12c1.19-0.06,2.28-0.22,3.56-0.19c0.53,0.27-1.26,0.12-1.34,0.34
							c1.8-0.02,3.54-0.51,5.17-0.24c-0.76,0.07-1.86,0.08-2.62,0.15c1.77,0.31,1.98,0.23,3.29,0.28l-0.13-0.01l3.04,0.14
							l-0.77-0.08c2.25-0.7,4.58-0.13,7.61-0.58c-2.94,0.43-0.49,0.25-0.71,0.55c0.77,0.08,1.95,0.18,1.61,0.26
							c1.43-0.24,2.39,0.19,4.41-0.16c0.09,0.1,1.53,0.01,1.21,0.25c1.86-0.08-0.44-0.17-0.28-0.29c2.87-0.33,6.74,0.4,10.87-0.05
							c3.56-0.19,4.22-0.52,7.52-0.68c1.11,0.16-0.91,0.36-0.91,0.36c1.8,0.14,3.15,0.12,4.84,0.01c-0.34,0.08,0.01,0.16,0.53,0.27
							c1.36-0.03,0.91-0.35,2.7-0.21c-0.31,0.11-0.7,0.28-1.36,0.39c1.6-0.09,3.18-0.27,4.84-0.36c0.44,0.17-1,0.26-1.59,0.37
							c1.86-0.08,4.83-0.15,5.41-0.42l-1.2-0.1c0.68-0.01,0.35,0.23-0.15,0.28c-1.6,0.21-2.3-0.09-2.39-0.19l1.18-0.06
							c-1.21-0.57-4.74,0.09-7.12,0.06l0.99-0.42l-2.44,0.35c-0.52-0.11-0.87-0.34,0.3-0.4c-1.7-0.21-1.51,0.15-2.97-0.08
							c-0.16-0.04-0.09-0.06,0.06-0.07l-1.67,0.12c0.33-0.09-0.28-0.29,0.75-0.23c-2.99-0.24-4.82,0.31-5.95,0l0.25-0.03
							c-4.15,0.14-0.4,0.31-3.51,0.66l-2.09-0.75l-0.41,0.31c-0.43-0.01-1.27-0.03-1.12-0.16c-1.59,0.21,0.27,0.13-0.65,0.33
							c-2.06-0.28-5.68,0.13-6.14-0.36c-0.74,0.23,1.97,0.18-0.23,0.34c-0.63-0.52-2.54,0.09-4.42-0.15
							c0.58-0.27,2.36-0.13,0.48-0.37c-1.14,0.46-3.66-0.1-5.25-0.01c-0.07,0.36-3.45,0.15-6.11,0.27c0.17-0.12-5.01-0.2-7.49-0.33
							l0.07-0.06c-0.48,0.37-3.04,0.3-4.9,0.37c0.07-0.22,0.41-0.31,1.42-0.4l-1.75,0c-0.41,0.12-0.96,0.18-2.09,0.22l0.44-0.27
							c-2.33,0.02-4.69,0.32-7.68,0.14c-0.17,0.26,2.38,0.71-0.79,0.88c-0.12-0.14-0.23-0.38,0.59-0.43
							c-0.27,0.02-0.97,0.11-1.52,0.06l1.27-0.23c-1.36-0.1-0.71,0.19-1.8,0.17c0.02-0.2-0.81-0.14-0.65-0.3
							c0.28-0.02,0.95,0.08,1.37,0c-1.23-0.04-2.72-0.15-3.21-0.3c0.11,0.11,0,0.27-0.9,0.29c-2.33,0.01-0.8-0.24-2.15-0.34
							c-0.56,0.14-2.05-0.01-2.09,0.29c-0.68,0-0.81-0.14-1.07-0.22c-1.2,0.13-5.63,0.04-4.27,0.35l0.31,0.02
							c-0.06,0.01-0.13,0.01-0.2,0.01c0.01,0,0,0,0.01,0h-0.01c-3.95,0.29-8.2-0.17-12.12-0.04l0.01-0.1
							c-2.34,0.11-5.21,0.07-6.88,0.28c-0.69,0-1.63-0.18-1.34-0.3c-1.79,0.07-1.99,0.19-4.57,0.02c1.8-0.17-0.62-0.15,1.84-0.13
							c-2.32-0.09-2.85-0.24-5.34,0.03c0.85-0.25-1.75-0.32-2.85-0.24l1.63,0.18c-1.24,0.04-2.33,0.01-3.43-0.01l0.6-0.33
							c-4.75-0.4-8.57,0.69-12.19,0.01c-1.26,0.23,2.58,0.16,1.46,0.44c-2.19-0.04-4.47-0.52-5.15-0.52c-3-0.18-2.8,0.49-5.93,0.36
							c0.4,0.12,0.78,0.44-1.56,0.55c-2.19-0.04-2.69-0.5-1.31-0.59c0.52-0.01,0.78,0.03,0.76,0.07c0.71-0.04,1.63-0.09,0.77-0.22
							l-0.28,0.12c-1.09-0.12-4.1-0.11-3.39-0.3c-1.65,0.11-0.71,0.19,0.52,0.26c-2.81-0.17-4.39-0.01-7.27-0.12
							c0.46,0.07,0.88,0.2,0.43,0.2c-4.24-0.15-1.87,0.23-4.74,0.28c-1.63-0.18,0.58-0.43-2.31-0.28c-1.77-0.12-0.37-0.31,0.33-0.41
							c-2.63,0.23-4.92-0.15-6.43-0.19l1.39-0.1c-0.83,0.06-1.51,0.06-2.2,0.05l0.79,0.24c-0.81-0.04-1.5-0.04-1.49-0.14
							c-0.84,0.16,0.64,0.39-1.02,0.61c-1.09-0.12-3.31,0.13-3.68-0.19c3.42,0.11-0.38-0.32,2.51-0.37
							c-0.56,0.04-1.24,0.04-2.05-0.01c-0.12-0.04,0.12-0.07,0.34-0.08c-3.27-0.28-1.5,0.36-4.89,0.35c0.43-0.18-0.79-0.34-1.34-0.3
							c1.36,0,0.65,0.3-0.6,0.43c-2.17-0.14-2.36,0.1-3.5,0.09l1.3,0.07c-0.44,0.18-1.53,0.15-3.04,0.21
							c-0.13-0.14,1.37-0.1,0.83-0.16c-1.68,0.31-3.8-0.32-6.14-0.11c-1.09-0.12-0.11-0.33-1.06-0.41
							c-2.63,0.23-2.84-0.24-5.61-0.05c0.8,0.24,0.93,0.18-1.01,0.41l4.54-0.17l-2.91,0.35c1.37,0,2.89-0.15,3.71-0.11
							c-1.39,0.19-1.25,0.14-0.59,0.33c-1.87-0.36-3.72,0.21-5.88-0.03l0.07-0.59c-3.26-0.26-5.79,0.3-10.02,0.15l1.36,0.1
							c-0.57,0.23-2.61,0.03-3.98,0.13c0.13-0.2-0.73-0.27-1.31-0.39c0.07,0.15-3.1-0.01-3.48,0.38l-1.89-0.26
							c-3.42-0.11-3.9,0.56-7.18,0.5c0.99-0.21-0.5-0.35,1.7-0.51c-1.1,0-2.08-0.04-2.1,0.1c-0.64-0.12-3.04,0.27-4.05,0.08
							c-0.46,0.09-0.61,0.29-1.84,0.28c-0.13-0.04,0-0.1,0-0.1c0,0.1-1.93,0.13-0.85,0.35c-3.38-0.62-9.44,0.04-12.38-0.48
							c-2.39,0.07-5.27,0.13-7.45,0.14c0.14-0.06,0.01-0.1,0.42-0.08c-3-0.18-1.84,0.57-5.25,0.36c-1.74-0.32,1.81-0.17,0.72-0.29
							c-0.47-0.65-4.11,0.09-6.41-0.29l0.56-0.04c-1.75-0.22-4.28,0.25-7.14,0.2c0,0,0.14-0.06,0.02-0.1
							c-1.96,0.33-5.67,0.44-8.42,0.53c0.86-0.25,1.25-0.13,0.73-0.39c-1.24,0.04,0.36,0.41-2.1,0.49c-0.8-0.14-2.58-0.26-2.82-0.54
							l2.33-0.01c-1.19-0.36-3.01,0.01-4.24-0.05l0.16-0.16c-3.57,0.05-3.61,0.44-7.45,0.42l0.4,0.12
							c-2.09,0.39-1.76-0.22-3.84,0.07l-0.63-0.39c-1.38,0.1-4.84,0.38-7.32,0.46c1.4-0.29,4.3-0.44,6.1-0.62
							c-1.37,0-4.65,0.03-5.37,0.22c0.55-0.04,1.25-0.13,1.79-0.07c-1.68,0.31-3.89,0.46-6.62,0.46c0.48-0.77-7.11-0.19-9.09-0.79
							c-4.83,0.28-9.58-0.12-15.2-0.08c1.99,0.6-1.64,0.02-1.3,0.63c-1.31,0.04-1.81,0.03-1.93-0.01l-3.97-0.37
							c-0.94-0.18,1.25-0.13,1.13-0.27c-2.87-0.05-1.2-0.26-3.1-0.42c0.39,0.22-1,0.31-2.63,0.23l2.3,0.28
							c-4.01,0.33-3.46-0.51-7.51-0.19l1.28-0.19c-2.07,0.11-7.65,0-9.68,0.49c-0.37-0.07-0.85-0.24,0.06-0.28
							c-4.96-0.07-11.03,0.52-14.88,0.22l0.38-0.15c-0.92,0.04-1.61,0.28-2.77,0.13c0.06-0.06,0.37-0.15-0.06-0.16
							c-0.49,0.05-2.46,0.26-3.68,0.17l1.05-0.17c-4.83-0.2-7.42,0.41-11.47,0.51c0.01-0.44-3.79-0.58-5.69-0.65l0.07-0.06
							c-5.63-0.05-9.56,0.36-14.77,0.54c-3.24-0.48-10.96-0.2-16.16-0.47c0.79,0.08-0.13,0.34-1.05,0.39
							c-1.22-0.09-3.37,0.31-3.18-0.1l0.44,0.01c-0.92-0.4-3.43-0.29-5.39-0.3l-0.32,0.53c-5.12-0.77-13.42,0.28-16.21-0.41
							c-1.24,0.13-2.77,0.13-3.99,0.26l0.07-0.28c-3.42-0.07-5.13-0.11-9.37-0.04l0.86-0.2c-2.39-0.02-3.01,0.82-5.22,0.83
							l-0.66-0.42c-4.17,0.01-8.38-0.36-12.5,0.02c0.07-0.06,0.19-0.18,0.86-0.2c-1.96-0.01-7.58-0.29-6.87,0.29
							c-0.05-0.38-4.3-0.04-6.55,0.13l0.35-0.28c-1.9,0.36-1.96,0.45-4.61,0.55c-0.63-0.04-0.55-0.22,0.28-0.15
							c-2.09-0.15-1.63,0.26-4.17,0.12l0.95-0.18c-2.15-0.02-1.98,0.07-3.17,0.28c-1.35,0.11-4.09-0.07-4.4-0.32
							c-0.29,0.15-1.47,0.36-2.74,0.29c-0.17-0.1,0.29-0.15,0.52-0.18c-3.6-0.19-5.36,0.32-7.83,0.05
							c-0.05-0.09-0.21-0.14-0.42-0.17c2.86,0.01,5.17,0.02,4.95,0.04c0-0.26-2.31-0.3-0.47-0.66c-1.86,0.19-5.03,0.61-7.28,0.49
							c-0.11-0.02-0.22-0.05-0.3-0.09l0.23-0.03c-0.52-0.03-0.99,0-1.42,0.04c-0.72-0.04-1.18-0.07-1.87-0.08
							c-0.27-0.21-2.65-0.11-3.8-0.13c0.1,0.28-1.41,0.24,0,0.47c-0.18-0.02,0.22-0.03,0.98-0.05c0.17-0.01,0.38-0.01,0.49-0.03
							c-0.02,0.01-0.05,0.02-0.08,0.02c0.76-0.01,1.74-0.01,2.86-0.02c-0.91,0.14-1.86,0.26-3.14,0.11
							c-0.59,0.18-1.24,0.37-1.61,0.45c-1.58-0.39-4.62-0.6-5.04-0.85c-3.52,0.16-8.29,0.1-10.5,0.63c-1,0.07-1.15-0.15-1.52-0.23
							c0.58-0.05,1.26-0.04,1.58-0.12c-2,0.14-5.93,0.05-6.4,0.42c-2.52-0.17,1.42-0.34-2.05-0.28l0.47-0.11
							c-6.82-0.59-11.08,0.94-18.64,0.18c0.52,0.05,0.79,0.07,0.89,0.13c-8.62-0.33-17.75,0.31-26.26-0.22
							c-2.42-0.11-2.68,0.13-4.15,0.31l-0.52-0.3l-2.52,0.35c-3.58,0.26-6.19-0.74-10.72-0.26l0.58,0.2
							c-1.63-0.04-5.15,0.12-4.88-0.11c-0.17,0.04-0.53,0.21-1.17,0.11l-0.05-0.16l-3.99,0.27c-3.1-0.11,0.48-0.63-4.03-0.66
							c-1.68,0.06-4.78,0.46-4.15,0.57c0.68,0.01,1.73,0.1,1.78,0.26l-1.54,0.08c-0.28,0.47-1.46,0.94,2.31,1.27l2.63-0.28
							l0.85,0.23l-2.21,0.01c1.25,0.21,2.05,0.02,2.94-0.1c0.21,0.12,0.58,0.2,1.1,0.25l2.58-0.44c0.31,0.18-1.16,0.36,0.57,0.46
							c1.21-0.21-1.16-0.41,0.84-0.54c1.26,0.21,0.89,0.38,2.37,0.2c0.21,0.12-0.11,0.2-0.69,0.25c1.31-0.14,3.48-0.06,4.15-0.31
							c1.31,0.26,4.43-0.07,4.3,0.37c0.41-0.11,2.31-0.35,3.52-0.36c-2.2,0.53,4.52,0.03,3.93,0.6c1.63-0.47,5.89-0.21,8.78-0.47
							c-0.16,0.04-0.48,0.11-0.73,0.09c1.63,0.04,2.1,0.18,3.14,0.27c0.21-0.39,2.74-0.48,4.11-0.72c1.99,0.38-1.21,0.46-0.58,0.82
							c-0.1-0.32,3.46-0.32,2.78-0.58c1.52,0.23,1.31,0.11,2.1,0.44c0.27-0.49,1.42-0.08,2.68-0.38c2.21,0.24,0.57,0.46,2.99,0.31
							C55.92,298.92,53.77,299.1,53.77,299.1z M111.39,298.25C111.39,298.25,111.39,298.25,111.39,298.25
							c-0.5,0.01-0.92,0.02-1.19,0.02C110.45,298.27,110.79,298.26,111.39,298.25z M116.23,298.24c-0.59-0.01-1.32-0.01-2.1-0.01
							c-0.17-0.1,0.01-0.2,0.5-0.19C114.37,298.11,115.51,298.16,116.23,298.24z M105.99,296.3c0.77-0.04,1.02,0.02,1.13,0.07
							c-0.36,0-0.79,0.01-1.34,0.03c-0.02,0.01-0.07,0.02-0.09,0.03C105.76,296.38,105.85,296.33,105.99,296.3z"/>
						<path class="st14" d="M104.61,296.67c-0.11,0.01-0.17,0.02-0.32,0.02c0.16,0.02,0.31,0.05,0.46,0.06
							c0.09-0.03,0.19-0.06,0.27-0.09C104.89,296.66,104.74,296.66,104.61,296.67z"/>
						<path class="st14" d="M543.6,297.08l-0.1-0.01c0.08,0.01,0.16,0.02,0.21,0.04C543.65,297.1,543.65,297.09,543.6,297.08z"/>
						<polygon class="st14" points="183.1,298.78 183.1,298.71 182.67,298.77 						"/>
						<path class="st14" d="M570.27,298.05c0.05,0.02,0.15,0.05,0.35,0.07C570.61,298.1,570.46,298.07,570.27,298.05z"/>
						<path class="st14" d="M581.8,298.11l1.63,0.1C582.72,298.15,582.21,298.13,581.8,298.11z"/>
						<path class="st14" d="M590.65,298.25c0.11-0.05,0.14-0.09,0.17-0.12c-0.01,0-0.01,0-0.02,0L590.65,298.25z"/>
						<path class="st14" d="M449.81,298.58c-0.12,0-0.24,0.01-0.34,0.01C448.66,298.65,449.21,298.63,449.81,298.58z"/>
						<path class="st14" d="M491.72,297.92c-0.44,0.05-0.88,0.1-1.35,0.13C491.12,298.08,491.7,298.08,491.72,297.92z"/>
						<path class="st14" d="M403,298.92C403.01,298.92,403,298.92,403,298.92c-0.1,0-0.18,0-0.28,0L403,298.92z"/>
						<path class="st14" d="M488.43,298.05c0.75,0.06,1.37,0.04,1.95,0C489.76,298.04,489.04,298.01,488.43,298.05z"/>
						<path class="st14" d="M629.05,298.38l0.43,0.01c-0.01-0.02,0.02-0.03,0.05-0.05L629.05,298.38z"/>
						<path class="st14" d="M629.53,298.34l0.47-0.03C629.78,298.31,629.59,298.31,629.53,298.34z"/>
						<path class="st14" d="M631,298.24l-1,0.07C630.34,298.31,630.77,298.32,631,298.24z"/>
						<path class="st14" d="M617.32,298.25l-0.13,0.1C617.26,298.33,617.31,298.29,617.32,298.25z"/>
						<path class="st14" d="M613.76,298.28c0.85,0.02,2.13,0.22,3.32,0.15l0.11-0.08C616.63,298.5,614.56,298.1,613.76,298.28z"/>
						<path class="st14" d="M598.88,297.02l2.99,0.08c-0.52-0.11-1.21-0.25,0.15-0.28C598.25,296.49,602.8,297.06,598.88,297.02z"/>
						<path class="st14" d="M589.62,296.86c1.6-0.05-0.02-0.16,0.07-0.22C588.67,296.74,588.43,296.76,589.62,296.86z"/>
						<path class="st14" d="M522.71,296.86l0.16-0.26C521.64,296.64,522.86,296.7,522.71,296.86z"/>
						<polygon class="st14" points="509.92,298.18 511.12,298.34 511.7,298.1 						"/>
						<polygon class="st14" points="502.36,296.36 502.9,296.32 500.84,296.41 						"/>
						<path class="st14" d="M389.98,296.45l0.37,0.32C391.19,296.71,391.37,296.35,389.98,296.45z"/>
						<path class="st14" d="M341.47,296.77c-0.53-0.16-1.89-0.26-2.73-0.1C339.83,296.69,340.91,296.81,341.47,296.77z"/>
						<polygon class="st14" points="195.97,296.26 196.95,296.15 195.11,296.24 						"/>
					</g>
				</g>
			</g>
		</g>
	</g>
</g>
</svg>
