<?xml version="1.0" encoding="utf-8"?>
<!-- Generator: Adobe Illustrator 23.0.3, SVG Export Plug-In . SVG Version: 6.00 Build 0)  -->
<svg version="1.1" xmlns="http://www.w3.org/2000/svg" xmlns:xlink="http://www.w3.org/1999/xlink" x="0px" y="0px"
	 viewBox="0 0 640 360" style="enable-background:new 0 0 640 360;" xml:space="preserve">
<style type="text/css">
	.st0{fill:#C6D8DB;}
	.st1{opacity:0.1;clip-path:url(#SVGID_2_);fill:#FEFEFE;}
	.st2{opacity:0.5;fill:#FEFEFE;}
	.st3{opacity:0.3;fill:#FEFEFE;}
	.st4{fill:#FEFEFE;}
	.st5{fill:#88B777;}
	.st6{fill:#2D6841;}
	.st7{fill:#648C3F;}
	.st8{fill:#2A4A22;}
	.st9{fill:#22351D;}
	.st10{fill:#F2E1B1;}
	.st11{fill:#F9EFDE;}
	.st12{fill:#54352A;}
</style>
<g id="sky_1_">
	<rect class="st0" width="640" height="97.07"/>
</g>
<g id="sun">
	<g>
		<defs>
			<rect id="SVGID_1_" x="342.86" y="0.07" width="78.76" height="76.44"/>
		</defs>
		<clipPath id="SVGID_2_">
			<use xlink:href="#SVGID_1_"  style="overflow:visible;"/>
		</clipPath>
		<circle class="st1" cx="382.24" cy="37.12" r="39.38"/>
	</g>
	<circle class="st2" cx="382.24" cy="37.12" r="19.69"/>
	<circle class="st3" cx="382.24" cy="37.12" r="27.85"/>
	<ellipse class="st4" cx="382.24" cy="36.39" rx="12.72" ry="12.96"/>
</g>
<g id="landscape">
	<path class="st5" d="M103.01,50.68c8.75-6.32,17.92-13.55,27.26-21.81c5.18-4.58,24.74-24.32,29.26-28.8c52.5,0,70.62,0,123.12,0
		c6.47,6.59,41.81,36.1,56.13,48.65c21.1,18.49,38.27,26.75,56.19,47.07c-98.33,0-196.66,0-294.98,0
		C100.99,73.17,102,73.29,103.01,50.68z"/>
	<path class="st6" d="M640,61.61c-18.37-12-34.34-18.93-45.36-23.05c-12.84-4.8-29.3-9.52-50.4-22.08c-3.31-1.97-5.96-3.67-7.68-4.8
		c-24.16,10.84-45.38,20.19-62.88,27.84c-4.74,2.07-14.81,6.46-39.84,17.28c-30.82,13.32-41.06,17.46-62.4,26.88
		c-14.42,6.36-26.02,11.63-33.12,14.88c100.47,0,201.21,0,301.68,0C640,91.47,640,74.99,640,61.61z"/>
	<path class="st6" d="M0,61.42c16.3-11.48,29.3-18.79,38.56-23.58c6.35-3.28,16.91-8.44,29.16-18.36c4.27-3.46,7.57-6.55,9.72-8.64
		c12.31,7.54,25.63,15.17,39.96,22.68c11.73,6.15,14.68,7.26,37.8,18.36c45.36,21.78,59.23,29.61,89.64,41.76
		c3.92,1.57,7.13,2.81,9.18,3.6c-84.76,0-169.26,0-254.02,0C0,84.32,0,73.76,0,61.42z"/>
	<g>
		<g>
			<path class="st7" d="M211.75,97.11c0.34-0.04,0.69-0.21,1.05-0.44c-0.73,0-1.46,0-2.19,0C210.96,96.98,211.29,97.16,211.75,97.11
				z"/>
			<path class="st8" d="M210.73,94.46c-2.41-1.66-4.9-1.73-6.17-1.76c-1.28-0.03-2.59-0.05-3.52,0.88c-0.58,0.58-0.79,1.3-0.88,1.76
				c-11.76,0-23.53,0-35.29,0c0.07-0.62,0.13-2.16-0.84-3.52c-1.42-1.99-4.18-2.39-6.17-1.76c-1.36,0.43-2.23,1.28-2.64,1.76
				c0.08-0.88,0.07-2.42-0.88-3.52c-2.5-2.91-9.88-1.01-10.57,1.76c-0.23,0.94,0.32,1.92,0.88,2.64c-0.88-1.05-2.33-1.41-3.52-0.88
				c-1.03,0.45-1.71,1.48-1.76,2.64c-18.15-0.22-24.86-0.17-25.4,0c-0.02,0.01-0.14,0.05-0.17,0c-0.17-0.21,2.17-1.51,2.66-3.52
				c0.43-1.78-0.76-3.37-0.88-3.52c-1.3-1.67-3.26-1.76-3.52-1.76c0.98-0.98,1.32-2.36,0.88-3.52c-0.02-0.06-0.51-1.3-1.76-1.76
				c-1.43-0.53-3.26,0.15-4.41,1.76c-0.53-1.83-1.88-3.2-3.52-3.52c-1.71-0.34-3.08,0.58-3.52,0.88c-2.51,1.69-2.63,4.87-2.64,5.29
				c-2.14-1.98-4.67-2.69-6.17-1.76c-1.13,0.7-1.47,2.22-1.76,3.52c-0.42,1.88-0.2,3.48,0,4.41c-0.08-0.19-1.3-2.98-4.41-3.52
				c-3.05-0.53-5.13,1.6-5.29,1.76c-1.47,0-2.94,0-4.41,0c0.59-0.88,1.18-1.76,1.76-2.64c0.1-0.12,1.41-1.69,0.88-3.52
				c-0.49-1.69-2.34-2.88-4.41-2.64c0.47-1.4,0.14-2.33,0-2.64c-0.89-2.06-4.08-2.84-6.17-1.76c-0.95,0.49-1.49,1.27-1.76,1.76
				c-0.32-0.59-1.11-1.85-2.64-2.64c-0.26-0.13-3.49-1.75-5.29,0c-1.25,1.21-0.93,3.22-0.88,3.52c-0.09-0.05-1.83-0.97-3.52,0
				c-1.22,0.7-1.91,2.09-1.76,3.52c-0.92-1.45-2.41-2.13-3.52-1.76c-1.25,0.42-1.62,2.01-1.76,2.64c-0.47,2.07,0.54,3.82,0.88,4.41
				c0.82,1.4,1.93,2.22,2.64,2.64c-8.27,0-16.54,0-24.81,0c0.45-0.16,3.58-1.31,4.55-4.41c0.17-0.54,0.5-1.93,0-3.52
				c-0.81-2.57-3.37-4.24-4.64-4.48c0.67-1.46,1.43-4.28,0.24-6.1c-0.81-1.23-2.37-1.75-3.52-1.76c-3.28-0.05-4.52,6.51-6.17,6.17
				c-0.82-0.17-0.94-1.78-1.76-1.76c-0.85,0.02-1.77,1.77-1.76,1.76c-0.81-1.76-2.59-2.82-4.41-2.64c-1.74,0.17-3.01,1.44-3.52,2.64
				c-0.4,0.93-0.35,1.86-0.34,2.04c0.04,0.64,0.2,1.16,0.34,1.49c-0.7-0.88-1.82-1.22-2.64-0.88C-0.09,79.05,0,80.15,0,82.07
				c0,5,0.03,9.96,0.03,14.97c71-0.16,142.09-0.22,213.09-0.37C212.57,96.17,211.97,95.32,210.73,94.46z"/>
			<path class="st7" d="M612.07,97.11c0.46,0.05,0.79-0.12,1.14-0.44c-0.73,0-1.46,0-2.19,0C611.38,96.9,611.73,97.06,612.07,97.11z
				"/>
			<path class="st8" d="M608.55,94.46c-0.74-0.76-2.35-1.42-6.17-0.88c0.14-0.83,0.25-2.07,0-3.52c-0.19-1.08-0.6-3.49-2.64-5.29
				c-2.8-2.46-6.46-1.86-7.05-1.76c-0.91,0.15-1.68,0.43-2.64,0.88c-1.79,0.85-4.76,2.58-7.93,6.17c-0.14-0.73-0.52-2.23-1.76-3.52
				c-1.62-1.7-4.44-2.77-7.05-1.76c-2.33,0.9-3.31,3.01-3.52,3.52c-4.78-1.12-7.34-0.22-8.81,0.88c-1.49,1.12-1.54,2.22-3.52,3.52
				c-2.2,1.45-4.47,1.63-6.17,1.76c-2.9,0.23-5.34-0.31-7.05-0.88c-3.18,0.05-4.6-0.85-5.29-1.76c-1.39-1.84-0.04-4.02-1.76-6.17
				c-0.24-0.3-1.57-1.89-3.52-1.76c-2.29,0.14-3.47,2.52-3.52,2.64c0.09-0.43,0.17-1.05,0-1.76c-0.46-1.95-2.45-3.32-4.41-3.52
				c-0.36-0.04-3.08-0.32-4.41,1.76c-0.81,1.28-0.81,2.97,0,4.41c-1.18,0-2.35,0-3.52,0c-1.19,0.82-1.88,2.16-1.76,3.52
				c0.15,1.75,1.6,3.25,3.52,3.52c-4.7,0-9.4,0-14.1,0c-0.46-0.29-1.38-0.79-2.64-0.88c-1.76-0.13-3.07,0.6-3.52,0.88
				c0.37-0.32,1.84-1.68,1.76-3.52c-0.12-2.88-3.91-4.23-4.41-4.41c-2.33-0.83-4.43-0.28-5.29,0c0.5-0.32,1.21-0.88,1.76-1.76
				c1.69-2.7,0.38-6,0-7.05c-0.17-0.48-1.78-4.7-6.17-6.17c-5.1-1.71-9.54,1.76-10.57,2.64c-4.96,4.22-4.47,10.75-4.41,11.46
				c-1.49-0.8-3.35-0.42-4.41,0.88c-1.03,1.27-1.03,3.11,0,4.41c-2.05,0.66-4.41,1.28-7.05,1.76c-2.92,0.53-5.59,0.79-7.93,0.88
				c0.4-0.28,1.6-1.2,1.76-2.64c0.24-2.19-2.11-3.81-3.52-4.41c-0.72-0.3-2.69-1.12-4.41,0c-0.92,0.6-1.52,1.6-1.73,2.75
				c-0.01-0.04-0.02-0.07-0.03-0.11c-0.81-1.88-4.46-1.78-5.29-1.76c-0.52,0.01-2.18,0.2-6.17,1.76c-2.1,0.83-3.87,1.77-5.29,2.64
				c0.01,0.01-0.75-2-1.76-2.64c-0.71-0.45-1.97-0.51-4.41,0.88c-2.05-3.01-6.13-3.69-8.81-1.76c-0.38,0.27-0.72,0.59-1.01,0.95
				c-0.3-0.35-0.63-0.67-1.01-0.95c-2.68-1.93-6.76-1.25-8.81,1.76c-2.43-1.39-3.7-1.33-4.41-0.88c-1.01,0.64-1.77,2.66-1.76,2.64
				c-1.42-0.88-3.18-1.82-5.29-2.64c-3.98-1.57-5.65-1.75-6.17-1.76c-0.82-0.02-4.47-0.12-5.29,1.76c-0.02,0.04-0.02,0.07-0.03,0.11
				c-0.21-1.15-0.81-2.16-1.73-2.75c-1.72-1.12-3.69-0.3-4.41,0c-1.42,0.59-3.77,2.22-3.52,4.41c0.16,1.44,1.37,2.36,1.76,2.64
				c-2.34-0.09-5.01-0.35-7.93-0.88c-2.63-0.48-5-1.11-7.05-1.76c1.03-1.29,1.03-3.13,0-4.41c-1.05-1.3-2.91-1.68-4.41-0.88
				c0.06-0.7,0.56-3.71-4.41-7.93c-1.04-0.88-6.17-1.76-8.81-0.88c-1.87,0.62-6.17,3.52-6.17,6.17c0,0.88-0.5,3.2,0,3.52
				c-0.86-0.28-2.96-0.83-5.29,0c-0.49,0.18-4.29,1.53-4.41,4.41c-0.08,1.84,1.4,3.2,1.76,3.52c-0.46-0.28-1.76-1.02-3.52-0.88
				c-1.26,0.1-2.18,0.59-2.64,0.88c-4.7,0-9.4,0-14.1,0c1.93-0.27,3.38-1.78,3.52-3.52c0.11-1.36-0.57-2.71-1.76-3.52
				c-1.18,0-2.35,0-3.52,0c0.81-1.43,0.81-3.13,0-4.41c-1.33-2.08-4.04-1.8-4.41-1.76c-1.95,0.2-3.95,1.58-4.41,3.52
				c-0.17,0.71-0.09,1.34,0,1.76c-0.06-0.12-1.24-2.5-3.52-2.64c-1.95-0.12-3.29,1.47-3.52,1.76c-1.73,2.15-0.37,4.33-1.76,6.17
				c-0.69,0.91-2.1,1.81-5.29,1.76c-1.71,0.57-4.15,1.11-7.05,0.88c-1.7-0.13-3.96-0.31-6.17-1.76c-1.99-1.31-2.03-2.4-3.52-3.52
				c-1.47-1.1-4.03-2-8.81-0.88c-0.22-0.51-1.19-2.62-3.52-3.52c-2.61-1.01-5.43,0.07-7.05,1.76c-1.24,1.3-1.63,2.79-1.76,3.52
				c-3.17-3.59-6.14-5.32-7.93-6.17c-0.96-0.46-1.74-0.73-2.64-0.88c-0.59-0.1-4.25-0.7-7.05,1.76c-2.04,1.8-2.46,4.21-2.64,5.29
				c-0.25,1.46-0.14,2.7,0,3.52c-3.82-0.54-5.43,0.12-6.17,0.88c-0.13,0.13-0.41,0.45-0.88,0.88c-0.57,0.52-1.09,0.99-1.59,1.32
				c66.37-0.15,132.74-0.29,199.11-0.44c66.37,0.15,132.74,0.29,199.11,0.44c-0.5-0.33-1.02-0.8-1.59-1.32
				C608.95,94.91,608.67,94.6,608.55,94.46z"/>
			<path class="st8" d="M626.17,95.34c-0.09-0.47-0.3-1.18-0.88-1.76c-0.94-0.93-2.25-0.91-3.52-0.88c-1.27,0.03-3.76,0.1-6.17,1.76
				c-1.24,0.86-1.84,1.7-2.39,2.2c9.26,0.02,17.53,0.04,26.79,0.06c0-0.47,0-0.93,0-1.38C635.06,95.34,631.11,95.34,626.17,95.34z"
				/>
			<path class="st8" d="M801.47,90.06c-0.75,0-1.5,0-2.25,0C800.07,90.52,801.01,90.12,801.47,90.06z"/>
		</g>
		<path class="st6" d="M415.04,95.78h-0.62H0v9.69h414.42h0.62H640c0-3.22,0-6.59,0-9.69H415.04z"/>
		<path class="st9" d="M635.19,99.25c-0.55-0.19-1.35-0.01-1.35,0.3v1c0,0.28-0.66,0.47-1.22,0.34l-6.95-1.57
			c-0.37-0.08-0.82-0.03-1.06,0.12l-3.49,2.2c-0.27,0.17-0.81,0.21-1.19,0.08l-5.78-1.96c-0.33-0.11-0.8-0.1-1.1,0.04l-3.95,1.78
			c-0.41,0.18-1.09,0.13-1.35-0.1l-2.54-2.29c-0.24-0.22-0.86-0.28-1.28-0.13l-7.26,2.62c-0.39,0.14-0.97,0.1-1.24-0.1l-3.34-2.41
			c-0.29-0.21-0.93-0.24-1.31-0.07l-4.69,2.12c-0.38,0.17-1,0.14-1.3-0.06l-2.45-1.66c-0.27-0.19-0.84-0.23-1.23-0.09l-7.26,2.62
			c-0.43,0.15-1.06,0.09-1.29-0.14l-4.25-4.15c-0.27-0.26-1.06-0.3-1.44-0.07l-3.62,2.18c-0.38,0.23-1.15,0.19-1.43-0.06l-1.35-1.22
			c-0.3-0.27-1.13-0.28-1.47-0.03l-3.65,2.75c-0.35,0.27-1.23,0.24-1.5-0.05l-1.62-1.7c-0.2-0.21-0.77-0.29-1.21-0.18l-7.3,1.98
			c-0.39,0.1-0.88,0.05-1.13-0.12l-2.38-1.61c-0.33-0.23-1.07-0.23-1.4,0l-2.15,1.45c-0.33,0.22-1.04,0.23-1.39,0.01l-3.21-2.03
			c-0.27-0.17-0.8-0.21-1.17-0.09l-4.85,1.56c-0.36,0.12-0.85,0.09-1.14-0.07l-3.05-1.65c-0.4-0.22-1.16-0.17-1.41,0.09l-3.12,3.1
			c-0.29,0.29-1.2,0.3-1.52,0.01l-0.67-0.61c-0.18-0.16-0.57-0.24-0.96-0.2l-5.88,0.66c-0.31,0.04-0.64-0.01-0.85-0.13l-3.51-1.9
			c-0.3-0.16-0.85-0.18-1.21-0.04l-6.69,2.68c-0.33,0.13-0.84,0.13-1.15-0.02l-3.17-1.43c-0.36-0.16-0.95-0.14-1.26,0.04l-4.87,2.82
			c-0.35,0.2-1.05,0.19-1.37-0.02l-5.79-3.92c-0.31-0.21-0.97-0.23-1.33-0.04l-4.9,2.53c-0.3,0.16-0.82,0.17-1.17,0.04l-4.13-1.55
			c-0.31-0.12-0.75-0.12-1.06,0l-7.51,2.71c-0.4,0.14-0.99,0.1-1.25-0.11l-5.24-4.05c-0.24-0.19-0.77-0.24-1.17-0.13l-12.62,3.56
			c-0.41,0.11-0.94,0.05-1.18-0.13l-2.44-1.93c-0.3-0.24-1.05-0.26-1.41-0.03l-5.7,3.54c-0.3,0.19-0.91,0.21-1.28,0.05l-7.48-3.38
			c-0.35-0.16-0.93-0.15-1.25,0.03c-1.09,0.6-2.49,1.54-3.48,2.03c-0.99-0.49-2.39-1.43-3.48-2.03c-0.32-0.17-0.9-0.19-1.25-0.03
			l-7.48,3.38c-0.37,0.17-0.97,0.14-1.28-0.05l-5.7-3.54c-0.36-0.22-1.11-0.2-1.41,0.03l-2.44,1.93c-0.24,0.19-0.77,0.25-1.18,0.13
			L377,99.38c-0.4-0.11-0.93-0.05-1.17,0.13l-5.24,4.05c-0.26,0.2-0.85,0.25-1.25,0.11l-7.51-2.71c-0.31-0.11-0.76-0.11-1.06,0
			l-4.13,1.55c-0.35,0.13-0.87,0.11-1.17-0.04l-4.9-2.53c-0.37-0.19-1.03-0.17-1.33,0.04l-5.79,3.92c-0.32,0.22-1.01,0.23-1.36,0.02
			l-4.87-2.82c-0.31-0.18-0.9-0.2-1.26-0.04l-3.17,1.43c-0.31,0.14-0.82,0.15-1.15,0.02l-6.69-2.68c-0.36-0.14-0.9-0.12-1.21,0.04
			l-3.51,1.9c-0.21,0.11-0.54,0.16-0.85,0.13l-5.88-0.66c-0.38-0.04-0.78,0.04-0.96,0.2l-0.67,0.61c-0.32,0.29-1.23,0.28-1.52-0.01
			l-3.12-3.1c-0.26-0.25-1.02-0.3-1.41-0.09l-3.05,1.65c-0.28,0.15-0.78,0.18-1.14,0.07L296.77,99c-0.38-0.12-0.9-0.08-1.17,0.09
			l-3.21,2.03c-0.34,0.22-1.06,0.21-1.39-0.01l-2.15-1.45c-0.33-0.23-1.07-0.23-1.4,0l-2.38,1.61c-0.25,0.17-0.75,0.22-1.13,0.12
			l-7.3-1.98c-0.44-0.12-1.01-0.04-1.21,0.18l-1.62,1.7c-0.27,0.28-1.14,0.31-1.5,0.05l-3.65-2.75c-0.34-0.26-1.18-0.24-1.47,0.03
			l-1.35,1.22c-0.28,0.25-1.05,0.28-1.43,0.06l-3.62-2.18c-0.38-0.23-1.17-0.19-1.44,0.07l-4.25,4.15
			c-0.23,0.22-0.86,0.29-1.29,0.14l-7.26-2.62c-0.39-0.14-0.95-0.1-1.23,0.09l-2.45,1.66c-0.29,0.2-0.92,0.23-1.3,0.06l-4.69-2.12
			c-0.38-0.17-1.02-0.14-1.31,0.07l-3.34,2.41c-0.27,0.19-0.85,0.24-1.24,0.1l-7.26-2.62c-0.42-0.15-1.04-0.09-1.28,0.13l-2.54,2.29
			c-0.26,0.23-0.94,0.28-1.35,0.1l-3.95-1.78c-0.3-0.13-0.77-0.15-1.1-0.04l-5.78,1.96c-0.38,0.13-0.92,0.09-1.19-0.08l-3.49-2.2
			c-0.24-0.15-0.69-0.2-1.06-0.12l-6.95,1.57c-0.56,0.13-1.22-0.06-1.22-0.34v-1c0-0.32-0.8-0.49-1.35-0.3l-8.75,3.04
			c-0.55,0.19-1.35,0.01-1.35-0.3v-0.96c0-0.36-0.98-0.52-1.49-0.24l-2.38,1.29c-0.3,0.16-0.83,0.18-1.19,0.05l-8.87-3.33
			c-0.48-0.18-1.22-0.07-1.36,0.21l-1.17,2.38c-0.13,0.27-0.85,0.39-1.34,0.22l-6.39-2.24c-0.29-0.1-0.7-0.11-1-0.01l-7.77,2.45
			c-0.31,0.1-0.74,0.09-1.03-0.02l-4.85-1.88c-0.42-0.16-1.06-0.1-1.3,0.12l-2.48,2.24c-0.27,0.24-0.99,0.28-1.39,0.08l-4.75-2.45
			c-0.32-0.17-0.88-0.17-1.23-0.02l-4.81,2.17c-0.38,0.17-1,0.14-1.3-0.06l-4.15-2.81c-0.29-0.2-0.92-0.23-1.3-0.06l-2.8,1.26
			c-0.42,0.19-1.13,0.13-1.37-0.12l-1.54-1.62c-0.26-0.28-1.1-0.31-1.47-0.06l-5.65,3.82c-0.28,0.19-0.88,0.23-1.26,0.07l-7.36-2.99
			c-0.38-0.15-0.98-0.12-1.26,0.07l-2.07,1.4c-0.38,0.26-1.25,0.21-1.49-0.08l-1.44-1.73c-0.25-0.3-1.17-0.33-1.52-0.06l-2.2,1.74
			c-0.24,0.19-0.77,0.25-1.17,0.14l-9.69-2.69c-0.5-0.14-1.15-0.01-1.27,0.25l-0.41,0.91c-0.12,0.26-0.77,0.39-1.27,0.25l-5.42-1.53
			c-0.34-0.1-0.79-0.07-1.07,0.07l-8.32,4.09c-0.42,0.21-1.17,0.14-1.4-0.12l-2.59-2.92c-0.21-0.24-0.89-0.32-1.33-0.15l-4.65,1.8
			c-0.35,0.13-0.87,0.12-1.18-0.04l-5.95-3.02c-0.3-0.15-0.82-0.17-1.17-0.04l-9.8,3.74c-0.48,0.18-1.21,0.08-1.36-0.2l-1.03-1.86
			c-0.17-0.3-1.02-0.39-1.46-0.15l-2.56,1.39c-0.38,0.21-1.1,0.17-1.38-0.06l-3.1-2.52c-0.31-0.26-1.12-0.26-1.46-0.01l-4.07,3.06
			c-0.25,0.19-0.8,0.24-1.2,0.12l-6.88-2.17c-0.53-0.17-1.26-0.01-1.32,0.28l-0.54,2.69c-0.07,0.35-1.08,0.47-1.53,0.18l-3.32-2.14
			C1.06,99.86,0,100.01,0,100.38v4.76v8.77c0,0.21,0.38,0.38,0.84,0.38H413.5h0.7H640c0-4.66,0-7.69,0-12.96L635.19,99.25z"/>
	</g>
</g>
<g id="track">
	<rect x="0" y="110" class="st10" width="640" height="250"/>
	<rect x="0" y="297.5" class="st11" width="640" height="62.5"/>
	<g>
		<g>
			<g>
				<g>
					<g>
						<path class="st12" d="M639.56,173.17c0.34-0.09,0.15-0.28-0.78-0.24l-0.66,0.33L639.56,173.17z"/>
						<path class="st12" d="M633.31,172.55c-1.09,0.16-2.35,0.44-1.64,0.75c1.08-0.32,1.34-0.19,2.51-0.56
							c0.93-0.04,1.62,0.11,1.46,0.23c0.33-0.08,1.44,0.07,1.94-0.13c-1.21-0.26-2.74-0.27-4.34-0.05
							C632.9,172.7,633.24,172.61,633.31,172.55z"/>
						<path class="st12" d="M542.57,172.04l0.58,0.04C542.99,172.05,542.79,172.04,542.57,172.04z"/>
						<path class="st12" d="M486.34,171.85c0.43-0.01,0.61-0.04,0.63-0.07C486.57,171.81,486.25,171.83,486.34,171.85z"/>
						<path class="st12" d="M476.74,171.49c0.21,0.01,0.38,0.02,0.57,0.02C477.09,171.48,476.87,171.47,476.74,171.49z"/>
						<path class="st12" d="M542.57,172.04l-1.5-0.1C540.96,172.04,541.83,172.01,542.57,172.04z"/>
						<path class="st12" d="M620.8,173.35c0.31-0.02,0.58-0.05,0.82-0.09c-0.26,0.01-0.51,0.03-0.77,0.04
							C620.84,173.32,620.82,173.33,620.8,173.35z"/>
						<path class="st12" d="M567.35,171.77l0.46,0c0.13-0.04,0.26-0.08,0.38-0.13L567.35,171.77z"/>
						<path class="st12" d="M586.37,171.72c-0.43-0.01-0.58,0.27-0.74,0.39c0.24-0.12,0.56-0.17,0.94-0.19
							C586.58,171.86,586.52,171.8,586.37,171.72z"/>
						<path class="st12" d="M616.54,172.21l0.54-0.04C616.93,172.19,616.7,172.2,616.54,172.21z"/>
						<path class="st12" d="M553.74,171.71c-0.03-0.04-0.1-0.08-0.17-0.1C553.56,171.64,553.63,171.68,553.74,171.71z"/>
						<path class="st12" d="M21.7,173.82c0.02-0.02-0.01-0.03,0-0.05C21.59,173.8,21.55,173.82,21.7,173.82z"/>
						<path class="st12" d="M-0.35,172.43l0.31-0.02c0.03-0.05,0.07-0.11,0.07-0.16L-0.35,172.43z"/>
						<path class="st12" d="M459.17,171.13c0.03,0,0.05,0,0.08,0.01C459.71,171.1,459.45,171.11,459.17,171.13z"/>
						<path class="st12" d="M297.89,171.34c1.83,0.25-2.97,0.32-0.22,0.6C297.41,171.83,300.17,171.5,297.89,171.34z"/>
						<path class="st12" d="M620.31,173.31c-0.26,0-0.52,0.01-0.78,0C619.88,173.33,620.12,173.32,620.31,173.31z"/>
						<path class="st12" d="M297.67,171.94C297.67,171.94,297.67,171.94,297.67,171.94l0.28,0.03
							C297.83,171.96,297.77,171.95,297.67,171.94z"/>
						<path class="st12" d="M418.69,171.3c0.08,0.05,0.24,0.09,0.41,0.12C419.09,171.39,419,171.36,418.69,171.3z"/>
						<path class="st12" d="M448.85,171.7l-0.75-0.04C448.4,171.69,448.64,171.7,448.85,171.7z"/>
						<path class="st12" d="M403.03,171.7c-0.41-0.02-0.54-0.06-1.1-0.02c0.05,0.01,0.1,0.02,0.17,0.03
							C402.31,171.67,402.57,171.65,403.03,171.7z"/>
						<path class="st12" d="M386.74,171.7c0.09,0.02,0.2,0.04,0.3,0.06c0.16-0.01,0.35-0.01,0.52-0.01L386.74,171.7z"/>
						<path class="st12" d="M71.23,173.68c-0.36-0.08-0.58-0.17-0.75-0.25C70.73,173.63,68.33,173.7,71.23,173.68z"/>
						<path class="st12" d="M620.79,173.19c-0.1,0.07-0.23,0.11-0.48,0.12c0.19,0,0.37-0.01,0.54-0.02
							C620.9,173.26,620.91,173.22,620.79,173.19z"/>
						<path class="st12" d="M402.37,173.91l-2.59-0.04C400.51,173.9,401.45,173.91,402.37,173.91z"/>
						<path class="st12" d="M188.15,173.64l-0.59,0.03C187.78,173.68,187.99,173.68,188.15,173.64z"/>
						<path class="st12" d="M392.1,173.91c-0.46-0.1-0.95-0.16-1.46-0.19c-0.11,0.02-0.23,0.04-0.3,0.07L392.1,173.91z"/>
						<path class="st12" d="M70.47,173.43C70.48,173.43,70.48,173.43,70.47,173.43C70.48,173.43,70.48,173.43,70.47,173.43z"/>
						<path class="st12" d="M53.42,174.1c2.47,0.01,1.16-0.36,1.68-0.57c2.94-0.1,1.36,0.27,2.37,0.46c1.84-0.1,3.25-0.44,4.62-0.42
							c0.1,0.06,0.37,0.08,0.06,0.16c1.94-0.29,5.77-0.01,8.04-0.38c0.17,0.03,0.25,0.06,0.3,0.09c-0.37-0.19-0.42-0.37-0.35-0.51
							c1.11-0.01,2.05-0.23,2.47,0.01c-0.68-0.01-0.73,0.09-1.05,0.17l1.16-0.1c1.04,0.35-1.58,0.12-1.58,0.38
							c2.26-0.11,4.89-0.4,6.63-0.3c0.36,0.34-4.05,0.11-1.74,0.42l-2.68-0.13c2.05,0.54-1.63-0.04,0.25,0.54
							c3.53,0.1,3.94-0.17,7.46-0.07c0.79-0.19-0.26-0.28,0.53-0.47c5-0.34,3.94,0.85,7.61,0.4c0.95-0.23,1.32-0.66,3.94-0.43
							l-0.89,0.38c3.41,0.04,1.95-0.55,5.52-0.29c-0.64,0.15-2.68,0.13-2.17,0.17c2.32,0.3,1.64-0.22,3.42-0.22l0.37,0.34
							c3.63-0.05,7.64-0.3,11.66-0.36c-0.22,0.1-0.91,0.21,0.03,0.31c5.08-0.17,10.84,0.04,15.74,0.24l1.87-0.29
							c0.43,0,0.81,0.13,0.34,0.19c1.91,0.11,0.1-0.19,1.02-0.3c1.09-0.02,1.43,0.17,0.75,0.26c3.37-0.25,9.59-0.54,13.14-0.22
							l-0.69,0.09c2.76,0.12,3.12-0.6,5.68-0.33l-0.49,0.05c6,0.13,12.62-0.14,17.2,0.3c0.87-0.42,5.94,0.19,6.32-0.4
							c3.42,0.29,2.44,0.4,7.27,0.59c1.29,0.03,1.92-0.37,3.51-0.43l0.04,0.31l2.16-0.32l1.15,0.37l1.49-0.08
							c-0.6-0.02-1.26-0.14-1.17-0.23c2.33-0.14,5.69,0.21,5.75,0.37l5.52-0.26c-0.12,0.12-1.05,0.17-1.78,0.25
							c2.95-0.31,0.54,0.32,3.24,0.04c-0.36-0.07,0.2-0.18,0.26-0.25c1.35,0.19,4.41,0.19,6.68,0.11l-0.44,0.21
							c4.09,0.05,8.63-0.1,13.23-0.1c-1.65-0.1-1.27-0.47,0.08-0.5l0.54,0.33c0.87-0.2-1.41-0.12,0.38-0.37
							c1.72,0.04,1.15,0.37,0.17,0.48l2.09-0.11c0.12,0.1-0.37,0.15-0.49,0.27c0.86-0.2,3.6,0.33,4.84-0.02l0.12,0.1
							c4.59,0,6.68-0.11,10.42-0.13c0.07-0.28,1.54-0.22,2.65-0.45c2.75,0.09,5.8,0.31,9.11,0.29c2.33-0.14,0.68-0.24,1.73-0.41
							c0.17,0.26,3.48,0.23,1.76,0.42c3.98-0.04,5.08-0.05,10.11-0.26c-0.55-0.1-1.16-0.15-0.84-0.24c0.91-0.04,2.08,0.11,1.95,0.23
							l-0.24,0.03c5.64-0.38,13.03,0.75,17.52,0.21l-0.25,0.03l4.66-0.28c2.14,0.04-1.29,0.19,0.3,0.35
							c5.03-0.43,7.94,0.06,12.09-0.22c3.21,0.76,11.37-0.05,15.7,0.43l-0.25-0.18c1.12-0.17,1.35,0.1,2.18,0.14
							c-0.12-0.14-1.21-0.16-0.52-0.26c9.47-0.21,19.55,0.26,29.26,0.42c3.55,0.05,2.02-0.92,6.49-0.5l-1.27,0.33
							c7.17-0.4,14.66,0.01,21.67-0.32c-0.42,0.08-0.43,0.18-1.12,0.17c1.48,0.24,5.48,0.01,5.51-0.18
							c1.09,0.02,0.25,0.18,0.93,0.28c1.49,0.14,3.73-0.31,4.52-0.07c0.13,0.04-0.42,0.08-0.69,0.1c0.97-0.12,4.51,0.03,3.59-0.25
							c2.63,0.13,5.04-0.12,7.14,0.04c1.37-0.31,4.51,0.15,4.94-0.29c-0.19,0.45,4.62,0.36,6.28,0.15
							c-0.56,0.14,1.45,0.14,0.79,0.33c1.9-0.01,3.64-0.09,3.31-0.32c3.5,0.54,7.04-0.44,9.01,0.26c5.64-0.24,10.87-0.41,15.95-0.51
							c-0.18,0.45-5.61,0.04-5.39,0.52c4.82-0.19,7.6-0.57,12.37-0.46c1.24,0.06-0.7,0.2-1.12,0.27c4.81-0.19,9.31,0.04,13.59-0.2
							c-0.01,0.04-0.47,0.09-0.91,0.12c0.84-0.01,1.96,0.07,1.87-0.14l-0.82,0.06c-1.35-0.3,3.35-0.62,3.5-0.78
							c-1.43,0.59,4.23,0.15,1.95,0.89c0.56-0.04,1.25-0.14,1.12-0.27c0.82,0.04,1.09,0.12,0.25,0.28c3.02-0.11,1.95-0.33,4.69-0.32
							c-0.01,0.1-0.56,0.14-0.85,0.25c1.39-0.19,2.78-0.39,5.09-0.3c-0.14,0.06,0.13,0.14-0.56,0.14c3.98-0.03,6.78-0.52,11.14-0.33
							c-1.29,0.43,1.48,0.14,1.71,0.52l2.34-0.11l-0.94-0.18c2.05,0.01,3.87-0.27,5.64-0.14l-1.53,0.15l3.85-0.07l-2.18-0.14
							c2.08-0.19-0.22-0.47,2.51-0.37c-0.56,0.04,2.05,0,3.13,0.22c0,0-0.01,0-0.01,0c1.02-0.12,2.06-0.24,3.58-0.15
							c0.39,0.12-0.32,0.41-0.06,0.49c1-0.31,4.81-0.09,6.08-0.42c-0.42,0.08-0.45,0.27-0.31,0.31l0.84-0.25
							c0.95,0.08,1.09,0.12,0.94,0.28c2.86,0.05-0.91-0.47,2.49-0.27c-0.27,0.02-0.14,0.06-0.69,0.1c3.41,0.11,6.59-0.16,9.73-0.04
							c0.92,0.38-2.74,0.09-1.68,0.41c4.52-0.07,9.36-0.45,13.73-0.36l-0.82-0.04c0.61-0.53,3.26,0.26,5.47,0.01
							c-0.54,0.04-0.71,0.29-0.56,0.24c3,0.09,6.12-0.13,10.66-0.3l-0.56,0.14c1.77,0.12,4.65,0.07,6.56,0.13
							c0.57-0.14,1.66-0.11,0.99-0.31c5.88,0.78,11.22-0.42,16.43,0.23c-0.62,0-1.49,0.12-0.99,0.12l4.44-0.13
							c-0.35-0.23-0.58-0.14-1.52-0.32c0.56-0.14,1.82-0.24,2.92-0.24c-2,0.15,0.02,0.37,0.88,0.5c-0.14-0.07,0.15-0.15,0.08-0.22
							c2.32,0.41,0.39-0.46,3.56-0.19l-0.17,0.12c1.19-0.06,2.28-0.22,3.56-0.19c0.53,0.27-1.26,0.12-1.34,0.34
							c1.8-0.02,3.54-0.51,5.17-0.24c-0.76,0.07-1.86,0.08-2.62,0.15c1.77,0.31,1.98,0.23,3.29,0.28l-0.13-0.01l3.04,0.14
							l-0.77-0.09c2.25-0.7,4.58-0.13,7.61-0.58c-2.94,0.43-0.49,0.25-0.71,0.55c0.77,0.08,1.95,0.18,1.61,0.26
							c1.43-0.24,2.39,0.19,4.41-0.16c0.09,0.1,1.53,0.01,1.21,0.25c1.86-0.08-0.44-0.17-0.28-0.29c2.87-0.33,6.74,0.4,10.87-0.05
							c3.56-0.19,4.22-0.52,7.52-0.68c1.11,0.16-0.91,0.36-0.91,0.36c1.8,0.14,3.15,0.12,4.84,0.01c-0.34,0.09,0.01,0.16,0.53,0.27
							c1.36-0.03,0.91-0.35,2.7-0.21c-0.31,0.11-0.7,0.28-1.36,0.39c1.6-0.09,3.18-0.27,4.84-0.36c0.44,0.17-1,0.26-1.59,0.37
							c1.86-0.08,4.83-0.15,5.41-0.42l-1.2-0.1c0.68-0.01,0.35,0.23-0.15,0.28c-1.6,0.21-2.3-0.09-2.39-0.19l1.18-0.06
							c-1.21-0.57-4.74,0.09-7.12,0.06l0.99-0.42l-2.44,0.35c-0.52-0.11-0.87-0.34,0.3-0.4c-1.7-0.21-1.51,0.15-2.97-0.08
							c-0.16-0.04-0.09-0.06,0.06-0.07l-1.67,0.12c0.33-0.09-0.28-0.29,0.75-0.23c-2.99-0.24-4.82,0.31-5.95,0l0.25-0.03
							c-4.15,0.14-0.4,0.31-3.51,0.66l-2.09-0.75l-0.41,0.31c-0.43-0.01-1.27-0.03-1.12-0.16c-1.59,0.21,0.27,0.13-0.65,0.33
							c-2.06-0.28-5.68,0.13-6.14-0.36c-0.74,0.23,1.97,0.18-0.23,0.34c-0.63-0.52-2.54,0.09-4.42-0.15
							c0.58-0.27,2.36-0.13,0.48-0.37c-1.14,0.46-3.66-0.1-5.25-0.01c-0.07,0.36-3.45,0.15-6.11,0.27c0.17-0.12-5.01-0.2-7.49-0.33
							l0.07-0.06c-0.48,0.37-3.04,0.3-4.9,0.37c0.07-0.22,0.41-0.31,1.42-0.4l-1.75,0c-0.41,0.12-0.96,0.18-2.09,0.22l0.44-0.27
							c-2.33,0.02-4.69,0.32-7.68,0.14c-0.17,0.26,2.38,0.71-0.79,0.88c-0.12-0.14-0.23-0.38,0.59-0.43
							c-0.27,0.02-0.97,0.12-1.52,0.06l1.27-0.23c-1.36-0.1-0.71,0.19-1.8,0.17c0.02-0.2-0.81-0.14-0.65-0.3
							c0.28-0.02,0.95,0.08,1.37,0c-1.23-0.04-2.72-0.15-3.21-0.3c0.11,0.11,0,0.27-0.9,0.29c-2.33,0.01-0.8-0.24-2.15-0.34
							c-0.56,0.14-2.05-0.01-2.09,0.29c-0.68,0-0.81-0.14-1.07-0.22c-1.2,0.13-5.63,0.04-4.27,0.35l0.31,0.02
							c-0.06,0.01-0.13,0.01-0.2,0.01c0.01,0,0,0,0.01,0h-0.01c-3.95,0.29-8.2-0.17-12.12-0.04l0.01-0.1
							c-2.34,0.11-5.21,0.07-6.88,0.28c-0.69,0-1.63-0.18-1.34-0.3c-1.79,0.07-1.99,0.19-4.57,0.02c1.8-0.17-0.62-0.15,1.84-0.13
							c-2.32-0.09-2.85-0.24-5.34,0.03c0.85-0.25-1.75-0.32-2.85-0.24l1.63,0.18c-1.24,0.04-2.33,0.01-3.43-0.01l0.6-0.33
							c-4.75-0.4-8.57,0.69-12.19,0.01c-1.26,0.23,2.58,0.16,1.46,0.44c-2.19-0.04-4.47-0.52-5.15-0.52c-3-0.18-2.8,0.49-5.93,0.36
							c0.4,0.12,0.78,0.44-1.56,0.55c-2.19-0.04-2.69-0.5-1.31-0.59c0.52-0.01,0.78,0.03,0.76,0.07c0.71-0.04,1.63-0.09,0.77-0.22
							l-0.28,0.12c-1.09-0.12-4.1-0.11-3.39-0.3c-1.65,0.11-0.71,0.19,0.52,0.26c-2.81-0.17-4.39-0.01-7.27-0.12
							c0.46,0.07,0.88,0.2,0.43,0.2c-4.24-0.15-1.87,0.23-4.74,0.28c-1.63-0.18,0.58-0.43-2.31-0.28c-1.77-0.12-0.37-0.31,0.33-0.41
							c-2.63,0.23-4.92-0.15-6.43-0.19l1.39-0.1c-0.83,0.06-1.51,0.06-2.2,0.05l0.79,0.24c-0.81-0.04-1.5-0.04-1.49-0.14
							c-0.84,0.16,0.64,0.39-1.02,0.61c-1.09-0.12-3.31,0.13-3.68-0.19c3.42,0.11-0.38-0.32,2.51-0.37
							c-0.56,0.04-1.24,0.04-2.05-0.01c-0.12-0.04,0.12-0.07,0.34-0.08c-3.27-0.28-1.5,0.36-4.89,0.35c0.43-0.18-0.79-0.34-1.34-0.3
							c1.36,0,0.65,0.3-0.6,0.43c-2.17-0.14-2.36,0.1-3.5,0.09l1.3,0.07c-0.44,0.18-1.53,0.15-3.04,0.21
							c-0.13-0.14,1.37-0.1,0.83-0.16c-1.68,0.31-3.8-0.32-6.14-0.11c-1.09-0.12-0.11-0.33-1.06-0.41
							c-2.63,0.23-2.84-0.24-5.61-0.05c0.8,0.24,0.93,0.18-1.01,0.41l4.54-0.17l-2.91,0.35c1.37,0,2.89-0.15,3.71-0.11
							c-1.39,0.19-1.25,0.14-0.59,0.33c-1.87-0.36-3.72,0.21-5.88-0.03l0.07-0.59c-3.26-0.26-5.79,0.3-10.02,0.15l1.36,0.1
							c-0.57,0.23-2.61,0.03-3.98,0.13c0.13-0.2-0.73-0.27-1.31-0.39c0.07,0.15-3.1-0.01-3.48,0.38l-1.89-0.26
							c-3.42-0.11-3.9,0.56-7.18,0.5c0.99-0.21-0.5-0.35,1.7-0.51c-1.1,0-2.08-0.04-2.1,0.1c-0.64-0.12-3.04,0.27-4.05,0.08
							c-0.46,0.09-0.61,0.29-1.84,0.28c-0.13-0.04,0-0.1,0-0.1c0,0.1-1.93,0.13-0.85,0.35c-3.38-0.62-9.44,0.04-12.38-0.48
							c-2.39,0.07-5.27,0.13-7.45,0.14c0.14-0.06,0.01-0.1,0.42-0.08c-3-0.18-1.84,0.57-5.25,0.36c-1.74-0.32,1.81-0.17,0.72-0.29
							c-0.47-0.65-4.11,0.09-6.41-0.29l0.56-0.04c-1.75-0.22-4.28,0.25-7.14,0.2c0,0,0.14-0.06,0.02-0.1
							c-1.96,0.33-5.67,0.44-8.42,0.53c0.86-0.25,1.25-0.13,0.73-0.39c-1.24,0.04,0.36,0.41-2.1,0.49c-0.8-0.14-2.58-0.26-2.82-0.54
							l2.33-0.01c-1.19-0.36-3.01,0.01-4.24-0.05l0.16-0.16c-3.57,0.05-3.61,0.44-7.45,0.42l0.4,0.12
							c-2.09,0.39-1.76-0.22-3.84,0.07l-0.63-0.39c-1.38,0.1-4.84,0.38-7.32,0.46c1.4-0.29,4.3-0.44,6.1-0.62
							c-1.37,0-4.65,0.03-5.37,0.22c0.55-0.04,1.25-0.13,1.79-0.07c-1.68,0.31-3.89,0.46-6.62,0.46c0.48-0.77-7.11-0.19-9.09-0.79
							c-4.83,0.28-9.58-0.12-15.2-0.08c1.99,0.6-1.64,0.02-1.3,0.63c-1.31,0.04-1.81,0.03-1.93-0.01l-3.97-0.37
							c-0.94-0.18,1.25-0.13,1.13-0.27c-2.87-0.05-1.2-0.26-3.1-0.42c0.39,0.22-1,0.31-2.63,0.23l2.3,0.28
							c-4.01,0.33-3.46-0.51-7.51-0.19l1.28-0.19c-2.07,0.11-7.65,0-9.68,0.49c-0.37-0.07-0.85-0.24,0.06-0.28
							c-4.96-0.07-11.03,0.52-14.88,0.22l0.38-0.15c-0.92,0.04-1.61,0.28-2.77,0.13c0.06-0.06,0.37-0.15-0.06-0.16
							c-0.49,0.05-2.46,0.26-3.68,0.17l1.05-0.17c-4.83-0.2-7.42,0.41-11.47,0.51c0.01-0.44-3.79-0.58-5.69-0.65l0.07-0.06
							c-5.63-0.05-9.56,0.36-14.77,0.54c-3.24-0.48-10.96-0.2-16.16-0.47c0.79,0.08-0.13,0.34-1.05,0.39
							c-1.22-0.09-3.37,0.31-3.18-0.1l0.44,0.01c-0.92-0.4-3.43-0.29-5.39-0.3l-0.32,0.53c-5.12-0.77-13.42,0.28-16.21-0.41
							c-1.24,0.13-2.77,0.13-3.99,0.26l0.07-0.28c-3.42-0.07-5.13-0.11-9.37-0.04l0.86-0.2c-2.39-0.02-3.01,0.82-5.22,0.83
							l-0.66-0.42c-4.17,0.01-8.38-0.36-12.5,0.02c0.07-0.06,0.19-0.18,0.86-0.2c-1.96-0.01-7.58-0.29-6.87,0.29
							c-0.05-0.38-4.3-0.04-6.55,0.13l0.35-0.28c-1.9,0.36-1.96,0.45-4.61,0.55c-0.63-0.04-0.55-0.22,0.28-0.15
							c-2.09-0.15-1.63,0.26-4.17,0.12l0.95-0.18c-2.15-0.02-1.98,0.07-3.17,0.28c-1.35,0.11-4.09-0.07-4.4-0.32
							c-0.29,0.15-1.47,0.36-2.74,0.29c-0.17-0.1,0.29-0.15,0.52-0.18c-3.6-0.19-5.36,0.32-7.83,0.05
							c-0.05-0.09-0.21-0.14-0.42-0.17c2.86,0.01,5.17,0.02,4.95,0.04c0-0.26-2.31-0.3-0.47-0.66c-1.86,0.19-5.03,0.61-7.28,0.49
							c-0.11-0.02-0.22-0.05-0.3-0.09l0.23-0.03c-0.52-0.03-0.99,0-1.42,0.04c-0.72-0.04-1.18-0.07-1.87-0.08
							c-0.27-0.21-2.65-0.11-3.8-0.13c0.1,0.28-1.41,0.24,0,0.47c-0.18-0.02,0.22-0.03,0.98-0.05c0.17-0.01,0.38-0.01,0.49-0.03
							c-0.02,0.01-0.05,0.02-0.08,0.02c0.76-0.01,1.74-0.01,2.86-0.02c-0.91,0.14-1.86,0.26-3.14,0.11
							c-0.59,0.18-1.24,0.37-1.61,0.45c-1.58-0.39-4.62-0.6-5.04-0.85c-3.52,0.16-8.29,0.1-10.5,0.63c-1,0.07-1.15-0.15-1.52-0.23
							c0.58-0.05,1.26-0.04,1.58-0.12c-2,0.14-5.93,0.05-6.4,0.42c-2.52-0.17,1.42-0.34-2.05-0.28l0.47-0.11
							c-6.82-0.59-11.08,0.94-18.64,0.18c0.52,0.05,0.79,0.07,0.89,0.13c-8.62-0.33-17.75,0.31-26.26-0.22
							c-2.42-0.11-2.68,0.13-4.15,0.31l-0.52-0.3l-2.52,0.35c-3.58,0.26-6.19-0.74-10.72-0.26l0.58,0.2
							c-1.63-0.04-5.15,0.12-4.88-0.11c-0.17,0.04-0.53,0.21-1.17,0.11l-0.05-0.16l-3.99,0.27c-3.1-0.11,0.48-0.63-4.03-0.66
							c-1.68,0.06-4.78,0.46-4.15,0.57c0.68,0.01,1.73,0.1,1.78,0.26l-1.54,0.08c-0.28,0.47-1.46,0.94,2.31,1.27l2.63-0.28
							l0.85,0.23l-2.21,0.01c1.25,0.21,2.05,0.02,2.94-0.1c0.21,0.12,0.58,0.2,1.1,0.25l2.58-0.44c0.31,0.18-1.16,0.36,0.57,0.46
							c1.21-0.21-1.16-0.41,0.84-0.54c1.26,0.21,0.89,0.38,2.37,0.2c0.21,0.12-0.11,0.2-0.69,0.25c1.31-0.14,3.48-0.06,4.15-0.31
							c1.31,0.26,4.43-0.07,4.3,0.37c0.41-0.11,2.31-0.35,3.52-0.36c-2.2,0.53,4.52,0.03,3.93,0.6c1.63-0.47,5.89-0.21,8.78-0.47
							c-0.16,0.04-0.48,0.11-0.73,0.09c1.63,0.04,2.1,0.18,3.14,0.27c0.21-0.39,2.74-0.48,4.11-0.72c1.99,0.38-1.21,0.46-0.58,0.82
							c-0.1-0.32,3.46-0.32,2.78-0.58c1.52,0.23,1.31,0.11,2.1,0.44c0.27-0.49,1.42-0.08,2.68-0.38c2.21,0.24,0.57,0.46,2.99,0.31
							C55.57,173.92,53.42,174.1,53.42,174.1z M111.04,173.25C111.04,173.25,111.04,173.25,111.04,173.25
							c-0.5,0.01-0.92,0.02-1.19,0.02C110.1,173.27,110.44,173.26,111.04,173.25z M115.89,173.24c-0.59-0.01-1.32-0.01-2.1-0.01
							c-0.17-0.1,0.01-0.2,0.5-0.19C114.02,173.11,115.16,173.16,115.89,173.24z M105.64,171.3c0.77-0.04,1.02,0.02,1.13,0.07
							c-0.36,0-0.79,0.01-1.34,0.03c-0.02,0.01-0.07,0.02-0.09,0.03C105.41,171.38,105.5,171.33,105.64,171.3z"/>
						<path class="st12" d="M104.26,171.67c-0.11,0.01-0.17,0.02-0.32,0.02c0.16,0.02,0.31,0.05,0.46,0.06
							c0.09-0.03,0.19-0.06,0.27-0.09C104.54,171.66,104.39,171.66,104.26,171.67z"/>
						<path class="st12" d="M543.25,172.08l-0.1-0.01c0.08,0.01,0.16,0.02,0.21,0.04C543.3,172.1,543.3,172.09,543.25,172.08z"/>
						<polygon class="st12" points="182.76,173.78 182.75,173.71 182.33,173.77 						"/>
						<path class="st12" d="M569.93,173.05c0.05,0.02,0.15,0.05,0.35,0.07C570.26,173.1,570.11,173.07,569.93,173.05z"/>
						<path class="st12" d="M581.45,173.11l1.63,0.1C582.37,173.15,581.86,173.13,581.45,173.11z"/>
						<path class="st12" d="M590.31,173.25c0.11-0.05,0.14-0.09,0.17-0.12c-0.01,0-0.01,0-0.02,0L590.31,173.25z"/>
						<path class="st12" d="M449.46,173.58c-0.12,0-0.24,0.01-0.34,0.01C448.32,173.65,448.86,173.63,449.46,173.58z"/>
						<path class="st12" d="M491.37,172.92c-0.44,0.05-0.88,0.1-1.35,0.13C490.77,173.08,491.35,173.08,491.37,172.92z"/>
						<path class="st12" d="M402.66,173.92C402.66,173.92,402.66,173.92,402.66,173.92c-0.1,0-0.18,0-0.28,0L402.66,173.92z"/>
						<path class="st12" d="M488.08,173.05c0.75,0.06,1.37,0.04,1.95,0C489.41,173.04,488.69,173.01,488.08,173.05z"/>
						<path class="st12" d="M628.7,173.38l0.43,0.01c-0.01-0.02,0.02-0.03,0.05-0.05L628.7,173.38z"/>
						<path class="st12" d="M629.18,173.34l0.47-0.03C629.43,173.31,629.24,173.31,629.18,173.34z"/>
						<path class="st12" d="M630.65,173.24l-1,0.07C630,173.31,630.42,173.32,630.65,173.24z"/>
						<path class="st12" d="M616.97,173.25l-0.13,0.1C616.91,173.33,616.96,173.29,616.97,173.25z"/>
						<path class="st12" d="M613.41,173.28c0.85,0.02,2.13,0.22,3.32,0.15l0.11-0.08C616.28,173.5,614.22,173.1,613.41,173.28z"/>
						<path class="st12" d="M598.53,172.02l2.99,0.08c-0.52-0.11-1.21-0.25,0.15-0.28C597.91,171.49,602.45,172.06,598.53,172.02z"
							/>
						<path class="st12" d="M589.27,171.86c1.6-0.05-0.02-0.16,0.07-0.22C588.32,171.74,588.08,171.76,589.27,171.86z"/>
						<path class="st12" d="M522.36,171.86l0.16-0.26C521.29,171.64,522.51,171.7,522.36,171.86z"/>
						<polygon class="st12" points="509.57,173.18 510.77,173.34 511.35,173.1 						"/>
						<polygon class="st12" points="502.02,171.36 502.56,171.32 500.49,171.41 						"/>
						<path class="st12" d="M389.64,171.45l0.37,0.32C390.85,171.71,391.02,171.35,389.64,171.45z"/>
						<path class="st12" d="M341.12,171.77c-0.53-0.16-1.89-0.26-2.73-0.1C339.48,171.69,340.57,171.81,341.12,171.77z"/>
						<polygon class="st12" points="195.62,171.26 196.6,171.15 194.76,171.24 						"/>
					</g>
				</g>
			</g>
		</g>
	</g>
	<g>
		<g>
			<g>
				<g>
					<g>
						<path class="st12" d="M639.56,235.67c0.34-0.09,0.15-0.28-0.78-0.24l-0.66,0.33L639.56,235.67z"/>
						<path class="st12" d="M633.31,235.05c-1.09,0.16-2.35,0.44-1.64,0.75c1.08-0.32,1.34-0.19,2.51-0.56
							c0.93-0.04,1.62,0.11,1.46,0.23c0.33-0.08,1.44,0.07,1.94-0.13c-1.21-0.26-2.74-0.27-4.34-0.05
							C632.9,235.2,633.24,235.11,633.31,235.05z"/>
						<path class="st12" d="M542.57,234.54l0.58,0.04C542.99,234.55,542.79,234.54,542.57,234.54z"/>
						<path class="st12" d="M486.34,234.35c0.43-0.01,0.61-0.04,0.63-0.07C486.57,234.31,486.25,234.33,486.34,234.35z"/>
						<path class="st12" d="M476.74,233.99c0.21,0.01,0.38,0.02,0.57,0.02C477.09,233.98,476.87,233.97,476.74,233.99z"/>
						<path class="st12" d="M542.57,234.54l-1.5-0.1C540.96,234.54,541.83,234.51,542.57,234.54z"/>
						<path class="st12" d="M620.8,235.85c0.31-0.02,0.58-0.05,0.82-0.09c-0.26,0.01-0.51,0.03-0.77,0.03
							C620.84,235.82,620.82,235.83,620.8,235.85z"/>
						<path class="st12" d="M567.35,234.27l0.46,0c0.13-0.04,0.26-0.08,0.38-0.13L567.35,234.27z"/>
						<path class="st12" d="M586.37,234.22c-0.43-0.01-0.58,0.27-0.74,0.39c0.24-0.12,0.56-0.17,0.94-0.19
							C586.58,234.36,586.52,234.3,586.37,234.22z"/>
						<path class="st12" d="M616.54,234.71l0.54-0.04C616.93,234.69,616.7,234.7,616.54,234.71z"/>
						<path class="st12" d="M553.74,234.21c-0.03-0.04-0.1-0.08-0.17-0.1C553.56,234.14,553.63,234.18,553.74,234.21z"/>
						<path class="st12" d="M21.7,236.32c0.02-0.02-0.01-0.03,0-0.05C21.59,236.3,21.55,236.32,21.7,236.32z"/>
						<path class="st12" d="M-0.35,234.93l0.31-0.02c0.03-0.05,0.07-0.11,0.07-0.16L-0.35,234.93z"/>
						<path class="st12" d="M459.17,233.63c0.03,0,0.05,0,0.08,0.01C459.71,233.6,459.45,233.61,459.17,233.63z"/>
						<path class="st12" d="M297.89,233.84c1.83,0.25-2.97,0.32-0.22,0.6C297.41,234.33,300.17,234,297.89,233.84z"/>
						<path class="st12" d="M620.31,235.81c-0.26,0-0.52,0.01-0.78,0C619.88,235.83,620.12,235.82,620.31,235.81z"/>
						<path class="st12" d="M297.67,234.44C297.67,234.44,297.67,234.44,297.67,234.44l0.28,0.03
							C297.83,234.46,297.77,234.45,297.67,234.44z"/>
						<path class="st12" d="M418.69,233.8c0.08,0.05,0.24,0.09,0.41,0.12C419.09,233.89,419,233.86,418.69,233.8z"/>
						<path class="st12" d="M448.85,234.2l-0.75-0.04C448.4,234.19,448.64,234.2,448.85,234.2z"/>
						<path class="st12" d="M403.03,234.2c-0.41-0.02-0.54-0.06-1.1-0.02c0.05,0.01,0.1,0.02,0.17,0.03
							C402.31,234.17,402.57,234.15,403.03,234.2z"/>
						<path class="st12" d="M386.74,234.2c0.09,0.02,0.2,0.04,0.3,0.06c0.16-0.01,0.35-0.01,0.52-0.01L386.74,234.2z"/>
						<path class="st12" d="M71.23,236.18c-0.36-0.08-0.58-0.17-0.75-0.25C70.73,236.13,68.33,236.2,71.23,236.18z"/>
						<path class="st12" d="M620.79,235.69c-0.1,0.07-0.23,0.11-0.48,0.12c0.19,0,0.37-0.01,0.54-0.02
							C620.9,235.76,620.91,235.72,620.79,235.69z"/>
						<path class="st12" d="M402.37,236.41l-2.59-0.04C400.51,236.4,401.45,236.41,402.37,236.41z"/>
						<path class="st12" d="M188.15,236.14l-0.59,0.03C187.78,236.18,187.99,236.18,188.15,236.14z"/>
						<path class="st12" d="M392.1,236.41c-0.46-0.1-0.95-0.16-1.46-0.19c-0.11,0.02-0.23,0.04-0.3,0.07L392.1,236.41z"/>
						<path class="st12" d="M70.47,235.93C70.48,235.93,70.48,235.93,70.47,235.93C70.48,235.93,70.48,235.93,70.47,235.93z"/>
						<path class="st12" d="M53.42,236.6c2.47,0.01,1.16-0.36,1.68-0.57c2.94-0.1,1.36,0.27,2.37,0.46c1.84-0.1,3.25-0.44,4.62-0.42
							c0.1,0.06,0.37,0.08,0.06,0.16c1.94-0.29,5.77-0.01,8.04-0.38c0.17,0.03,0.25,0.06,0.3,0.09c-0.37-0.19-0.42-0.37-0.35-0.51
							c1.11-0.01,2.05-0.23,2.47,0.01c-0.68-0.01-0.73,0.09-1.05,0.17l1.16-0.1c1.04,0.35-1.58,0.12-1.58,0.38
							c2.26-0.11,4.89-0.4,6.63-0.3c0.36,0.34-4.05,0.11-1.74,0.42l-2.68-0.13c2.05,0.54-1.63-0.04,0.25,0.54
							c3.53,0.1,3.94-0.17,7.46-0.07c0.79-0.19-0.26-0.28,0.53-0.47c5-0.34,3.94,0.85,7.61,0.4c0.95-0.23,1.32-0.66,3.94-0.43
							l-0.89,0.38c3.41,0.04,1.95-0.55,5.52-0.29c-0.64,0.15-2.68,0.13-2.17,0.17c2.32,0.3,1.64-0.22,3.42-0.22l0.37,0.34
							c3.63-0.05,7.64-0.3,11.66-0.36c-0.22,0.1-0.91,0.21,0.03,0.31c5.08-0.17,10.84,0.04,15.74,0.24l1.87-0.29
							c0.43,0,0.81,0.13,0.34,0.19c1.91,0.11,0.1-0.19,1.02-0.3c1.09-0.02,1.43,0.17,0.75,0.26c3.37-0.25,9.59-0.54,13.14-0.22
							l-0.69,0.09c2.76,0.12,3.12-0.6,5.68-0.33l-0.49,0.05c6,0.13,12.62-0.14,17.2,0.3c0.87-0.42,5.94,0.19,6.32-0.4
							c3.42,0.29,2.44,0.4,7.27,0.59c1.29,0.03,1.92-0.37,3.51-0.43l0.04,0.31l2.16-0.32l1.15,0.37l1.49-0.08
							c-0.6-0.02-1.26-0.14-1.17-0.23c2.33-0.14,5.69,0.21,5.75,0.37l5.52-0.26c-0.12,0.12-1.05,0.17-1.78,0.25
							c2.95-0.31,0.54,0.32,3.24,0.04c-0.36-0.07,0.2-0.18,0.26-0.25c1.35,0.19,4.41,0.19,6.68,0.11l-0.44,0.21
							c4.09,0.05,8.63-0.1,13.23-0.1c-1.65-0.1-1.27-0.47,0.08-0.5l0.54,0.33c0.87-0.2-1.41-0.12,0.38-0.37
							c1.72,0.04,1.15,0.37,0.17,0.48l2.09-0.11c0.12,0.1-0.37,0.15-0.49,0.27c0.86-0.2,3.6,0.33,4.84-0.02l0.12,0.1
							c4.59,0,6.68-0.11,10.42-0.13c0.07-0.28,1.54-0.22,2.65-0.45c2.75,0.09,5.8,0.31,9.11,0.29c2.33-0.14,0.68-0.24,1.73-0.41
							c0.17,0.26,3.48,0.23,1.76,0.42c3.98-0.04,5.08-0.05,10.11-0.26c-0.55-0.1-1.16-0.15-0.84-0.24c0.91-0.04,2.08,0.11,1.95,0.23
							l-0.24,0.03c5.64-0.38,13.03,0.75,17.52,0.21l-0.25,0.03l4.66-0.28c2.14,0.04-1.29,0.19,0.3,0.35
							c5.03-0.43,7.94,0.06,12.09-0.22c3.21,0.76,11.37-0.05,15.7,0.43l-0.25-0.18c1.12-0.17,1.35,0.1,2.18,0.14
							c-0.12-0.14-1.21-0.16-0.52-0.26c9.47-0.21,19.55,0.26,29.26,0.42c3.55,0.05,2.02-0.92,6.49-0.5l-1.27,0.33
							c7.17-0.4,14.66,0.01,21.67-0.32c-0.42,0.08-0.43,0.18-1.12,0.17c1.48,0.24,5.48,0.01,5.51-0.18
							c1.09,0.02,0.25,0.18,0.93,0.28c1.49,0.14,3.73-0.31,4.52-0.07c0.13,0.04-0.42,0.08-0.69,0.1c0.97-0.12,4.51,0.03,3.59-0.25
							c2.63,0.13,5.04-0.12,7.14,0.04c1.37-0.31,4.51,0.15,4.94-0.29c-0.19,0.45,4.62,0.36,6.28,0.15
							c-0.56,0.14,1.45,0.14,0.79,0.33c1.9-0.01,3.64-0.09,3.31-0.32c3.5,0.54,7.04-0.44,9.01,0.26c5.64-0.24,10.87-0.41,15.95-0.51
							c-0.18,0.45-5.61,0.04-5.39,0.52c4.82-0.19,7.6-0.57,12.37-0.46c1.24,0.06-0.7,0.2-1.12,0.27c4.81-0.19,9.31,0.04,13.59-0.2
							c-0.01,0.04-0.47,0.09-0.91,0.12c0.84-0.01,1.96,0.07,1.87-0.14L450.5,236c-1.35-0.3,3.35-0.62,3.5-0.78
							c-1.43,0.59,4.23,0.15,1.95,0.89c0.56-0.04,1.25-0.14,1.12-0.27c0.82,0.04,1.09,0.12,0.25,0.28c3.02-0.11,1.95-0.33,4.69-0.33
							c-0.01,0.1-0.56,0.14-0.85,0.25c1.39-0.19,2.78-0.39,5.09-0.3c-0.14,0.06,0.13,0.14-0.56,0.14c3.98-0.03,6.78-0.52,11.14-0.33
							c-1.29,0.43,1.48,0.14,1.71,0.52l2.34-0.11l-0.94-0.18c2.05,0.01,3.87-0.27,5.64-0.14l-1.53,0.15l3.85-0.07l-2.18-0.14
							c2.08-0.19-0.22-0.47,2.51-0.37c-0.56,0.04,2.05,0,3.13,0.22c0,0-0.01,0-0.01,0c1.02-0.12,2.06-0.24,3.58-0.15
							c0.39,0.12-0.32,0.41-0.06,0.49c1-0.31,4.81-0.09,6.08-0.42c-0.42,0.08-0.45,0.27-0.31,0.31l0.84-0.25
							c0.95,0.08,1.09,0.12,0.94,0.28c2.86,0.05-0.91-0.47,2.49-0.27c-0.27,0.02-0.14,0.06-0.69,0.1c3.41,0.11,6.59-0.16,9.73-0.04
							c0.92,0.38-2.74,0.09-1.68,0.41c4.52-0.07,9.36-0.45,13.73-0.36l-0.82-0.04c0.61-0.53,3.26,0.26,5.47,0.01
							c-0.54,0.04-0.71,0.29-0.56,0.24c3,0.09,6.12-0.13,10.66-0.3l-0.56,0.14c1.77,0.12,4.65,0.07,6.56,0.13
							c0.57-0.14,1.66-0.11,0.99-0.31c5.88,0.78,11.22-0.42,16.43,0.23c-0.62,0-1.49,0.12-0.99,0.12l4.44-0.13
							c-0.35-0.23-0.58-0.14-1.52-0.32c0.56-0.14,1.82-0.24,2.92-0.24c-2,0.15,0.02,0.37,0.88,0.5c-0.14-0.07,0.15-0.15,0.08-0.22
							c2.32,0.41,0.39-0.46,3.56-0.19l-0.17,0.12c1.19-0.06,2.28-0.22,3.56-0.19c0.53,0.27-1.26,0.12-1.34,0.34
							c1.8-0.02,3.54-0.51,5.17-0.24c-0.76,0.07-1.86,0.08-2.62,0.15c1.77,0.31,1.98,0.23,3.29,0.28l-0.13-0.01l3.04,0.14
							l-0.77-0.08c2.25-0.7,4.58-0.13,7.61-0.58c-2.94,0.43-0.49,0.25-0.71,0.55c0.77,0.08,1.95,0.18,1.61,0.26
							c1.43-0.24,2.39,0.19,4.41-0.16c0.09,0.1,1.53,0.01,1.21,0.25c1.86-0.08-0.44-0.17-0.28-0.29c2.87-0.33,6.74,0.4,10.87-0.05
							c3.56-0.19,4.22-0.52,7.52-0.68c1.11,0.16-0.91,0.36-0.91,0.36c1.8,0.14,3.15,0.12,4.84,0.01c-0.34,0.09,0.01,0.16,0.53,0.27
							c1.36-0.03,0.91-0.35,2.7-0.21c-0.31,0.11-0.7,0.28-1.36,0.39c1.6-0.09,3.18-0.27,4.84-0.36c0.44,0.17-1,0.26-1.59,0.37
							c1.86-0.08,4.83-0.15,5.41-0.42l-1.2-0.1c0.68-0.01,0.35,0.23-0.15,0.28c-1.6,0.21-2.3-0.09-2.39-0.19l1.18-0.06
							c-1.21-0.57-4.74,0.09-7.12,0.06l0.99-0.42l-2.44,0.35c-0.52-0.11-0.87-0.34,0.3-0.4c-1.7-0.21-1.51,0.15-2.97-0.08
							c-0.16-0.04-0.09-0.06,0.06-0.07l-1.67,0.12c0.33-0.09-0.28-0.29,0.75-0.23c-2.99-0.24-4.82,0.31-5.95,0l0.25-0.03
							c-4.15,0.14-0.4,0.31-3.51,0.66l-2.09-0.75l-0.41,0.31c-0.43-0.01-1.27-0.03-1.12-0.16c-1.59,0.21,0.27,0.13-0.65,0.33
							c-2.06-0.28-5.68,0.13-6.14-0.36c-0.74,0.23,1.97,0.18-0.23,0.34c-0.63-0.52-2.54,0.09-4.42-0.15
							c0.58-0.27,2.36-0.13,0.48-0.37c-1.14,0.46-3.66-0.1-5.25-0.01c-0.07,0.36-3.45,0.15-6.11,0.27c0.17-0.12-5.01-0.2-7.49-0.33
							l0.07-0.06c-0.48,0.37-3.04,0.3-4.9,0.37c0.07-0.22,0.41-0.31,1.42-0.4l-1.75,0c-0.41,0.12-0.96,0.18-2.09,0.22l0.44-0.27
							c-2.33,0.02-4.69,0.32-7.68,0.14c-0.17,0.26,2.38,0.71-0.79,0.88c-0.12-0.14-0.23-0.38,0.59-0.43
							c-0.27,0.02-0.97,0.11-1.52,0.06l1.27-0.23c-1.36-0.1-0.71,0.19-1.8,0.17c0.02-0.2-0.81-0.14-0.65-0.3
							c0.28-0.02,0.95,0.08,1.37,0c-1.23-0.04-2.72-0.15-3.21-0.3c0.11,0.11,0,0.27-0.9,0.29c-2.33,0.01-0.8-0.24-2.15-0.34
							c-0.56,0.14-2.05-0.01-2.09,0.29c-0.68,0-0.81-0.14-1.07-0.22c-1.2,0.13-5.63,0.04-4.27,0.35l0.31,0.02
							c-0.06,0.01-0.13,0.01-0.2,0.01c0.01,0,0,0,0.01,0h-0.01c-3.95,0.29-8.2-0.17-12.12-0.04l0.01-0.1
							c-2.34,0.11-5.21,0.07-6.88,0.28c-0.69,0-1.63-0.18-1.34-0.3c-1.79,0.07-1.99,0.19-4.57,0.02c1.8-0.17-0.62-0.15,1.84-0.13
							c-2.32-0.09-2.85-0.24-5.34,0.03c0.85-0.25-1.75-0.32-2.85-0.24l1.63,0.18c-1.24,0.04-2.33,0.01-3.43-0.01l0.6-0.33
							c-4.75-0.4-8.57,0.69-12.19,0.01c-1.26,0.23,2.58,0.16,1.46,0.44c-2.19-0.04-4.47-0.52-5.15-0.52c-3-0.18-2.8,0.49-5.93,0.36
							c0.4,0.12,0.78,0.44-1.56,0.55c-2.19-0.04-2.69-0.5-1.31-0.59c0.52-0.01,0.78,0.03,0.76,0.07c0.71-0.04,1.63-0.09,0.77-0.22
							l-0.28,0.12c-1.09-0.12-4.1-0.11-3.39-0.3c-1.65,0.11-0.71,0.19,0.52,0.26c-2.81-0.17-4.39-0.01-7.27-0.12
							c0.46,0.07,0.88,0.2,0.43,0.2c-4.24-0.15-1.87,0.23-4.74,0.28c-1.63-0.18,0.58-0.43-2.31-0.28c-1.77-0.12-0.37-0.31,0.33-0.41
							c-2.63,0.23-4.92-0.15-6.43-0.19l1.39-0.1c-0.83,0.06-1.51,0.06-2.2,0.05l0.79,0.24c-0.81-0.04-1.5-0.04-1.49-0.14
							c-0.84,0.16,0.64,0.39-1.02,0.61c-1.09-0.12-3.31,0.13-3.68-0.19c3.42,0.11-0.38-0.32,2.51-0.37
							c-0.56,0.04-1.24,0.04-2.05-0.01c-0.12-0.04,0.12-0.07,0.34-0.08c-3.27-0.28-1.5,0.36-4.89,0.35c0.43-0.18-0.79-0.34-1.34-0.3
							c1.36,0,0.65,0.3-0.6,0.43c-2.17-0.14-2.36,0.1-3.5,0.09l1.3,0.07c-0.44,0.18-1.53,0.15-3.04,0.21
							c-0.13-0.14,1.37-0.1,0.83-0.16c-1.68,0.31-3.8-0.32-6.14-0.11c-1.09-0.12-0.11-0.33-1.06-0.41
							c-2.63,0.23-2.84-0.24-5.61-0.05c0.8,0.24,0.93,0.18-1.01,0.41l4.54-0.17l-2.91,0.35c1.37,0,2.89-0.15,3.71-0.11
							c-1.39,0.19-1.25,0.14-0.59,0.33c-1.87-0.36-3.72,0.21-5.88-0.03l0.07-0.59c-3.26-0.26-5.79,0.3-10.02,0.15l1.36,0.1
							c-0.57,0.23-2.61,0.03-3.98,0.13c0.13-0.2-0.73-0.27-1.31-0.39c0.07,0.15-3.1-0.01-3.48,0.38l-1.89-0.26
							c-3.42-0.11-3.9,0.56-7.18,0.5c0.99-0.21-0.5-0.35,1.7-0.51c-1.1,0-2.08-0.04-2.1,0.1c-0.64-0.12-3.04,0.27-4.05,0.08
							c-0.46,0.09-0.61,0.29-1.84,0.28c-0.13-0.04,0-0.1,0-0.1c0,0.1-1.93,0.13-0.85,0.35c-3.38-0.62-9.44,0.04-12.38-0.48
							c-2.39,0.07-5.27,0.13-7.45,0.14c0.14-0.06,0.01-0.1,0.42-0.08c-3-0.18-1.84,0.57-5.25,0.36c-1.74-0.32,1.81-0.17,0.72-0.29
							c-0.47-0.65-4.11,0.09-6.41-0.29l0.56-0.04c-1.75-0.22-4.28,0.25-7.14,0.2c0,0,0.14-0.06,0.02-0.1
							c-1.96,0.33-5.67,0.44-8.42,0.53c0.86-0.25,1.25-0.13,0.73-0.39c-1.24,0.04,0.36,0.41-2.1,0.49c-0.8-0.14-2.58-0.26-2.82-0.54
							l2.33-0.01c-1.19-0.36-3.01,0.01-4.24-0.05l0.16-0.16c-3.57,0.05-3.61,0.44-7.45,0.42l0.4,0.12
							c-2.09,0.39-1.76-0.22-3.84,0.07l-0.63-0.39c-1.38,0.1-4.84,0.38-7.32,0.46c1.4-0.29,4.3-0.44,6.1-0.62
							c-1.37,0-4.65,0.03-5.37,0.22c0.55-0.04,1.25-0.13,1.79-0.07c-1.68,0.31-3.89,0.46-6.62,0.46c0.48-0.77-7.11-0.19-9.09-0.79
							c-4.83,0.28-9.58-0.12-15.2-0.08c1.99,0.6-1.64,0.02-1.3,0.63c-1.31,0.04-1.81,0.03-1.93-0.01l-3.97-0.37
							c-0.94-0.18,1.25-0.13,1.13-0.27c-2.87-0.05-1.2-0.26-3.1-0.42c0.39,0.22-1,0.31-2.63,0.23l2.3,0.28
							c-4.01,0.33-3.46-0.51-7.51-0.19l1.28-0.19c-2.07,0.11-7.65,0-9.68,0.49c-0.37-0.07-0.85-0.24,0.06-0.28
							c-4.96-0.07-11.03,0.52-14.88,0.22l0.38-0.15c-0.92,0.04-1.61,0.28-2.77,0.13c0.06-0.06,0.37-0.15-0.06-0.16
							c-0.49,0.05-2.46,0.26-3.68,0.17l1.05-0.17c-4.83-0.2-7.42,0.41-11.47,0.51c0.01-0.44-3.79-0.58-5.69-0.65l0.07-0.06
							c-5.63-0.05-9.56,0.36-14.77,0.54c-3.24-0.48-10.96-0.2-16.16-0.47c0.79,0.08-0.13,0.34-1.05,0.39
							c-1.22-0.09-3.37,0.31-3.18-0.1l0.44,0.01c-0.92-0.4-3.43-0.29-5.39-0.3l-0.32,0.53c-5.12-0.77-13.42,0.28-16.21-0.41
							c-1.24,0.13-2.77,0.13-3.99,0.26l0.07-0.28c-3.42-0.07-5.13-0.11-9.37-0.04l0.86-0.2c-2.39-0.02-3.01,0.82-5.22,0.83
							l-0.66-0.42c-4.17,0.01-8.38-0.36-12.5,0.02c0.07-0.06,0.19-0.18,0.86-0.2c-1.96-0.01-7.58-0.29-6.87,0.29
							c-0.05-0.38-4.3-0.04-6.55,0.13l0.35-0.28c-1.9,0.36-1.96,0.45-4.61,0.55c-0.63-0.04-0.55-0.22,0.28-0.15
							c-2.09-0.15-1.63,0.26-4.17,0.12l0.95-0.18c-2.15-0.02-1.98,0.07-3.17,0.28c-1.35,0.11-4.09-0.07-4.4-0.32
							c-0.29,0.15-1.47,0.36-2.74,0.29c-0.17-0.1,0.29-0.15,0.52-0.18c-3.6-0.19-5.36,0.32-7.83,0.05
							c-0.05-0.09-0.21-0.14-0.42-0.17c2.86,0.01,5.17,0.02,4.95,0.04c0-0.26-2.31-0.3-0.47-0.66c-1.86,0.19-5.03,0.61-7.28,0.49
							c-0.11-0.02-0.22-0.05-0.3-0.09l0.23-0.03c-0.52-0.03-0.99,0-1.42,0.04c-0.72-0.04-1.18-0.07-1.87-0.08
							c-0.27-0.21-2.65-0.11-3.8-0.13c0.1,0.28-1.41,0.24,0,0.47c-0.18-0.02,0.22-0.03,0.98-0.05c0.17-0.01,0.38-0.01,0.49-0.03
							c-0.02,0.01-0.05,0.02-0.08,0.02c0.76-0.01,1.74-0.01,2.86-0.02c-0.91,0.14-1.86,0.26-3.14,0.11
							c-0.59,0.18-1.24,0.37-1.61,0.45c-1.58-0.39-4.62-0.6-5.04-0.85c-3.52,0.16-8.29,0.1-10.5,0.63c-1,0.07-1.15-0.15-1.52-0.23
							c0.58-0.05,1.26-0.04,1.58-0.12c-2,0.14-5.93,0.05-6.4,0.42c-2.52-0.17,1.42-0.34-2.05-0.28l0.47-0.11
							c-6.82-0.59-11.08,0.94-18.64,0.18c0.52,0.05,0.79,0.07,0.89,0.13c-8.62-0.33-17.75,0.31-26.26-0.22
							c-2.42-0.11-2.68,0.13-4.15,0.31l-0.52-0.3l-2.52,0.35c-3.58,0.26-6.19-0.74-10.72-0.26l0.58,0.2
							c-1.63-0.04-5.15,0.12-4.88-0.11c-0.17,0.04-0.53,0.21-1.17,0.11l-0.05-0.16l-3.99,0.27c-3.1-0.11,0.48-0.63-4.03-0.66
							c-1.68,0.06-4.78,0.46-4.15,0.57c0.68,0.01,1.73,0.1,1.78,0.26l-1.54,0.08c-0.28,0.47-1.46,0.94,2.31,1.27l2.63-0.28
							l0.85,0.23l-2.21,0.01c1.25,0.21,2.05,0.02,2.94-0.1c0.21,0.12,0.58,0.2,1.1,0.25l2.58-0.44c0.31,0.18-1.16,0.36,0.57,0.46
							c1.21-0.21-1.16-0.41,0.84-0.54c1.26,0.21,0.89,0.38,2.37,0.2c0.21,0.12-0.11,0.2-0.69,0.25c1.31-0.14,3.48-0.06,4.15-0.31
							c1.31,0.26,4.43-0.07,4.3,0.37c0.41-0.11,2.31-0.35,3.52-0.36c-2.2,0.53,4.52,0.03,3.93,0.6c1.63-0.47,5.89-0.21,8.78-0.47
							c-0.16,0.04-0.48,0.11-0.73,0.09c1.63,0.04,2.1,0.18,3.14,0.27c0.21-0.39,2.74-0.48,4.11-0.72c1.99,0.38-1.21,0.46-0.58,0.82
							c-0.1-0.32,3.46-0.32,2.78-0.58c1.52,0.23,1.31,0.11,2.1,0.44c0.27-0.49,1.42-0.08,2.68-0.38c2.21,0.24,0.57,0.46,2.99,0.31
							C55.57,236.42,53.42,236.6,53.42,236.6z M111.04,235.75C111.04,235.75,111.04,235.75,111.04,235.75
							c-0.5,0.01-0.92,0.02-1.19,0.02C110.1,235.77,110.44,235.76,111.04,235.75z M115.89,235.74c-0.59-0.01-1.32-0.01-2.1-0.01
							c-0.17-0.1,0.01-0.2,0.5-0.19C114.02,235.61,115.16,235.66,115.89,235.74z M105.64,233.8c0.77-0.04,1.02,0.02,1.13,0.07
							c-0.36,0-0.79,0.01-1.34,0.03c-0.02,0.01-0.07,0.02-0.09,0.03C105.41,233.88,105.5,233.83,105.64,233.8z"/>
						<path class="st12" d="M104.26,234.17c-0.11,0.01-0.17,0.02-0.32,0.02c0.16,0.02,0.31,0.05,0.46,0.06
							c0.09-0.03,0.19-0.06,0.27-0.09C104.54,234.16,104.39,234.16,104.26,234.17z"/>
						<path class="st12" d="M543.25,234.58l-0.1-0.01c0.08,0.01,0.16,0.02,0.21,0.04C543.3,234.6,543.3,234.59,543.25,234.58z"/>
						<polygon class="st12" points="182.76,236.28 182.75,236.21 182.33,236.27 						"/>
						<path class="st12" d="M569.93,235.55c0.05,0.02,0.15,0.05,0.35,0.07C570.26,235.6,570.11,235.57,569.93,235.55z"/>
						<path class="st12" d="M581.45,235.61l1.63,0.1C582.37,235.65,581.86,235.63,581.45,235.61z"/>
						<path class="st12" d="M590.31,235.75c0.11-0.05,0.14-0.09,0.17-0.12c-0.01,0-0.01,0-0.02,0L590.31,235.75z"/>
						<path class="st12" d="M449.46,236.08c-0.12,0-0.24,0.01-0.34,0.01C448.32,236.15,448.86,236.13,449.46,236.08z"/>
						<path class="st12" d="M491.37,235.42c-0.44,0.05-0.88,0.1-1.35,0.13C490.77,235.58,491.35,235.58,491.37,235.42z"/>
						<path class="st12" d="M402.66,236.42C402.66,236.42,402.66,236.42,402.66,236.42c-0.1,0-0.18,0-0.28,0L402.66,236.42z"/>
						<path class="st12" d="M488.08,235.55c0.75,0.06,1.37,0.04,1.95,0C489.41,235.54,488.69,235.51,488.08,235.55z"/>
						<path class="st12" d="M628.7,235.88l0.43,0.01c-0.01-0.02,0.02-0.03,0.05-0.05L628.7,235.88z"/>
						<path class="st12" d="M629.18,235.84l0.47-0.03C629.43,235.81,629.24,235.81,629.18,235.84z"/>
						<path class="st12" d="M630.65,235.74l-1,0.07C630,235.81,630.42,235.82,630.65,235.74z"/>
						<path class="st12" d="M616.97,235.75l-0.13,0.1C616.91,235.83,616.96,235.79,616.97,235.75z"/>
						<path class="st12" d="M613.41,235.78c0.85,0.02,2.13,0.22,3.32,0.15l0.11-0.08C616.28,236,614.22,235.6,613.41,235.78z"/>
						<path class="st12" d="M598.53,234.52l2.99,0.08c-0.52-0.11-1.21-0.25,0.15-0.28C597.91,233.99,602.45,234.56,598.53,234.52z"
							/>
						<path class="st12" d="M589.27,234.36c1.6-0.05-0.02-0.16,0.07-0.22C588.32,234.24,588.08,234.26,589.27,234.36z"/>
						<path class="st12" d="M522.36,234.36l0.16-0.26C521.29,234.14,522.51,234.2,522.36,234.36z"/>
						<polygon class="st12" points="509.57,235.68 510.77,235.84 511.35,235.6 						"/>
						<polygon class="st12" points="502.02,233.86 502.56,233.82 500.49,233.91 						"/>
						<path class="st12" d="M389.64,233.95l0.37,0.32C390.85,234.21,391.02,233.85,389.64,233.95z"/>
						<path class="st12" d="M341.12,234.27c-0.53-0.16-1.89-0.26-2.73-0.1C339.48,234.19,340.57,234.31,341.12,234.27z"/>
						<polygon class="st12" points="195.62,233.76 196.6,233.65 194.76,233.74 						"/>
					</g>
				</g>
			</g>
		</g>
	</g>
	<g>
		<g>
			<g>
				<g>
					<g>
						<path class="st12" d="M639.56,298.17c0.34-0.09,0.15-0.28-0.78-0.24l-0.66,0.33L639.56,298.17z"/>
						<path class="st12" d="M633.31,297.55c-1.09,0.16-2.35,0.44-1.64,0.75c1.08-0.32,1.34-0.19,2.51-0.56
							c0.93-0.04,1.62,0.11,1.46,0.23c0.33-0.08,1.44,0.07,1.94-0.14c-1.21-0.26-2.74-0.27-4.34-0.05
							C632.9,297.7,633.24,297.61,633.31,297.55z"/>
						<path class="st12" d="M542.57,297.04l0.58,0.04C542.99,297.05,542.79,297.04,542.57,297.04z"/>
						<path class="st12" d="M486.34,296.85c0.43-0.01,0.61-0.04,0.63-0.07C486.57,296.81,486.25,296.83,486.34,296.85z"/>
						<path class="st12" d="M476.74,296.49c0.21,0.01,0.38,0.02,0.57,0.02C477.09,296.48,476.87,296.47,476.74,296.49z"/>
						<path class="st12" d="M542.57,297.04l-1.5-0.1C540.96,297.04,541.83,297.01,542.57,297.04z"/>
						<path class="st12" d="M620.8,298.35c0.31-0.02,0.58-0.05,0.82-0.09c-0.26,0.01-0.51,0.03-0.77,0.04
							C620.84,298.32,620.82,298.33,620.8,298.35z"/>
						<path class="st12" d="M567.35,296.77l0.46,0c0.13-0.04,0.26-0.08,0.38-0.13L567.35,296.77z"/>
						<path class="st12" d="M586.37,296.72c-0.43-0.01-0.58,0.27-0.74,0.39c0.24-0.12,0.56-0.17,0.94-0.19
							C586.58,296.86,586.52,296.8,586.37,296.72z"/>
						<path class="st12" d="M616.54,297.21l0.54-0.04C616.93,297.19,616.7,297.2,616.54,297.21z"/>
						<path class="st12" d="M553.74,296.71c-0.03-0.04-0.1-0.08-0.17-0.1C553.56,296.64,553.63,296.68,553.74,296.71z"/>
						<path class="st12" d="M21.7,298.82c0.02-0.02-0.01-0.03,0-0.05C21.59,298.8,21.55,298.82,21.7,298.82z"/>
						<path class="st12" d="M-0.35,297.43l0.31-0.02c0.03-0.05,0.07-0.11,0.07-0.16L-0.35,297.43z"/>
						<path class="st12" d="M459.17,296.13c0.03,0,0.05,0,0.08,0.01C459.71,296.1,459.45,296.11,459.17,296.13z"/>
						<path class="st12" d="M297.89,296.34c1.83,0.25-2.97,0.32-0.22,0.6C297.41,296.83,300.17,296.5,297.89,296.34z"/>
						<path class="st12" d="M620.31,298.31c-0.26,0-0.52,0.01-0.78,0C619.88,298.33,620.12,298.32,620.31,298.31z"/>
						<path class="st12" d="M297.67,296.94C297.67,296.94,297.67,296.94,297.67,296.94l0.28,0.03
							C297.83,296.96,297.77,296.95,297.67,296.94z"/>
						<path class="st12" d="M418.69,296.3c0.08,0.05,0.24,0.09,0.41,0.12C419.09,296.39,419,296.36,418.69,296.3z"/>
						<path class="st12" d="M448.85,296.7l-0.75-0.04C448.4,296.69,448.64,296.7,448.85,296.7z"/>
						<path class="st12" d="M403.03,296.7c-0.41-0.02-0.54-0.06-1.1-0.02c0.05,0.01,0.1,0.02,0.17,0.03
							C402.31,296.67,402.57,296.65,403.03,296.7z"/>
						<path class="st12" d="M386.74,296.7c0.09,0.02,0.2,0.04,0.3,0.06c0.16-0.01,0.35-0.01,0.52-0.01L386.74,296.7z"/>
						<path class="st12" d="M71.23,298.68c-0.36-0.08-0.58-0.17-0.75-0.25C70.73,298.63,68.33,298.7,71.23,298.68z"/>
						<path class="st12" d="M620.79,298.19c-0.1,0.07-0.23,0.11-0.48,0.12c0.19,0,0.37-0.01,0.54-0.02
							C620.9,298.26,620.91,298.22,620.79,298.19z"/>
						<path class="st12" d="M402.37,298.91l-2.59-0.04C400.51,298.9,401.45,298.91,402.37,298.91z"/>
						<path class="st12" d="M188.15,298.64l-0.59,0.03C187.78,298.68,187.99,298.68,188.15,298.64z"/>
						<path class="st12" d="M392.1,298.91c-0.46-0.1-0.95-0.16-1.46-0.19c-0.11,0.02-0.23,0.04-0.3,0.07L392.1,298.91z"/>
						<path class="st12" d="M70.47,298.43C70.48,298.43,70.48,298.43,70.47,298.43C70.48,298.43,70.48,298.43,70.47,298.43z"/>
						<path class="st12" d="M53.42,299.1c2.47,0.01,1.16-0.36,1.68-0.57c2.94-0.1,1.36,0.27,2.37,0.46c1.84-0.1,3.25-0.44,4.62-0.42
							c0.1,0.06,0.37,0.08,0.06,0.16c1.94-0.29,5.77-0.01,8.04-0.38c0.17,0.03,0.25,0.06,0.3,0.09c-0.37-0.19-0.42-0.37-0.35-0.51
							c1.11-0.01,2.05-0.23,2.47,0.01c-0.68-0.01-0.73,0.09-1.05,0.17l1.16-0.1c1.04,0.35-1.58,0.12-1.58,0.38
							c2.26-0.11,4.89-0.4,6.63-0.3c0.36,0.34-4.05,0.11-1.74,0.42l-2.68-0.13c2.05,0.54-1.63-0.04,0.25,0.54
							c3.53,0.1,3.94-0.17,7.46-0.07c0.79-0.19-0.26-0.28,0.53-0.47c5-0.34,3.94,0.85,7.61,0.4c0.95-0.23,1.32-0.66,3.94-0.43
							l-0.89,0.38c3.41,0.04,1.95-0.55,5.52-0.29c-0.64,0.15-2.68,0.13-2.17,0.17c2.32,0.3,1.64-0.22,3.42-0.22l0.37,0.34
							c3.63-0.05,7.64-0.3,11.66-0.36c-0.22,0.1-0.91,0.21,0.03,0.31c5.08-0.17,10.84,0.04,15.74,0.24l1.87-0.29
							c0.43,0,0.81,0.13,0.34,0.19c1.91,0.11,0.1-0.19,1.02-0.3c1.09-0.02,1.43,0.17,0.75,0.26c3.37-0.25,9.59-0.54,13.14-0.22
							l-0.69,0.09c2.76,0.12,3.12-0.6,5.68-0.33l-0.49,0.05c6,0.13,12.62-0.14,17.2,0.3c0.87-0.42,5.94,0.19,6.32-0.4
							c3.42,0.29,2.44,0.4,7.27,0.59c1.29,0.03,1.92-0.37,3.51-0.43l0.04,0.31l2.16-0.32l1.15,0.37l1.49-0.08
							c-0.6-0.02-1.26-0.14-1.17-0.23c2.33-0.14,5.69,0.21,5.75,0.37l5.52-0.26c-0.12,0.12-1.05,0.17-1.78,0.25
							c2.95-0.31,0.54,0.32,3.24,0.04c-0.36-0.07,0.2-0.18,0.26-0.25c1.35,0.19,4.41,0.19,6.68,0.11l-0.44,0.21
							c4.09,0.05,8.63-0.1,13.23-0.1c-1.65-0.1-1.27-0.47,0.08-0.5l0.54,0.33c0.87-0.2-1.41-0.12,0.38-0.37
							c1.72,0.04,1.15,0.37,0.17,0.48l2.09-0.11c0.12,0.1-0.37,0.15-0.49,0.27c0.86-0.2,3.6,0.33,4.84-0.02l0.12,0.1
							c4.59,0,6.68-0.11,10.42-0.13c0.07-0.28,1.54-0.22,2.65-0.45c2.75,0.09,5.8,0.31,9.11,0.29c2.33-0.14,0.68-0.24,1.73-0.41
							c0.17,0.26,3.48,0.23,1.76,0.42c3.98-0.04,5.08-0.05,10.11-0.26c-0.55-0.1-1.16-0.15-0.84-0.24c0.91-0.04,2.08,0.11,1.95,0.23
							l-0.24,0.03c5.64-0.38,13.03,0.75,17.52,0.21l-0.25,0.03l4.66-0.28c2.14,0.04-1.29,0.19,0.3,0.35
							c5.03-0.43,7.94,0.06,12.09-0.22c3.21,0.76,11.37-0.05,15.7,0.43l-0.25-0.18c1.12-0.17,1.35,0.1,2.18,0.14
							c-0.12-0.14-1.21-0.16-0.52-0.26c9.47-0.21,19.55,0.26,29.26,0.42c3.55,0.05,2.02-0.92,6.49-0.5l-1.27,0.33
							c7.17-0.4,14.66,0.01,21.67-0.32c-0.42,0.08-0.43,0.18-1.12,0.17c1.48,0.24,5.48,0.01,5.51-0.18
							c1.09,0.02,0.25,0.18,0.93,0.28c1.49,0.14,3.73-0.31,4.52-0.07c0.13,0.04-0.42,0.08-0.69,0.1c0.97-0.12,4.51,0.03,3.59-0.25
							c2.63,0.13,5.04-0.12,7.14,0.04c1.37-0.31,4.51,0.15,4.94-0.29c-0.19,0.45,4.62,0.36,6.28,0.15
							c-0.56,0.14,1.45,0.14,0.79,0.33c1.9-0.01,3.64-0.09,3.31-0.32c3.5,0.54,7.04-0.44,9.01,0.26c5.64-0.24,10.87-0.41,15.95-0.51
							c-0.18,0.45-5.61,0.04-5.39,0.52c4.82-0.19,7.6-0.57,12.37-0.46c1.24,0.06-0.7,0.2-1.12,0.27c4.81-0.19,9.31,0.04,13.59-0.2
							c-0.01,0.04-0.47,0.09-0.91,0.12c0.84-0.01,1.96,0.07,1.87-0.14l-0.82,0.06c-1.35-0.3,3.35-0.62,3.5-0.78
							c-1.43,0.59,4.23,0.15,1.95,0.89c0.56-0.04,1.25-0.14,1.12-0.27c0.82,0.04,1.09,0.12,0.25,0.28c3.02-0.11,1.95-0.33,4.69-0.33
							c-0.01,0.1-0.56,0.14-0.85,0.25c1.39-0.19,2.78-0.39,5.09-0.3c-0.14,0.06,0.13,0.14-0.56,0.14c3.98-0.03,6.78-0.52,11.14-0.33
							c-1.29,0.43,1.48,0.14,1.71,0.52l2.34-0.11l-0.94-0.18c2.05,0.01,3.87-0.27,5.64-0.14l-1.53,0.15l3.85-0.07l-2.18-0.14
							c2.08-0.19-0.22-0.47,2.51-0.37c-0.56,0.04,2.05,0,3.13,0.22c0,0-0.01,0-0.01,0c1.02-0.12,2.06-0.24,3.58-0.15
							c0.39,0.12-0.32,0.41-0.06,0.49c1-0.31,4.81-0.09,6.08-0.42c-0.42,0.08-0.45,0.27-0.31,0.31l0.84-0.25
							c0.95,0.08,1.09,0.12,0.94,0.28c2.86,0.05-0.91-0.47,2.49-0.27c-0.27,0.02-0.14,0.06-0.69,0.1c3.41,0.11,6.59-0.16,9.73-0.04
							c0.92,0.38-2.74,0.09-1.68,0.41c4.52-0.07,9.36-0.45,13.73-0.36l-0.82-0.04c0.61-0.53,3.26,0.26,5.47,0.01
							c-0.54,0.04-0.71,0.29-0.56,0.24c3,0.09,6.12-0.13,10.66-0.3l-0.56,0.14c1.77,0.12,4.65,0.07,6.56,0.13
							c0.57-0.14,1.66-0.11,0.99-0.31c5.88,0.78,11.22-0.42,16.43,0.23c-0.62,0-1.49,0.12-0.99,0.12l4.44-0.13
							c-0.35-0.23-0.58-0.14-1.52-0.32c0.56-0.14,1.82-0.24,2.92-0.24c-2,0.15,0.02,0.37,0.88,0.5c-0.14-0.07,0.15-0.15,0.08-0.22
							c2.32,0.41,0.39-0.46,3.56-0.19l-0.17,0.12c1.19-0.06,2.28-0.22,3.56-0.19c0.53,0.27-1.26,0.12-1.34,0.34
							c1.8-0.02,3.54-0.51,5.17-0.24c-0.76,0.07-1.86,0.08-2.62,0.15c1.77,0.31,1.98,0.23,3.29,0.28l-0.13-0.01l3.04,0.14
							l-0.77-0.08c2.25-0.7,4.58-0.13,7.61-0.58c-2.94,0.43-0.49,0.25-0.71,0.55c0.77,0.08,1.95,0.18,1.61,0.26
							c1.43-0.24,2.39,0.19,4.41-0.16c0.09,0.1,1.53,0.01,1.21,0.25c1.86-0.08-0.44-0.17-0.28-0.29c2.87-0.33,6.74,0.4,10.87-0.05
							c3.56-0.19,4.22-0.52,7.52-0.68c1.11,0.16-0.91,0.36-0.91,0.36c1.8,0.14,3.15,0.12,4.84,0.01c-0.34,0.08,0.01,0.16,0.53,0.27
							c1.36-0.03,0.91-0.35,2.7-0.21c-0.31,0.11-0.7,0.28-1.36,0.39c1.6-0.09,3.18-0.27,4.84-0.36c0.44,0.17-1,0.26-1.59,0.37
							c1.86-0.08,4.83-0.15,5.41-0.42l-1.2-0.1c0.68-0.01,0.35,0.23-0.15,0.28c-1.6,0.21-2.3-0.09-2.39-0.19l1.18-0.06
							c-1.21-0.57-4.74,0.09-7.12,0.06l0.99-0.42l-2.44,0.35c-0.52-0.11-0.87-0.34,0.3-0.4c-1.7-0.21-1.51,0.15-2.97-0.08
							c-0.16-0.04-0.09-0.06,0.06-0.07l-1.67,0.12c0.33-0.09-0.28-0.29,0.75-0.23c-2.99-0.24-4.82,0.31-5.95,0l0.25-0.03
							c-4.15,0.14-0.4,0.31-3.51,0.66l-2.09-0.75l-0.41,0.31c-0.43-0.01-1.27-0.03-1.12-0.16c-1.59,0.21,0.27,0.13-0.65,0.33
							c-2.06-0.28-5.68,0.13-6.14-0.36c-0.74,0.23,1.97,0.18-0.23,0.34c-0.63-0.52-2.54,0.09-4.42-0.15
							c0.58-0.27,2.36-0.13,0.48-0.37c-1.14,0.46-3.66-0.1-5.25-0.01c-0.07,0.36-3.45,0.15-6.11,0.27c0.17-0.12-5.01-0.2-7.49-0.33
							l0.07-0.06c-0.48,0.37-3.04,0.3-4.9,0.37c0.07-0.22,0.41-0.31,1.42-0.4l-1.75,0c-0.41,0.12-0.96,0.18-2.09,0.22l0.44-0.27
							c-2.33,0.02-4.69,0.32-7.68,0.14c-0.17,0.26,2.38,0.71-0.79,0.88c-0.12-0.14-0.23-0.38,0.59-0.43
							c-0.27,0.02-0.97,0.11-1.52,0.06l1.27-0.23c-1.36-0.1-0.71,0.19-1.8,0.17c0.02-0.2-0.81-0.14-0.65-0.3
							c0.28-0.02,0.95,0.08,1.37,0c-1.23-0.04-2.72-0.15-3.21-0.3c0.11,0.11,0,0.27-0.9,0.29c-2.33,0.01-0.8-0.24-2.15-0.34
							c-0.56,0.14-2.05-0.01-2.09,0.29c-0.68,0-0.81-0.14-1.07-0.22c-1.2,0.13-5.63,0.04-4.27,0.35l0.31,0.02
							c-0.06,0.01-0.13,0.01-0.2,0.01c0.01,0,0,0,0.01,0h-0.01c-3.95,0.29-8.2-0.17-12.12-0.04l0.01-0.1
							c-2.34,0.11-5.21,0.07-6.88,0.28c-0.69,0-1.63-0.18-1.34-0.3c-1.79,0.07-1.99,0.19-4.57,0.02c1.8-0.17-0.62-0.15,1.84-0.13
							c-2.32-0.09-2.85-0.24-5.34,0.03c0.85-0.25-1.75-0.32-2.85-0.24l1.63,0.18c-1.24,0.04-2.33,0.01-3.43-0.01l0.6-0.33
							c-4.75-0.4-8.57,0.69-12.19,0.01c-1.26,0.23,2.58,0.16,1.46,0.44c-2.19-0.04-4.47-0.52-5.15-0.52c-3-0.18-2.8,0.49-5.93,0.36
							c0.4,0.12,0.78,0.44-1.56,0.55c-2.19-0.04-2.69-0.5-1.31-0.59c0.52-0.01,0.78,0.03,0.76,0.07c0.71-0.04,1.63-0.09,0.77-0.22
							l-0.28,0.12c-1.09-0.12-4.1-0.11-3.39-0.3c-1.65,0.11-0.71,0.19,0.52,0.26c-2.81-0.17-4.39-0.01-7.27-0.12
							c0.46,0.07,0.88,0.2,0.43,0.2c-4.24-0.15-1.87,0.23-4.74,0.28c-1.63-0.18,0.58-0.43-2.31-0.28c-1.77-0.12-0.37-0.31,0.33-0.41
							c-2.63,0.23-4.92-0.15-6.43-0.19l1.39-0.1c-0.83,0.06-1.51,0.06-2.2,0.05l0.79,0.24c-0.81-0.04-1.5-0.04-1.49-0.14
							c-0.84,0.16,0.64,0.39-1.02,0.61c-1.09-0.12-3.31,0.13-3.68-0.19c3.42,0.11-0.38-0.32,2.51-0.37
							c-0.56,0.04-1.24,0.04-2.05-0.01c-0.12-0.04,0.12-0.07,0.34-0.08c-3.27-0.28-1.5,0.36-4.89,0.35c0.43-0.18-0.79-0.34-1.34-0.3
							c1.36,0,0.65,0.3-0.6,0.43c-2.17-0.14-2.36,0.1-3.5,0.09l1.3,0.07c-0.44,0.18-1.53,0.15-3.04,0.21
							c-0.13-0.14,1.37-0.1,0.83-0.16c-1.68,0.31-3.8-0.32-6.14-0.11c-1.09-0.12-0.11-0.33-1.06-0.41
							c-2.63,0.23-2.84-0.24-5.61-0.05c0.8,0.24,0.93,0.18-1.01,0.41l4.54-0.17l-2.91,0.35c1.37,0,2.89-0.15,3.71-0.11
							c-1.39,0.19-1.25,0.14-0.59,0.33c-1.87-0.36-3.72,0.21-5.88-0.03l0.07-0.59c-3.26-0.26-5.79,0.3-10.02,0.15l1.36,0.1
							c-0.57,0.23-2.61,0.03-3.98,0.13c0.13-0.2-0.73-0.27-1.31-0.39c0.07,0.15-3.1-0.01-3.48,0.38l-1.89-0.26
							c-3.42-0.11-3.9,0.56-7.18,0.5c0.99-0.21-0.5-0.35,1.7-0.51c-1.1,0-2.08-0.04-2.1,0.1c-0.64-0.12-3.04,0.27-4.05,0.08
							c-0.46,0.09-0.61,0.29-1.84,0.28c-0.13-0.04,0-0.1,0-0.1c0,0.1-1.93,0.13-0.85,0.35c-3.38-0.62-9.44,0.04-12.38-0.48
							c-2.39,0.07-5.27,0.13-7.45,0.14c0.14-0.06,0.01-0.1,0.42-0.08c-3-0.18-1.84,0.57-5.25,0.36c-1.74-0.32,1.81-0.17,0.72-0.29
							c-0.47-0.65-4.11,0.09-6.41-0.29l0.56-0.04c-1.75-0.22-4.28,0.25-7.14,0.2c0,0,0.14-0.06,0.02-0.1
							c-1.96,0.33-5.67,0.44-8.42,0.53c0.86-0.25,1.25-0.13,0.73-0.39c-1.24,0.04,0.36,0.41-2.1,0.49c-0.8-0.14-2.58-0.26-2.82-0.54
							l2.33-0.01c-1.19-0.36-3.01,0.01-4.24-0.05l0.16-0.16c-3.57,0.05-3.61,0.44-7.45,0.42l0.4,0.12
							c-2.09,0.39-1.76-0.22-3.84,0.07l-0.63-0.39c-1.38,0.1-4.84,0.38-7.32,0.46c1.4-0.29,4.3-0.44,6.1-0.62
							c-1.37,0-4.65,0.03-5.37,0.22c0.55-0.04,1.25-0.13,1.79-0.07c-1.68,0.31-3.89,0.46-6.62,0.46c0.48-0.77-7.11-0.19-9.09-0.79
							c-4.83,0.28-9.58-0.12-15.2-0.08c1.99,0.6-1.64,0.02-1.3,0.63c-1.31,0.04-1.81,0.03-1.93-0.01l-3.97-0.37
							c-0.94-0.18,1.25-0.13,1.13-0.27c-2.87-0.05-1.2-0.26-3.1-0.42c0.39,0.22-1,0.31-2.63,0.23l2.3,0.28
							c-4.01,0.33-3.46-0.51-7.51-0.19l1.28-0.19c-2.07,0.11-7.65,0-9.68,0.49c-0.37-0.07-0.85-0.24,0.06-0.28
							c-4.96-0.07-11.03,0.52-14.88,0.22l0.38-0.15c-0.92,0.04-1.61,0.28-2.77,0.13c0.06-0.06,0.37-0.15-0.06-0.16
							c-0.49,0.05-2.46,0.26-3.68,0.17l1.05-0.17c-4.83-0.2-7.42,0.41-11.47,0.51c0.01-0.44-3.79-0.58-5.69-0.65l0.07-0.06
							c-5.63-0.05-9.56,0.36-14.77,0.54c-3.24-0.48-10.96-0.2-16.16-0.47c0.79,0.08-0.13,0.34-1.05,0.39
							c-1.22-0.09-3.37,0.31-3.18-0.1l0.44,0.01c-0.92-0.4-3.43-0.29-5.39-0.3l-0.32,0.53c-5.12-0.77-13.42,0.28-16.21-0.41
							c-1.24,0.13-2.77,0.13-3.99,0.26l0.07-0.28c-3.42-0.07-5.13-0.11-9.37-0.04l0.86-0.2c-2.39-0.02-3.01,0.82-5.22,0.83
							l-0.66-0.42c-4.17,0.01-8.38-0.36-12.5,0.02c0.07-0.06,0.19-0.18,0.86-0.2c-1.96-0.01-7.58-0.29-6.87,0.29
							c-0.05-0.38-4.3-0.04-6.55,0.13l0.35-0.28c-1.9,0.36-1.96,0.45-4.61,0.55c-0.63-0.04-0.55-0.22,0.28-0.15
							c-2.09-0.15-1.63,0.26-4.17,0.12l0.95-0.18c-2.15-0.02-1.98,0.07-3.17,0.28c-1.35,0.11-4.09-0.07-4.4-0.32
							c-0.29,0.15-1.47,0.36-2.74,0.29c-0.17-0.1,0.29-0.15,0.52-0.18c-3.6-0.19-5.36,0.32-7.83,0.05
							c-0.05-0.09-0.21-0.14-0.42-0.17c2.86,0.01,5.17,0.02,4.95,0.04c0-0.26-2.31-0.3-0.47-0.66c-1.86,0.19-5.03,0.61-7.28,0.49
							c-0.11-0.02-0.22-0.05-0.3-0.09l0.23-0.03c-0.52-0.03-0.99,0-1.42,0.04c-0.72-0.04-1.18-0.07-1.87-0.08
							c-0.27-0.21-2.65-0.11-3.8-0.13c0.1,0.28-1.41,0.24,0,0.47c-0.18-0.02,0.22-0.03,0.98-0.05c0.17-0.01,0.38-0.01,0.49-0.03
							c-0.02,0.01-0.05,0.02-0.08,0.02c0.76-0.01,1.74-0.01,2.86-0.02c-0.91,0.14-1.86,0.26-3.14,0.11
							c-0.59,0.18-1.24,0.37-1.61,0.45c-1.58-0.39-4.62-0.6-5.04-0.85c-3.52,0.16-8.29,0.1-10.5,0.63c-1,0.07-1.15-0.15-1.52-0.23
							c0.58-0.05,1.26-0.04,1.58-0.12c-2,0.14-5.93,0.05-6.4,0.42c-2.52-0.17,1.42-0.34-2.05-0.28l0.47-0.11
							c-6.82-0.59-11.08,0.94-18.64,0.18c0.52,0.05,0.79,0.07,0.89,0.13c-8.62-0.33-17.75,0.31-26.26-0.22
							c-2.42-0.11-2.68,0.13-4.15,0.31l-0.52-0.3l-2.52,0.35c-3.58,0.26-6.19-0.74-10.72-0.26l0.58,0.2
							c-1.63-0.04-5.15,0.12-4.88-0.11c-0.17,0.04-0.53,0.21-1.17,0.11l-0.05-0.16l-3.99,0.27c-3.1-0.11,0.48-0.63-4.03-0.66
							c-1.68,0.06-4.78,0.46-4.15,0.57c0.68,0.01,1.73,0.1,1.78,0.26l-1.54,0.08c-0.28,0.47-1.46,0.94,2.31,1.27l2.63-0.28
							l0.85,0.23l-2.21,0.01c1.25,0.21,2.05,0.02,2.94-0.1c0.21,0.12,0.58,0.2,1.1,0.25l2.58-0.44c0.31,0.18-1.16,0.36,0.57,0.46
							c1.21-0.21-1.16-0.41,0.84-0.54c1.26,0.21,0.89,0.38,2.37,0.2c0.21,0.12-0.11,0.2-0.69,0.25c1.31-0.14,3.48-0.06,4.15-0.31
							c1.31,0.26,4.43-0.07,4.3,0.37c0.41-0.11,2.31-0.35,3.52-0.36c-2.2,0.53,4.52,0.03,3.93,0.6c1.63-0.47,5.89-0.21,8.78-0.47
							c-0.16,0.04-0.48,0.11-0.73,0.09c1.63,0.04,2.1,0.18,3.14,0.27c0.21-0.39,2.74-0.48,4.11-0.72c1.99,0.38-1.21,0.46-0.58,0.82
							c-0.1-0.32,3.46-0.32,2.78-0.58c1.52,0.23,1.31,0.11,2.1,0.44c0.27-0.49,1.42-0.08,2.68-0.38c2.21,0.24,0.57,0.46,2.99,0.31
							C55.57,298.92,53.42,299.1,53.42,299.1z M111.04,298.25C111.04,298.25,111.04,298.25,111.04,298.25
							c-0.5,0.01-0.92,0.02-1.19,0.02C110.1,298.27,110.44,298.26,111.04,298.25z M115.89,298.24c-0.59-0.01-1.32-0.01-2.1-0.01
							c-0.17-0.1,0.01-0.2,0.5-0.19C114.02,298.11,115.16,298.16,115.89,298.24z M105.64,296.3c0.77-0.04,1.02,0.02,1.13,0.07
							c-0.36,0-0.79,0.01-1.34,0.03c-0.02,0.01-0.07,0.02-0.09,0.03C105.41,296.38,105.5,296.33,105.64,296.3z"/>
						<path class="st12" d="M104.26,296.67c-0.11,0.01-0.17,0.02-0.32,0.02c0.16,0.02,0.31,0.05,0.46,0.06
							c0.09-0.03,0.19-0.06,0.27-0.09C104.54,296.66,104.39,296.66,104.26,296.67z"/>
						<path class="st12" d="M543.25,297.08l-0.1-0.01c0.08,0.01,0.16,0.02,0.21,0.04C543.3,297.1,543.3,297.09,543.25,297.08z"/>
						<polygon class="st12" points="182.76,298.78 182.75,298.71 182.33,298.77 						"/>
						<path class="st12" d="M569.93,298.05c0.05,0.02,0.15,0.05,0.35,0.07C570.26,298.1,570.11,298.07,569.93,298.05z"/>
						<path class="st12" d="M581.45,298.11l1.63,0.1C582.37,298.15,581.86,298.13,581.45,298.11z"/>
						<path class="st12" d="M590.31,298.25c0.11-0.05,0.14-0.09,0.17-0.12c-0.01,0-0.01,0-0.02,0L590.31,298.25z"/>
						<path class="st12" d="M449.46,298.58c-0.12,0-0.24,0.01-0.34,0.01C448.32,298.65,448.86,298.63,449.46,298.58z"/>
						<path class="st12" d="M491.37,297.92c-0.44,0.05-0.88,0.1-1.35,0.13C490.77,298.08,491.35,298.08,491.37,297.92z"/>
						<path class="st12" d="M402.66,298.92C402.66,298.92,402.66,298.92,402.66,298.92c-0.1,0-0.18,0-0.28,0L402.66,298.92z"/>
						<path class="st12" d="M488.08,298.05c0.75,0.06,1.37,0.04,1.95,0C489.41,298.04,488.69,298.01,488.08,298.05z"/>
						<path class="st12" d="M628.7,298.38l0.43,0.01c-0.01-0.02,0.02-0.03,0.05-0.05L628.7,298.38z"/>
						<path class="st12" d="M629.18,298.34l0.47-0.03C629.43,298.31,629.24,298.31,629.18,298.34z"/>
						<path class="st12" d="M630.65,298.24l-1,0.07C630,298.31,630.42,298.32,630.65,298.24z"/>
						<path class="st12" d="M616.97,298.25l-0.13,0.1C616.91,298.33,616.96,298.29,616.97,298.25z"/>
						<path class="st12" d="M613.41,298.28c0.85,0.02,2.13,0.22,3.32,0.15l0.11-0.08C616.28,298.5,614.22,298.1,613.41,298.28z"/>
						<path class="st12" d="M598.53,297.02l2.99,0.08c-0.52-0.11-1.21-0.25,0.15-0.28C597.91,296.49,602.45,297.06,598.53,297.02z"
							/>
						<path class="st12" d="M589.27,296.86c1.6-0.05-0.02-0.16,0.07-0.22C588.32,296.74,588.08,296.76,589.27,296.86z"/>
						<path class="st12" d="M522.36,296.86l0.16-0.26C521.29,296.64,522.51,296.7,522.36,296.86z"/>
						<polygon class="st12" points="509.57,298.18 510.77,298.34 511.35,298.1 						"/>
						<polygon class="st12" points="502.02,296.36 502.56,296.32 500.49,296.41 						"/>
						<path class="st12" d="M389.64,296.45l0.37,0.32C390.85,296.71,391.02,296.35,389.64,296.45z"/>
						<path class="st12" d="M341.12,296.77c-0.53-0.16-1.89-0.26-2.73-0.1C339.48,296.69,340.57,296.81,341.12,296.77z"/>
						<polygon class="st12" points="195.62,296.26 196.6,296.15 194.76,296.24 						"/>
					</g>
				</g>
			</g>
		</g>
	</g>
</g>
<g id="clouds">
	<path class="st4" d="M0,0.06c0.77-0.09,4.17-0.38,6.98,1.95C8.21,3.03,8.9,4.19,9.28,4.99C10.74,4.36,16,2.3,22.11,4.3
		c8.92,2.92,11.53,11.81,11.69,12.38c1.39,5.04,0.14,9.3-0.46,11c1.59-0.1,3.58,0,5.73,0.69c7.49,2.4,10.49,9.89,11,11.23
		c0.36-0.47,4.38-5.41,11-5.04c4.17,0.23,8.29,2.51,10.31,6.19c1.91,3.48,1.41,7.21,1.15,9.17c-0.25,1.86-0.75,3.35-1.15,4.36
		c0.78-0.44,3.27-1.7,6.42-1.15c3.87,0.68,5.9,3.61,6.42,4.36c3.63,5.23,0.9,11.67,0.69,12.15c0,9.14,0-9.23,0-0.09
		c-28.31,0-56.61,0-84.92,0C0,37.21,0,32.39,0,0.06z"/>
	<path class="st4" d="M640,19.4c-0.99-0.58-2.93-1.53-5.48-1.51c-0.56,0-4.95,0.11-7.88,3.69c-1.31,1.6-1.8,3.26-2.01,4.19
		c-1.54-1.52-4.61-4.13-9.22-5.53c-1.71-0.52-9.2-2.79-16.42,1.51c-9.13,5.43-9.38,16.32-9.38,16.92c-0.02,2.6,0.52,4.75,1.01,6.2
		c-2.23-0.71-6.76-1.77-11.9-0.17c-5.27,1.64-11.43,6.17-12.57,12.9c-0.43,2.55-0.02,4.71,0.34,6.03c24.5,0,49.01,0,73.51,0
		C640,48.89,640,34.14,640,19.4z"/>
	<path class="st4" d="M427.29,44.81c19.84,0,41.39,0,61.23,0c0.4-0.72,1.23-5.42-0.75-10.56c-1.85-4.82-7.06-8.49-12.48-7.68
		c-5.09,0.76-7.76,5.09-8.16,5.76c0.08-0.61,0.96-7.98-4.32-12.48c-5.3-4.52-13.58-3.38-18.24,0.96c-3.53,3.29-4.17,7.64-4.32,9.12
		c-4.95-2.49-10.56-1.84-13.92,1.44c-2.78,2.72-3.07,6.32-3.12,7.44c-0.74-0.31-7.29-2.93-12.96,0.72c-2.35,1.51-3.65,3.53-4.32,4.8
		C413.05,44.49,420.17,44.65,427.29,44.81z"/>
	<path class="st4" d="M111.53,32.86c15.08,0,31.46,0,46.55,0c0.31-0.55,0.94-4.12-0.57-8.03c-1.41-3.66-5.37-6.45-9.49-5.84
		c-3.87,0.58-5.9,3.87-6.2,4.38c0.06-0.46,0.73-6.07-3.28-9.49c-4.03-3.44-10.32-2.57-13.87,0.73c-2.69,2.5-3.17,5.81-3.28,6.93
		c-3.76-1.89-8.03-1.4-10.58,1.09c-2.11,2.07-2.34,4.81-2.37,5.66c-0.56-0.23-5.54-2.23-9.85,0.55c-1.79,1.15-2.78,2.68-3.28,3.65
		C100.7,32.61,106.12,32.74,111.53,32.86z"/>
	<path class="st4" d="M325.61,57.37c12.49,0,26.05,0,38.54,0c0.25-0.45,0.78-3.41-0.47-6.65c-1.17-3.03-4.45-5.34-7.86-4.83
		c-3.2,0.48-4.89,3.21-5.14,3.63c0.05-0.38,0.6-5.02-2.72-7.86c-3.34-2.85-8.54-2.13-11.48,0.6c-2.22,2.07-2.63,4.81-2.72,5.74
		c-3.11-1.56-6.65-1.16-8.76,0.91c-1.75,1.71-1.93,3.98-1.96,4.68c-0.46-0.19-4.59-1.84-8.16,0.45c-1.48,0.95-2.3,2.22-2.72,3.02
		C316.65,57.17,321.13,57.27,325.61,57.37z"/>
</g>
</svg>
