<?xml version="1.0" encoding="utf-8"?>
<!-- Generator: Adobe Illustrator 23.0.3, SVG Export Plug-In . SVG Version: 6.00 Build 0)  -->
<svg version="1.1" id="clickHorse" xmlns="http://www.w3.org/2000/svg" xmlns:xlink="http://www.w3.org/1999/xlink" x="0px" y="0px"
	 viewBox="0 0 60 65" style="enable-background:new 0 0 60 65;" xml:space="preserve">
<style type="text/css">
	.st0{fill:#131F29;}
	.st1{fill:#D69B3A;}
	.st2{fill:none;stroke:#D69B3A;stroke-width:1.7008;stroke-miterlimit:10;}
	.st3{fill:#FFFFFF;stroke:#121F29;stroke-width:0.8504;stroke-miterlimit:10;}
</style>
<g id="horse">
	<path class="st0" d="M5.9,36c-0.5,0.7-0.6,1.3-0.1,2.1c0.6-0.3,0.9-0.8,1-1.4c0-0.1,0-0.2,0.1-0.3C6.6,36.3,6.3,36.2,5.9,36
		C6,36,5.9,36,5.9,36z"/>
	<path class="st0" d="M49.8,13.7c-0.4-0.7-0.9-1.3-1.4-2c-0.7-0.9-1.4-1.9-2.1-2.8c-0.3-0.4-0.7-0.7-0.9-1.2
		c-0.2-0.3-0.4-0.6-0.7-0.8c-0.3-0.2-1.1-0.3-1.6-0.1c-0.9,0.3-1.1,0.6-2.3,1.7c-3.1,2.5-3.2,2.9-5,4c-0.5,0.3-1.2,0.8-2,1.2
		c0.8-0.4,1.5-0.9,2-1.2c1.8-1.1,1.9-1.5,5-4c1.3-1,1.5-1.4,2.3-1.7c0.5-0.2,1.3-0.2,1.6,0.1c-0.6-0.5-1.3-0.7-1.9-1c0,0,0,0,0,0
		c-0.2,0-1.5-0.3-1.6-0.3c0,0,0.1,0.1,0.4,0.3c0.4,0.2,1,0.6,1,0.6c-0.5,0-1.7-0.1-2.8-0.2c-1.4-0.2-2-0.5-2-0.5c0,0,1,0.9,1.4,1.1
		c0.1,0,0.1,0.1,0.2,0.1l-0.8-0.1l-0.5-0.1l-0.2,0l-0.1,0l-0.1,0l-0.2,0l-0.2-0.1l-0.2-0.1l-0.1-0.1L37,6.3l0-0.1l-0.1-0.1
		c-0.1,0.5,0.4,0.9,0.7,1.1c0.5,0.4,0.9,0.5,1,0.6C38.3,8,38,8,37.6,8.1c-0.2,0-0.5,0.1-0.7,0.1c0,0-0.1,0-0.3,0
		c-0.1,0-0.2,0-0.2-0.1c-0.2-0.1-0.3-0.1-0.3-0.1s0.1,0.1,0.2,0.2c0.1,0.1,0.3,0.2,0.3,0.2c0.1,0,0.2,0.1,0.2,0.1c0.1,0,0.2,0,0.4,0
		c0.1,0,0.2,0,0.3,0l1.8,0c-0.3,0.1-0.5,0.1-0.8,0.2c-0.3,0-0.6,0.1-0.9,0.2C37.4,8.8,37.2,8.9,37,9c0.2,0.1,0.3,0.1,0.6,0.2
		c-0.9,0.2-1.7,0.3-2.4,0.9c0.8,0.1,1.5,0.2,2.2,0.2c0,0,0,0.1,0,0.1c-0.7,0.1-1.4,0.1-2.2,0.2c-0.2,0-0.4,0.1-0.6,0.1
		c0.2,0,1.1,0.1,1.4,0.2C35.6,11,35,11.1,35,11.1c-0.8,0.1-1.6,0.2-2.4,0c0,0,0.1,0,0.1,0.1c0.6,0.5,1.3,0.5,1.9,0.8
		c-0.7,0.1-1.4,0.1-2,0.2c-0.1,0-0.2,0-0.3,0c0,0,0,0,0,0.1c0,0,0,0.1,0,0.1c0.3,0.2,0.6,0.3,0.9,0.5c0,0,0.1,0.1,0.1,0.1
		c0,0,0,0,0,0c0,0,0,0.1,0.1,0.1c0,0.1,0,0.2,0,0.2c-0.1,0.2-0.2,0.3-0.3,0.4l0,0c0,0,0,0,0,0c0,0,0,0,0,0c0,0,0,0,0,0
		c-0.1,0.2-0.3,0.3-0.5,0.5c0-0.1-0.1-0.2-0.1-0.2c0,0,0-0.2-0.1-0.3c0,0-0.5-0.2-0.5-0.2c0,0,0,0,0,0c0,0,0,0,0,0c0,0,0,0,0,0v0
		c0,0,0,0,0,0s-1.5-1.3-1.5-1.3c-0.2-0.1-0.2-0.3-0.2-0.5c0.1-0.4,0.5-1.5,0.6-1.8c0.1-0.5,0-0.6-0.1-0.8c0-0.2-0.6-1.1-0.9-1.7
		c0,0,0-0.4,0-0.4c0,0,0,0,0-0.1c0,0,0,0,0,0h0c0,0,0,0,0-0.1c0-0.1,0-0.3,0.1-0.4c0.1-0.1,0.1-0.2,0.3-0.1c0.2,0,0.4-0.1,0.6-0.2
		C30.9,6.1,30.9,6,31,5.9c0.2-0.4,0.3-0.8,0.3-1.2l0,0v0c0.3,0,0.5-0.1,0.7-0.2c0.1-0.1,0.2-0.2,0.2-0.4c0-0.2-0.1-0.2-0.3-0.3
		c-0.1,0-0.3-0.1-0.4-0.1c0,0,0,0,0,0c0,0,0,0,0,0c0,0,0-0.1,0-0.1c0,0,0-0.1,0-0.1c0.1-0.2,0.2-0.5,0.3-0.7c0,0,0,0,0,0
		c0,0,0,0,0,0c0,0,0.1-0.1,0.1-0.1c0.1-0.1,0.1-0.2,0.1-0.2c0,0,0-0.1,0-0.1c0,0-0.1-0.1-0.1-0.1c0,0,0,0-0.1,0c0,0-0.1,0-0.1-0.1
		c-0.5-0.2-1-0.4-1.5-0.6c-0.1,0-0.2-0.1-0.3-0.1c-0.1,0-0.2-0.1-0.3-0.1c0,0,0,0-0.1,0c0,0,0,0,0,0c-0.1,0-0.1,0.1-0.1,0.2
		c-0.1,0.4-0.2,0.8-0.4,1.2c0,0,0,0,0,0s0,0,0,0c-0.1-0.1-0.2-0.1-0.3-0.1c0,0,0,0,0,0c-0.1,0-0.1-0.1-0.2-0.1
		c-0.3-0.1-0.6,0-0.6,0.3c0,0,0,0.1,0,0.1C28,2.9,28,3,28,3c0,0.2,0.1,0.4,0.2,0.5c0,0,0,0,0,0c0,0,0,0,0,0
		c-0.1,0.3-0.1,0.6,0.2,0.7c-0.1,0.3,0,0.6,0.1,0.9c0,0,0,0,0,0c0,0.1,0.1,0.1,0.1,0.2c0,0,0,0,0,0c0,0,0,0.1,0.1,0.1l0,0v0
		c0,0.1-0.1,0.2-0.1,0.2v0v0c0,0,0,0,0,0c0,0,0,0,0,0c-0.3,0.1-0.3,0.5-0.4,0.6c-0.2,0.4-0.9,1.7-0.9,1.7c0,0,0,0.1,0,0.1
		c-0.3,0.7-0.2,1.4-0.2,2.1c0,0.3,0,0.7,0.1,1c0,0.1,0,0.3,0,0.4c0,0.1,0,0.2,0,0.3c0,0.1,0,0.1-0.1,0.1c0,0-0.1,0.1-0.2,0.1
		c-0.1,0.1-0.3,0.1-0.4,0.2c0,0,0,0,0,0c-0.4,0.3-0.7,0.7-0.9,1.1c-0.1,0.2-0.2,0.3-0.3,0.5c-0.3,0.4-0.7,0.6-1.2,0.6c0,0,0,0,0,0
		c0,0,0,0,0,0v0v0c0,0-0.2,0-0.3-0.1c-0.9-0.2-1.8-0.6-2.8-0.7c-1.9-0.3-3.6,0.1-5.3,0.8c-0.3,0.1-1,1.1-1.2,1.3c0,0,0,0,0,0
		c-0.4,0.4-0.8,0.3-1.6,0.1c-1-0.3-2-0.7-3-1c-1.8-0.5-3.5,0-5.1,0.8c-0.8,0.4-1.5,0.9-2.1,1.5c-0.7,0.7-1.2,1.5-1.3,2.7
		c0.5-0.6,0.7-1.4,1.6-1.7c-0.2,0.5-0.5,1-0.7,1.4c0.1,0.1,0.1,0.1,0.1,0.1c1.3-1,2.6-1.7,4.2-1.4c-0.4,0.2-0.9,0.2-1.3,0.4
		c-0.4,0.2-0.8,0.4-1.1,0.6c-0.4,0.2-0.9,0.4-1,1c1.6-0.9,3.2-1.1,4.9-1.1c0,0.1,0,0.1,0.1,0.2c-0.3,0.1-0.5,0.2-0.8,0.3
		c0,0.1,0,0.1,0,0.1c0.7-0.1,1.5-0.2,2.3-0.3c-0.3,0.6-0.2,1.1,0.4,1.4c0.1-0.3,0.1-0.6,0.2-0.8c0.1-0.2,0.2-0.4,0.4-0.5
		c0.7-0.2,1.4-0.3,2.1-0.4c0,0.2-0.1,0.5-0.1,0.7c0,1,0,2,0,3c0,1.1-0.3,2.1-1.1,2.9c-0.6,0.6-1.4,1.2-2.2,1.5
		c-0.3,0.1-0.5,0.3-0.6,0.6c-0.8,1.6-1.5,3.1-2.2,4.7c-0.4,0.9-0.9,1.8-0.8,2.8c0,0.1-0.1,0.2-0.1,0.3c0.3,0.1,0.6,0.3,1,0.4
		c0.3-1.6,0.9-3.1,1.9-4.4c0.3-0.4,0.7-0.8,1-1.3c0.6-0.9,1.4-1.5,2.4-1.9c0.6-0.3,1.2-0.6,1.8-0.9c0.6-0.3,1.1-0.5,1.7-0.8
		c0.1,0.1,0.1,0.1,0.1,0.1c-0.5,0.8-0.9,1.7-1.4,2.5c-0.3,0.4-0.4,0.8-0.3,1.3c0.1,0.5,0.3,0.9,0.5,1.3c0.6,1.4,1.3,2.8,1.9,4.2
		c0.2,0.5,0.4,0.9,1,0.7c0.3-0.1,0.5,0,0.7,0.1c0,0,0,0,0,0c0.1,0.1,0.2,0.3,0.3,0.5c0,0.1,0.2,0.3,0.3,0.3c0.5,0,0.9,0,1.4,0
		c0-0.1,0.1-0.1,0.1-0.2c-0.4-0.5-0.7-1-1.2-1.4h0c-0.1-0.1-0.2-0.1-0.3-0.1c-0.4-0.2-0.7-0.5-1-0.7c-0.7-0.5-0.8-1.3-1.2-2
		c-0.4-0.7-0.6-1.4-0.6-2.2c0-0.8,0.3-1.5,1-2c1.4-1.2,2.3-2.8,3.7-3.8c0.1-0.1,0.1-0.2,0.2-0.2c0.5-0.6,0.9-1.1,1.3-1.6
		c1,0.4,2.1,0.9,3.2,1.3c1.3,0.5,2.5,0.9,3.9,0.9c1.6,0,3.2,0.2,4.8,0.2c0.7,0,1.1,0.2,1.5,0.7c0.9,1,1.5,2,1.9,3.3
		c0.1,0.4,0.4,0.8,0.7,1.1c0.7,1,1.3,2,1.5,3.2c0.1,0.7,0.4,1.3,1.1,1.8c0.1,0.1,0.2,0.2,0.3,0.4h0c0.1,0.1,0.1,0.2,0.2,0.3
		c0.1,0.2,0.3,0.5,0.5,0.5c0.5,0.1,1,0,1.6,0c-0.2-0.7-0.6-1.1-1.1-1.4c0,0,0,0,0,0h0c-0.6-0.3-0.8-0.9-1-1.5
		c-0.3-0.8-0.6-1.5-0.9-2.3c-0.3-0.6-0.6-1.2-0.8-1.8c-0.2-0.6-0.3-1.3-0.6-2c-0.3-1-0.6-1.9-0.6-2.9c1.6-0.7,3.3-0.5,4.8-0.4
		c0.5,0.9,0.6,1.9,0.6,2.9c0,0.5,0.1,1,0.2,1.5c0,0.3,0.1,0.7-0.1,1l0,0c0,0,0,0,0,0c-0.6,1-0.5,1.6,0.6,2.2
		c0.2-0.4,0.4-0.8,0.5-1.3l0,0c0-0.1,0-0.1,0.1-0.2c0.3-1.7,0.1-3.4-0.2-5c-0.1-0.8-0.3-1.5-0.6-2.3c-0.3-0.8-1.5-1.5-2-1.3
		c-1,0.5-1.7-0.2-2.7-0.4c0.2-0.5,0.3-1,0.5-1.4c0.5-0.7,0.8-1.5,0.8-2.4c0-0.3,0.1-0.7,0.1-1c0.1-0.3,0.1-0.5,0.2-0.8
		c0.2-0.6,0.4-1.2,0.6-1.8c0.3-0.8,0.6-1.4,0.6-1.5c0.2-0.1,0.5-0.3,0.7-0.3c0.6,0.2,1.1,0.4,1.8,0.7c-0.1,0,1.9,1.5,2.4,2
		c0.2,0.2,0.6,0.1,0.9,0.1c0.1,0,0.2-0.2,0.4-0.2C50,15.7,50.4,14.6,49.8,13.7z M14.4,16.1c0,0-0.1,0.1-0.1,0.1
		C14.3,16.2,14.3,16.2,14.4,16.1z M31.4,14.4C31.4,14.4,31.4,14.4,31.4,14.4C31.4,14.4,31.4,14.4,31.4,14.4z"/>
</g>
<circle id="circle-in" class="st1" cx="38" cy="24.3" r="6.5"/>
<circle id="circle-out" class="st2" cx="38" cy="24.3" r="10.9"/>
<path id="hand" class="st3" d="M58,40.2c-0.5-0.7-1.3-0.9-1.8-1c-1-0.2-2.5,0.1-3.2,0.8c0,0,0,0,0,0c-0.1,0.1-0.1,0.2-0.2,0.3l0,0
	c0-0.3,0-0.8-0.2-1.4c-0.1-0.3-0.3-0.8-0.7-1.2c-1-1-2.6-0.7-2.8-0.6c-0.1,0-0.4,0.1-0.7,0.2c-0.9,0.4-1.3,1-1.5,1.1
	c0-0.1,0-0.2,0-0.2c0-0.1,0-0.3-0.1-0.6c-0.2-0.9-0.8-1.4-1.1-1.6c-1.2-0.9-2.6-0.6-2.8-0.6c-0.7,0.2-1.6,0.8-2,1.2
	c0-3.8,0-7.7,0-11.5c-0.1-0.3-0.5-1.1-1.3-1.6c-1.4-0.9-3-0.1-3.2,0c-0.3,0.1-1.1,0.5-1.4,1.4C35,25.4,35,25.8,35,26.1
	c0,2.9,0,5.8,0,8.7c0,4.7,0,10.1,0,14.8l0,0.1c-1.9-2.1-3.6-4-4.5-5.2c-1.9-2.4-2.7-4-4.6-4.1c-0.1,0-1.8,0-2.8,1.2
	c-1,1.3-1,3,0.3,4.9c0,0.1,0.1,0.1,0.1,0.2c3.4,4.8,8.5,10.9,12.3,16.2c0.1,0.1,0.3,0.6,0.9,0.8c0.3,0.1,0.5,0.1,0.7,0.1h15.4
	c0.1,0,0.1,0,0.2,0c0.3,0,0.7-0.1,1.1-0.3c0,0,0.6-0.2,1.1-0.7c0.3-0.2,2.6-2.6,3.1-8.4c0.1-0.6,0.1-1.1,0.1-1.4c0-3.9,0-7.8,0-11.7
	C58.4,41.1,58.3,40.6,58,40.2z"/>
</svg>
